<?xml version="1.0" encoding="us-ascii" standalone="no"?><svg xmlns="http://www.w3.org/2000/svg" xmlns:xlink="http://www.w3.org/1999/xlink" contentStyleType="text/css" height="125px" preserveAspectRatio="none" style="width:3423px;height:125px;background:#FFFFFF;" version="1.1" viewBox="0 0 3423 125" width="3423px" zoomAndPan="magnify"><defs/><g><!--cluster Placeholder_5--><g id="cluster_Placeholder_5"><polygon fill="none" points="1395,16,1405,6,3406,6,3406,98,3396,108,1395,108,1395,16" style="stroke:#181818;stroke-width:1.0;"/><line style="stroke:#181818;stroke-width:1.0;" x1="3396" x2="3406" y1="16" y2="6"/><line style="stroke:#181818;stroke-width:1.0;" x1="1395" x2="3396" y1="16" y2="16"/><line style="stroke:#181818;stroke-width:1.0;" x1="3396" x2="3396" y1="16" y2="108"/><text fill="#000000" font-family="sans-serif" font-size="14" font-weight="bold" lengthAdjust="spacing" textLength="110" x="2341.5" y="31.9951">Placeholder_5</text></g><!--entity aName--><g id="elem_aName"><a href="yidongnan-spring-cloud-netflix-example.system#_6ZMzgL_dEe6gHYIKAowmKA" target="_top" title="yidongnan-spring-cloud-netflix-example.system#_6ZMzgL_dEe6gHYIKAowmKA" xlink:actuate="onRequest" xlink:href="yidongnan-spring-cloud-netflix-example.system#_6ZMzgL_dEe6gHYIKAowmKA" xlink:show="new" xlink:title="yidongnan-spring-cloud-netflix-example.system#_6ZMzgL_dEe6gHYIKAowmKA" xlink:type="simple"><rect fill="#F1F1F1" height="46.2969" rx="2.5" ry="2.5" style="stroke:#181818;stroke-width:0.5;" width="88" x="1411" y="46"/><rect fill="#F1F1F1" height="10" style="stroke:#181818;stroke-width:0.5;" width="15" x="1479" y="51"/><rect fill="#F1F1F1" height="2" style="stroke:#181818;stroke-width:0.5;" width="4" x="1477" y="53"/><rect fill="#F1F1F1" height="2" style="stroke:#181818;stroke-width:0.5;" width="4" x="1477" y="57"/><text fill="#000000" font-family="sans-serif" font-size="14" lengthAdjust="spacing" textLength="48" x="1426" y="78.9951">aName</text></a></g><!--entity Placeholder_13--><g id="elem_Placeholder_13"><polygon fill="#F1F1F1" points="16,56,26,46,162,46,162,82.2969,152,92.2969,16,92.2969,16,56" style="stroke:#181818;stroke-width:0.5;"/><line style="stroke:#181818;stroke-width:0.5;" x1="152" x2="162" y1="56" y2="46"/><line style="stroke:#181818;stroke-width:0.5;" x1="16" x2="152" y1="56" y2="56"/><line style="stroke:#181818;stroke-width:0.5;" x1="152" x2="152" y1="56" y2="92.2969"/><text fill="#000000" font-family="sans-serif" font-size="14" lengthAdjust="spacing" textLength="106" x="31" y="78.9951">Placeholder_13</text></g><!--entity Placeholder_6--><g id="elem_Placeholder_6"><polygon fill="#F1F1F1" points="197.5,56,207.5,46,334.5,46,334.5,82.2969,324.5,92.2969,197.5,92.2969,197.5,56" style="stroke:#181818;stroke-width:0.5;"/><line style="stroke:#181818;stroke-width:0.5;" x1="324.5" x2="334.5" y1="56" y2="46"/><line style="stroke:#181818;stroke-width:0.5;" x1="197.5" x2="324.5" y1="56" y2="56"/><line style="stroke:#181818;stroke-width:0.5;" x1="324.5" x2="324.5" y1="56" y2="92.2969"/><text fill="#000000" font-family="sans-serif" font-size="14" lengthAdjust="spacing" textLength="97" x="212.5" y="78.9951">Placeholder_6</text></g><!--entity Placeholder_0--><g id="elem_Placeholder_0"><polygon fill="#F1F1F1" points="369.5,56,379.5,46,506.5,46,506.5,82.2969,496.5,92.2969,369.5,92.2969,369.5,56" style="stroke:#181818;stroke-width:0.5;"/><line style="stroke:#181818;stroke-width:0.5;" x1="496.5" x2="506.5" y1="56" y2="46"/><line style="stroke:#181818;stroke-width:0.5;" x1="369.5" x2="496.5" y1="56" y2="56"/><line style="stroke:#181818;stroke-width:0.5;" x1="496.5" x2="496.5" y1="56" y2="92.2969"/><text fill="#000000" font-family="sans-serif" font-size="14" lengthAdjust="spacing" textLength="97" x="384.5" y="78.9951">Placeholder_0</text></g><!--entity Placeholder_1--><g id="elem_Placeholder_1"><polygon fill="#F1F1F1" points="541.5,56,551.5,46,678.5,46,678.5,82.2969,668.5,92.2969,541.5,92.2969,541.5,56" style="stroke:#181818;stroke-width:0.5;"/><line style="stroke:#181818;stroke-width:0.5;" x1="668.5" x2="678.5" y1="56" y2="46"/><line style="stroke:#181818;stroke-width:0.5;" x1="541.5" x2="668.5" y1="56" y2="56"/><line style="stroke:#181818;stroke-width:0.5;" x1="668.5" x2="668.5" y1="56" y2="92.2969"/><text fill="#000000" font-family="sans-serif" font-size="14" lengthAdjust="spacing" textLength="97" x="556.5" y="78.9951">Placeholder_1</text></g><!--entity Placeholder_8--><g id="elem_Placeholder_8"><polygon fill="#F1F1F1" points="713.5,56,723.5,46,850.5,46,850.5,82.2969,840.5,92.2969,713.5,92.2969,713.5,56" style="stroke:#181818;stroke-width:0.5;"/><line style="stroke:#181818;stroke-width:0.5;" x1="840.5" x2="850.5" y1="56" y2="46"/><line style="stroke:#181818;stroke-width:0.5;" x1="713.5" x2="840.5" y1="56" y2="56"/><line style="stroke:#181818;stroke-width:0.5;" x1="840.5" x2="840.5" y1="56" y2="92.2969"/><text fill="#000000" font-family="sans-serif" font-size="14" lengthAdjust="spacing" textLength="97" x="728.5" y="78.9951">Placeholder_8</text></g><!--entity Placeholder_3--><g id="elem_Placeholder_3"><polygon fill="#F1F1F1" points="885.5,56,895.5,46,1022.5,46,1022.5,82.2969,1012.5,92.2969,885.5,92.2969,885.5,56" style="stroke:#181818;stroke-width:0.5;"/><line style="stroke:#181818;stroke-width:0.5;" x1="1012.5" x2="1022.5" y1="56" y2="46"/><line style="stroke:#181818;stroke-width:0.5;" x1="885.5" x2="1012.5" y1="56" y2="56"/><line style="stroke:#181818;stroke-width:0.5;" x1="1012.5" x2="1012.5" y1="56" y2="92.2969"/><text fill="#000000" font-family="sans-serif" font-size="14" lengthAdjust="spacing" textLength="97" x="900.5" y="78.9951">Placeholder_3</text></g><!--entity Placeholder_7--><g id="elem_Placeholder_7"><polygon fill="#F1F1F1" points="1057.5,56,1067.5,46,1194.5,46,1194.5,82.2969,1184.5,92.2969,1057.5,92.2969,1057.5,56" style="stroke:#181818;stroke-width:0.5;"/><line style="stroke:#181818;stroke-width:0.5;" x1="1184.5" x2="1194.5" y1="56" y2="46"/><line style="stroke:#181818;stroke-width:0.5;" x1="1057.5" x2="1184.5" y1="56" y2="56"/><line style="stroke:#181818;stroke-width:0.5;" x1="1184.5" x2="1184.5" y1="56" y2="92.2969"/><text fill="#000000" font-family="sans-serif" font-size="14" lengthAdjust="spacing" textLength="97" x="1072.5" y="78.9951">Placeholder_7</text></g><!--entity Placeholder_15--><g id="elem_Placeholder_15"><polygon fill="#F1F1F1" points="1230,56,1240,46,1376,46,1376,82.2969,1366,92.2969,1230,92.2969,1230,56" style="stroke:#181818;stroke-width:0.5;"/><line style="stroke:#181818;stroke-width:0.5;" x1="1366" x2="1376" y1="56" y2="46"/><line style="stroke:#181818;stroke-width:0.5;" x1="1230" x2="1366" y1="56" y2="56"/><line style="stroke:#181818;stroke-width:0.5;" x1="1366" x2="1366" y1="56" y2="92.2969"/><text fill="#000000" font-family="sans-serif" font-size="14" lengthAdjust="spacing" textLength="106" x="1245" y="78.9951">Placeholder_15</text></g><!--link aName to aName--><g id="link_aName_aName"><path d="M1499.27,67.52 C1518.02,67.4 1534,67.9 1534,69 C1534,70.1 1518.02,70.6 1499.27,70.48 " fill="none" id="aName-aName" style="stroke:#181818;stroke-width:1.0;"/><text fill="#000000" font-family="sans-serif" font-size="13" lengthAdjust="spacing" textLength="201" x="1547" y="73.5669">net_devh_Registration_Provider</text><path d="M1492.1538,60.4943 A10,10 0 0 0 1492.2443 74.6362" fill="none" style="stroke:#181818;stroke-width:1.5;"/><ellipse cx="1499.27" cy="67.52" fill="#FFFFFF" rx="6" ry="6" style="stroke:#181818;stroke-width:1.5;"/></g><!--link aName to aName--><g id="link_aName_aName"><path d="M1499.24,67.13 C1586.62,65.15 1761,65.77 1761,69 C1761,72.23 1586.62,72.85 1499.24,70.87 " fill="none" id="aName-aName-1" style="stroke:#181818;stroke-width:1.0;"/><text fill="#000000" font-family="sans-serif" font-size="13" lengthAdjust="spacing" textLength="268" x="1774" y="73.5669">net_devh_controller_Registration_Provider</text><path d="M1492.0106,60.2209 A10,10 0 0 0 1492.3309 74.3594" fill="none" style="stroke:#181818;stroke-width:1.5;"/><ellipse cx="1499.24" cy="67.13" fill="#FFFFFF" rx="6" ry="6" style="stroke:#181818;stroke-width:1.5;"/></g><!--link aName to aName--><g id="link_aName_aName"><path d="M1499.3,66.91 C1642.07,63.11 2055,63.8 2055,69 C2055,74.2 1642.07,74.89 1499.3,71.09 " fill="none" id="aName-aName-2" style="stroke:#181818;stroke-width:1.0;"/><text fill="#000000" font-family="sans-serif" font-size="13" lengthAdjust="spacing" textLength="255" x="2068" y="73.5669">net_devh_feign_ServiceBClient_Provider</text><path d="M1492.0433,60.0296 A10,10 0 0 0 1492.4196 74.1667" fill="none" style="stroke:#181818;stroke-width:1.5;"/><ellipse cx="1499.3" cy="66.91" fill="#FFFFFF" rx="6" ry="6" style="stroke:#181818;stroke-width:1.5;"/></g><!--link aName to aName--><g id="link_aName_aName"><path d="M1499.06,66.7 C1682.98,61.09 2336,61.86 2336,69 C2336,76.14 1682.98,76.91 1499.06,71.3 " fill="none" id="aName-aName-3" style="stroke:#181818;stroke-width:1.0;"/><text fill="#000000" font-family="sans-serif" font-size="13" lengthAdjust="spacing" textLength="255" x="2349" y="73.5669">net_devh_feign_ServiceBClient_Provider</text><path d="M1491.7766,59.8478 A10,10 0 0 0 1492.2078 73.9834" fill="none" style="stroke:#181818;stroke-width:1.5;"/><ellipse cx="1499.06" cy="66.7" fill="#FFFFFF" rx="6" ry="6" style="stroke:#181818;stroke-width:1.5;"/></g><!--link aName to aName--><g id="link_aName_aName"><path d="M1499.16,66.5 C1718.76,59.08 2617,59.92 2617,69 C2617,78.08 1718.76,78.92 1499.16,71.5 " fill="none" id="aName-aName-4" style="stroke:#181818;stroke-width:1.0;"/><text fill="#000000" font-family="sans-serif" font-size="13" lengthAdjust="spacing" textLength="366" x="2630" y="73.5669">net_devh_hystrix_HystrixWrappedServiceBClient_Provider</text><path d="M1491.8542,59.6718 A10,10 0 0 0 1492.3318 73.8058" fill="none" style="stroke:#181818;stroke-width:1.5;"/><ellipse cx="1499.16" cy="66.5" fill="#FFFFFF" rx="6" ry="6" style="stroke:#181818;stroke-width:1.5;"/></g><!--link aName to aName--><g id="link_aName_aName"><path d="M1499.25,66.39 C1761.6,57.07 3009,57.94 3009,69 C3009,80.06 1761.6,80.93 1499.25,71.61 " fill="none" id="aName-aName-5" style="stroke:#181818;stroke-width:1.0;"/><text fill="#000000" font-family="sans-serif" font-size="13" lengthAdjust="spacing" textLength="119" x="3022" y="73.5669">service_b_Provider</text><path d="M1491.9323,59.5744 A10,10 0 0 0 1492.4344 73.7077" fill="none" style="stroke:#181818;stroke-width:1.5;"/><ellipse cx="1499.25" cy="66.39" fill="#FFFFFF" rx="6" ry="6" style="stroke:#181818;stroke-width:1.5;"/></g><!--link aName to aName--><g id="link_aName_aName"><path d="M1499.19,66.15 C1777.5,55.08 3154,56.03 3154,69 C3154,81.97 1777.5,82.92 1499.19,71.85 " fill="none" id="aName-aName-6" style="stroke:#181818;stroke-width:1.0;"/><text fill="#000000" font-family="sans-serif" font-size="13" lengthAdjust="spacing" textLength="119" x="3167" y="73.5669">service_b_Provider</text><path d="M1491.8435,59.3656 A10,10 0 0 0 1492.4056 73.4965" fill="none" style="stroke:#181818;stroke-width:1.5;"/><ellipse cx="1499.19" cy="66.15" fill="#FFFFFF" rx="6" ry="6" style="stroke:#181818;stroke-width:1.5;"/></g><!--SRC=[lPH1ImCn48Nl-oi2Nhn4Ak8gtceHAgrQz22wB25DPhE3sMIPfEjMyRyRA3rv40lc50BptZUycIIyeUiboOurECwGb8MbN8Dz682ix7jqXaNQGE6y1hQoKa7hhGOIv-opgEIzxA1cLRL5xPrnql7GKn9nPVr6SmUniJXo66NNMpW9sn2XEnBbwzs7MGfz0wMPlzmkflwzMqphklZw2JezoqKgSu4csRBB1RhC1Sgs31VPPlHVBsdloOyddEqlLomv2Gr3Anx1O8Wa8tedLkG7JEtygbBUHVBMfiuFCsW0ZHDFG0Cgk9vP11TpgTkK6k4evhlpcT8N1_gFRc5NBjQ7L7u3]--></g></svg>