<?xml version="1.0" encoding="us-ascii" standalone="no"?><svg xmlns="http://www.w3.org/2000/svg" xmlns:xlink="http://www.w3.org/1999/xlink" contentStyleType="text/css" height="125px" preserveAspectRatio="none" style="width:3434px;height:125px;background:#FFFFFF;" version="1.1" viewBox="0 0 3434 125" width="3434px" zoomAndPan="magnify"><defs/><g><!--cluster Placeholder_1--><g id="cluster_Placeholder_1"><polygon fill="none" points="1406,16,1416,6,3417,6,3417,98,3407,108,1406,108,1406,16" style="stroke:#181818;stroke-width:1.0;"/><line style="stroke:#181818;stroke-width:1.0;" x1="3407" x2="3417" y1="16" y2="6"/><line style="stroke:#181818;stroke-width:1.0;" x1="1406" x2="3407" y1="16" y2="16"/><line style="stroke:#181818;stroke-width:1.0;" x1="3407" x2="3407" y1="16" y2="108"/><text fill="#000000" font-family="sans-serif" font-size="14" font-weight="bold" lengthAdjust="spacing" textLength="110" x="2352.5" y="31.9951">Placeholder_1</text></g><!--entity aName--><g id="elem_aName"><a href="yidongnan-spring-cloud-netflix-example.system#_xyIpYL8UEe6hCJsZ2oQVsw" target="_top" title="yidongnan-spring-cloud-netflix-example.system#_xyIpYL8UEe6hCJsZ2oQVsw" xlink:actuate="onRequest" xlink:href="yidongnan-spring-cloud-netflix-example.system#_xyIpYL8UEe6hCJsZ2oQVsw" xlink:show="new" xlink:title="yidongnan-spring-cloud-netflix-example.system#_xyIpYL8UEe6hCJsZ2oQVsw" xlink:type="simple"><rect fill="#F1F1F1" height="46.2969" rx="2.5" ry="2.5" style="stroke:#181818;stroke-width:0.5;" width="88" x="1422" y="46"/><rect fill="#F1F1F1" height="10" style="stroke:#181818;stroke-width:0.5;" width="15" x="1490" y="51"/><rect fill="#F1F1F1" height="2" style="stroke:#181818;stroke-width:0.5;" width="4" x="1488" y="53"/><rect fill="#F1F1F1" height="2" style="stroke:#181818;stroke-width:0.5;" width="4" x="1488" y="57"/><text fill="#000000" font-family="sans-serif" font-size="14" lengthAdjust="spacing" textLength="48" x="1437" y="78.9951">aName</text></a></g><!--entity Placeholder_10--><g id="elem_Placeholder_10"><polygon fill="#F1F1F1" points="16,56,26,46,162,46,162,82.2969,152,92.2969,16,92.2969,16,56" style="stroke:#181818;stroke-width:0.5;"/><line style="stroke:#181818;stroke-width:0.5;" x1="152" x2="162" y1="56" y2="46"/><line style="stroke:#181818;stroke-width:0.5;" x1="16" x2="152" y1="56" y2="56"/><line style="stroke:#181818;stroke-width:0.5;" x1="152" x2="152" y1="56" y2="92.2969"/><text fill="#000000" font-family="sans-serif" font-size="14" lengthAdjust="spacing" textLength="106" x="31" y="78.9951">Placeholder_10</text></g><!--entity Placeholder_0--><g id="elem_Placeholder_0"><polygon fill="#F1F1F1" points="197.5,56,207.5,46,334.5,46,334.5,82.2969,324.5,92.2969,197.5,92.2969,197.5,56" style="stroke:#181818;stroke-width:0.5;"/><line style="stroke:#181818;stroke-width:0.5;" x1="324.5" x2="334.5" y1="56" y2="46"/><line style="stroke:#181818;stroke-width:0.5;" x1="197.5" x2="324.5" y1="56" y2="56"/><line style="stroke:#181818;stroke-width:0.5;" x1="324.5" x2="324.5" y1="56" y2="92.2969"/><text fill="#000000" font-family="sans-serif" font-size="14" lengthAdjust="spacing" textLength="97" x="212.5" y="78.9951">Placeholder_0</text></g><!--entity Placeholder_17--><g id="elem_Placeholder_17"><polygon fill="#F1F1F1" points="370,56,380,46,516,46,516,82.2969,506,92.2969,370,92.2969,370,56" style="stroke:#181818;stroke-width:0.5;"/><line style="stroke:#181818;stroke-width:0.5;" x1="506" x2="516" y1="56" y2="46"/><line style="stroke:#181818;stroke-width:0.5;" x1="370" x2="506" y1="56" y2="56"/><line style="stroke:#181818;stroke-width:0.5;" x1="506" x2="506" y1="56" y2="92.2969"/><text fill="#000000" font-family="sans-serif" font-size="14" lengthAdjust="spacing" textLength="106" x="385" y="78.9951">Placeholder_17</text></g><!--entity Placeholder_8--><g id="elem_Placeholder_8"><polygon fill="#F1F1F1" points="551.5,56,561.5,46,688.5,46,688.5,82.2969,678.5,92.2969,551.5,92.2969,551.5,56" style="stroke:#181818;stroke-width:0.5;"/><line style="stroke:#181818;stroke-width:0.5;" x1="678.5" x2="688.5" y1="56" y2="46"/><line style="stroke:#181818;stroke-width:0.5;" x1="551.5" x2="678.5" y1="56" y2="56"/><line style="stroke:#181818;stroke-width:0.5;" x1="678.5" x2="678.5" y1="56" y2="92.2969"/><text fill="#000000" font-family="sans-serif" font-size="14" lengthAdjust="spacing" textLength="97" x="566.5" y="78.9951">Placeholder_8</text></g><!--entity Placeholder_4--><g id="elem_Placeholder_4"><polygon fill="#F1F1F1" points="723.5,56,733.5,46,860.5,46,860.5,82.2969,850.5,92.2969,723.5,92.2969,723.5,56" style="stroke:#181818;stroke-width:0.5;"/><line style="stroke:#181818;stroke-width:0.5;" x1="850.5" x2="860.5" y1="56" y2="46"/><line style="stroke:#181818;stroke-width:0.5;" x1="723.5" x2="850.5" y1="56" y2="56"/><line style="stroke:#181818;stroke-width:0.5;" x1="850.5" x2="850.5" y1="56" y2="92.2969"/><text fill="#000000" font-family="sans-serif" font-size="14" lengthAdjust="spacing" textLength="97" x="738.5" y="78.9951">Placeholder_4</text></g><!--entity Placeholder_5--><g id="elem_Placeholder_5"><polygon fill="#F1F1F1" points="895.5,56,905.5,46,1032.5,46,1032.5,82.2969,1022.5,92.2969,895.5,92.2969,895.5,56" style="stroke:#181818;stroke-width:0.5;"/><line style="stroke:#181818;stroke-width:0.5;" x1="1022.5" x2="1032.5" y1="56" y2="46"/><line style="stroke:#181818;stroke-width:0.5;" x1="895.5" x2="1022.5" y1="56" y2="56"/><line style="stroke:#181818;stroke-width:0.5;" x1="1022.5" x2="1022.5" y1="56" y2="92.2969"/><text fill="#000000" font-family="sans-serif" font-size="14" lengthAdjust="spacing" textLength="97" x="910.5" y="78.9951">Placeholder_5</text></g><!--entity Placeholder_15--><g id="elem_Placeholder_15"><polygon fill="#F1F1F1" points="1068,56,1078,46,1214,46,1214,82.2969,1204,92.2969,1068,92.2969,1068,56" style="stroke:#181818;stroke-width:0.5;"/><line style="stroke:#181818;stroke-width:0.5;" x1="1204" x2="1214" y1="56" y2="46"/><line style="stroke:#181818;stroke-width:0.5;" x1="1068" x2="1204" y1="56" y2="56"/><line style="stroke:#181818;stroke-width:0.5;" x1="1204" x2="1204" y1="56" y2="92.2969"/><text fill="#000000" font-family="sans-serif" font-size="14" lengthAdjust="spacing" textLength="106" x="1083" y="78.9951">Placeholder_15</text></g><!--entity Placeholder_7--><g id="elem_Placeholder_7"><polygon fill="#F1F1F1" points="1249.5,56,1259.5,46,1386.5,46,1386.5,82.2969,1376.5,92.2969,1249.5,92.2969,1249.5,56" style="stroke:#181818;stroke-width:0.5;"/><line style="stroke:#181818;stroke-width:0.5;" x1="1376.5" x2="1386.5" y1="56" y2="46"/><line style="stroke:#181818;stroke-width:0.5;" x1="1249.5" x2="1376.5" y1="56" y2="56"/><line style="stroke:#181818;stroke-width:0.5;" x1="1376.5" x2="1376.5" y1="56" y2="92.2969"/><text fill="#000000" font-family="sans-serif" font-size="14" lengthAdjust="spacing" textLength="97" x="1264.5" y="78.9951">Placeholder_7</text></g><!--link aName to aName--><g id="link_aName_aName"><path d="M1510.27,67.52 C1529.02,67.4 1545,67.9 1545,69 C1545,70.1 1529.02,70.6 1510.27,70.48 " fill="none" id="aName-aName" style="stroke:#181818;stroke-width:1.0;"/><text fill="#000000" font-family="sans-serif" font-size="13" lengthAdjust="spacing" textLength="201" x="1558" y="73.5669">net_devh_Registration_Provider</text><path d="M1503.1538,60.4943 A10,10 0 0 0 1503.2443 74.6362" fill="none" style="stroke:#181818;stroke-width:1.5;"/><ellipse cx="1510.27" cy="67.52" fill="#FFFFFF" rx="6" ry="6" style="stroke:#181818;stroke-width:1.5;"/></g><!--link aName to aName--><g id="link_aName_aName"><path d="M1510.24,67.13 C1597.62,65.15 1772,65.77 1772,69 C1772,72.23 1597.62,72.85 1510.24,70.87 " fill="none" id="aName-aName-1" style="stroke:#181818;stroke-width:1.0;"/><text fill="#000000" font-family="sans-serif" font-size="13" lengthAdjust="spacing" textLength="268" x="1785" y="73.5669">net_devh_controller_Registration_Provider</text><path d="M1503.0106,60.2209 A10,10 0 0 0 1503.3309 74.3594" fill="none" style="stroke:#181818;stroke-width:1.5;"/><ellipse cx="1510.24" cy="67.13" fill="#FFFFFF" rx="6" ry="6" style="stroke:#181818;stroke-width:1.5;"/></g><!--link aName to aName--><g id="link_aName_aName"><path d="M1510.3,66.91 C1653.07,63.11 2066,63.8 2066,69 C2066,74.2 1653.07,74.89 1510.3,71.09 " fill="none" id="aName-aName-2" style="stroke:#181818;stroke-width:1.0;"/><text fill="#000000" font-family="sans-serif" font-size="13" lengthAdjust="spacing" textLength="255" x="2079" y="73.5669">net_devh_feign_ServiceBClient_Provider</text><path d="M1503.0433,60.0296 A10,10 0 0 0 1503.4196 74.1667" fill="none" style="stroke:#181818;stroke-width:1.5;"/><ellipse cx="1510.3" cy="66.91" fill="#FFFFFF" rx="6" ry="6" style="stroke:#181818;stroke-width:1.5;"/></g><!--link aName to aName--><g id="link_aName_aName"><path d="M1510.06,66.7 C1693.98,61.09 2347,61.86 2347,69 C2347,76.14 1693.98,76.91 1510.06,71.3 " fill="none" id="aName-aName-3" style="stroke:#181818;stroke-width:1.0;"/><text fill="#000000" font-family="sans-serif" font-size="13" lengthAdjust="spacing" textLength="255" x="2360" y="73.5669">net_devh_feign_ServiceBClient_Provider</text><path d="M1502.7766,59.8478 A10,10 0 0 0 1503.2078 73.9834" fill="none" style="stroke:#181818;stroke-width:1.5;"/><ellipse cx="1510.06" cy="66.7" fill="#FFFFFF" rx="6" ry="6" style="stroke:#181818;stroke-width:1.5;"/></g><!--link aName to aName--><g id="link_aName_aName"><path d="M1510.16,66.5 C1729.76,59.08 2628,59.92 2628,69 C2628,78.08 1729.76,78.92 1510.16,71.5 " fill="none" id="aName-aName-4" style="stroke:#181818;stroke-width:1.0;"/><text fill="#000000" font-family="sans-serif" font-size="13" lengthAdjust="spacing" textLength="366" x="2641" y="73.5669">net_devh_hystrix_HystrixWrappedServiceBClient_Provider</text><path d="M1502.8542,59.6718 A10,10 0 0 0 1503.3318 73.8058" fill="none" style="stroke:#181818;stroke-width:1.5;"/><ellipse cx="1510.16" cy="66.5" fill="#FFFFFF" rx="6" ry="6" style="stroke:#181818;stroke-width:1.5;"/></g><!--link aName to aName--><g id="link_aName_aName"><path d="M1510.25,66.39 C1772.6,57.07 3020,57.94 3020,69 C3020,80.06 1772.6,80.93 1510.25,71.61 " fill="none" id="aName-aName-5" style="stroke:#181818;stroke-width:1.0;"/><text fill="#000000" font-family="sans-serif" font-size="13" lengthAdjust="spacing" textLength="119" x="3033" y="73.5669">service_b_Provider</text><path d="M1502.9323,59.5744 A10,10 0 0 0 1503.4344 73.7077" fill="none" style="stroke:#181818;stroke-width:1.5;"/><ellipse cx="1510.25" cy="66.39" fill="#FFFFFF" rx="6" ry="6" style="stroke:#181818;stroke-width:1.5;"/></g><!--link aName to aName--><g id="link_aName_aName"><path d="M1510.19,66.15 C1788.5,55.08 3165,56.03 3165,69 C3165,81.97 1788.5,82.92 1510.19,71.85 " fill="none" id="aName-aName-6" style="stroke:#181818;stroke-width:1.0;"/><text fill="#000000" font-family="sans-serif" font-size="13" lengthAdjust="spacing" textLength="119" x="3178" y="73.5669">service_b_Provider</text><path d="M1502.8435,59.3656 A10,10 0 0 0 1503.4056 73.4965" fill="none" style="stroke:#181818;stroke-width:1.5;"/><ellipse cx="1510.19" cy="66.15" fill="#FFFFFF" rx="6" ry="6" style="stroke:#181818;stroke-width:1.5;"/></g><!--SRC=[lPHDImCn48Rl-oi2Nhn4Ml6ZU7GfL2bQ5PMwB27TpEuEPfCmITTTnFzkeFGcY0Lp6WRcVPzXPXZ_ZiP9aXshSSYHAWrBkG5ztmDfwHoQXWNQGcQi0hRIieBMQWKafkmpA-ITxA1aHJ6YigOnqd3lA8fufUrMSGEXrZXm66JdD9puqGVeZiGmthZrSlOyXuisl_Llf_RXnN-KPVRr0sYIYfGCDBrCHPgb0fsb0fqdMr8oqdzTmzwJ7qyusoTNB3e91Nqh7g517qW6j4QioFOOk_bLLLaJo6eT6p_Ce0PiZ7W2wh62wrmZc91AtSQf4GvYiOkl57ySg3-w-Lsvs1nI-Gq0]--></g></svg>