<?xml version="1.0" encoding="us-ascii" standalone="no"?><svg xmlns="http://www.w3.org/2000/svg" xmlns:xlink="http://www.w3.org/1999/xlink" contentStyleType="text/css" height="125px" preserveAspectRatio="none" style="width:9739px;height:125px;background:#FFFFFF;" version="1.1" viewBox="0 0 9739 125" width="9739px" zoomAndPan="magnify"><defs/><g><!--cluster Placeholder_14--><g id="cluster_Placeholder_14"><polygon fill="none" points="3370,16,3380,6,9722,6,9722,98,9712,108,3370,108,3370,16" style="stroke:#181818;stroke-width:1.0;"/><line style="stroke:#181818;stroke-width:1.0;" x1="9712" x2="9722" y1="16" y2="6"/><line style="stroke:#181818;stroke-width:1.0;" x1="3370" x2="9712" y1="16" y2="16"/><line style="stroke:#181818;stroke-width:1.0;" x1="9712" x2="9712" y1="16" y2="108"/><text fill="#000000" font-family="sans-serif" font-size="14" font-weight="bold" lengthAdjust="spacing" textLength="120" x="6482" y="31.9951">Placeholder_14</text></g><!--entity aName--><g id="elem_aName"><a href="acmeair-acmeair.system#_yXC68L_dEe6Acex7qu507g" target="_top" title="acmeair-acmeair.system#_yXC68L_dEe6Acex7qu507g" xlink:actuate="onRequest" xlink:href="acmeair-acmeair.system#_yXC68L_dEe6Acex7qu507g" xlink:show="new" xlink:title="acmeair-acmeair.system#_yXC68L_dEe6Acex7qu507g" xlink:type="simple"><rect fill="#F1F1F1" height="46.2969" rx="2.5" ry="2.5" style="stroke:#181818;stroke-width:0.5;" width="88" x="3386" y="46"/><rect fill="#F1F1F1" height="10" style="stroke:#181818;stroke-width:0.5;" width="15" x="3454" y="51"/><rect fill="#F1F1F1" height="2" style="stroke:#181818;stroke-width:0.5;" width="4" x="3452" y="53"/><rect fill="#F1F1F1" height="2" style="stroke:#181818;stroke-width:0.5;" width="4" x="3452" y="57"/><text fill="#000000" font-family="sans-serif" font-size="14" lengthAdjust="spacing" textLength="48" x="3401" y="78.9951">aName</text></a></g><!--entity Placeholder_10--><g id="elem_Placeholder_10"><polygon fill="#F1F1F1" points="16,56,26,46,162,46,162,82.2969,152,92.2969,16,92.2969,16,56" style="stroke:#181818;stroke-width:0.5;"/><line style="stroke:#181818;stroke-width:0.5;" x1="152" x2="162" y1="56" y2="46"/><line style="stroke:#181818;stroke-width:0.5;" x1="16" x2="152" y1="56" y2="56"/><line style="stroke:#181818;stroke-width:0.5;" x1="152" x2="152" y1="56" y2="92.2969"/><text fill="#000000" font-family="sans-serif" font-size="14" lengthAdjust="spacing" textLength="106" x="31" y="78.9951">Placeholder_10</text></g><!--entity Placeholder_7--><g id="elem_Placeholder_7"><polygon fill="#F1F1F1" points="197.5,56,207.5,46,334.5,46,334.5,82.2969,324.5,92.2969,197.5,92.2969,197.5,56" style="stroke:#181818;stroke-width:0.5;"/><line style="stroke:#181818;stroke-width:0.5;" x1="324.5" x2="334.5" y1="56" y2="46"/><line style="stroke:#181818;stroke-width:0.5;" x1="197.5" x2="324.5" y1="56" y2="56"/><line style="stroke:#181818;stroke-width:0.5;" x1="324.5" x2="324.5" y1="56" y2="92.2969"/><text fill="#000000" font-family="sans-serif" font-size="14" lengthAdjust="spacing" textLength="97" x="212.5" y="78.9951">Placeholder_7</text></g><!--entity Placeholder_1--><g id="elem_Placeholder_1"><polygon fill="#F1F1F1" points="369.5,56,379.5,46,506.5,46,506.5,82.2969,496.5,92.2969,369.5,92.2969,369.5,56" style="stroke:#181818;stroke-width:0.5;"/><line style="stroke:#181818;stroke-width:0.5;" x1="496.5" x2="506.5" y1="56" y2="46"/><line style="stroke:#181818;stroke-width:0.5;" x1="369.5" x2="496.5" y1="56" y2="56"/><line style="stroke:#181818;stroke-width:0.5;" x1="496.5" x2="496.5" y1="56" y2="92.2969"/><text fill="#000000" font-family="sans-serif" font-size="14" lengthAdjust="spacing" textLength="97" x="384.5" y="78.9951">Placeholder_1</text></g><!--entity Placeholder_5--><g id="elem_Placeholder_5"><polygon fill="#F1F1F1" points="541.5,56,551.5,46,678.5,46,678.5,82.2969,668.5,92.2969,541.5,92.2969,541.5,56" style="stroke:#181818;stroke-width:0.5;"/><line style="stroke:#181818;stroke-width:0.5;" x1="668.5" x2="678.5" y1="56" y2="46"/><line style="stroke:#181818;stroke-width:0.5;" x1="541.5" x2="668.5" y1="56" y2="56"/><line style="stroke:#181818;stroke-width:0.5;" x1="668.5" x2="668.5" y1="56" y2="92.2969"/><text fill="#000000" font-family="sans-serif" font-size="14" lengthAdjust="spacing" textLength="97" x="556.5" y="78.9951">Placeholder_5</text></g><!--entity Placeholder_11--><g id="elem_Placeholder_11"><polygon fill="#F1F1F1" points="714,56,724,46,860,46,860,82.2969,850,92.2969,714,92.2969,714,56" style="stroke:#181818;stroke-width:0.5;"/><line style="stroke:#181818;stroke-width:0.5;" x1="850" x2="860" y1="56" y2="46"/><line style="stroke:#181818;stroke-width:0.5;" x1="714" x2="850" y1="56" y2="56"/><line style="stroke:#181818;stroke-width:0.5;" x1="850" x2="850" y1="56" y2="92.2969"/><text fill="#000000" font-family="sans-serif" font-size="14" lengthAdjust="spacing" textLength="106" x="729" y="78.9951">Placeholder_11</text></g><!--entity Placeholder_25--><g id="elem_Placeholder_25"><polygon fill="#F1F1F1" points="895,56,905,46,1041,46,1041,82.2969,1031,92.2969,895,92.2969,895,56" style="stroke:#181818;stroke-width:0.5;"/><line style="stroke:#181818;stroke-width:0.5;" x1="1031" x2="1041" y1="56" y2="46"/><line style="stroke:#181818;stroke-width:0.5;" x1="895" x2="1031" y1="56" y2="56"/><line style="stroke:#181818;stroke-width:0.5;" x1="1031" x2="1031" y1="56" y2="92.2969"/><text fill="#000000" font-family="sans-serif" font-size="14" lengthAdjust="spacing" textLength="106" x="910" y="78.9951">Placeholder_25</text></g><!--entity Placeholder_12--><g id="elem_Placeholder_12"><polygon fill="#F1F1F1" points="1076,56,1086,46,1222,46,1222,82.2969,1212,92.2969,1076,92.2969,1076,56" style="stroke:#181818;stroke-width:0.5;"/><line style="stroke:#181818;stroke-width:0.5;" x1="1212" x2="1222" y1="56" y2="46"/><line style="stroke:#181818;stroke-width:0.5;" x1="1076" x2="1212" y1="56" y2="56"/><line style="stroke:#181818;stroke-width:0.5;" x1="1212" x2="1212" y1="56" y2="92.2969"/><text fill="#000000" font-family="sans-serif" font-size="14" lengthAdjust="spacing" textLength="106" x="1091" y="78.9951">Placeholder_12</text></g><!--entity Placeholder_23--><g id="elem_Placeholder_23"><polygon fill="#F1F1F1" points="1257,56,1267,46,1403,46,1403,82.2969,1393,92.2969,1257,92.2969,1257,56" style="stroke:#181818;stroke-width:0.5;"/><line style="stroke:#181818;stroke-width:0.5;" x1="1393" x2="1403" y1="56" y2="46"/><line style="stroke:#181818;stroke-width:0.5;" x1="1257" x2="1393" y1="56" y2="56"/><line style="stroke:#181818;stroke-width:0.5;" x1="1393" x2="1393" y1="56" y2="92.2969"/><text fill="#000000" font-family="sans-serif" font-size="14" lengthAdjust="spacing" textLength="106" x="1272" y="78.9951">Placeholder_23</text></g><!--entity Placeholder_2--><g id="elem_Placeholder_2"><polygon fill="#F1F1F1" points="1438.5,56,1448.5,46,1575.5,46,1575.5,82.2969,1565.5,92.2969,1438.5,92.2969,1438.5,56" style="stroke:#181818;stroke-width:0.5;"/><line style="stroke:#181818;stroke-width:0.5;" x1="1565.5" x2="1575.5" y1="56" y2="46"/><line style="stroke:#181818;stroke-width:0.5;" x1="1438.5" x2="1565.5" y1="56" y2="56"/><line style="stroke:#181818;stroke-width:0.5;" x1="1565.5" x2="1565.5" y1="56" y2="92.2969"/><text fill="#000000" font-family="sans-serif" font-size="14" lengthAdjust="spacing" textLength="97" x="1453.5" y="78.9951">Placeholder_2</text></g><!--entity Placeholder_24--><g id="elem_Placeholder_24"><polygon fill="#F1F1F1" points="1611,56,1621,46,1757,46,1757,82.2969,1747,92.2969,1611,92.2969,1611,56" style="stroke:#181818;stroke-width:0.5;"/><line style="stroke:#181818;stroke-width:0.5;" x1="1747" x2="1757" y1="56" y2="46"/><line style="stroke:#181818;stroke-width:0.5;" x1="1611" x2="1747" y1="56" y2="56"/><line style="stroke:#181818;stroke-width:0.5;" x1="1747" x2="1747" y1="56" y2="92.2969"/><text fill="#000000" font-family="sans-serif" font-size="14" lengthAdjust="spacing" textLength="106" x="1626" y="78.9951">Placeholder_24</text></g><!--entity Placeholder_26--><g id="elem_Placeholder_26"><polygon fill="#F1F1F1" points="1792,56,1802,46,1938,46,1938,82.2969,1928,92.2969,1792,92.2969,1792,56" style="stroke:#181818;stroke-width:0.5;"/><line style="stroke:#181818;stroke-width:0.5;" x1="1928" x2="1938" y1="56" y2="46"/><line style="stroke:#181818;stroke-width:0.5;" x1="1792" x2="1928" y1="56" y2="56"/><line style="stroke:#181818;stroke-width:0.5;" x1="1928" x2="1928" y1="56" y2="92.2969"/><text fill="#000000" font-family="sans-serif" font-size="14" lengthAdjust="spacing" textLength="106" x="1807" y="78.9951">Placeholder_26</text></g><!--entity Placeholder_20--><g id="elem_Placeholder_20"><polygon fill="#F1F1F1" points="1973,56,1983,46,2119,46,2119,82.2969,2109,92.2969,1973,92.2969,1973,56" style="stroke:#181818;stroke-width:0.5;"/><line style="stroke:#181818;stroke-width:0.5;" x1="2109" x2="2119" y1="56" y2="46"/><line style="stroke:#181818;stroke-width:0.5;" x1="1973" x2="2109" y1="56" y2="56"/><line style="stroke:#181818;stroke-width:0.5;" x1="2109" x2="2109" y1="56" y2="92.2969"/><text fill="#000000" font-family="sans-serif" font-size="14" lengthAdjust="spacing" textLength="106" x="1988" y="78.9951">Placeholder_20</text></g><!--entity Placeholder_19--><g id="elem_Placeholder_19"><polygon fill="#F1F1F1" points="2154,56,2164,46,2300,46,2300,82.2969,2290,92.2969,2154,92.2969,2154,56" style="stroke:#181818;stroke-width:0.5;"/><line style="stroke:#181818;stroke-width:0.5;" x1="2290" x2="2300" y1="56" y2="46"/><line style="stroke:#181818;stroke-width:0.5;" x1="2154" x2="2290" y1="56" y2="56"/><line style="stroke:#181818;stroke-width:0.5;" x1="2290" x2="2290" y1="56" y2="92.2969"/><text fill="#000000" font-family="sans-serif" font-size="14" lengthAdjust="spacing" textLength="106" x="2169" y="78.9951">Placeholder_19</text></g><!--entity Placeholder_27--><g id="elem_Placeholder_27"><polygon fill="#F1F1F1" points="2335,56,2345,46,2481,46,2481,82.2969,2471,92.2969,2335,92.2969,2335,56" style="stroke:#181818;stroke-width:0.5;"/><line style="stroke:#181818;stroke-width:0.5;" x1="2471" x2="2481" y1="56" y2="46"/><line style="stroke:#181818;stroke-width:0.5;" x1="2335" x2="2471" y1="56" y2="56"/><line style="stroke:#181818;stroke-width:0.5;" x1="2471" x2="2471" y1="56" y2="92.2969"/><text fill="#000000" font-family="sans-serif" font-size="14" lengthAdjust="spacing" textLength="106" x="2350" y="78.9951">Placeholder_27</text></g><!--entity Placeholder_13--><g id="elem_Placeholder_13"><polygon fill="#F1F1F1" points="2516,56,2526,46,2662,46,2662,82.2969,2652,92.2969,2516,92.2969,2516,56" style="stroke:#181818;stroke-width:0.5;"/><line style="stroke:#181818;stroke-width:0.5;" x1="2652" x2="2662" y1="56" y2="46"/><line style="stroke:#181818;stroke-width:0.5;" x1="2516" x2="2652" y1="56" y2="56"/><line style="stroke:#181818;stroke-width:0.5;" x1="2652" x2="2652" y1="56" y2="92.2969"/><text fill="#000000" font-family="sans-serif" font-size="14" lengthAdjust="spacing" textLength="106" x="2531" y="78.9951">Placeholder_13</text></g><!--entity Placeholder_9--><g id="elem_Placeholder_9"><polygon fill="#F1F1F1" points="2697.5,56,2707.5,46,2834.5,46,2834.5,82.2969,2824.5,92.2969,2697.5,92.2969,2697.5,56" style="stroke:#181818;stroke-width:0.5;"/><line style="stroke:#181818;stroke-width:0.5;" x1="2824.5" x2="2834.5" y1="56" y2="46"/><line style="stroke:#181818;stroke-width:0.5;" x1="2697.5" x2="2824.5" y1="56" y2="56"/><line style="stroke:#181818;stroke-width:0.5;" x1="2824.5" x2="2824.5" y1="56" y2="92.2969"/><text fill="#000000" font-family="sans-serif" font-size="14" lengthAdjust="spacing" textLength="97" x="2712.5" y="78.9951">Placeholder_9</text></g><!--entity Placeholder_0--><g id="elem_Placeholder_0"><polygon fill="#F1F1F1" points="2869.5,56,2879.5,46,3006.5,46,3006.5,82.2969,2996.5,92.2969,2869.5,92.2969,2869.5,56" style="stroke:#181818;stroke-width:0.5;"/><line style="stroke:#181818;stroke-width:0.5;" x1="2996.5" x2="3006.5" y1="56" y2="46"/><line style="stroke:#181818;stroke-width:0.5;" x1="2869.5" x2="2996.5" y1="56" y2="56"/><line style="stroke:#181818;stroke-width:0.5;" x1="2996.5" x2="2996.5" y1="56" y2="92.2969"/><text fill="#000000" font-family="sans-serif" font-size="14" lengthAdjust="spacing" textLength="97" x="2884.5" y="78.9951">Placeholder_0</text></g><!--entity Placeholder_8--><g id="elem_Placeholder_8"><polygon fill="#F1F1F1" points="3041.5,56,3051.5,46,3178.5,46,3178.5,82.2969,3168.5,92.2969,3041.5,92.2969,3041.5,56" style="stroke:#181818;stroke-width:0.5;"/><line style="stroke:#181818;stroke-width:0.5;" x1="3168.5" x2="3178.5" y1="56" y2="46"/><line style="stroke:#181818;stroke-width:0.5;" x1="3041.5" x2="3168.5" y1="56" y2="56"/><line style="stroke:#181818;stroke-width:0.5;" x1="3168.5" x2="3168.5" y1="56" y2="92.2969"/><text fill="#000000" font-family="sans-serif" font-size="14" lengthAdjust="spacing" textLength="97" x="3056.5" y="78.9951">Placeholder_8</text></g><!--entity Placeholder_6--><g id="elem_Placeholder_6"><polygon fill="#F1F1F1" points="3213.5,56,3223.5,46,3350.5,46,3350.5,82.2969,3340.5,92.2969,3213.5,92.2969,3213.5,56" style="stroke:#181818;stroke-width:0.5;"/><line style="stroke:#181818;stroke-width:0.5;" x1="3340.5" x2="3350.5" y1="56" y2="46"/><line style="stroke:#181818;stroke-width:0.5;" x1="3213.5" x2="3340.5" y1="56" y2="56"/><line style="stroke:#181818;stroke-width:0.5;" x1="3340.5" x2="3340.5" y1="56" y2="92.2969"/><text fill="#000000" font-family="sans-serif" font-size="14" lengthAdjust="spacing" textLength="97" x="3228.5" y="78.9951">Placeholder_6</text></g><!--link aName to aName--><g id="link_aName_aName"><path d="M3474.27,67.52 C3493.02,67.4 3509,67.9 3509,69 C3509,70.1 3493.02,70.6 3474.27,70.48 " fill="none" id="aName-aName" style="stroke:#181818;stroke-width:1.0;"/><text fill="#000000" font-family="sans-serif" font-size="13" lengthAdjust="spacing" textLength="244" x="3522" y="73.5669">com_acmeair_loader_Loader_Provider</text><path d="M3467.1538,60.4943 A10,10 0 0 0 3467.2443 74.6362" fill="none" style="stroke:#181818;stroke-width:1.5;"/><ellipse cx="3474.27" cy="67.52" fill="#FFFFFF" rx="6" ry="6" style="stroke:#181818;stroke-width:1.5;"/></g><!--link aName to aName--><g id="link_aName_aName"><path d="M3474.23,67.22 C3570.72,65.13 3779,65.73 3779,69 C3779,72.27 3570.72,72.87 3474.23,70.78 " fill="none" id="aName-aName-1" style="stroke:#181818;stroke-width:1.0;"/><text fill="#000000" font-family="sans-serif" font-size="13" lengthAdjust="spacing" textLength="303" x="3792" y="73.5669">com_acmeair_service_BookingService_Provider</text><path d="M3467.0075,60.3037 A10,10 0 0 0 3467.3137 74.4425" fill="none" style="stroke:#181818;stroke-width:1.5;"/><ellipse cx="3474.23" cy="67.22" fill="#FFFFFF" rx="6" ry="6" style="stroke:#181818;stroke-width:1.5;"/></g><!--link aName to aName--><g id="link_aName_aName"><path d="M3474.17,67.01 C3628.54,63.1 4108,63.76 4108,69 C4108,74.24 3628.54,74.9 3474.17,70.99 " fill="none" id="aName-aName-2" style="stroke:#181818;stroke-width:1.0;"/><text fill="#000000" font-family="sans-serif" font-size="13" lengthAdjust="spacing" textLength="303" x="4121" y="73.5669">com_acmeair_service_BookingService_Provider</text><path d="M3466.9222,60.1202 A10,10 0 0 0 3467.2802 74.2578" fill="none" style="stroke:#181818;stroke-width:1.5;"/><ellipse cx="3474.17" cy="67.01" fill="#FFFFFF" rx="6" ry="6" style="stroke:#181818;stroke-width:1.5;"/></g><!--link aName to aName--><g id="link_aName_aName"><path d="M3474.14,66.81 C3673.67,61.08 4437,61.81 4437,69 C4437,76.19 3673.67,76.92 3474.14,71.19 " fill="none" id="aName-aName-3" style="stroke:#181818;stroke-width:1.0;"/><text fill="#000000" font-family="sans-serif" font-size="13" lengthAdjust="spacing" textLength="303" x="4450" y="73.5669">com_acmeair_service_BookingService_Provider</text><path d="M3466.8689,59.9448 A10,10 0 0 0 3467.2748 74.0811" fill="none" style="stroke:#181818;stroke-width:1.5;"/><ellipse cx="3474.14" cy="66.81" fill="#FFFFFF" rx="6" ry="6" style="stroke:#181818;stroke-width:1.5;"/></g><!--link aName to aName--><g id="link_aName_aName"><path d="M3474.01,66.63 C3711.88,59.07 4766,59.86 4766,69 C4766,78.14 3711.88,78.93 3474.01,71.37 " fill="none" id="aName-aName-4" style="stroke:#181818;stroke-width:1.0;"/><text fill="#000000" font-family="sans-serif" font-size="13" lengthAdjust="spacing" textLength="303" x="4779" y="73.5669">com_acmeair_service_BookingService_Provider</text><path d="M3466.7179,59.7871 A10,10 0 0 0 3467.1671 73.9221" fill="none" style="stroke:#181818;stroke-width:1.5;"/><ellipse cx="3474.01" cy="66.63" fill="#FFFFFF" rx="6" ry="6" style="stroke:#181818;stroke-width:1.5;"/></g><!--link aName to aName--><g id="link_aName_aName"><path d="M3474.02,66.47 C3746.25,57.07 5095,57.91 5095,69 C5095,80.09 3746.25,80.93 3474.02,71.53 " fill="none" id="aName-aName-5" style="stroke:#181818;stroke-width:1.0;"/><text fill="#000000" font-family="sans-serif" font-size="13" lengthAdjust="spacing" textLength="303" x="5108" y="73.5669">com_acmeair_service_BookingService_Provider</text><path d="M3466.7091,59.6472 A10,10 0 0 0 3467.1972 73.7809" fill="none" style="stroke:#181818;stroke-width:1.5;"/><ellipse cx="3474.02" cy="66.47" fill="#FFFFFF" rx="6" ry="6" style="stroke:#181818;stroke-width:1.5;"/></g><!--link aName to aName--><g id="link_aName_aName"><path d="M3474.3,66.31 C3778.64,55.07 5424,55.96 5424,69 C5424,82.04 3778.64,82.93 3474.3,71.69 " fill="none" id="aName-aName-6" style="stroke:#181818;stroke-width:1.0;"/><text fill="#000000" font-family="sans-serif" font-size="13" lengthAdjust="spacing" textLength="303" x="5437" y="73.5669">com_acmeair_service_BookingService_Provider</text><path d="M3466.9728,59.5047 A10,10 0 0 0 3467.4947 73.6372" fill="none" style="stroke:#181818;stroke-width:1.5;"/><ellipse cx="3474.3" cy="66.31" fill="#FFFFFF" rx="6" ry="6" style="stroke:#181818;stroke-width:1.5;"/></g><!--link aName to aName--><g id="link_aName_aName"><path d="M3474.15,66.18 C3807.24,53.06 5753,54 5753,69 C5753,84 3807.24,84.94 3474.15,71.82 " fill="none" id="aName-aName-7" style="stroke:#181818;stroke-width:1.0;"/><text fill="#000000" font-family="sans-serif" font-size="13" lengthAdjust="spacing" textLength="315" x="5766" y="73.5669">com_acmeair_service_CustomerService_Provider</text><path d="M3466.8061,59.3927 A10,10 0 0 0 3467.3627 73.5239" fill="none" style="stroke:#181818;stroke-width:1.5;"/><ellipse cx="3474.15" cy="66.18" fill="#FFFFFF" rx="6" ry="6" style="stroke:#181818;stroke-width:1.5;"/></g><!--link aName to aName--><g id="link_aName_aName"><path d="M3474.16,66.06 C3835.59,51.06 6094,52.04 6094,69 C6094,85.96 3835.59,86.94 3474.16,71.94 " fill="none" id="aName-aName-8" style="stroke:#181818;stroke-width:1.0;"/><text fill="#000000" font-family="sans-serif" font-size="13" lengthAdjust="spacing" textLength="315" x="6107" y="73.5669">com_acmeair_service_CustomerService_Provider</text><path d="M3466.8018,59.2882 A10,10 0 0 0 3467.3882 73.4182" fill="none" style="stroke:#181818;stroke-width:1.5;"/><ellipse cx="3474.16" cy="66.06" fill="#FFFFFF" rx="6" ry="6" style="stroke:#181818;stroke-width:1.5;"/></g><!--link aName to aName--><g id="link_aName_aName"><path d="M3474.03,65.95 C3861.74,49.06 6435,50.07 6435,69 C6435,87.93 3861.74,88.94 3474.03,72.05 " fill="none" id="aName-aName-9" style="stroke:#181818;stroke-width:1.0;"/><text fill="#000000" font-family="sans-serif" font-size="13" lengthAdjust="spacing" textLength="315" x="6448" y="73.5669">com_acmeair_service_CustomerService_Provider</text><path d="M3466.6579,59.1934 A10,10 0 0 0 3467.2734 73.3221" fill="none" style="stroke:#181818;stroke-width:1.5;"/><ellipse cx="3474.03" cy="65.95" fill="#FFFFFF" rx="6" ry="6" style="stroke:#181818;stroke-width:1.5;"/></g><!--link aName to aName--><g id="link_aName_aName"><path d="M3474.32,65.83 C3888.56,47.06 6776,48.11 6776,69 C6776,89.89 3888.56,90.94 3474.32,72.17 " fill="none" id="aName-aName-10" style="stroke:#181818;stroke-width:1.0;"/><text fill="#000000" font-family="sans-serif" font-size="13" lengthAdjust="spacing" textLength="315" x="6789" y="73.5669">com_acmeair_service_CustomerService_Provider</text><path d="M3466.9361,59.0863 A10,10 0 0 0 3467.5763 73.2139" fill="none" style="stroke:#181818;stroke-width:1.5;"/><ellipse cx="3474.32" cy="65.83" fill="#FFFFFF" rx="6" ry="6" style="stroke:#181818;stroke-width:1.5;"/></g><!--link aName to aName--><g id="link_aName_aName"><path d="M3474.31,65.74 C3912.99,45.05 7117,46.14 7117,69 C7117,91.86 3912.99,92.95 3474.31,72.26 " fill="none" id="aName-aName-11" style="stroke:#181818;stroke-width:1.0;"/><text fill="#000000" font-family="sans-serif" font-size="13" lengthAdjust="spacing" textLength="315" x="7130" y="73.5669">com_acmeair_service_CustomerService_Provider</text><path d="M3466.9137,59.0099 A10,10 0 0 0 3467.5799 73.1363" fill="none" style="stroke:#181818;stroke-width:1.5;"/><ellipse cx="3474.31" cy="65.74" fill="#FFFFFF" rx="6" ry="6" style="stroke:#181818;stroke-width:1.5;"/></g><!--link aName to aName--><g id="link_aName_aName"><path d="M3474.1,65.65 C3935.49,43.05 7458,44.17 7458,69 C7458,93.83 3935.49,94.95 3474.1,72.35 " fill="none" id="aName-aName-12" style="stroke:#181818;stroke-width:1.0;"/><text fill="#000000" font-family="sans-serif" font-size="13" lengthAdjust="spacing" textLength="286" x="7471" y="73.5669">com_acmeair_service_FlightService_Provider</text><path d="M3466.6915,58.9333 A10,10 0 0 0 3467.3833 73.0585" fill="none" style="stroke:#181818;stroke-width:1.5;"/><ellipse cx="3474.1" cy="65.65" fill="#FFFFFF" rx="6" ry="6" style="stroke:#181818;stroke-width:1.5;"/></g><!--link aName to aName--><g id="link_aName_aName"><path d="M3474.37,65.55 C3957.99,41.05 7770,42.2 7770,69 C7770,95.8 3957.99,96.95 3474.37,72.45 " fill="none" id="aName-aName-13" style="stroke:#181818;stroke-width:1.0;"/><text fill="#000000" font-family="sans-serif" font-size="13" lengthAdjust="spacing" textLength="286" x="7783" y="73.5669">com_acmeair_service_FlightService_Provider</text><path d="M3466.9502,58.8457 A10,10 0 0 0 3467.6657 72.9698" fill="none" style="stroke:#181818;stroke-width:1.5;"/><ellipse cx="3474.37" cy="65.55" fill="#FFFFFF" rx="6" ry="6" style="stroke:#181818;stroke-width:1.5;"/></g><!--link aName to aName--><g id="link_aName_aName"><path d="M3474.3,65.46 C3978.21,39.05 8082,40.23 8082,69 C8082,97.77 3978.21,98.95 3474.3,72.54 " fill="none" id="aName-aName-14" style="stroke:#181818;stroke-width:1.0;"/><text fill="#000000" font-family="sans-serif" font-size="13" lengthAdjust="spacing" textLength="286" x="8095" y="73.5669">com_acmeair_service_FlightService_Provider</text><path d="M3466.8685,58.7687 A10,10 0 0 0 3467.6087 72.8915" fill="none" style="stroke:#181818;stroke-width:1.5;"/><ellipse cx="3474.3" cy="65.46" fill="#FFFFFF" rx="6" ry="6" style="stroke:#181818;stroke-width:1.5;"/></g><!--link aName to aName--><g id="link_aName_aName"><path d="M3474.32,65.37 C3998.38,37.05 8394,38.26 8394,69 C8394,99.74 3998.38,100.95 3474.32,72.63 " fill="none" id="aName-aName-15" style="stroke:#181818;stroke-width:1.0;"/><text fill="#000000" font-family="sans-serif" font-size="13" lengthAdjust="spacing" textLength="293" x="8407" y="73.5669">com_acmeair_service_KeyGenerator_Provider</text><path d="M3466.8777,58.6908 A10,10 0 0 0 3467.6408 72.8123" fill="none" style="stroke:#181818;stroke-width:1.5;"/><ellipse cx="3474.32" cy="65.37" fill="#FFFFFF" rx="6" ry="6" style="stroke:#181818;stroke-width:1.5;"/></g><!--link aName to aName--><g id="link_aName_aName"><path d="M3474.09,65.31 C4017.07,35.05 8713,36.28 8713,69 C8713,101.72 4017.07,102.95 3474.09,72.69 " fill="none" id="aName-aName-16" style="stroke:#181818;stroke-width:1.0;"/><text fill="#000000" font-family="sans-serif" font-size="13" lengthAdjust="spacing" textLength="326" x="8726" y="73.5669">com_acmeair_service_TransactionService_Provider</text><path d="M3466.6364,58.6433 A10,10 0 0 0 3467.4233 72.7636" fill="none" style="stroke:#181818;stroke-width:1.5;"/><ellipse cx="3474.09" cy="65.31" fill="#FFFFFF" rx="6" ry="6" style="stroke:#181818;stroke-width:1.5;"/></g><!--link aName to aName--><g id="link_aName_aName"><path d="M3474.16,65.24 C4038.58,33.05 9065,34.3 9065,69 C9065,103.7 4038.58,104.95 3474.16,72.76 " fill="none" id="aName-aName-17" style="stroke:#181818;stroke-width:1.0;"/><text fill="#000000" font-family="sans-serif" font-size="13" lengthAdjust="spacing" textLength="326" x="9078" y="73.5669">com_acmeair_service_TransactionService_Provider</text><path d="M3466.6978,58.583 A10,10 0 0 0 3467.503 72.7022" fill="none" style="stroke:#181818;stroke-width:1.5;"/><ellipse cx="3474.16" cy="65.24" fill="#FFFFFF" rx="6" ry="6" style="stroke:#181818;stroke-width:1.5;"/></g><!--SRC=[xPLDIyGm48Rl_HK1BrugtUgsgpSjwi6Y2teGIWbZEdQ3-QXfMhQ8_zqLkpTPn9r5X3rDSfWdJyYyf7sHfW47cZtBPIQTK9Z34wgx7fs2ff6cPjvr61XR8Pih4BYmgaB79oViBIZW5ZIMh2X0Q0Jfmh4UjKFhKH_muJ5BPZclBZ4v5xXCNxjfbDPb6Rn_Wup8aIcz93bnIkz8Bndlm3AcjpocHz8JwPCJ9_H8-Z1EJkajTn1m-XcYlpVzuyp8YLlFvBevF8n2jjwSCM4r7obSMVWyAlygSsTxkLhyfBD5rqk1_CBQrHzOtu_RFUBF4LdNUglHxHbqZ2ibwuN_xuGR7AxHe0DlVnVs1mUc1U6bDTjuRC9y0000]--></g></svg>