<?xml version="1.0" encoding="us-ascii" standalone="no"?><svg xmlns="http://www.w3.org/2000/svg" xmlns:xlink="http://www.w3.org/1999/xlink" contentStyleType="text/css" height="439px" preserveAspectRatio="none" style="width:3356px;height:439px;background:#FFFFFF;" version="1.1" viewBox="0 0 3356 439" width="3356px" zoomAndPan="magnify"><defs/><g><!--cluster com_acmeair\n\n\n\n\n\n--><g id="cluster_com_acmeair\n\n\n\n\n\n"><rect fill="none" height="323" rx="2.5" ry="2.5" style="stroke:#181818;stroke-width:1.0;" width="2863" x="7" y="110"/><rect fill="none" height="10" style="stroke:#181818;stroke-width:1.0;" width="15" x="2850" y="115"/><rect fill="none" height="2" style="stroke:#181818;stroke-width:1.0;" width="4" x="2848" y="117"/><rect fill="none" height="2" style="stroke:#181818;stroke-width:1.0;" width="4" x="2848" y="121"/><text fill="#000000" font-family="sans-serif" font-size="14" font-weight="bold" lengthAdjust="spacing" textLength="102" x="1387.5" y="135.9951">com_acmeair</text><text fill="#000000" font-family="sans-serif" font-size="14" font-weight="bold" lengthAdjust="spacing" textLength="5" x="1436" y="152.292">&#160;</text><text fill="#000000" font-family="sans-serif" font-size="14" font-weight="bold" lengthAdjust="spacing" textLength="5" x="1436" y="168.5889">&#160;</text><text fill="#000000" font-family="sans-serif" font-size="14" font-weight="bold" lengthAdjust="spacing" textLength="5" x="1436" y="184.8857">&#160;</text><text fill="#000000" font-family="sans-serif" font-size="14" font-weight="bold" lengthAdjust="spacing" textLength="5" x="1436" y="201.1826">&#160;</text><text fill="#000000" font-family="sans-serif" font-size="14" font-weight="bold" lengthAdjust="spacing" textLength="5" x="1436" y="217.4795">&#160;</text><text fill="#000000" font-family="sans-serif" font-size="14" font-weight="bold" lengthAdjust="spacing" textLength="5" x="1436" y="233.7764">&#160;</text></g><!--cluster com_acmeair 2\n\n\n\n\n\n--><g id="cluster_com_acmeair 2\n\n\n\n\n\n"><rect fill="none" height="323" rx="2.5" ry="2.5" style="stroke:#181818;stroke-width:1.0;" width="347" x="3003" y="110"/><rect fill="none" height="10" style="stroke:#181818;stroke-width:1.0;" width="15" x="3330" y="115"/><rect fill="none" height="2" style="stroke:#181818;stroke-width:1.0;" width="4" x="3328" y="117"/><rect fill="none" height="2" style="stroke:#181818;stroke-width:1.0;" width="4" x="3328" y="121"/><text fill="#000000" font-family="sans-serif" font-size="14" font-weight="bold" lengthAdjust="spacing" textLength="117" x="3118" y="135.9951">com_acmeair 2</text><text fill="#000000" font-family="sans-serif" font-size="14" font-weight="bold" lengthAdjust="spacing" textLength="5" x="3174" y="152.292">&#160;</text><text fill="#000000" font-family="sans-serif" font-size="14" font-weight="bold" lengthAdjust="spacing" textLength="5" x="3174" y="168.5889">&#160;</text><text fill="#000000" font-family="sans-serif" font-size="14" font-weight="bold" lengthAdjust="spacing" textLength="5" x="3174" y="184.8857">&#160;</text><text fill="#000000" font-family="sans-serif" font-size="14" font-weight="bold" lengthAdjust="spacing" textLength="5" x="3174" y="201.1826">&#160;</text><text fill="#000000" font-family="sans-serif" font-size="14" font-weight="bold" lengthAdjust="spacing" textLength="5" x="3174" y="217.4795">&#160;</text><text fill="#000000" font-family="sans-serif" font-size="14" font-weight="bold" lengthAdjust="spacing" textLength="5" x="3174" y="233.7764">&#160;</text></g><!--entity com_acmeair_wxs_utils_WXSSessionManager--><g id="elem_com_acmeair_wxs_utils_WXSSessionManager"><rect fill="#F1F1F1" height="46.2969" rx="2.5" ry="2.5" style="stroke:#181818;stroke-width:0.5;" width="352" x="1647" y="371"/><rect fill="#F1F1F1" height="10" style="stroke:#181818;stroke-width:0.5;" width="15" x="1979" y="376"/><rect fill="#F1F1F1" height="2" style="stroke:#181818;stroke-width:0.5;" width="4" x="1977" y="378"/><rect fill="#F1F1F1" height="2" style="stroke:#181818;stroke-width:0.5;" width="4" x="1977" y="382"/><text fill="#000000" font-family="sans-serif" font-size="14" lengthAdjust="spacing" textLength="312" x="1662" y="403.9951">com_acmeair_wxs_utils_WXSSessionManager</text></g><!--entity com_acmeair_web_FlightsREST--><g id="elem_com_acmeair_web_FlightsREST"><rect fill="#F1F1F1" height="46.2969" rx="2.5" ry="2.5" style="stroke:#181818;stroke-width:0.5;" width="256" x="819" y="212.5"/><rect fill="#F1F1F1" height="10" style="stroke:#181818;stroke-width:0.5;" width="15" x="1055" y="217.5"/><rect fill="#F1F1F1" height="2" style="stroke:#181818;stroke-width:0.5;" width="4" x="1053" y="219.5"/><rect fill="#F1F1F1" height="2" style="stroke:#181818;stroke-width:0.5;" width="4" x="1053" y="223.5"/><text fill="#000000" font-family="sans-serif" font-size="14" lengthAdjust="spacing" textLength="216" x="834" y="245.4951">com_acmeair_web_FlightsREST</text></g><!--entity com_acmeair_morphia_services_FlightServiceImpl--><g id="elem_com_acmeair_morphia_services_FlightServiceImpl"><rect fill="#F1F1F1" height="46.2969" rx="2.5" ry="2.5" style="stroke:#181818;stroke-width:0.5;" width="380" x="855" y="371"/><rect fill="#F1F1F1" height="10" style="stroke:#181818;stroke-width:0.5;" width="15" x="1215" y="376"/><rect fill="#F1F1F1" height="2" style="stroke:#181818;stroke-width:0.5;" width="4" x="1213" y="378"/><rect fill="#F1F1F1" height="2" style="stroke:#181818;stroke-width:0.5;" width="4" x="1213" y="382"/><text fill="#000000" font-family="sans-serif" font-size="14" lengthAdjust="spacing" textLength="340" x="870" y="403.9951">com_acmeair_morphia_services_FlightServiceImpl</text></g><!--entity com_acmeair_loader_CustomerLoader--><g id="elem_com_acmeair_loader_CustomerLoader"><rect fill="#F1F1F1" height="46.2969" rx="2.5" ry="2.5" style="stroke:#181818;stroke-width:0.5;" width="303" x="1799.5" y="212.5"/><rect fill="#F1F1F1" height="10" style="stroke:#181818;stroke-width:0.5;" width="15" x="2082.5" y="217.5"/><rect fill="#F1F1F1" height="2" style="stroke:#181818;stroke-width:0.5;" width="4" x="2080.5" y="219.5"/><rect fill="#F1F1F1" height="2" style="stroke:#181818;stroke-width:0.5;" width="4" x="2080.5" y="223.5"/><text fill="#000000" font-family="sans-serif" font-size="14" lengthAdjust="spacing" textLength="263" x="1814.5" y="245.4951">com_acmeair_loader_CustomerLoader</text></g><!--entity com_acmeair_web_CustomerREST--><g id="elem_com_acmeair_web_CustomerREST"><rect fill="#F1F1F1" height="46.2969" rx="2.5" ry="2.5" style="stroke:#181818;stroke-width:0.5;" width="279" x="2574.5" y="212.5"/><rect fill="#F1F1F1" height="10" style="stroke:#181818;stroke-width:0.5;" width="15" x="2833.5" y="217.5"/><rect fill="#F1F1F1" height="2" style="stroke:#181818;stroke-width:0.5;" width="4" x="2831.5" y="219.5"/><rect fill="#F1F1F1" height="2" style="stroke:#181818;stroke-width:0.5;" width="4" x="2831.5" y="223.5"/><text fill="#000000" font-family="sans-serif" font-size="14" lengthAdjust="spacing" textLength="239" x="2589.5" y="245.4951">com_acmeair_web_CustomerREST</text></g><!--entity com_acmeair_wxs_service_FlightServiceImpl--><g id="elem_com_acmeair_wxs_service_FlightServiceImpl"><rect fill="#F1F1F1" height="46.2969" rx="2.5" ry="2.5" style="stroke:#181818;stroke-width:0.5;" width="342" x="1270" y="371"/><rect fill="#F1F1F1" height="10" style="stroke:#181818;stroke-width:0.5;" width="15" x="1592" y="376"/><rect fill="#F1F1F1" height="2" style="stroke:#181818;stroke-width:0.5;" width="4" x="1590" y="378"/><rect fill="#F1F1F1" height="2" style="stroke:#181818;stroke-width:0.5;" width="4" x="1590" y="382"/><text fill="#000000" font-family="sans-serif" font-size="14" lengthAdjust="spacing" textLength="302" x="1285" y="403.9951">com_acmeair_wxs_service_FlightServiceImpl</text></g><!--entity com_acmeair_wxs_service_CustomerServiceImpl--><g id="elem_com_acmeair_wxs_service_CustomerServiceImpl"><rect fill="#F1F1F1" height="46.2969" rx="2.5" ry="2.5" style="stroke:#181818;stroke-width:0.5;" width="373" x="2480.5" y="371"/><rect fill="#F1F1F1" height="10" style="stroke:#181818;stroke-width:0.5;" width="15" x="2833.5" y="376"/><rect fill="#F1F1F1" height="2" style="stroke:#181818;stroke-width:0.5;" width="4" x="2831.5" y="378"/><rect fill="#F1F1F1" height="2" style="stroke:#181818;stroke-width:0.5;" width="4" x="2831.5" y="382"/><text fill="#000000" font-family="sans-serif" font-size="14" lengthAdjust="spacing" textLength="333" x="2495.5" y="403.9951">com_acmeair_wxs_service_CustomerServiceImpl</text></g><!--entity com_acmeair_web_LoginREST--><g id="elem_com_acmeair_web_LoginREST"><rect fill="#F1F1F1" height="46.2969" rx="2.5" ry="2.5" style="stroke:#181818;stroke-width:0.5;" width="248" x="2291" y="212.5"/><rect fill="#F1F1F1" height="10" style="stroke:#181818;stroke-width:0.5;" width="15" x="2519" y="217.5"/><rect fill="#F1F1F1" height="2" style="stroke:#181818;stroke-width:0.5;" width="4" x="2517" y="219.5"/><rect fill="#F1F1F1" height="2" style="stroke:#181818;stroke-width:0.5;" width="4" x="2517" y="223.5"/><text fill="#000000" font-family="sans-serif" font-size="14" lengthAdjust="spacing" textLength="208" x="2306" y="245.4951">com_acmeair_web_LoginREST</text></g><!--entity com_acmeair_web_RESTCookieSessionFilter--><g id="elem_com_acmeair_web_RESTCookieSessionFilter"><rect fill="#F1F1F1" height="46.2969" rx="2.5" ry="2.5" style="stroke:#181818;stroke-width:0.5;" width="347" x="1417.5" y="212.5"/><rect fill="#F1F1F1" height="10" style="stroke:#181818;stroke-width:0.5;" width="15" x="1744.5" y="217.5"/><rect fill="#F1F1F1" height="2" style="stroke:#181818;stroke-width:0.5;" width="4" x="1742.5" y="219.5"/><rect fill="#F1F1F1" height="2" style="stroke:#181818;stroke-width:0.5;" width="4" x="1742.5" y="223.5"/><text fill="#000000" font-family="sans-serif" font-size="14" lengthAdjust="spacing" textLength="307" x="1432.5" y="245.4951">com_acmeair_web_RESTCookieSessionFilter</text></g><!--entity com_acmeair_morphia_services_CustomerServiceImpl--><g id="elem_com_acmeair_morphia_services_CustomerServiceImpl"><rect fill="#F1F1F1" height="46.2969" rx="2.5" ry="2.5" style="stroke:#181818;stroke-width:0.5;" width="411" x="2034.5" y="371"/><rect fill="#F1F1F1" height="10" style="stroke:#181818;stroke-width:0.5;" width="15" x="2425.5" y="376"/><rect fill="#F1F1F1" height="2" style="stroke:#181818;stroke-width:0.5;" width="4" x="2423.5" y="378"/><rect fill="#F1F1F1" height="2" style="stroke:#181818;stroke-width:0.5;" width="4" x="2423.5" y="382"/><text fill="#000000" font-family="sans-serif" font-size="14" lengthAdjust="spacing" textLength="371" x="2049.5" y="403.9951">com_acmeair_morphia_services_CustomerServiceImpl</text></g><!--entity com_acmeair_morphia_services_BookingServiceImpl--><g id="elem_com_acmeair_morphia_services_BookingServiceImpl"><rect fill="#F1F1F1" height="46.2969" rx="2.5" ry="2.5" style="stroke:#181818;stroke-width:0.5;" width="400" x="420" y="371"/><rect fill="#F1F1F1" height="10" style="stroke:#181818;stroke-width:0.5;" width="15" x="800" y="376"/><rect fill="#F1F1F1" height="2" style="stroke:#181818;stroke-width:0.5;" width="4" x="798" y="378"/><rect fill="#F1F1F1" height="2" style="stroke:#181818;stroke-width:0.5;" width="4" x="798" y="382"/><text fill="#000000" font-family="sans-serif" font-size="14" lengthAdjust="spacing" textLength="360" x="435" y="403.9951">com_acmeair_morphia_services_BookingServiceImpl</text></g><!--entity com_acmeair_loader_FlightLoader--><g id="elem_com_acmeair_loader_FlightLoader"><rect fill="#F1F1F1" height="46.2969" rx="2.5" ry="2.5" style="stroke:#181818;stroke-width:0.5;" width="272" x="1110" y="212.5"/><rect fill="#F1F1F1" height="10" style="stroke:#181818;stroke-width:0.5;" width="15" x="1362" y="217.5"/><rect fill="#F1F1F1" height="2" style="stroke:#181818;stroke-width:0.5;" width="4" x="1360" y="219.5"/><rect fill="#F1F1F1" height="2" style="stroke:#181818;stroke-width:0.5;" width="4" x="1360" y="223.5"/><text fill="#000000" font-family="sans-serif" font-size="14" lengthAdjust="spacing" textLength="232" x="1125" y="245.4951">com_acmeair_loader_FlightLoader</text></g><!--entity com_acmeair_config_AcmeAirConfiguration--><g id="elem_com_acmeair_config_AcmeAirConfiguration"><rect fill="#F1F1F1" height="46.2969" rx="2.5" ry="2.5" style="stroke:#181818;stroke-width:0.5;" width="335" x="448.5" y="212.5"/><rect fill="#F1F1F1" height="10" style="stroke:#181818;stroke-width:0.5;" width="15" x="763.5" y="217.5"/><rect fill="#F1F1F1" height="2" style="stroke:#181818;stroke-width:0.5;" width="4" x="761.5" y="219.5"/><rect fill="#F1F1F1" height="2" style="stroke:#181818;stroke-width:0.5;" width="4" x="761.5" y="223.5"/><text fill="#000000" font-family="sans-serif" font-size="14" lengthAdjust="spacing" textLength="295" x="463.5" y="245.4951">com_acmeair_config_AcmeAirConfiguration</text></g><!--entity com_acmeair_wxs_service_BookingServiceImpl--><g id="elem_com_acmeair_wxs_service_BookingServiceImpl"><rect fill="#F1F1F1" height="46.2969" rx="2.5" ry="2.5" style="stroke:#181818;stroke-width:0.5;" width="362" x="23" y="371"/><rect fill="#F1F1F1" height="10" style="stroke:#181818;stroke-width:0.5;" width="15" x="365" y="376"/><rect fill="#F1F1F1" height="2" style="stroke:#181818;stroke-width:0.5;" width="4" x="363" y="378"/><rect fill="#F1F1F1" height="2" style="stroke:#181818;stroke-width:0.5;" width="4" x="363" y="382"/><text fill="#000000" font-family="sans-serif" font-size="14" lengthAdjust="spacing" textLength="322" x="38" y="403.9951">com_acmeair_wxs_service_BookingServiceImpl</text></g><!--entity com_acmeair_web_BookingsREST--><g id="elem_com_acmeair_web_BookingsREST"><rect fill="#F1F1F1" height="46.2969" rx="2.5" ry="2.5" style="stroke:#181818;stroke-width:0.5;" width="276" x="137" y="212.5"/><rect fill="#F1F1F1" height="10" style="stroke:#181818;stroke-width:0.5;" width="15" x="393" y="217.5"/><rect fill="#F1F1F1" height="2" style="stroke:#181818;stroke-width:0.5;" width="4" x="391" y="219.5"/><rect fill="#F1F1F1" height="2" style="stroke:#181818;stroke-width:0.5;" width="4" x="391" y="223.5"/><text fill="#000000" font-family="sans-serif" font-size="14" lengthAdjust="spacing" textLength="236" x="152" y="245.4951">com_acmeair_web_BookingsREST</text></g><text fill="#000000" font-family="sans-serif" font-size="14" lengthAdjust="spacing" textLength="4" x="614" y="88.6982">&#160;</text><rect fill="#F1F1F1" height="12" style="stroke:#181818;stroke-width:1.5;" width="12" x="610" y="104"/><text fill="#000000" font-family="sans-serif" font-size="14" lengthAdjust="spacing" textLength="4" x="499" y="88.6982">&#160;</text><rect fill="#F1F1F1" height="12" style="stroke:#181818;stroke-width:1.5;" width="12" x="495" y="104"/><text fill="#000000" font-family="sans-serif" font-size="14" lengthAdjust="spacing" textLength="4" x="2285" y="88.6982">&#160;</text><rect fill="#F1F1F1" height="12" style="stroke:#181818;stroke-width:1.5;" width="12" x="2281" y="104"/><text fill="#000000" font-family="sans-serif" font-size="14" lengthAdjust="spacing" textLength="4" x="2040" y="88.6982">&#160;</text><rect fill="#F1F1F1" height="12" style="stroke:#181818;stroke-width:1.5;" width="12" x="2036" y="104"/><text fill="#000000" font-family="sans-serif" font-size="14" lengthAdjust="spacing" textLength="4" x="2195" y="88.6982">&#160;</text><rect fill="#F1F1F1" height="12" style="stroke:#181818;stroke-width:1.5;" width="12" x="2191" y="104"/><!--entity com_acmeair_config_LoaderREST--><g id="elem_com_acmeair_config_LoaderREST"><rect fill="#F1F1F1" height="46.2969" rx="2.5" ry="2.5" style="stroke:#181818;stroke-width:0.5;" width="271" x="3062.5" y="212.5"/><rect fill="#F1F1F1" height="10" style="stroke:#181818;stroke-width:0.5;" width="15" x="3313.5" y="217.5"/><rect fill="#F1F1F1" height="2" style="stroke:#181818;stroke-width:0.5;" width="4" x="3311.5" y="219.5"/><rect fill="#F1F1F1" height="2" style="stroke:#181818;stroke-width:0.5;" width="4" x="3311.5" y="223.5"/><text fill="#000000" font-family="sans-serif" font-size="14" lengthAdjust="spacing" textLength="231" x="3077.5" y="245.4951">com_acmeair_config_LoaderREST</text></g><!--entity com_acmeair_loader_Loader--><g id="elem_com_acmeair_loader_Loader"><rect fill="#F1F1F1" height="46.2969" rx="2.5" ry="2.5" style="stroke:#181818;stroke-width:0.5;" width="235" x="3080.5" y="371"/><rect fill="#F1F1F1" height="10" style="stroke:#181818;stroke-width:0.5;" width="15" x="3295.5" y="376"/><rect fill="#F1F1F1" height="2" style="stroke:#181818;stroke-width:0.5;" width="4" x="3293.5" y="378"/><rect fill="#F1F1F1" height="2" style="stroke:#181818;stroke-width:0.5;" width="4" x="3293.5" y="382"/><text fill="#000000" font-family="sans-serif" font-size="14" lengthAdjust="spacing" textLength="195" x="3095.5" y="403.9951">com_acmeair_loader_Loader</text></g><text fill="#000000" font-family="sans-serif" font-size="14" lengthAdjust="spacing" textLength="4" x="3019" y="88.6982">&#160;</text><rect fill="#F1F1F1" height="12" style="stroke:#181818;stroke-width:1.5;" width="12" x="3015" y="104"/><!--entity interface.SERVICE_HOST_bookings--><g id="elem_interface.SERVICE_HOST_bookings"><ellipse cx="469" cy="14" fill="#F1F1F1" rx="8" ry="8" style="stroke:#181818;stroke-width:0.5;"/><text fill="#000000" font-family="sans-serif" font-size="14" lengthAdjust="spacing" textLength="172" x="383" y="43.9951">SERVICE-HOST/bookings</text></g><!--entity interface.SERVICE_HOST_config--><g id="elem_interface.SERVICE_HOST_config"><ellipse cx="681" cy="14" fill="#F1F1F1" rx="8" ry="8" style="stroke:#181818;stroke-width:0.5;"/><text fill="#000000" font-family="sans-serif" font-size="14" lengthAdjust="spacing" textLength="150" x="606" y="43.9951">SERVICE-HOST/config</text></g><!--entity interface.SERVICE_HOST_customer_byid--><g id="elem_interface.SERVICE_HOST_customer_byid"><ellipse cx="2197" cy="14" fill="#F1F1F1" rx="8" ry="8" style="stroke:#181818;stroke-width:0.5;"/><text fill="#000000" font-family="sans-serif" font-size="14" lengthAdjust="spacing" textLength="207" x="2093.5" y="43.9951">SERVICE-HOST/customer/byid</text></g><!--entity interface.SERVICE_HOST_flights--><g id="elem_interface.SERVICE_HOST_flights"><ellipse cx="1969" cy="14" fill="#F1F1F1" rx="8" ry="8" style="stroke:#181818;stroke-width:0.5;"/><text fill="#000000" font-family="sans-serif" font-size="14" lengthAdjust="spacing" textLength="149" x="1894.5" y="43.9951">SERVICE-HOST/flights</text></g><!--entity interface.SERVICE_HOST_login--><g id="elem_interface.SERVICE_HOST_login"><ellipse cx="2421" cy="14" fill="#F1F1F1" rx="8" ry="8" style="stroke:#181818;stroke-width:0.5;"/><text fill="#000000" font-family="sans-serif" font-size="14" lengthAdjust="spacing" textLength="141" x="2350.5" y="43.9951">SERVICE-HOST/login</text></g><!--entity interface.SERVICE_HOST_loader--><g id="elem_interface.SERVICE_HOST_loader"><ellipse cx="3021" cy="14" fill="#F1F1F1" rx="8" ry="8" style="stroke:#181818;stroke-width:0.5;"/><text fill="#000000" font-family="sans-serif" font-size="14" lengthAdjust="spacing" textLength="151" x="2945.5" y="43.9951">SERVICE-HOST/loader</text></g><!--link com_acmeair_web_CustomerREST to com_acmeair_wxs_service_CustomerServiceImpl--><g id="link_com_acmeair_web_CustomerREST_com_acmeair_wxs_service_CustomerServiceImpl"><path d="M2713.07,258.72 C2711.6,280.3 2707.8,313.71 2698,341 C2694.27,351.39 2691.5891,356.9303 2685.9491,365.8403 " fill="none" id="com_acmeair_web_CustomerREST-to-com_acmeair_wxs_service_CustomerServiceImpl" style="stroke:#181818;stroke-width:1.0;stroke-dasharray:7.0,7.0;"/><polygon fill="#181818" points="2682.74,370.91,2690.9334,365.4449,2685.4142,366.6853,2684.1739,361.1661,2682.74,370.91" style="stroke:#181818;stroke-width:1.0;"/><text fill="#000000" font-family="sans-serif" font-size="13" lengthAdjust="spacing" textLength="52" x="2704" y="337.0669">requires</text></g><!--link com_acmeair_loader_CustomerLoader to com_acmeair_morphia_services_CustomerServiceImpl--><g id="link_com_acmeair_loader_CustomerLoader_com_acmeair_morphia_services_CustomerServiceImpl"><path d="M1978.84,258.68 C2008.38,281.47 2057.04,316.93 2103,341 C2124.86,352.45 2144.1884,360.6199 2166.7684,368.9199 " fill="none" id="com_acmeair_loader_CustomerLoader-to-com_acmeair_morphia_services_CustomerServiceImpl" style="stroke:#181818;stroke-width:1.0;stroke-dasharray:7.0,7.0;"/><polygon fill="#181818" points="2172.4,370.99,2165.3327,364.1305,2167.707,369.2649,2162.5726,371.6393,2172.4,370.99" style="stroke:#181818;stroke-width:1.0;"/><text fill="#000000" font-family="sans-serif" font-size="13" lengthAdjust="spacing" textLength="52" x="2104" y="337.0669">requires</text></g><!--link com_acmeair_web_CustomerREST to com_acmeair_morphia_services_CustomerServiceImpl--><g id="link_com_acmeair_web_CustomerREST_com_acmeair_morphia_services_CustomerServiceImpl"><path d="M2663.71,258.56 C2633.38,270.94 2593.63,285.56 2557,294 C2493.22,308.7 2315.34,283.4 2264,324 C2249.87,335.17 2244.9423,349.2498 2242.5423,364.8498 " fill="none" id="com_acmeair_web_CustomerREST-to-com_acmeair_morphia_services_CustomerServiceImpl" style="stroke:#181818;stroke-width:1.0;stroke-dasharray:7.0,7.0;"/><polygon fill="#181818" points="2241.63,370.78,2246.952,362.4929,2242.3903,365.8381,2239.045,361.2764,2241.63,370.78" style="stroke:#181818;stroke-width:1.0;"/><text fill="#000000" font-family="sans-serif" font-size="13" lengthAdjust="spacing" textLength="52" x="2265" y="337.0669">requires</text></g><!--link com_acmeair_web_LoginREST to com_acmeair_wxs_service_CustomerServiceImpl--><g id="link_com_acmeair_web_LoginREST_com_acmeair_wxs_service_CustomerServiceImpl"><path d="M2478.41,258.52 C2516.82,273.58 2565.64,295.9 2604,324 C2622.06,337.23 2635.2208,351.5576 2646.9508,366.2776 " fill="none" id="com_acmeair_web_LoginREST-to-com_acmeair_wxs_service_CustomerServiceImpl" style="stroke:#181818;stroke-width:1.0;stroke-dasharray:7.0,7.0;"/><polygon fill="#181818" points="2650.69,370.97,2648.2094,361.4386,2647.574,367.0597,2641.9529,366.4243,2650.69,370.97" style="stroke:#181818;stroke-width:1.0;"/><text fill="#000000" font-family="sans-serif" font-size="13" lengthAdjust="spacing" textLength="52" x="2624" y="337.0669">requires</text></g><!--link com_acmeair_config_AcmeAirConfiguration to com_acmeair_wxs_service_FlightServiceImpl--><g id="link_com_acmeair_config_AcmeAirConfiguration_com_acmeair_wxs_service_FlightServiceImpl"><path d="M676.35,258.59 C712.35,270.9 759.25,285.44 802,294 C939.03,321.45 979.71,288.98 1115,324 C1133.31,328.74 1135.91,335.5 1154,341 C1194.82,353.41 1233.9473,362.2036 1276.0073,369.8736 " fill="none" id="com_acmeair_config_AcmeAirConfiguration-to-com_acmeair_wxs_service_FlightServiceImpl" style="stroke:#181818;stroke-width:1.0;stroke-dasharray:7.0,7.0;"/><polygon fill="#181818" points="1281.91,370.95,1273.7736,365.4003,1276.9911,370.053,1272.3384,373.2705,1281.91,370.95" style="stroke:#181818;stroke-width:1.0;"/><text fill="#000000" font-family="sans-serif" font-size="13" lengthAdjust="spacing" textLength="52" x="1155" y="337.0669">requires</text></g><!--link com_acmeair_web_BookingsREST to com_acmeair_morphia_services_BookingServiceImpl--><g id="link_com_acmeair_web_BookingsREST_com_acmeair_morphia_services_BookingServiceImpl"><path d="M323.7,258.59 C389.36,288.38 500.1362,338.6206 565.8062,368.4206 " fill="none" id="com_acmeair_web_BookingsREST-to-com_acmeair_morphia_services_BookingServiceImpl" style="stroke:#181818;stroke-width:1.0;stroke-dasharray:7.0,7.0;"/><polygon fill="#181818" points="571.27,370.9,564.7273,363.5384,566.7169,368.8339,561.4214,370.8235,571.27,370.9" style="stroke:#181818;stroke-width:1.0;"/><text fill="#000000" font-family="sans-serif" font-size="13" lengthAdjust="spacing" textLength="52" x="499" y="337.0669">requires</text></g><!--link com_acmeair_config_AcmeAirConfiguration to com_acmeair_wxs_service_BookingServiceImpl--><g id="link_com_acmeair_config_AcmeAirConfiguration_com_acmeair_wxs_service_BookingServiceImpl"><path d="M557.84,258.59 C479.43,288.38 346.2288,338.9689 267.7988,368.7689 " fill="none" id="com_acmeair_config_AcmeAirConfiguration-to-com_acmeair_wxs_service_BookingServiceImpl" style="stroke:#181818;stroke-width:1.0;stroke-dasharray:7.0,7.0;"/><polygon fill="#181818" points="262.19,370.9,272.0239,371.4425,266.864,369.1241,269.1824,363.9642,262.19,370.9" style="stroke:#181818;stroke-width:1.0;"/><text fill="#000000" font-family="sans-serif" font-size="13" lengthAdjust="spacing" textLength="52" x="386" y="337.0669">requires</text></g><!--link com_acmeair_loader_CustomerLoader to com_acmeair_wxs_service_CustomerServiceImpl--><g id="link_com_acmeair_loader_CustomerLoader_com_acmeair_wxs_service_CustomerServiceImpl"><path d="M2004.79,258.54 C2037.77,271.08 2081.16,285.86 2121,294 C2290.89,328.72 2343.48,275.64 2510,324 C2525.47,328.49 2527.44,334.12 2542,341 C2564.21,351.49 2583.5652,359.812 2605.2652,368.672 " fill="none" id="com_acmeair_loader_CustomerLoader-to-com_acmeair_wxs_service_CustomerServiceImpl" style="stroke:#181818;stroke-width:1.0;stroke-dasharray:7.0,7.0;"/><polygon fill="#181818" points="2610.82,370.94,2603.9998,363.8348,2606.191,369.05,2600.9757,371.2412,2610.82,370.94" style="stroke:#181818;stroke-width:1.0;"/><text fill="#000000" font-family="sans-serif" font-size="13" lengthAdjust="spacing" textLength="52" x="2543" y="337.0669">requires</text></g><!--link com_acmeair_web_LoginREST to com_acmeair_morphia_services_CustomerServiceImpl--><g id="link_com_acmeair_web_LoginREST_com_acmeair_morphia_services_CustomerServiceImpl"><path d="M2364.59,258.58 C2337.92,269.87 2304.47,283.43 2274,294 C2228.55,309.77 2198.92,285.56 2170,324 C2157.07,341.18 2168.7523,354.9736 2189.1023,367.7836 " fill="none" id="com_acmeair_web_LoginREST-to-com_acmeair_morphia_services_CustomerServiceImpl" style="stroke:#181818;stroke-width:1.0;stroke-dasharray:7.0,7.0;"/><polygon fill="#181818" points="2194.18,370.98,2188.6943,362.8003,2189.9486,368.3164,2184.4325,369.5706,2194.18,370.98" style="stroke:#181818;stroke-width:1.0;"/><text fill="#000000" font-family="sans-serif" font-size="13" lengthAdjust="spacing" textLength="52" x="2171" y="337.0669">requires</text></g><!--link com_acmeair_web_BookingsREST to com_acmeair_wxs_service_BookingServiceImpl--><g id="link_com_acmeair_web_BookingsREST_com_acmeair_wxs_service_BookingServiceImpl"><path d="M264.98,258.59 C251.48,288.33 230.0876,335.4854 216.5676,365.3054 " fill="none" id="com_acmeair_web_BookingsREST-to-com_acmeair_wxs_service_BookingServiceImpl" style="stroke:#181818;stroke-width:1.0;stroke-dasharray:7.0,7.0;"/><polygon fill="#181818" points="214.09,370.77,221.4494,364.2248,216.1546,366.2162,214.1633,360.9214,214.09,370.77" style="stroke:#181818;stroke-width:1.0;"/><text fill="#000000" font-family="sans-serif" font-size="13" lengthAdjust="spacing" textLength="52" x="236" y="337.0669">requires</text></g><!--link com_acmeair_web_RESTCookieSessionFilter to com_acmeair_wxs_utils_WXSSessionManager--><g id="link_com_acmeair_web_RESTCookieSessionFilter_com_acmeair_wxs_utils_WXSSessionManager"><path d="M1600.12,258.52 C1611,282.2 1631.4,319.35 1660,341 C1676.93,353.82 1691.4781,361.4882 1711.7881,368.8382 " fill="none" id="com_acmeair_web_RESTCookieSessionFilter-to-com_acmeair_wxs_utils_WXSSessionManager" style="stroke:#181818;stroke-width:1.0;stroke-dasharray:7.0,7.0;"/><polygon fill="#181818" points="1717.43,370.88,1710.3283,364.0561,1712.7284,369.1785,1707.606,371.5786,1717.43,370.88" style="stroke:#181818;stroke-width:1.0;"/><text fill="#000000" font-family="sans-serif" font-size="13" lengthAdjust="spacing" textLength="52" x="1661" y="337.0669">requires</text></g><!--link com_acmeair_web_FlightsREST to com_acmeair_morphia_services_FlightServiceImpl--><g id="link_com_acmeair_web_FlightsREST_com_acmeair_morphia_services_FlightServiceImpl"><path d="M943.04,258.75 C940.26,281.27 939.4,316.21 955,341 C962.88,353.52 969.7933,360.2927 982.5533,367.8827 " fill="none" id="com_acmeair_web_FlightsREST-to-com_acmeair_morphia_services_FlightServiceImpl" style="stroke:#181818;stroke-width:1.0;stroke-dasharray:7.0,7.0;"/><polygon fill="#181818" points="987.71,370.95,982.0199,362.9112,983.4128,368.3939,977.9301,369.7868,987.71,370.95" style="stroke:#181818;stroke-width:1.0;"/><text fill="#000000" font-family="sans-serif" font-size="13" lengthAdjust="spacing" textLength="52" x="956" y="337.0669">requires</text></g><!--link com_acmeair_config_AcmeAirConfiguration to com_acmeair_morphia_services_BookingServiceImpl--><g id="link_com_acmeair_config_AcmeAirConfiguration_com_acmeair_morphia_services_BookingServiceImpl"><path d="M616.56,258.59 C617.32,288.33 618.5171,334.9519 619.2771,364.7719 " fill="none" id="com_acmeair_config_AcmeAirConfiguration-to-com_acmeair_morphia_services_BookingServiceImpl" style="stroke:#181818;stroke-width:1.0;stroke-dasharray:7.0,7.0;"/><polygon fill="#181818" points="619.43,370.77,623.1994,361.671,619.3026,365.7716,615.202,361.8748,619.43,370.77" style="stroke:#181818;stroke-width:1.0;"/><text fill="#000000" font-family="sans-serif" font-size="13" lengthAdjust="spacing" textLength="52" x="619" y="337.0669">requires</text></g><!--link com_acmeair_config_AcmeAirConfiguration to com_acmeair_morphia_services_FlightServiceImpl--><g id="link_com_acmeair_config_AcmeAirConfiguration_com_acmeair_morphia_services_FlightServiceImpl"><path d="M670.02,258.52 C724.1,280.31 809.84,314.21 885,341 C914.03,351.35 940.5858,360.1703 968.5058,369.1103 " fill="none" id="com_acmeair_config_AcmeAirConfiguration-to-com_acmeair_morphia_services_FlightServiceImpl" style="stroke:#181818;stroke-width:1.0;stroke-dasharray:7.0,7.0;"/><polygon fill="#181818" points="974.22,370.94,966.8685,364.386,969.4582,369.4153,964.4289,372.0049,974.22,370.94" style="stroke:#181818;stroke-width:1.0;"/><text fill="#000000" font-family="sans-serif" font-size="13" lengthAdjust="spacing" textLength="52" x="886" y="337.0669">requires</text></g><!--link com_acmeair_loader_FlightLoader to com_acmeair_wxs_service_FlightServiceImpl--><g id="link_com_acmeair_loader_FlightLoader_com_acmeair_wxs_service_FlightServiceImpl"><path d="M1273.53,258.59 C1310.58,288.33 1371.4709,337.1942 1408.6209,367.0142 " fill="none" id="com_acmeair_loader_FlightLoader-to-com_acmeair_wxs_service_FlightServiceImpl" style="stroke:#181818;stroke-width:1.0;stroke-dasharray:7.0,7.0;"/><polygon fill="#181818" points="1413.3,370.77,1408.7853,362.0169,1409.4008,367.6401,1403.7775,368.2556,1413.3,370.77" style="stroke:#181818;stroke-width:1.0;"/><text fill="#000000" font-family="sans-serif" font-size="13" lengthAdjust="spacing" textLength="52" x="1373" y="337.0669">requires</text></g><!--link com_acmeair_web_RESTCookieSessionFilter to com_acmeair_wxs_service_CustomerServiceImpl--><g id="link_com_acmeair_web_RESTCookieSessionFilter_com_acmeair_wxs_service_CustomerServiceImpl"><path d="M1650.74,258.61 C1687.95,271.34 1737.12,286.3 1782,294 C1921.02,317.84 2279.98,286.68 2416,324 C2431.53,328.26 2432.93,335.32 2448,341 C2480.27,353.17 2510.4685,361.7602 2543.8585,369.5902 " fill="none" id="com_acmeair_web_RESTCookieSessionFilter-to-com_acmeair_wxs_service_CustomerServiceImpl" style="stroke:#181818;stroke-width:1.0;stroke-dasharray:7.0,7.0;"/><polygon fill="#181818" points="2549.7,370.96,2541.8509,365.0109,2544.8321,369.8185,2540.0245,372.7996,2549.7,370.96" style="stroke:#181818;stroke-width:1.0;"/><text fill="#000000" font-family="sans-serif" font-size="13" lengthAdjust="spacing" textLength="52" x="2449" y="337.0669">requires</text></g><!--link com_acmeair_web_RESTCookieSessionFilter to com_acmeair_morphia_services_CustomerServiceImpl--><g id="link_com_acmeair_web_RESTCookieSessionFilter_com_acmeair_morphia_services_CustomerServiceImpl"><path d="M1659.59,258.59 C1695.8,269.89 1741.09,283.44 1782,294 C1898.38,324.05 2027.0963,351.2143 2120.1263,369.8043 " fill="none" id="com_acmeair_web_RESTCookieSessionFilter-to-com_acmeair_morphia_services_CustomerServiceImpl" style="stroke:#181818;stroke-width:1.0;stroke-dasharray:7.0,7.0;"/><polygon fill="#181818" points="2126.01,370.98,2117.9683,365.294,2121.1069,370.0002,2116.4007,373.1389,2126.01,370.98" style="stroke:#181818;stroke-width:1.0;"/><text fill="#000000" font-family="sans-serif" font-size="13" lengthAdjust="spacing" textLength="52" x="1970" y="337.0669">requires</text></g><!--link com_acmeair_loader_FlightLoader to com_acmeair_morphia_services_FlightServiceImpl--><g id="link_com_acmeair_loader_FlightLoader_com_acmeair_morphia_services_FlightServiceImpl"><path d="M1182.66,258.56 C1134.33,276.67 1073.35,302.7 1057,324 C1046.86,337.21 1044.2692,350.0516 1043.9292,364.7016 " fill="none" id="com_acmeair_loader_FlightLoader-to-com_acmeair_morphia_services_FlightServiceImpl" style="stroke:#181818;stroke-width:1.0;stroke-dasharray:7.0,7.0;"/><polygon fill="#181818" points="1043.79,370.7,1047.9977,361.7952,1043.906,365.7013,1039.9999,361.6096,1043.79,370.7" style="stroke:#181818;stroke-width:1.0;"/><text fill="#000000" font-family="sans-serif" font-size="13" lengthAdjust="spacing" textLength="52" x="1058" y="337.0669">requires</text></g><!--link com_acmeair_config_AcmeAirConfiguration to com_acmeair_morphia_services_CustomerServiceImpl--><g id="link_com_acmeair_config_AcmeAirConfiguration_com_acmeair_morphia_services_CustomerServiceImpl"><path d="M673.26,258.56 C709.56,271.44 757.83,286.59 802,294 C1002.86,327.71 1515.03,307.13 1718,324 C1774.75,328.72 1788.55,333.51 1845,341 C1919.39,350.88 1995.7312,360.9379 2065.8612,370.1579 " fill="none" id="com_acmeair_config_AcmeAirConfiguration-to-com_acmeair_morphia_services_CustomerServiceImpl" style="stroke:#181818;stroke-width:1.0;stroke-dasharray:7.0,7.0;"/><polygon fill="#181818" points="2071.81,370.94,2063.4082,365.801,2066.8527,370.2883,2062.3654,373.7327,2071.81,370.94" style="stroke:#181818;stroke-width:1.0;"/><text fill="#000000" font-family="sans-serif" font-size="13" lengthAdjust="spacing" textLength="52" x="1846" y="337.0669">requires</text></g><!--link com_acmeair_config_AcmeAirConfiguration to com_acmeair_wxs_service_CustomerServiceImpl--><g id="link_com_acmeair_config_AcmeAirConfiguration_com_acmeair_wxs_service_CustomerServiceImpl"><path d="M672.82,258.61 C709.15,271.61 757.62,286.85 802,294 C968.77,320.88 2158.5,281.55 2322,324 C2337.59,328.05 2338.75,335.84 2354,341 C2394.04,354.56 2432.3025,363.6106 2474.5225,371.1106 " fill="none" id="com_acmeair_config_AcmeAirConfiguration-to-com_acmeair_wxs_service_CustomerServiceImpl" style="stroke:#181818;stroke-width:1.0;stroke-dasharray:7.0,7.0;"/><polygon fill="#181818" points="2480.43,372.16,2472.2683,366.6475,2475.5071,371.2855,2470.8691,374.5242,2480.43,372.16" style="stroke:#181818;stroke-width:1.0;"/><text fill="#000000" font-family="sans-serif" font-size="13" lengthAdjust="spacing" textLength="52" x="2355" y="337.0669">requires</text></g><!--link com_acmeair_web_FlightsREST to com_acmeair_wxs_service_FlightServiceImpl--><g id="link_com_acmeair_web_FlightsREST_com_acmeair_wxs_service_FlightServiceImpl"><path d="M998.08,258.59 C1025.82,270.09 1060.93,283.83 1093,294 C1146.63,311.02 1161.75,309.08 1216,324 C1268.99,338.57 1322.6802,355.0677 1367.1502,369.1577 " fill="none" id="com_acmeair_web_FlightsREST-to-com_acmeair_wxs_service_FlightServiceImpl" style="stroke:#181818;stroke-width:1.0;stroke-dasharray:7.0,7.0;"/><polygon fill="#181818" points="1372.87,370.97,1365.4985,364.4384,1368.1035,369.4598,1363.0822,372.0648,1372.87,370.97" style="stroke:#181818;stroke-width:1.0;"/><text fill="#000000" font-family="sans-serif" font-size="13" lengthAdjust="spacing" textLength="52" x="1272" y="337.0669">requires</text></g><!--link com_acmeair_requires_SERVICE_HOST_flights to com_acmeair_web_FlightsREST--><g id="link_com_acmeair_requires_SERVICE_HOST_flights_com_acmeair_web_FlightsREST"><path d="M2035.98,111.07 C1965.05,111.91 1287.34,121.16 1093,169 C1054.96,178.36 1014.54,197.28 985.89,212.39 " fill="none" id="com_acmeair_requires_SERVICE_HOST_flights-com_acmeair_web_FlightsREST" style="stroke:#181818;stroke-width:1.0;"/></g><!--link com_acmeair_requires_SERVICE_HOST_config to com_acmeair_config_AcmeAirConfiguration--><g id="link_com_acmeair_requires_SERVICE_HOST_config_com_acmeair_config_AcmeAirConfiguration"><path d="M616,116.31 C616,132.65 616,182.9 616,212.35 " fill="none" id="com_acmeair_requires_SERVICE_HOST_config-com_acmeair_config_AcmeAirConfiguration" style="stroke:#181818;stroke-width:1.0;"/></g><!--link com_acmeair_requires_SERVICE_HOST_customer_byid to com_acmeair_web_CustomerREST--><g id="link_com_acmeair_requires_SERVICE_HOST_customer_byid_com_acmeair_web_CustomerREST"><path d="M2203.05,111.44 C2237.97,114.08 2416.97,129.11 2557,169 C2595.91,180.08 2638.14,198.06 2668.99,212.38 " fill="none" id="com_acmeair_requires_SERVICE_HOST_customer_byid-com_acmeair_web_CustomerREST" style="stroke:#181818;stroke-width:1.0;"/></g><!--link com_acmeair_requires_SERVICE_HOST_bookings to com_acmeair_web_BookingsREST--><g id="link_com_acmeair_requires_SERVICE_HOST_bookings_com_acmeair_web_BookingsREST"><path d="M494.96,114.3 C469.75,128.07 371.75,181.63 315.43,212.4 " fill="none" id="com_acmeair_requires_SERVICE_HOST_bookings-com_acmeair_web_BookingsREST" style="stroke:#181818;stroke-width:1.0;"/></g><!--link com_acmeair_requires_SERVICE_HOST_login to com_acmeair_web_LoginREST--><g id="link_com_acmeair_requires_SERVICE_HOST_login_com_acmeair_web_LoginREST"><path d="M2292.5,116.31 C2309.44,132.65 2361.52,182.9 2392.04,212.35 " fill="none" id="com_acmeair_requires_SERVICE_HOST_login-com_acmeair_web_LoginREST" style="stroke:#181818;stroke-width:1.0;"/></g><!--link interface.SERVICE_HOST_bookings to com_acmeair_requires_SERVICE_HOST_bookings--><g id="link_interface.SERVICE_HOST_bookings_com_acmeair_requires_SERVICE_HOST_bookings"><path d="M471.73,23.01 C478.14,41.84 494.01,88.45 499.27,103.92 " fill="none" id="interface.SERVICE_HOST_bookings-com_acmeair_requires_SERVICE_HOST_bookings" style="stroke:#181818;stroke-width:1.0;"/></g><!--link interface.SERVICE_HOST_config to com_acmeair_requires_SERVICE_HOST_config--><g id="link_interface.SERVICE_HOST_config_com_acmeair_requires_SERVICE_HOST_config"><path d="M675.46,23.01 C662.44,41.84 630.21,88.45 619.51,103.92 " fill="none" id="interface.SERVICE_HOST_config-com_acmeair_requires_SERVICE_HOST_config" style="stroke:#181818;stroke-width:1.0;"/></g><!--link interface.SERVICE_HOST_customer_byid to com_acmeair_requires_SERVICE_HOST_customer_byid--><g id="link_interface.SERVICE_HOST_customer_byid_com_acmeair_requires_SERVICE_HOST_customer_byid"><path d="M2197,23.01 C2197,41.84 2197,88.45 2197,103.92 " fill="none" id="interface.SERVICE_HOST_customer_byid-com_acmeair_requires_SERVICE_HOST_customer_byid" style="stroke:#181818;stroke-width:1.0;"/></g><!--link interface.SERVICE_HOST_flights to com_acmeair_requires_SERVICE_HOST_flights--><g id="link_interface.SERVICE_HOST_flights_com_acmeair_requires_SERVICE_HOST_flights"><path d="M1975.22,23.01 C1989.84,41.84 2026.04,88.45 2038.06,103.92 " fill="none" id="interface.SERVICE_HOST_flights-com_acmeair_requires_SERVICE_HOST_flights" style="stroke:#181818;stroke-width:1.0;"/></g><!--link interface.SERVICE_HOST_login to com_acmeair_requires_SERVICE_HOST_login--><g id="link_interface.SERVICE_HOST_login_com_acmeair_requires_SERVICE_HOST_login"><path d="M2411.79,21.46 C2386.13,39.46 2314.31,89.84 2293.02,104.78 " fill="none" id="interface.SERVICE_HOST_login-com_acmeair_requires_SERVICE_HOST_login" style="stroke:#181818;stroke-width:1.0;"/></g><!--link com_acmeair_config_LoaderREST to com_acmeair_loader_Loader--><g id="link_com_acmeair_config_LoaderREST_com_acmeair_loader_Loader"><path d="M3198,258.59 C3198,288.33 3198,334.95 3198,364.77 " fill="none" id="com_acmeair_config_LoaderREST-to-com_acmeair_loader_Loader" style="stroke:#181818;stroke-width:1.0;stroke-dasharray:7.0,7.0;"/><polygon fill="#181818" points="3198,370.77,3202,361.77,3198,365.77,3194,361.77,3198,370.77" style="stroke:#181818;stroke-width:1.0;"/><text fill="#000000" font-family="sans-serif" font-size="13" lengthAdjust="spacing" textLength="52" x="3199" y="337.0669">requires</text></g><!--link com_acmeair_2_requires_SERVICE_HOST_loader to com_acmeair_config_LoaderREST--><g id="link_com_acmeair_2_requires_SERVICE_HOST_loader_com_acmeair_config_LoaderREST"><path d="M3027.3,115.4 C3049.22,130.69 3123.19,182.3 3166.22,212.33 " fill="none" id="com_acmeair_2_requires_SERVICE_HOST_loader-com_acmeair_config_LoaderREST" style="stroke:#181818;stroke-width:1.0;"/></g><!--link interface.SERVICE_HOST_loader to com_acmeair_2_requires_SERVICE_HOST_loader--><g id="link_interface.SERVICE_HOST_loader_com_acmeair_2_requires_SERVICE_HOST_loader"><path d="M3021,23.01 C3021,41.84 3021,88.45 3021,103.92 " fill="none" id="interface.SERVICE_HOST_loader-com_acmeair_2_requires_SERVICE_HOST_loader" style="stroke:#181818;stroke-width:1.0;"/></g><!--SRC=[nLVVQzim47xFNo7ydXJok8T1Pr9Mo2ZKPHjimoYkuehAaYVPNSle_puxbbFRaKvI4Zho4ldkz7ttIpgfHyfBB761jlGvfZ9ZP8qtXDqy4SbmMLAUeqhMPARsYfaeIi49hvBgXH5K5smvstz3KVCtnLb1C9K_-TilGdzdFmQozC-pIkkACfL- -vuaH2ag-1VCSKxahuacsQHNZEOFbRfT9NSJQI5a-K1ngeXyeXbHMZNfbjT5oIO6JE1x8jEuLfKeY5plbWR8Ni60sNBNU4wueMw_9Q3T0Az5Jha9jP6rdsCX7YdH8RkYh3gWVn0JD_21oQSMXUVEE7R-6wEO2RwbUNhPB2-fZ7UhMkAgeGq4oGdSna4hwO8eXQmeHr7pmmeDTINvNLFPk9EiRhzUnwlqyqrofua5csqqQB0XQpCQRBNjQZxSEvtiTFD2xnrrlLXy3AfMz07re3vTDTtUgp2j64xsfs__rdjdYmpK1H38uS42CXzrX3CmXYOxkmCX67xbStGEuDIUNZPWy8-D2NJUcp1ijoa8CBnOdN49ACcGedctwZp58TDrTyRs3KdqqItW2t9QG_X4wh-LrhiStS69WRhGlwWYxvaYci_X4Jlo7QAcEu4pNnGul9XeZiVoo7zgCsqs7YCZpqdEjDDWQ7-TKTvqrHPd14NQUjvQN-ofj8FSNcbX7Z8Tylayn7Sh9Pr5W90Uba6f5naDPQUYCtknIpt4Q3JW-YZvyHkLdfLctq80mNvoXyLUf7eqAvsk8W4otUC34deHwN0iBtsq1D_w-b3exWB3orRV6FqZqlxWMLh9jPOkqEd9EeQrdgGmgEK07Fhw2YHljmMOlPrde7IIFmVVsJy0]--></g></svg>