<?xml version="1.0" encoding="us-ascii" standalone="no"?><svg xmlns="http://www.w3.org/2000/svg" xmlns:xlink="http://www.w3.org/1999/xlink" contentStyleType="text/css" height="562px" preserveAspectRatio="none" style="width:3453px;height:562px;background:#FFFFFF;" version="1.1" viewBox="0 0 3453 562" width="3453px" zoomAndPan="magnify"><defs/><g><!--cluster AcmeAirConfiguration\n\n\n\n\n\n--><g id="cluster_AcmeAirConfiguration\n\n\n\n\n\n"><rect fill="none" height="446" rx="2.5" ry="2.5" style="stroke:#181818;stroke-width:1.0;" width="2914" x="16.39" y="110"/><rect fill="none" height="10" style="stroke:#181818;stroke-width:1.0;" width="15" x="2910.39" y="115"/><rect fill="none" height="2" style="stroke:#181818;stroke-width:1.0;" width="4" x="2908.39" y="117"/><rect fill="none" height="2" style="stroke:#181818;stroke-width:1.0;" width="4" x="2908.39" y="121"/><text fill="#000000" font-family="sans-serif" font-size="14" font-weight="bold" lengthAdjust="spacing" textLength="173" x="1386.89" y="135.9951">AcmeAirConfiguration</text><text fill="#000000" font-family="sans-serif" font-size="14" font-weight="bold" lengthAdjust="spacing" textLength="5" x="1470.89" y="152.292">&#160;</text><text fill="#000000" font-family="sans-serif" font-size="14" font-weight="bold" lengthAdjust="spacing" textLength="5" x="1470.89" y="168.5889">&#160;</text><text fill="#000000" font-family="sans-serif" font-size="14" font-weight="bold" lengthAdjust="spacing" textLength="5" x="1470.89" y="184.8857">&#160;</text><text fill="#000000" font-family="sans-serif" font-size="14" font-weight="bold" lengthAdjust="spacing" textLength="5" x="1470.89" y="201.1826">&#160;</text><text fill="#000000" font-family="sans-serif" font-size="14" font-weight="bold" lengthAdjust="spacing" textLength="5" x="1470.89" y="217.4795">&#160;</text><text fill="#000000" font-family="sans-serif" font-size="14" font-weight="bold" lengthAdjust="spacing" textLength="5" x="1470.89" y="233.7764">&#160;</text></g><!--cluster LoaderREST\n\n\n\n\n\n--><g id="cluster_LoaderREST\n\n\n\n\n\n"><rect fill="none" height="323" rx="2.5" ry="2.5" style="stroke:#181818;stroke-width:1.0;" width="338" x="3109.39" y="110"/><rect fill="none" height="10" style="stroke:#181818;stroke-width:1.0;" width="15" x="3427.39" y="115"/><rect fill="none" height="2" style="stroke:#181818;stroke-width:1.0;" width="4" x="3425.39" y="117"/><rect fill="none" height="2" style="stroke:#181818;stroke-width:1.0;" width="4" x="3425.39" y="121"/><text fill="#000000" font-family="sans-serif" font-size="14" font-weight="bold" lengthAdjust="spacing" textLength="94" x="3231.39" y="135.9951">LoaderREST</text><text fill="#000000" font-family="sans-serif" font-size="14" font-weight="bold" lengthAdjust="spacing" textLength="5" x="3275.89" y="152.292">&#160;</text><text fill="#000000" font-family="sans-serif" font-size="14" font-weight="bold" lengthAdjust="spacing" textLength="5" x="3275.89" y="168.5889">&#160;</text><text fill="#000000" font-family="sans-serif" font-size="14" font-weight="bold" lengthAdjust="spacing" textLength="5" x="3275.89" y="184.8857">&#160;</text><text fill="#000000" font-family="sans-serif" font-size="14" font-weight="bold" lengthAdjust="spacing" textLength="5" x="3275.89" y="201.1826">&#160;</text><text fill="#000000" font-family="sans-serif" font-size="14" font-weight="bold" lengthAdjust="spacing" textLength="5" x="3275.89" y="217.4795">&#160;</text><text fill="#000000" font-family="sans-serif" font-size="14" font-weight="bold" lengthAdjust="spacing" textLength="5" x="3275.89" y="233.7764">&#160;</text></g><!--entity com_acmeair_web_BookingsREST--><g id="elem_com_acmeair_web_BookingsREST"><rect fill="#F1F1F1" height="46.2969" rx="2.5" ry="2.5" style="stroke:#181818;stroke-width:0.5;" width="276" x="61.39" y="212.5"/><rect fill="#F1F1F1" height="10" style="stroke:#181818;stroke-width:0.5;" width="15" x="317.39" y="217.5"/><rect fill="#F1F1F1" height="2" style="stroke:#181818;stroke-width:0.5;" width="4" x="315.39" y="219.5"/><rect fill="#F1F1F1" height="2" style="stroke:#181818;stroke-width:0.5;" width="4" x="315.39" y="223.5"/><text fill="#000000" font-family="sans-serif" font-size="14" lengthAdjust="spacing" textLength="236" x="76.39" y="245.4951">com_acmeair_web_BookingsREST</text></g><!--entity com_acmeair_wxs_utils_WXSSessionManager--><g id="elem_com_acmeair_wxs_utils_WXSSessionManager"><rect fill="#F1F1F1" height="46.2969" rx="2.5" ry="2.5" style="stroke:#181818;stroke-width:0.5;" width="352" x="2375.39" y="371"/><rect fill="#F1F1F1" height="10" style="stroke:#181818;stroke-width:0.5;" width="15" x="2707.39" y="376"/><rect fill="#F1F1F1" height="2" style="stroke:#181818;stroke-width:0.5;" width="4" x="2705.39" y="378"/><rect fill="#F1F1F1" height="2" style="stroke:#181818;stroke-width:0.5;" width="4" x="2705.39" y="382"/><text fill="#000000" font-family="sans-serif" font-size="14" lengthAdjust="spacing" textLength="312" x="2390.39" y="403.9951">com_acmeair_wxs_utils_WXSSessionManager</text></g><!--entity com_acmeair_service_FlightService--><g id="elem_com_acmeair_service_FlightService"><rect fill="#F1F1F1" height="46.2969" rx="2.5" ry="2.5" style="stroke:#181818;stroke-width:0.5;" width="281" x="1937.89" y="371"/><rect fill="#F1F1F1" height="10" style="stroke:#181818;stroke-width:0.5;" width="15" x="2198.89" y="376"/><rect fill="#F1F1F1" height="2" style="stroke:#181818;stroke-width:0.5;" width="4" x="2196.89" y="378"/><rect fill="#F1F1F1" height="2" style="stroke:#181818;stroke-width:0.5;" width="4" x="2196.89" y="382"/><text fill="#000000" font-family="sans-serif" font-size="14" lengthAdjust="spacing" textLength="241" x="1952.89" y="403.9951">com_acmeair_service_FlightService</text></g><!--entity com_acmeair_web_LoginREST--><g id="elem_com_acmeair_web_LoginREST"><rect fill="#F1F1F1" height="46.2969" rx="2.5" ry="2.5" style="stroke:#181818;stroke-width:0.5;" width="248" x="2293.39" y="212.5"/><rect fill="#F1F1F1" height="10" style="stroke:#181818;stroke-width:0.5;" width="15" x="2521.39" y="217.5"/><rect fill="#F1F1F1" height="2" style="stroke:#181818;stroke-width:0.5;" width="4" x="2519.39" y="219.5"/><rect fill="#F1F1F1" height="2" style="stroke:#181818;stroke-width:0.5;" width="4" x="2519.39" y="223.5"/><text fill="#000000" font-family="sans-serif" font-size="14" lengthAdjust="spacing" textLength="208" x="2308.39" y="245.4951">com_acmeair_web_LoginREST</text></g><!--entity com_acmeair_web_FlightsREST--><g id="elem_com_acmeair_web_FlightsREST"><rect fill="#F1F1F1" height="46.2969" rx="2.5" ry="2.5" style="stroke:#181818;stroke-width:0.5;" width="256" x="1777.39" y="212.5"/><rect fill="#F1F1F1" height="10" style="stroke:#181818;stroke-width:0.5;" width="15" x="2013.39" y="217.5"/><rect fill="#F1F1F1" height="2" style="stroke:#181818;stroke-width:0.5;" width="4" x="2011.39" y="219.5"/><rect fill="#F1F1F1" height="2" style="stroke:#181818;stroke-width:0.5;" width="4" x="2011.39" y="223.5"/><text fill="#000000" font-family="sans-serif" font-size="14" lengthAdjust="spacing" textLength="216" x="1792.39" y="245.4951">com_acmeair_web_FlightsREST</text></g><!--entity com_acmeair_loader_FlightLoader--><g id="elem_com_acmeair_loader_FlightLoader"><rect fill="#F1F1F1" height="46.2969" rx="2.5" ry="2.5" style="stroke:#181818;stroke-width:0.5;" width="272" x="2576.39" y="212.5"/><rect fill="#F1F1F1" height="10" style="stroke:#181818;stroke-width:0.5;" width="15" x="2828.39" y="217.5"/><rect fill="#F1F1F1" height="2" style="stroke:#181818;stroke-width:0.5;" width="4" x="2826.39" y="219.5"/><rect fill="#F1F1F1" height="2" style="stroke:#181818;stroke-width:0.5;" width="4" x="2826.39" y="223.5"/><text fill="#000000" font-family="sans-serif" font-size="14" lengthAdjust="spacing" textLength="232" x="2591.39" y="245.4951">com_acmeair_loader_FlightLoader</text></g><!--entity com_acmeair_config_AcmeAirConfiguration--><g id="elem_com_acmeair_config_AcmeAirConfiguration"><rect fill="#F1F1F1" height="46.2969" rx="2.5" ry="2.5" style="stroke:#181818;stroke-width:0.5;" width="335" x="372.89" y="212.5"/><rect fill="#F1F1F1" height="10" style="stroke:#181818;stroke-width:0.5;" width="15" x="687.89" y="217.5"/><rect fill="#F1F1F1" height="2" style="stroke:#181818;stroke-width:0.5;" width="4" x="685.89" y="219.5"/><rect fill="#F1F1F1" height="2" style="stroke:#181818;stroke-width:0.5;" width="4" x="685.89" y="223.5"/><text fill="#000000" font-family="sans-serif" font-size="14" lengthAdjust="spacing" textLength="295" x="387.89" y="245.4951">com_acmeair_config_AcmeAirConfiguration</text></g><!--entity com_acmeair_wxs_service_BookingServiceImpl--><g id="elem_com_acmeair_wxs_service_BookingServiceImpl"><rect fill="#F1F1F1" height="46.2969" rx="2.5" ry="2.5" style="stroke:#181818;stroke-width:0.5;" width="362" x="833.39" y="371"/><rect fill="#F1F1F1" height="10" style="stroke:#181818;stroke-width:0.5;" width="15" x="1175.39" y="376"/><rect fill="#F1F1F1" height="2" style="stroke:#181818;stroke-width:0.5;" width="4" x="1173.39" y="378"/><rect fill="#F1F1F1" height="2" style="stroke:#181818;stroke-width:0.5;" width="4" x="1173.39" y="382"/><text fill="#000000" font-family="sans-serif" font-size="14" lengthAdjust="spacing" textLength="322" x="848.39" y="403.9951">com_acmeair_wxs_service_BookingServiceImpl</text></g><!--entity com_acmeair_morphia_services_BookingServiceImpl--><g id="elem_com_acmeair_morphia_services_BookingServiceImpl"><rect fill="#F1F1F1" height="46.2969" rx="2.5" ry="2.5" style="stroke:#181818;stroke-width:0.5;" width="400" x="61.39" y="371"/><rect fill="#F1F1F1" height="10" style="stroke:#181818;stroke-width:0.5;" width="15" x="441.39" y="376"/><rect fill="#F1F1F1" height="2" style="stroke:#181818;stroke-width:0.5;" width="4" x="439.39" y="378"/><rect fill="#F1F1F1" height="2" style="stroke:#181818;stroke-width:0.5;" width="4" x="439.39" y="382"/><text fill="#000000" font-family="sans-serif" font-size="14" lengthAdjust="spacing" textLength="360" x="76.39" y="403.9951">com_acmeair_morphia_services_BookingServiceImpl</text></g><!--entity com_acmeair_service_CustomerService--><g id="elem_com_acmeair_service_CustomerService"><rect fill="#F1F1F1" height="46.2969" rx="2.5" ry="2.5" style="stroke:#181818;stroke-width:0.5;" width="312" x="1230.39" y="371"/><rect fill="#F1F1F1" height="10" style="stroke:#181818;stroke-width:0.5;" width="15" x="1522.39" y="376"/><rect fill="#F1F1F1" height="2" style="stroke:#181818;stroke-width:0.5;" width="4" x="1520.39" y="378"/><rect fill="#F1F1F1" height="2" style="stroke:#181818;stroke-width:0.5;" width="4" x="1520.39" y="382"/><text fill="#000000" font-family="sans-serif" font-size="14" lengthAdjust="spacing" textLength="272" x="1245.39" y="403.9951">com_acmeair_service_CustomerService</text></g><!--entity com_acmeair_loader_CustomerLoader--><g id="elem_com_acmeair_loader_CustomerLoader"><rect fill="#F1F1F1" height="46.2969" rx="2.5" ry="2.5" style="stroke:#181818;stroke-width:0.5;" width="303" x="742.89" y="212.5"/><rect fill="#F1F1F1" height="10" style="stroke:#181818;stroke-width:0.5;" width="15" x="1025.89" y="217.5"/><rect fill="#F1F1F1" height="2" style="stroke:#181818;stroke-width:0.5;" width="4" x="1023.89" y="219.5"/><rect fill="#F1F1F1" height="2" style="stroke:#181818;stroke-width:0.5;" width="4" x="1023.89" y="223.5"/><text fill="#000000" font-family="sans-serif" font-size="14" lengthAdjust="spacing" textLength="263" x="757.89" y="245.4951">com_acmeair_loader_CustomerLoader</text></g><!--entity com_acmeair_web_RESTCookieSessionFilter--><g id="elem_com_acmeair_web_RESTCookieSessionFilter"><rect fill="#F1F1F1" height="46.2969" rx="2.5" ry="2.5" style="stroke:#181818;stroke-width:0.5;" width="347" x="1394.89" y="212.5"/><rect fill="#F1F1F1" height="10" style="stroke:#181818;stroke-width:0.5;" width="15" x="1721.89" y="217.5"/><rect fill="#F1F1F1" height="2" style="stroke:#181818;stroke-width:0.5;" width="4" x="1719.89" y="219.5"/><rect fill="#F1F1F1" height="2" style="stroke:#181818;stroke-width:0.5;" width="4" x="1719.89" y="223.5"/><text fill="#000000" font-family="sans-serif" font-size="14" lengthAdjust="spacing" textLength="307" x="1409.89" y="245.4951">com_acmeair_web_RESTCookieSessionFilter</text></g><!--entity com_acmeair_service_BookingService--><g id="elem_com_acmeair_service_BookingService"><rect fill="#F1F1F1" height="46.2969" rx="2.5" ry="2.5" style="stroke:#181818;stroke-width:0.5;" width="301" x="496.89" y="371"/><rect fill="#F1F1F1" height="10" style="stroke:#181818;stroke-width:0.5;" width="15" x="777.89" y="376"/><rect fill="#F1F1F1" height="2" style="stroke:#181818;stroke-width:0.5;" width="4" x="775.89" y="378"/><rect fill="#F1F1F1" height="2" style="stroke:#181818;stroke-width:0.5;" width="4" x="775.89" y="382"/><text fill="#000000" font-family="sans-serif" font-size="14" lengthAdjust="spacing" textLength="261" x="511.89" y="403.9951">com_acmeair_service_BookingService</text></g><!--entity com_acmeair_web_CustomerREST--><g id="elem_com_acmeair_web_CustomerREST"><rect fill="#F1F1F1" height="46.2969" rx="2.5" ry="2.5" style="stroke:#181818;stroke-width:0.5;" width="279" x="1080.89" y="212.5"/><rect fill="#F1F1F1" height="10" style="stroke:#181818;stroke-width:0.5;" width="15" x="1339.89" y="217.5"/><rect fill="#F1F1F1" height="2" style="stroke:#181818;stroke-width:0.5;" width="4" x="1337.89" y="219.5"/><rect fill="#F1F1F1" height="2" style="stroke:#181818;stroke-width:0.5;" width="4" x="1337.89" y="223.5"/><text fill="#000000" font-family="sans-serif" font-size="14" lengthAdjust="spacing" textLength="239" x="1095.89" y="245.4951">com_acmeair_web_CustomerREST</text></g><!--entity com_acmeair_service_TransactionService--><g id="elem_com_acmeair_service_TransactionService"><rect fill="#F1F1F1" height="46.2969" rx="2.5" ry="2.5" style="stroke:#181818;stroke-width:0.5;" width="325" x="1577.89" y="371"/><rect fill="#F1F1F1" height="10" style="stroke:#181818;stroke-width:0.5;" width="15" x="1882.89" y="376"/><rect fill="#F1F1F1" height="2" style="stroke:#181818;stroke-width:0.5;" width="4" x="1880.89" y="378"/><rect fill="#F1F1F1" height="2" style="stroke:#181818;stroke-width:0.5;" width="4" x="1880.89" y="382"/><text fill="#000000" font-family="sans-serif" font-size="14" lengthAdjust="spacing" textLength="285" x="1592.89" y="403.9951">com_acmeair_service_TransactionService</text></g><!--entity com_acmeair_service_KeyGenerator--><g id="elem_com_acmeair_service_KeyGenerator"><rect fill="#F1F1F1" height="46.2969" rx="2.5" ry="2.5" style="stroke:#181818;stroke-width:0.5;" width="289" x="1241.89" y="494"/><rect fill="#F1F1F1" height="10" style="stroke:#181818;stroke-width:0.5;" width="15" x="1510.89" y="499"/><rect fill="#F1F1F1" height="2" style="stroke:#181818;stroke-width:0.5;" width="4" x="1508.89" y="501"/><rect fill="#F1F1F1" height="2" style="stroke:#181818;stroke-width:0.5;" width="4" x="1508.89" y="505"/><text fill="#000000" font-family="sans-serif" font-size="14" lengthAdjust="spacing" textLength="249" x="1256.89" y="526.9951">com_acmeair_service_KeyGenerator</text></g><text fill="#000000" font-family="sans-serif" font-size="14" lengthAdjust="spacing" textLength="4" x="989.39" y="88.6982">&#160;</text><rect fill="#F1F1F1" height="12" style="stroke:#181818;stroke-width:1.5;" width="12" x="985.39" y="104"/><text fill="#000000" font-family="sans-serif" font-size="14" lengthAdjust="spacing" textLength="4" x="1328.39" y="88.6982">&#160;</text><rect fill="#F1F1F1" height="12" style="stroke:#181818;stroke-width:1.5;" width="12" x="1324.39" y="104"/><text fill="#000000" font-family="sans-serif" font-size="14" lengthAdjust="spacing" textLength="4" x="654.39" y="88.6982">&#160;</text><rect fill="#F1F1F1" height="12" style="stroke:#181818;stroke-width:1.5;" width="12" x="650.39" y="104"/><text fill="#000000" font-family="sans-serif" font-size="14" lengthAdjust="spacing" textLength="4" x="1218.39" y="88.6982">&#160;</text><rect fill="#F1F1F1" height="12" style="stroke:#181818;stroke-width:1.5;" width="12" x="1214.39" y="104"/><text fill="#000000" font-family="sans-serif" font-size="14" lengthAdjust="spacing" textLength="4" x="1455.39" y="88.6982">&#160;</text><rect fill="#F1F1F1" height="12" style="stroke:#181818;stroke-width:1.5;" width="12" x="1451.39" y="104"/><text fill="#000000" font-family="sans-serif" font-size="14" lengthAdjust="spacing" textLength="4" x="859.39" y="88.6982">&#160;</text><rect fill="#F1F1F1" height="12" style="stroke:#181818;stroke-width:1.5;" width="12" x="855.39" y="104"/><text fill="#000000" font-family="sans-serif" font-size="14" lengthAdjust="spacing" textLength="4" x="2795.39" y="88.6982">&#160;</text><rect fill="#F1F1F1" height="12" style="stroke:#181818;stroke-width:1.5;" width="12" x="2791.39" y="104"/><text fill="#000000" font-family="sans-serif" font-size="14" lengthAdjust="spacing" textLength="4" x="2415.39" y="88.6982">&#160;</text><rect fill="#F1F1F1" height="12" style="stroke:#181818;stroke-width:1.5;" width="12" x="2411.39" y="104"/><!--entity com_acmeair_loader_Loader--><g id="elem_com_acmeair_loader_Loader"><rect fill="#F1F1F1" height="46.2969" rx="2.5" ry="2.5" style="stroke:#181818;stroke-width:0.5;" width="235" x="3177.89" y="371"/><rect fill="#F1F1F1" height="10" style="stroke:#181818;stroke-width:0.5;" width="15" x="3392.89" y="376"/><rect fill="#F1F1F1" height="2" style="stroke:#181818;stroke-width:0.5;" width="4" x="3390.89" y="378"/><rect fill="#F1F1F1" height="2" style="stroke:#181818;stroke-width:0.5;" width="4" x="3390.89" y="382"/><text fill="#000000" font-family="sans-serif" font-size="14" lengthAdjust="spacing" textLength="195" x="3192.89" y="403.9951">com_acmeair_loader_Loader</text></g><!--entity com_acmeair_config_LoaderREST--><g id="elem_com_acmeair_config_LoaderREST"><rect fill="#F1F1F1" height="46.2969" rx="2.5" ry="2.5" style="stroke:#181818;stroke-width:0.5;" width="271" x="3159.89" y="212.5"/><rect fill="#F1F1F1" height="10" style="stroke:#181818;stroke-width:0.5;" width="15" x="3410.89" y="217.5"/><rect fill="#F1F1F1" height="2" style="stroke:#181818;stroke-width:0.5;" width="4" x="3408.89" y="219.5"/><rect fill="#F1F1F1" height="2" style="stroke:#181818;stroke-width:0.5;" width="4" x="3408.89" y="223.5"/><text fill="#000000" font-family="sans-serif" font-size="14" lengthAdjust="spacing" textLength="231" x="3174.89" y="245.4951">com_acmeair_config_LoaderREST</text></g><text fill="#000000" font-family="sans-serif" font-size="14" lengthAdjust="spacing" textLength="4" x="3125.39" y="88.6982">&#160;</text><rect fill="#F1F1F1" height="12" style="stroke:#181818;stroke-width:1.5;" width="12" x="3121.39" y="104"/><!--entity interface.Filter--><g id="elem_interface.Filter"><ellipse cx="1393.39" cy="14" fill="#F1F1F1" rx="8" ry="8" style="stroke:#181818;stroke-width:0.5;"/><text fill="#000000" font-family="sans-serif" font-size="14" lengthAdjust="spacing" textLength="33" x="1376.89" y="43.9951">Filter</text></g><!--entity interface.SERVICE_HOST_bookings--><g id="elem_interface.SERVICE_HOST_bookings"><ellipse cx="779.39" cy="14" fill="#F1F1F1" rx="8" ry="8" style="stroke:#181818;stroke-width:0.5;"/><text fill="#000000" font-family="sans-serif" font-size="14" lengthAdjust="spacing" textLength="172" x="693.39" y="43.9951">SERVICE-HOST/bookings</text></g><!--entity interface.SERVICE_HOST_config--><g id="elem_interface.SERVICE_HOST_config"><ellipse cx="991.39" cy="14" fill="#F1F1F1" rx="8" ry="8" style="stroke:#181818;stroke-width:0.5;"/><text fill="#000000" font-family="sans-serif" font-size="14" lengthAdjust="spacing" textLength="150" x="916.39" y="43.9951">SERVICE-HOST/config</text></g><!--entity interface.SERVICE_HOST_customer_byid--><g id="elem_interface.SERVICE_HOST_customer_byid"><ellipse cx="1220.39" cy="14" fill="#F1F1F1" rx="8" ry="8" style="stroke:#181818;stroke-width:0.5;"/><text fill="#000000" font-family="sans-serif" font-size="14" lengthAdjust="spacing" textLength="207" x="1116.89" y="43.9951">SERVICE-HOST/customer/byid</text></g><!--entity interface.SERVICE_HOST_flights--><g id="elem_interface.SERVICE_HOST_flights"><ellipse cx="1537.39" cy="14" fill="#F1F1F1" rx="8" ry="8" style="stroke:#181818;stroke-width:0.5;"/><text fill="#000000" font-family="sans-serif" font-size="14" lengthAdjust="spacing" textLength="149" x="1462.89" y="43.9951">SERVICE-HOST/flights</text></g><!--entity interface.SERVICE_HOST_login--><g id="elem_interface.SERVICE_HOST_login"><ellipse cx="2417.39" cy="14" fill="#F1F1F1" rx="8" ry="8" style="stroke:#181818;stroke-width:0.5;"/><text fill="#000000" font-family="sans-serif" font-size="14" lengthAdjust="spacing" textLength="141" x="2346.89" y="43.9951">SERVICE-HOST/login</text></g><!--entity interface.com_acmeair_morphia_MorphiaConstants--><g id="elem_interface.com_acmeair_morphia_MorphiaConstants"><ellipse cx="499.39" cy="14" fill="#F1F1F1" rx="8" ry="8" style="stroke:#181818;stroke-width:0.5;"/><text fill="#000000" font-family="sans-serif" font-size="14" lengthAdjust="spacing" textLength="287" x="355.89" y="43.9951">com_acmeair_morphia_MorphiaConstants</text></g><!--entity interface.com_acmeair_wxs_WXSConstants--><g id="elem_interface.com_acmeair_wxs_WXSConstants"><ellipse cx="2797.39" cy="14" fill="#F1F1F1" rx="8" ry="8" style="stroke:#181818;stroke-width:0.5;"/><text fill="#000000" font-family="sans-serif" font-size="14" lengthAdjust="spacing" textLength="233" x="2680.89" y="43.9951">com_acmeair_wxs_WXSConstants</text></g><!--entity interface.SERVICE_HOST_loader--><g id="elem_interface.SERVICE_HOST_loader"><ellipse cx="3127.39" cy="14" fill="#F1F1F1" rx="8" ry="8" style="stroke:#181818;stroke-width:0.5;"/><text fill="#000000" font-family="sans-serif" font-size="14" lengthAdjust="spacing" textLength="151" x="3051.89" y="43.9951">SERVICE-HOST/loader</text></g><!--link com_acmeair_web_BookingsREST to com_acmeair_morphia_services_BookingServiceImpl--><g id="link_com_acmeair_web_BookingsREST_com_acmeair_morphia_services_BookingServiceImpl"><path d="M200.18,258.69 C201.69,280.54 206.02,314.42 218.39,341 C223.43,351.83 227.3165,357.7855 234.9365,366.4455 " fill="none" id="com_acmeair_web_BookingsREST-to-com_acmeair_morphia_services_BookingServiceImpl" style="stroke:#181818;stroke-width:1.0;stroke-dasharray:7.0,7.0;"/><polygon fill="#181818" points="238.9,370.95,235.9577,361.5509,235.5971,367.1963,229.9517,366.8356,238.9,370.95" style="stroke:#181818;stroke-width:1.0;"/><text fill="#000000" font-family="sans-serif" font-size="13" lengthAdjust="spacing" textLength="52" x="219.39" y="337.0669">requires</text></g><!--link com_acmeair_web_BookingsREST to com_acmeair_wxs_service_BookingServiceImpl--><g id="link_com_acmeair_web_BookingsREST_com_acmeair_wxs_service_BookingServiceImpl"><path d="M249.34,258.57 C279.48,270.96 318.97,285.57 355.39,294 C483.35,323.61 519.41,305.12 649.39,324 C661.93,325.82 790.8963,350.3157 893.0663,369.8057 " fill="none" id="com_acmeair_web_BookingsREST-to-com_acmeair_wxs_service_BookingServiceImpl" style="stroke:#181818;stroke-width:1.0;stroke-dasharray:7.0,7.0;"/><polygon fill="#181818" points="898.96,370.93,890.8689,365.3144,894.0486,369.9931,889.3699,373.1727,898.96,370.93" style="stroke:#181818;stroke-width:1.0;"/><text fill="#000000" font-family="sans-serif" font-size="13" lengthAdjust="spacing" textLength="52" x="737.39" y="337.0669">requires</text></g><!--link com_acmeair_config_AcmeAirConfiguration to com_acmeair_service_BookingService--><g id="link_com_acmeair_config_AcmeAirConfiguration_com_acmeair_service_BookingService"><path d="M548.41,258.62 C557.04,280.72 572.15,315.06 591.39,341 C599.45,351.87 605.494,358.3455 615.244,367.0055 " fill="none" id="com_acmeair_config_AcmeAirConfiguration-to-com_acmeair_service_BookingService" style="stroke:#181818;stroke-width:1.0;stroke-dasharray:7.0,7.0;"/><polygon fill="#181818" points="619.73,370.99,615.6573,362.0226,615.9917,367.6696,610.3447,368.0039,619.73,370.99" style="stroke:#181818;stroke-width:1.0;"/><text fill="#000000" font-family="sans-serif" font-size="13" lengthAdjust="spacing" textLength="52" x="592.39" y="337.0669">requires</text></g><!--link com_acmeair_web_RESTCookieSessionFilter to com_acmeair_service_CustomerService--><g id="link_com_acmeair_web_RESTCookieSessionFilter_com_acmeair_service_CustomerService"><path d="M1529.05,258.63 C1502.18,274.79 1466.66,298.29 1439.39,324 C1424.55,337.99 1414.0252,351.4699 1404.1752,365.7599 " fill="none" id="com_acmeair_web_RESTCookieSessionFilter-to-com_acmeair_service_CustomerService" style="stroke:#181818;stroke-width:1.0;stroke-dasharray:7.0,7.0;"/><polygon fill="#181818" points="1400.77,370.7,1409.1712,365.56,1403.6077,366.5832,1402.5844,361.0197,1400.77,370.7" style="stroke:#181818;stroke-width:1.0;"/><text fill="#000000" font-family="sans-serif" font-size="13" lengthAdjust="spacing" textLength="52" x="1440.39" y="337.0669">requires</text></g><!--link com_acmeair_web_LoginREST to com_acmeair_service_CustomerService--><g id="link_com_acmeair_web_LoginREST_com_acmeair_service_CustomerService"><path d="M2373.86,258.64 C2346.37,271.47 2309.69,286.52 2275.39,294 C1982.85,357.77 1897.13,271.32 1602.39,324 C1546.2,334.04 1489.9879,352.743 1446.9279,368.893 " fill="none" id="com_acmeair_web_LoginREST-to-com_acmeair_service_CustomerService" style="stroke:#181818;stroke-width:1.0;stroke-dasharray:7.0,7.0;"/><polygon fill="#181818" points="1441.31,371,1451.1415,371.5847,1445.9916,369.2441,1448.3321,364.0942,1441.31,371" style="stroke:#181818;stroke-width:1.0;"/><text fill="#000000" font-family="sans-serif" font-size="13" lengthAdjust="spacing" textLength="52" x="1603.39" y="337.0669">requires</text></g><!--link com_acmeair_service_CustomerService to com_acmeair_service_KeyGenerator--><g id="link_com_acmeair_service_CustomerService_com_acmeair_service_KeyGenerator"><path d="M1386.39,417.19 C1386.39,439.03 1386.39,466.16 1386.39,487.95 " fill="none" id="com_acmeair_service_CustomerService-to-com_acmeair_service_KeyGenerator" style="stroke:#181818;stroke-width:1.0;stroke-dasharray:7.0,7.0;"/><polygon fill="#181818" points="1386.39,493.95,1390.39,484.95,1386.39,488.95,1382.39,484.95,1386.39,493.95" style="stroke:#181818;stroke-width:1.0;"/><text fill="#000000" font-family="sans-serif" font-size="13" lengthAdjust="spacing" textLength="52" x="1387.39" y="460.0669">requires</text></g><!--link com_acmeair_web_CustomerREST to com_acmeair_service_CustomerService--><g id="link_com_acmeair_web_CustomerREST_com_acmeair_service_CustomerService"><path d="M1233.18,258.51 C1247.11,281.16 1271.1,316.5 1298.39,341 C1311.07,352.38 1321.3968,359.5698 1335.8768,367.8198 " fill="none" id="com_acmeair_web_CustomerREST-to-com_acmeair_service_CustomerService" style="stroke:#181818;stroke-width:1.0;stroke-dasharray:7.0,7.0;"/><polygon fill="#181818" points="1341.09,370.79,1335.2503,362.8592,1336.7456,368.3148,1331.29,369.8101,1341.09,370.79" style="stroke:#181818;stroke-width:1.0;"/><text fill="#000000" font-family="sans-serif" font-size="13" lengthAdjust="spacing" textLength="52" x="1299.39" y="337.0669">requires</text></g><!--link com_acmeair_web_RESTCookieSessionFilter to com_acmeair_wxs_utils_WXSSessionManager--><g id="link_com_acmeair_web_RESTCookieSessionFilter_com_acmeair_wxs_utils_WXSSessionManager"><path d="M1628.45,258.63 C1665.85,271.37 1715.28,286.34 1760.39,294 C1904.48,318.48 2276.17,286.35 2417.39,324 C2427.25,326.63 2469.5636,348.842 2505.2536,368.002 " fill="none" id="com_acmeair_web_RESTCookieSessionFilter-to-com_acmeair_wxs_utils_WXSSessionManager" style="stroke:#181818;stroke-width:1.0;stroke-dasharray:7.0,7.0;"/><polygon fill="#181818" points="2510.54,370.84,2504.5024,363.0588,2506.1347,368.475,2500.7184,370.1073,2510.54,370.84" style="stroke:#181818;stroke-width:1.0;"/><text fill="#000000" font-family="sans-serif" font-size="13" lengthAdjust="spacing" textLength="52" x="2454.39" y="337.0669">requires</text></g><!--link com_acmeair_config_AcmeAirConfiguration to com_acmeair_wxs_service_BookingServiceImpl--><g id="link_com_acmeair_config_AcmeAirConfiguration_com_acmeair_wxs_service_BookingServiceImpl"><path d="M607.05,258.51 C697.31,288.31 851.7925,339.3189 942.0525,369.1189 " fill="none" id="com_acmeair_config_AcmeAirConfiguration-to-com_acmeair_wxs_service_BookingServiceImpl" style="stroke:#181818;stroke-width:1.0;stroke-dasharray:7.0,7.0;"/><polygon fill="#181818" points="947.75,371,940.4578,364.3801,943.0021,369.4324,937.9497,371.9767,947.75,371" style="stroke:#181818;stroke-width:1.0;"/><text fill="#000000" font-family="sans-serif" font-size="13" lengthAdjust="spacing" textLength="52" x="848.39" y="337.0669">requires</text></g><!--link com_acmeair_config_AcmeAirConfiguration to com_acmeair_service_CustomerService--><g id="link_com_acmeair_config_AcmeAirConfiguration_com_acmeair_service_CustomerService"><path d="M603.1,258.61 C638.62,270.47 684.08,284.54 725.39,294 C750.04,299.64 1041.8632,342.6612 1229.2232,370.0812 " fill="none" id="com_acmeair_config_AcmeAirConfiguration-to-com_acmeair_service_CustomerService" style="stroke:#181818;stroke-width:1.0;stroke-dasharray:7.0,7.0;"/><polygon fill="#181818" points="1235.16,370.95,1226.8341,365.6889,1230.2127,370.226,1225.6756,373.6046,1235.16,370.95" style="stroke:#181818;stroke-width:1.0;"/><text fill="#000000" font-family="sans-serif" font-size="13" lengthAdjust="spacing" textLength="52" x="1031.39" y="337.0669">requires</text></g><!--link com_acmeair_loader_CustomerLoader to com_acmeair_service_CustomerService--><g id="link_com_acmeair_loader_CustomerLoader_com_acmeair_service_CustomerService"><path d="M957.64,258.53 C989.31,269.43 1028.3,282.66 1063.39,294 C1148.36,321.47 1240.7523,349.5583 1306.3523,369.2083 " fill="none" id="com_acmeair_loader_CustomerLoader-to-com_acmeair_service_CustomerService" style="stroke:#181818;stroke-width:1.0;stroke-dasharray:7.0,7.0;"/><polygon fill="#181818" points="1312.1,370.93,1304.6263,364.5157,1307.3103,369.4953,1302.3307,372.1793,1312.1,370.93" style="stroke:#181818;stroke-width:1.0;"/><text fill="#000000" font-family="sans-serif" font-size="13" lengthAdjust="spacing" textLength="52" x="1205.39" y="337.0669">requires</text></g><!--link com_acmeair_web_RESTCookieSessionFilter to com_acmeair_service_TransactionService--><g id="link_com_acmeair_web_RESTCookieSessionFilter_com_acmeair_service_TransactionService"><path d="M1592.67,258.59 C1625.36,288.33 1678.7523,336.9118 1711.5223,366.7318 " fill="none" id="com_acmeair_web_RESTCookieSessionFilter-to-com_acmeair_service_TransactionService" style="stroke:#181818;stroke-width:1.0;stroke-dasharray:7.0,7.0;"/><polygon fill="#181818" points="1715.96,370.77,1711.9956,361.7543,1712.2619,367.4048,1706.6114,367.6712,1715.96,370.77" style="stroke:#181818;stroke-width:1.0;"/><text fill="#000000" font-family="sans-serif" font-size="13" lengthAdjust="spacing" textLength="52" x="1680.39" y="337.0669">requires</text></g><!--link com_acmeair_loader_FlightLoader to com_acmeair_service_FlightService--><g id="link_com_acmeair_loader_FlightLoader_com_acmeair_service_FlightService"><path d="M2661.91,258.54 C2632.5,270.6 2594.41,284.9 2559.39,294 C2472.39,316.6 2447.57,306.6 2359.39,324 C2291.63,337.37 2221.394,354.7691 2165.524,369.4091 " fill="none" id="com_acmeair_loader_FlightLoader-to-com_acmeair_service_FlightService" style="stroke:#181818;stroke-width:1.0;stroke-dasharray:7.0,7.0;"/><polygon fill="#181818" points="2159.72,370.93,2169.44,372.5181,2164.5567,369.6626,2167.4122,364.7793,2159.72,370.93" style="stroke:#181818;stroke-width:1.0;"/><text fill="#000000" font-family="sans-serif" font-size="13" lengthAdjust="spacing" textLength="52" x="2360.39" y="337.0669">requires</text></g><!--link com_acmeair_web_BookingsREST to com_acmeair_service_BookingService--><g id="link_com_acmeair_web_BookingsREST_com_acmeair_service_BookingService"><path d="M258.15,258.57 C287.32,269.43 323.14,282.59 355.39,294 C432.47,321.27 515.8374,349.3441 575.1374,369.0941 " fill="none" id="com_acmeair_web_BookingsREST-to-com_acmeair_service_BookingService" style="stroke:#181818;stroke-width:1.0;stroke-dasharray:7.0,7.0;"/><polygon fill="#181818" points="580.83,370.99,573.5551,364.3511,576.0862,369.4101,571.0272,371.9412,580.83,370.99" style="stroke:#181818;stroke-width:1.0;"/><text fill="#000000" font-family="sans-serif" font-size="13" lengthAdjust="spacing" textLength="52" x="491.39" y="337.0669">requires</text></g><!--link com_acmeair_config_AcmeAirConfiguration to com_acmeair_service_FlightService--><g id="link_com_acmeair_config_AcmeAirConfiguration_com_acmeair_service_FlightService"><path d="M597.32,258.61 C633.42,271.52 681.43,286.66 725.39,294 C1170.97,368.39 1292.66,271.83 1741.39,324 C1827.41,334 1918.2641,353.4164 1985.9341,369.5764 " fill="none" id="com_acmeair_config_AcmeAirConfiguration-to-com_acmeair_service_FlightService" style="stroke:#181818;stroke-width:1.0;stroke-dasharray:7.0,7.0;"/><polygon fill="#181818" points="1991.77,370.97,1983.9452,364.9889,1986.9067,369.8086,1982.087,372.7701,1991.77,370.97" style="stroke:#181818;stroke-width:1.0;"/><text fill="#000000" font-family="sans-serif" font-size="13" lengthAdjust="spacing" textLength="52" x="1844.39" y="337.0669">requires</text></g><!--link com_acmeair_web_FlightsREST to com_acmeair_service_FlightService--><g id="link_com_acmeair_web_FlightsREST_com_acmeair_service_FlightService"><path d="M1929.81,258.59 C1962.69,288.33 2016.4113,336.9239 2049.3613,366.7439 " fill="none" id="com_acmeair_web_FlightsREST-to-com_acmeair_service_FlightService" style="stroke:#181818;stroke-width:1.0;stroke-dasharray:7.0,7.0;"/><polygon fill="#181818" points="2053.81,370.77,2049.821,361.7651,2050.1028,367.4149,2044.4529,367.6967,2053.81,370.77" style="stroke:#181818;stroke-width:1.0;"/><text fill="#000000" font-family="sans-serif" font-size="13" lengthAdjust="spacing" textLength="52" x="2018.39" y="337.0669">requires</text></g><!--link com_acmeair_config_AcmeAirConfiguration to com_acmeair_morphia_services_BookingServiceImpl--><g id="link_com_acmeair_config_AcmeAirConfiguration_com_acmeair_morphia_services_BookingServiceImpl"><path d="M477.47,258.61 C437.07,274.13 384.32,296.91 341.39,324 C320.14,337.41 303.0635,352.0907 287.7435,366.6907 " fill="none" id="com_acmeair_config_AcmeAirConfiguration-to-com_acmeair_morphia_services_BookingServiceImpl" style="stroke:#181818;stroke-width:1.0;stroke-dasharray:7.0,7.0;"/><polygon fill="#181818" points="283.4,370.83,292.6748,367.5166,287.0196,367.3805,287.1557,361.7253,283.4,370.83" style="stroke:#181818;stroke-width:1.0;"/><text fill="#000000" font-family="sans-serif" font-size="13" lengthAdjust="spacing" textLength="52" x="342.39" y="337.0669">requires</text></g><!--link AcmeAirConfiguration_requires_SERVICE_HOST_bookings to com_acmeair_web_BookingsREST--><g id="link_AcmeAirConfiguration_requires_SERVICE_HOST_bookings_com_acmeair_web_BookingsREST"><path d="M855.26,111.05 C812.56,111.54 555.56,116.64 355.39,169 C315.89,179.33 273.29,197.75 242.61,212.44 " fill="none" id="AcmeAirConfiguration_requires_SERVICE_HOST_bookings-com_acmeair_web_BookingsREST" style="stroke:#181818;stroke-width:1.0;"/></g><!--link AcmeAirConfiguration_requires_com_acmeair_wxs_WXSConstants to com_acmeair_wxs_utils_WXSSessionManager--><g id="link_AcmeAirConfiguration_requires_com_acmeair_wxs_WXSConstants_com_acmeair_wxs_utils_WXSSessionManager"><path d="M2803.51,111.03 C2821.11,111.48 2872.03,115.48 2893.39,146 C2943.08,217.01 2949.88,275.27 2893.39,341 C2870.83,367.25 2799.27,380.4 2727.4,386.93 " fill="none" id="AcmeAirConfiguration_requires_com_acmeair_wxs_WXSConstants-com_acmeair_wxs_utils_WXSSessionManager" style="stroke:#181818;stroke-width:1.0;"/></g><!--link AcmeAirConfiguration_requires_SERVICE_HOST_customer_byid to com_acmeair_web_CustomerREST--><g id="link_AcmeAirConfiguration_requires_SERVICE_HOST_customer_byid_com_acmeair_web_CustomerREST"><path d="M1220.39,116.31 C1220.39,132.65 1220.39,182.9 1220.39,212.35 " fill="none" id="AcmeAirConfiguration_requires_SERVICE_HOST_customer_byid-com_acmeair_web_CustomerREST" style="stroke:#181818;stroke-width:1.0;"/></g><!--link AcmeAirConfiguration_requires_SERVICE_HOST_config to com_acmeair_config_AcmeAirConfiguration--><g id="link_AcmeAirConfiguration_requires_SERVICE_HOST_config_com_acmeair_config_AcmeAirConfiguration"><path d="M985.13,112.06 C955.64,117.14 827.67,139.87 725.39,169 C681.64,181.46 633.21,198.74 596.88,212.42 " fill="none" id="AcmeAirConfiguration_requires_SERVICE_HOST_config-com_acmeair_config_AcmeAirConfiguration" style="stroke:#181818;stroke-width:1.0;"/></g><!--link AcmeAirConfiguration_requires_Filter to com_acmeair_web_RESTCookieSessionFilter--><g id="link_AcmeAirConfiguration_requires_Filter_com_acmeair_web_RESTCookieSessionFilter"><path d="M1336.51,114.18 C1362.63,127.73 1466.12,181.43 1525.64,212.32 " fill="none" id="AcmeAirConfiguration_requires_Filter-com_acmeair_web_RESTCookieSessionFilter" style="stroke:#181818;stroke-width:1.0;"/></g><!--link AcmeAirConfiguration_requires_com_acmeair_morphia_MorphiaConstants to com_acmeair_morphia_services_BookingServiceImpl--><g id="link_AcmeAirConfiguration_requires_com_acmeair_morphia_MorphiaConstants_com_acmeair_morphia_services_BookingServiceImpl"><path d="M650.01,111.1 C587.56,112.09 86.55,121.56 43.39,169 C6,210.09 13.3,247.3 43.39,294 C68.32,332.7 112.48,356.45 154.57,370.93 " fill="none" id="AcmeAirConfiguration_requires_com_acmeair_morphia_MorphiaConstants-com_acmeair_morphia_services_BookingServiceImpl" style="stroke:#181818;stroke-width:1.0;"/></g><!--link AcmeAirConfiguration_requires_com_acmeair_wxs_WXSConstants to com_acmeair_wxs_service_BookingServiceImpl--><g id="link_AcmeAirConfiguration_requires_com_acmeair_wxs_WXSConstants_com_acmeair_wxs_service_BookingServiceImpl"><path d="M2803.52,113.83 C2817.8,120.8 2853.04,140.34 2866.39,169 C2889.85,219.36 2902.97,252.19 2866.39,294 C2762.74,412.45 2672.3,328.72 2515.39,341 C1938.33,386.15 1790.93,332.5 1213.39,371 C1207.49,371.39 1201.5,371.83 1195.46,372.31 " fill="none" id="AcmeAirConfiguration_requires_com_acmeair_wxs_WXSConstants-com_acmeair_wxs_service_BookingServiceImpl" style="stroke:#181818;stroke-width:1.0;"/></g><!--link AcmeAirConfiguration_requires_SERVICE_HOST_login to com_acmeair_web_LoginREST--><g id="link_AcmeAirConfiguration_requires_SERVICE_HOST_login_com_acmeair_web_LoginREST"><path d="M2417.39,116.31 C2417.39,132.65 2417.39,182.9 2417.39,212.35 " fill="none" id="AcmeAirConfiguration_requires_SERVICE_HOST_login-com_acmeair_web_LoginREST" style="stroke:#181818;stroke-width:1.0;"/></g><!--link AcmeAirConfiguration_requires_SERVICE_HOST_flights to com_acmeair_web_FlightsREST--><g id="link_AcmeAirConfiguration_requires_SERVICE_HOST_flights_com_acmeair_web_FlightsREST"><path d="M1463.69,111.66 C1495.75,115.13 1643.82,132.52 1759.39,169 C1795.55,180.41 1834.66,198.28 1863.29,212.47 " fill="none" id="AcmeAirConfiguration_requires_SERVICE_HOST_flights-com_acmeair_web_FlightsREST" style="stroke:#181818;stroke-width:1.0;"/></g><!--link interface.Filter to AcmeAirConfiguration_requires_Filter--><g id="link_interface.Filter_AcmeAirConfiguration_requires_Filter"><path d="M1388.02,23.01 C1375.4,41.84 1344.16,88.45 1333.79,103.92 " fill="none" id="interface.Filter-AcmeAirConfiguration_requires_Filter" style="stroke:#181818;stroke-width:1.0;"/></g><!--link interface.SERVICE_HOST_bookings to AcmeAirConfiguration_requires_SERVICE_HOST_bookings--><g id="link_interface.SERVICE_HOST_bookings_AcmeAirConfiguration_requires_SERVICE_HOST_bookings"><path d="M786.38,23.01 C802.8,41.84 843.47,88.45 856.96,103.92 " fill="none" id="interface.SERVICE_HOST_bookings-AcmeAirConfiguration_requires_SERVICE_HOST_bookings" style="stroke:#181818;stroke-width:1.0;"/></g><!--link interface.SERVICE_HOST_config to AcmeAirConfiguration_requires_SERVICE_HOST_config--><g id="link_interface.SERVICE_HOST_config_AcmeAirConfiguration_requires_SERVICE_HOST_config"><path d="M991.39,23.01 C991.39,41.84 991.39,88.45 991.39,103.92 " fill="none" id="interface.SERVICE_HOST_config-AcmeAirConfiguration_requires_SERVICE_HOST_config" style="stroke:#181818;stroke-width:1.0;"/></g><!--link interface.SERVICE_HOST_customer_byid to AcmeAirConfiguration_requires_SERVICE_HOST_customer_byid--><g id="link_interface.SERVICE_HOST_customer_byid_AcmeAirConfiguration_requires_SERVICE_HOST_customer_byid"><path d="M1220.39,23.01 C1220.39,41.84 1220.39,88.45 1220.39,103.92 " fill="none" id="interface.SERVICE_HOST_customer_byid-AcmeAirConfiguration_requires_SERVICE_HOST_customer_byid" style="stroke:#181818;stroke-width:1.0;"/></g><!--link interface.SERVICE_HOST_flights to AcmeAirConfiguration_requires_SERVICE_HOST_flights--><g id="link_interface.SERVICE_HOST_flights_AcmeAirConfiguration_requires_SERVICE_HOST_flights"><path d="M1530.57,23.01 C1514.55,41.84 1474.88,88.45 1461.71,103.92 " fill="none" id="interface.SERVICE_HOST_flights-AcmeAirConfiguration_requires_SERVICE_HOST_flights" style="stroke:#181818;stroke-width:1.0;"/></g><!--link interface.SERVICE_HOST_login to AcmeAirConfiguration_requires_SERVICE_HOST_login--><g id="link_interface.SERVICE_HOST_login_AcmeAirConfiguration_requires_SERVICE_HOST_login"><path d="M2417.39,23.01 C2417.39,41.84 2417.39,88.45 2417.39,103.92 " fill="none" id="interface.SERVICE_HOST_login-AcmeAirConfiguration_requires_SERVICE_HOST_login" style="stroke:#181818;stroke-width:1.0;"/></g><!--link interface.com_acmeair_morphia_MorphiaConstants to AcmeAirConfiguration_requires_com_acmeair_morphia_MorphiaConstants--><g id="link_interface.com_acmeair_morphia_MorphiaConstants_AcmeAirConfiguration_requires_com_acmeair_morphia_MorphiaConstants"><path d="M508.74,20.6 C537.79,37.99 625.95,90.78 650.17,105.28 " fill="none" id="interface.com_acmeair_morphia_MorphiaConstants-AcmeAirConfiguration_requires_com_acmeair_morphia_MorphiaConstants" style="stroke:#181818;stroke-width:1.0;"/></g><!--link interface.com_acmeair_wxs_WXSConstants to AcmeAirConfiguration_requires_com_acmeair_wxs_WXSConstants--><g id="link_interface.com_acmeair_wxs_WXSConstants_AcmeAirConfiguration_requires_com_acmeair_wxs_WXSConstants"><path d="M2797.39,23.01 C2797.39,41.84 2797.39,88.45 2797.39,103.92 " fill="none" id="interface.com_acmeair_wxs_WXSConstants-AcmeAirConfiguration_requires_com_acmeair_wxs_WXSConstants" style="stroke:#181818;stroke-width:1.0;"/></g><!--link com_acmeair_config_LoaderREST to com_acmeair_loader_Loader--><g id="link_com_acmeair_config_LoaderREST_com_acmeair_loader_Loader"><path d="M3295.39,258.59 C3295.39,288.33 3295.39,334.95 3295.39,364.77 " fill="none" id="com_acmeair_config_LoaderREST-to-com_acmeair_loader_Loader" style="stroke:#181818;stroke-width:1.0;stroke-dasharray:7.0,7.0;"/><polygon fill="#181818" points="3295.39,370.77,3299.39,361.77,3295.39,365.77,3291.39,361.77,3295.39,370.77" style="stroke:#181818;stroke-width:1.0;"/><text fill="#000000" font-family="sans-serif" font-size="13" lengthAdjust="spacing" textLength="52" x="3296.39" y="337.0669">requires</text></g><!--link LoaderREST_requires_SERVICE_HOST_loader to com_acmeair_config_LoaderREST--><g id="link_LoaderREST_requires_SERVICE_HOST_loader_com_acmeair_config_LoaderREST"><path d="M3133.77,115.69 C3155.05,131.33 3224.52,182.4 3265.12,212.25 " fill="none" id="LoaderREST_requires_SERVICE_HOST_loader-com_acmeair_config_LoaderREST" style="stroke:#181818;stroke-width:1.0;"/></g><!--link interface.SERVICE_HOST_loader to LoaderREST_requires_SERVICE_HOST_loader--><g id="link_interface.SERVICE_HOST_loader_LoaderREST_requires_SERVICE_HOST_loader"><path d="M3127.39,23.01 C3127.39,41.84 3127.39,88.45 3127.39,103.92 " fill="none" id="interface.SERVICE_HOST_loader-LoaderREST_requires_SERVICE_HOST_loader" style="stroke:#181818;stroke-width:1.0;"/></g><!--SRC=[lLXHRziW47xFhx1uJohjSG-LkYXTgwMgL4VRfAsoY4jSL1iyiBj6K__xS0o9SG234rL-Y6AExxuxkEF3_0MJ4Z9OH1lyDiSipT4Ihb5-_ufO3iiIaoogM8qcV6-OqgAa194ghhOvYkeY_pJPlul0LLgWAypcb6nmLZDOOKf-TnuG_Ply4lO958OGi-GlMYTVA1Nu6NzOnAl7tl0RJ-eAvppvyJEE4US2xmuIc27Mi-I8lU8K9TSvpfwhkFttUEniIJDCJ9x4M3lNn2Edy0anQR3S_UbPfBkG4rC2334fjZ9qIVUsAFEUSK5P-OoXci27PoZeUSqhMY1cJeKCI1aPGsfIqkHYthX4CllNEA-ioTV96U2KFqEA5SQAGS9XsYJEZACClw7jLqIGo34LV4hAAamY81x88zCo90pzgJ4JEOmN3zzlvulavZvUoOKBcj_c86YAQKtlsbynWrUGLFo466HQa_KMFus7sRJxVpp0MbRowDGqjI4g_GmfoPiw7-WrizbbSB55doFbC11zeEwjmAxEqlTXAKGdQLk9sx3xZSK9VcYt9yFP9jY0jVxW9AbrfRE4xPjJr_bsbWtnaPlEEqFcm-T34-yuROPeQoB0XglBaF5D8xIWnwnR0DUkGZeHBeHfQ6C68yuiC9qEA5Cm_Xmx0dVfMZ3sv3U5e2ik42oC-fXEdGjyT9E9fLLcWjDbLT-VbwG-yrgxz3u8LJMc17QkDI1SyPaGjSlG-mGJiHuRcA88o6Li1Dd-xKngulwBwTHlJtJn9SDfm_1YNvwwExFi71WV96Dk35Pkia8SpEJbmZaQnahwj7EIzNwnQmWkQjgTmSSeaAZMcQnyrGvqC5NN4lTm63lbrighhJG7g_Q2uHeCOzGwxFBnQcuwGwzhPfZvO1HUD6rn7JLFUpn7TqC_io3-HtIw7xTQoTSqHESdBIaJNL-93aZz3nU74UisQGo6KFi2IkUaIILFZnOTq8tatL5CEmXdDUt2SewAbVGbE_aF]--></g></svg>