<?xml version="1.0" encoding="us-ascii" standalone="no"?><svg xmlns="http://www.w3.org/2000/svg" xmlns:xlink="http://www.w3.org/1999/xlink" contentStyleType="text/css" height="439px" preserveAspectRatio="none" style="width:3356px;height:439px;background:#FFFFFF;" version="1.1" viewBox="0 0 3356 439" width="3356px" zoomAndPan="magnify"><defs/><g><!--cluster com_acmeair\n\n\n\n\n\n--><g id="cluster_com_acmeair\n\n\n\n\n\n"><rect fill="none" height="323" rx="2.5" ry="2.5" style="stroke:#181818;stroke-width:1.0;" width="2863" x="7" y="110"/><rect fill="none" height="10" style="stroke:#181818;stroke-width:1.0;" width="15" x="2850" y="115"/><rect fill="none" height="2" style="stroke:#181818;stroke-width:1.0;" width="4" x="2848" y="117"/><rect fill="none" height="2" style="stroke:#181818;stroke-width:1.0;" width="4" x="2848" y="121"/><text fill="#000000" font-family="sans-serif" font-size="14" font-weight="bold" lengthAdjust="spacing" textLength="102" x="1387.5" y="135.9951">com_acmeair</text><text fill="#000000" font-family="sans-serif" font-size="14" font-weight="bold" lengthAdjust="spacing" textLength="5" x="1436" y="152.292">&#160;</text><text fill="#000000" font-family="sans-serif" font-size="14" font-weight="bold" lengthAdjust="spacing" textLength="5" x="1436" y="168.5889">&#160;</text><text fill="#000000" font-family="sans-serif" font-size="14" font-weight="bold" lengthAdjust="spacing" textLength="5" x="1436" y="184.8857">&#160;</text><text fill="#000000" font-family="sans-serif" font-size="14" font-weight="bold" lengthAdjust="spacing" textLength="5" x="1436" y="201.1826">&#160;</text><text fill="#000000" font-family="sans-serif" font-size="14" font-weight="bold" lengthAdjust="spacing" textLength="5" x="1436" y="217.4795">&#160;</text><text fill="#000000" font-family="sans-serif" font-size="14" font-weight="bold" lengthAdjust="spacing" textLength="5" x="1436" y="233.7764">&#160;</text></g><!--cluster com_acmeair 2\n\n\n\n\n\n--><g id="cluster_com_acmeair 2\n\n\n\n\n\n"><rect fill="none" height="323" rx="2.5" ry="2.5" style="stroke:#181818;stroke-width:1.0;" width="347" x="3003" y="110"/><rect fill="none" height="10" style="stroke:#181818;stroke-width:1.0;" width="15" x="3330" y="115"/><rect fill="none" height="2" style="stroke:#181818;stroke-width:1.0;" width="4" x="3328" y="117"/><rect fill="none" height="2" style="stroke:#181818;stroke-width:1.0;" width="4" x="3328" y="121"/><text fill="#000000" font-family="sans-serif" font-size="14" font-weight="bold" lengthAdjust="spacing" textLength="117" x="3118" y="135.9951">com_acmeair 2</text><text fill="#000000" font-family="sans-serif" font-size="14" font-weight="bold" lengthAdjust="spacing" textLength="5" x="3174" y="152.292">&#160;</text><text fill="#000000" font-family="sans-serif" font-size="14" font-weight="bold" lengthAdjust="spacing" textLength="5" x="3174" y="168.5889">&#160;</text><text fill="#000000" font-family="sans-serif" font-size="14" font-weight="bold" lengthAdjust="spacing" textLength="5" x="3174" y="184.8857">&#160;</text><text fill="#000000" font-family="sans-serif" font-size="14" font-weight="bold" lengthAdjust="spacing" textLength="5" x="3174" y="201.1826">&#160;</text><text fill="#000000" font-family="sans-serif" font-size="14" font-weight="bold" lengthAdjust="spacing" textLength="5" x="3174" y="217.4795">&#160;</text><text fill="#000000" font-family="sans-serif" font-size="14" font-weight="bold" lengthAdjust="spacing" textLength="5" x="3174" y="233.7764">&#160;</text></g><!--entity com_acmeair_wxs_service_FlightServiceImpl--><g id="elem_com_acmeair_wxs_service_FlightServiceImpl"><rect fill="#F1F1F1" height="46.2969" rx="2.5" ry="2.5" style="stroke:#181818;stroke-width:0.5;" width="342" x="23" y="371"/><rect fill="#F1F1F1" height="10" style="stroke:#181818;stroke-width:0.5;" width="15" x="345" y="376"/><rect fill="#F1F1F1" height="2" style="stroke:#181818;stroke-width:0.5;" width="4" x="343" y="378"/><rect fill="#F1F1F1" height="2" style="stroke:#181818;stroke-width:0.5;" width="4" x="343" y="382"/><text fill="#000000" font-family="sans-serif" font-size="14" lengthAdjust="spacing" textLength="302" x="38" y="403.9951">com_acmeair_wxs_service_FlightServiceImpl</text></g><!--entity com_acmeair_morphia_services_BookingServiceImpl--><g id="elem_com_acmeair_morphia_services_BookingServiceImpl"><rect fill="#F1F1F1" height="46.2969" rx="2.5" ry="2.5" style="stroke:#181818;stroke-width:0.5;" width="400" x="1212" y="371"/><rect fill="#F1F1F1" height="10" style="stroke:#181818;stroke-width:0.5;" width="15" x="1592" y="376"/><rect fill="#F1F1F1" height="2" style="stroke:#181818;stroke-width:0.5;" width="4" x="1590" y="378"/><rect fill="#F1F1F1" height="2" style="stroke:#181818;stroke-width:0.5;" width="4" x="1590" y="382"/><text fill="#000000" font-family="sans-serif" font-size="14" lengthAdjust="spacing" textLength="360" x="1227" y="403.9951">com_acmeair_morphia_services_BookingServiceImpl</text></g><!--entity com_acmeair_wxs_service_BookingServiceImpl--><g id="elem_com_acmeair_wxs_service_BookingServiceImpl"><rect fill="#F1F1F1" height="46.2969" rx="2.5" ry="2.5" style="stroke:#181818;stroke-width:0.5;" width="362" x="815" y="371"/><rect fill="#F1F1F1" height="10" style="stroke:#181818;stroke-width:0.5;" width="15" x="1157" y="376"/><rect fill="#F1F1F1" height="2" style="stroke:#181818;stroke-width:0.5;" width="4" x="1155" y="378"/><rect fill="#F1F1F1" height="2" style="stroke:#181818;stroke-width:0.5;" width="4" x="1155" y="382"/><text fill="#000000" font-family="sans-serif" font-size="14" lengthAdjust="spacing" textLength="322" x="830" y="403.9951">com_acmeair_wxs_service_BookingServiceImpl</text></g><!--entity com_acmeair_morphia_services_FlightServiceImpl--><g id="elem_com_acmeair_morphia_services_FlightServiceImpl"><rect fill="#F1F1F1" height="46.2969" rx="2.5" ry="2.5" style="stroke:#181818;stroke-width:0.5;" width="380" x="400" y="371"/><rect fill="#F1F1F1" height="10" style="stroke:#181818;stroke-width:0.5;" width="15" x="760" y="376"/><rect fill="#F1F1F1" height="2" style="stroke:#181818;stroke-width:0.5;" width="4" x="758" y="378"/><rect fill="#F1F1F1" height="2" style="stroke:#181818;stroke-width:0.5;" width="4" x="758" y="382"/><text fill="#000000" font-family="sans-serif" font-size="14" lengthAdjust="spacing" textLength="340" x="415" y="403.9951">com_acmeair_morphia_services_FlightServiceImpl</text></g><!--entity com_acmeair_morphia_services_CustomerServiceImpl--><g id="elem_com_acmeair_morphia_services_CustomerServiceImpl"><rect fill="#F1F1F1" height="46.2969" rx="2.5" ry="2.5" style="stroke:#181818;stroke-width:0.5;" width="411" x="2034.5" y="371"/><rect fill="#F1F1F1" height="10" style="stroke:#181818;stroke-width:0.5;" width="15" x="2425.5" y="376"/><rect fill="#F1F1F1" height="2" style="stroke:#181818;stroke-width:0.5;" width="4" x="2423.5" y="378"/><rect fill="#F1F1F1" height="2" style="stroke:#181818;stroke-width:0.5;" width="4" x="2423.5" y="382"/><text fill="#000000" font-family="sans-serif" font-size="14" lengthAdjust="spacing" textLength="371" x="2049.5" y="403.9951">com_acmeair_morphia_services_CustomerServiceImpl</text></g><!--entity com_acmeair_wxs_service_CustomerServiceImpl--><g id="elem_com_acmeair_wxs_service_CustomerServiceImpl"><rect fill="#F1F1F1" height="46.2969" rx="2.5" ry="2.5" style="stroke:#181818;stroke-width:0.5;" width="373" x="2480.5" y="371"/><rect fill="#F1F1F1" height="10" style="stroke:#181818;stroke-width:0.5;" width="15" x="2833.5" y="376"/><rect fill="#F1F1F1" height="2" style="stroke:#181818;stroke-width:0.5;" width="4" x="2831.5" y="378"/><rect fill="#F1F1F1" height="2" style="stroke:#181818;stroke-width:0.5;" width="4" x="2831.5" y="382"/><text fill="#000000" font-family="sans-serif" font-size="14" lengthAdjust="spacing" textLength="333" x="2495.5" y="403.9951">com_acmeair_wxs_service_CustomerServiceImpl</text></g><!--entity com_acmeair_loader_CustomerLoader--><g id="elem_com_acmeair_loader_CustomerLoader"><rect fill="#F1F1F1" height="46.2969" rx="2.5" ry="2.5" style="stroke:#181818;stroke-width:0.5;" width="303" x="1799.5" y="212.5"/><rect fill="#F1F1F1" height="10" style="stroke:#181818;stroke-width:0.5;" width="15" x="2082.5" y="217.5"/><rect fill="#F1F1F1" height="2" style="stroke:#181818;stroke-width:0.5;" width="4" x="2080.5" y="219.5"/><rect fill="#F1F1F1" height="2" style="stroke:#181818;stroke-width:0.5;" width="4" x="2080.5" y="223.5"/><text fill="#000000" font-family="sans-serif" font-size="14" lengthAdjust="spacing" textLength="263" x="1814.5" y="245.4951">com_acmeair_loader_CustomerLoader</text></g><!--entity com_acmeair_wxs_utils_WXSSessionManager--><g id="elem_com_acmeair_wxs_utils_WXSSessionManager"><rect fill="#F1F1F1" height="46.2969" rx="2.5" ry="2.5" style="stroke:#181818;stroke-width:0.5;" width="352" x="1647" y="371"/><rect fill="#F1F1F1" height="10" style="stroke:#181818;stroke-width:0.5;" width="15" x="1979" y="376"/><rect fill="#F1F1F1" height="2" style="stroke:#181818;stroke-width:0.5;" width="4" x="1977" y="378"/><rect fill="#F1F1F1" height="2" style="stroke:#181818;stroke-width:0.5;" width="4" x="1977" y="382"/><text fill="#000000" font-family="sans-serif" font-size="14" lengthAdjust="spacing" textLength="312" x="1662" y="403.9951">com_acmeair_wxs_utils_WXSSessionManager</text></g><!--entity com_acmeair_web_CustomerREST--><g id="elem_com_acmeair_web_CustomerREST"><rect fill="#F1F1F1" height="46.2969" rx="2.5" ry="2.5" style="stroke:#181818;stroke-width:0.5;" width="279" x="2574.5" y="212.5"/><rect fill="#F1F1F1" height="10" style="stroke:#181818;stroke-width:0.5;" width="15" x="2833.5" y="217.5"/><rect fill="#F1F1F1" height="2" style="stroke:#181818;stroke-width:0.5;" width="4" x="2831.5" y="219.5"/><rect fill="#F1F1F1" height="2" style="stroke:#181818;stroke-width:0.5;" width="4" x="2831.5" y="223.5"/><text fill="#000000" font-family="sans-serif" font-size="14" lengthAdjust="spacing" textLength="239" x="2589.5" y="245.4951">com_acmeair_web_CustomerREST</text></g><!--entity com_acmeair_web_FlightsREST--><g id="elem_com_acmeair_web_FlightsREST"><rect fill="#F1F1F1" height="46.2969" rx="2.5" ry="2.5" style="stroke:#181818;stroke-width:0.5;" width="256" x="444" y="212.5"/><rect fill="#F1F1F1" height="10" style="stroke:#181818;stroke-width:0.5;" width="15" x="680" y="217.5"/><rect fill="#F1F1F1" height="2" style="stroke:#181818;stroke-width:0.5;" width="4" x="678" y="219.5"/><rect fill="#F1F1F1" height="2" style="stroke:#181818;stroke-width:0.5;" width="4" x="678" y="223.5"/><text fill="#000000" font-family="sans-serif" font-size="14" lengthAdjust="spacing" textLength="216" x="459" y="245.4951">com_acmeair_web_FlightsREST</text></g><!--entity com_acmeair_web_LoginREST--><g id="elem_com_acmeair_web_LoginREST"><rect fill="#F1F1F1" height="46.2969" rx="2.5" ry="2.5" style="stroke:#181818;stroke-width:0.5;" width="248" x="2291" y="212.5"/><rect fill="#F1F1F1" height="10" style="stroke:#181818;stroke-width:0.5;" width="15" x="2519" y="217.5"/><rect fill="#F1F1F1" height="2" style="stroke:#181818;stroke-width:0.5;" width="4" x="2517" y="219.5"/><rect fill="#F1F1F1" height="2" style="stroke:#181818;stroke-width:0.5;" width="4" x="2517" y="223.5"/><text fill="#000000" font-family="sans-serif" font-size="14" lengthAdjust="spacing" textLength="208" x="2306" y="245.4951">com_acmeair_web_LoginREST</text></g><!--entity com_acmeair_loader_FlightLoader--><g id="elem_com_acmeair_loader_FlightLoader"><rect fill="#F1F1F1" height="46.2969" rx="2.5" ry="2.5" style="stroke:#181818;stroke-width:0.5;" width="272" x="98" y="212.5"/><rect fill="#F1F1F1" height="10" style="stroke:#181818;stroke-width:0.5;" width="15" x="350" y="217.5"/><rect fill="#F1F1F1" height="2" style="stroke:#181818;stroke-width:0.5;" width="4" x="348" y="219.5"/><rect fill="#F1F1F1" height="2" style="stroke:#181818;stroke-width:0.5;" width="4" x="348" y="223.5"/><text fill="#000000" font-family="sans-serif" font-size="14" lengthAdjust="spacing" textLength="232" x="113" y="245.4951">com_acmeair_loader_FlightLoader</text></g><!--entity com_acmeair_config_AcmeAirConfiguration--><g id="elem_com_acmeair_config_AcmeAirConfiguration"><rect fill="#F1F1F1" height="46.2969" rx="2.5" ry="2.5" style="stroke:#181818;stroke-width:0.5;" width="335" x="735.5" y="212.5"/><rect fill="#F1F1F1" height="10" style="stroke:#181818;stroke-width:0.5;" width="15" x="1050.5" y="217.5"/><rect fill="#F1F1F1" height="2" style="stroke:#181818;stroke-width:0.5;" width="4" x="1048.5" y="219.5"/><rect fill="#F1F1F1" height="2" style="stroke:#181818;stroke-width:0.5;" width="4" x="1048.5" y="223.5"/><text fill="#000000" font-family="sans-serif" font-size="14" lengthAdjust="spacing" textLength="295" x="750.5" y="245.4951">com_acmeair_config_AcmeAirConfiguration</text></g><!--entity com_acmeair_web_BookingsREST--><g id="elem_com_acmeair_web_BookingsREST"><rect fill="#F1F1F1" height="46.2969" rx="2.5" ry="2.5" style="stroke:#181818;stroke-width:0.5;" width="276" x="1106" y="212.5"/><rect fill="#F1F1F1" height="10" style="stroke:#181818;stroke-width:0.5;" width="15" x="1362" y="217.5"/><rect fill="#F1F1F1" height="2" style="stroke:#181818;stroke-width:0.5;" width="4" x="1360" y="219.5"/><rect fill="#F1F1F1" height="2" style="stroke:#181818;stroke-width:0.5;" width="4" x="1360" y="223.5"/><text fill="#000000" font-family="sans-serif" font-size="14" lengthAdjust="spacing" textLength="236" x="1121" y="245.4951">com_acmeair_web_BookingsREST</text></g><!--entity com_acmeair_web_RESTCookieSessionFilter--><g id="elem_com_acmeair_web_RESTCookieSessionFilter"><rect fill="#F1F1F1" height="46.2969" rx="2.5" ry="2.5" style="stroke:#181818;stroke-width:0.5;" width="347" x="1417.5" y="212.5"/><rect fill="#F1F1F1" height="10" style="stroke:#181818;stroke-width:0.5;" width="15" x="1744.5" y="217.5"/><rect fill="#F1F1F1" height="2" style="stroke:#181818;stroke-width:0.5;" width="4" x="1742.5" y="219.5"/><rect fill="#F1F1F1" height="2" style="stroke:#181818;stroke-width:0.5;" width="4" x="1742.5" y="223.5"/><text fill="#000000" font-family="sans-serif" font-size="14" lengthAdjust="spacing" textLength="307" x="1432.5" y="245.4951">com_acmeair_web_RESTCookieSessionFilter</text></g><text fill="#000000" font-family="sans-serif" font-size="14" lengthAdjust="spacing" textLength="4" x="636" y="88.6982">&#160;</text><rect fill="#F1F1F1" height="12" style="stroke:#181818;stroke-width:1.5;" width="12" x="632" y="104"/><text fill="#000000" font-family="sans-serif" font-size="14" lengthAdjust="spacing" textLength="4" x="901" y="88.6982">&#160;</text><rect fill="#F1F1F1" height="12" style="stroke:#181818;stroke-width:1.5;" width="12" x="897" y="104"/><text fill="#000000" font-family="sans-serif" font-size="14" lengthAdjust="spacing" textLength="4" x="1242" y="88.6982">&#160;</text><rect fill="#F1F1F1" height="12" style="stroke:#181818;stroke-width:1.5;" width="12" x="1238" y="104"/><text fill="#000000" font-family="sans-serif" font-size="14" lengthAdjust="spacing" textLength="4" x="2328" y="88.6982">&#160;</text><rect fill="#F1F1F1" height="12" style="stroke:#181818;stroke-width:1.5;" width="12" x="2324" y="104"/><text fill="#000000" font-family="sans-serif" font-size="14" lengthAdjust="spacing" textLength="4" x="2237" y="88.6982">&#160;</text><rect fill="#F1F1F1" height="12" style="stroke:#181818;stroke-width:1.5;" width="12" x="2233" y="104"/><!--entity com_acmeair_config_LoaderREST--><g id="elem_com_acmeair_config_LoaderREST"><rect fill="#F1F1F1" height="46.2969" rx="2.5" ry="2.5" style="stroke:#181818;stroke-width:0.5;" width="271" x="3062.5" y="212.5"/><rect fill="#F1F1F1" height="10" style="stroke:#181818;stroke-width:0.5;" width="15" x="3313.5" y="217.5"/><rect fill="#F1F1F1" height="2" style="stroke:#181818;stroke-width:0.5;" width="4" x="3311.5" y="219.5"/><rect fill="#F1F1F1" height="2" style="stroke:#181818;stroke-width:0.5;" width="4" x="3311.5" y="223.5"/><text fill="#000000" font-family="sans-serif" font-size="14" lengthAdjust="spacing" textLength="231" x="3077.5" y="245.4951">com_acmeair_config_LoaderREST</text></g><!--entity com_acmeair_loader_Loader--><g id="elem_com_acmeair_loader_Loader"><rect fill="#F1F1F1" height="46.2969" rx="2.5" ry="2.5" style="stroke:#181818;stroke-width:0.5;" width="235" x="3080.5" y="371"/><rect fill="#F1F1F1" height="10" style="stroke:#181818;stroke-width:0.5;" width="15" x="3295.5" y="376"/><rect fill="#F1F1F1" height="2" style="stroke:#181818;stroke-width:0.5;" width="4" x="3293.5" y="378"/><rect fill="#F1F1F1" height="2" style="stroke:#181818;stroke-width:0.5;" width="4" x="3293.5" y="382"/><text fill="#000000" font-family="sans-serif" font-size="14" lengthAdjust="spacing" textLength="195" x="3095.5" y="403.9951">com_acmeair_loader_Loader</text></g><text fill="#000000" font-family="sans-serif" font-size="14" lengthAdjust="spacing" textLength="4" x="3019" y="88.6982">&#160;</text><rect fill="#F1F1F1" height="12" style="stroke:#181818;stroke-width:1.5;" width="12" x="3015" y="104"/><!--entity interface.SERVICE_HOST_bookings--><g id="elem_interface.SERVICE_HOST_bookings"><ellipse cx="1244" cy="14" fill="#F1F1F1" rx="8" ry="8" style="stroke:#181818;stroke-width:0.5;"/><text fill="#000000" font-family="sans-serif" font-size="14" lengthAdjust="spacing" textLength="172" x="1158" y="43.9951">SERVICE-HOST/bookings</text></g><!--entity interface.SERVICE_HOST_config--><g id="elem_interface.SERVICE_HOST_config"><ellipse cx="903" cy="14" fill="#F1F1F1" rx="8" ry="8" style="stroke:#181818;stroke-width:0.5;"/><text fill="#000000" font-family="sans-serif" font-size="14" lengthAdjust="spacing" textLength="150" x="828" y="43.9951">SERVICE-HOST/config</text></g><!--entity interface.SERVICE_HOST_customer_byid--><g id="elem_interface.SERVICE_HOST_customer_byid"><ellipse cx="2172" cy="14" fill="#F1F1F1" rx="8" ry="8" style="stroke:#181818;stroke-width:0.5;"/><text fill="#000000" font-family="sans-serif" font-size="14" lengthAdjust="spacing" textLength="207" x="2068.5" y="43.9951">SERVICE-HOST/customer/byid</text></g><!--entity interface.SERVICE_HOST_flights--><g id="elem_interface.SERVICE_HOST_flights"><ellipse cx="638" cy="14" fill="#F1F1F1" rx="8" ry="8" style="stroke:#181818;stroke-width:0.5;"/><text fill="#000000" font-family="sans-serif" font-size="14" lengthAdjust="spacing" textLength="149" x="563.5" y="43.9951">SERVICE-HOST/flights</text></g><!--entity interface.SERVICE_HOST_login--><g id="elem_interface.SERVICE_HOST_login"><ellipse cx="2396" cy="14" fill="#F1F1F1" rx="8" ry="8" style="stroke:#181818;stroke-width:0.5;"/><text fill="#000000" font-family="sans-serif" font-size="14" lengthAdjust="spacing" textLength="141" x="2325.5" y="43.9951">SERVICE-HOST/login</text></g><!--entity interface.SERVICE_HOST_loader--><g id="elem_interface.SERVICE_HOST_loader"><ellipse cx="3021" cy="14" fill="#F1F1F1" rx="8" ry="8" style="stroke:#181818;stroke-width:0.5;"/><text fill="#000000" font-family="sans-serif" font-size="14" lengthAdjust="spacing" textLength="151" x="2945.5" y="43.9951">SERVICE-HOST/loader</text></g><!--link com_acmeair_web_LoginREST to com_acmeair_wxs_service_CustomerServiceImpl--><g id="link_com_acmeair_web_LoginREST_com_acmeair_wxs_service_CustomerServiceImpl"><path d="M2478.41,258.52 C2516.82,273.58 2565.64,295.9 2604,324 C2622.06,337.23 2635.2208,351.5576 2646.9508,366.2776 " fill="none" id="com_acmeair_web_LoginREST-to-com_acmeair_wxs_service_CustomerServiceImpl" style="stroke:#181818;stroke-width:1.0;stroke-dasharray:7.0,7.0;"/><polygon fill="#181818" points="2650.69,370.97,2648.2094,361.4386,2647.574,367.0597,2641.9529,366.4243,2650.69,370.97" style="stroke:#181818;stroke-width:1.0;"/><text fill="#000000" font-family="sans-serif" font-size="13" lengthAdjust="spacing" textLength="52" x="2624" y="337.0669">requires</text></g><!--link com_acmeair_web_RESTCookieSessionFilter to com_acmeair_wxs_utils_WXSSessionManager--><g id="link_com_acmeair_web_RESTCookieSessionFilter_com_acmeair_wxs_utils_WXSSessionManager"><path d="M1600.12,258.52 C1611,282.2 1631.4,319.35 1660,341 C1676.93,353.82 1691.4781,361.4882 1711.7881,368.8382 " fill="none" id="com_acmeair_web_RESTCookieSessionFilter-to-com_acmeair_wxs_utils_WXSSessionManager" style="stroke:#181818;stroke-width:1.0;stroke-dasharray:7.0,7.0;"/><polygon fill="#181818" points="1717.43,370.88,1710.3283,364.0561,1712.7284,369.1785,1707.606,371.5786,1717.43,370.88" style="stroke:#181818;stroke-width:1.0;"/><text fill="#000000" font-family="sans-serif" font-size="13" lengthAdjust="spacing" textLength="52" x="1661" y="337.0669">requires</text></g><!--link com_acmeair_config_AcmeAirConfiguration to com_acmeair_wxs_service_BookingServiceImpl--><g id="link_com_acmeair_config_AcmeAirConfiguration_com_acmeair_wxs_service_BookingServiceImpl"><path d="M916.13,258.59 C933.8,288.33 962.0049,335.792 979.7249,365.612 " fill="none" id="com_acmeair_config_AcmeAirConfiguration-to-com_acmeair_wxs_service_BookingServiceImpl" style="stroke:#181818;stroke-width:1.0;stroke-dasharray:7.0,7.0;"/><polygon fill="#181818" points="982.79,370.77,981.6311,360.9896,980.2358,366.4716,974.7537,365.0763,982.79,370.77" style="stroke:#181818;stroke-width:1.0;"/><text fill="#000000" font-family="sans-serif" font-size="13" lengthAdjust="spacing" textLength="52" x="964" y="337.0669">requires</text></g><!--link com_acmeair_config_AcmeAirConfiguration to com_acmeair_morphia_services_FlightServiceImpl--><g id="link_com_acmeair_config_AcmeAirConfiguration_com_acmeair_morphia_services_FlightServiceImpl"><path d="M858.82,258.59 C799.25,288.38 699.1562,338.416 639.5762,368.216 " fill="none" id="com_acmeair_config_AcmeAirConfiguration-to-com_acmeair_morphia_services_FlightServiceImpl" style="stroke:#181818;stroke-width:1.0;stroke-dasharray:7.0,7.0;"/><polygon fill="#181818" points="634.21,370.9,644.0486,370.4515,638.6818,368.6633,640.47,363.2965,634.21,370.9" style="stroke:#181818;stroke-width:1.0;"/><text fill="#000000" font-family="sans-serif" font-size="13" lengthAdjust="spacing" textLength="52" x="728" y="337.0669">requires</text></g><!--link com_acmeair_web_FlightsREST to com_acmeair_wxs_service_FlightServiceImpl--><g id="link_com_acmeair_web_FlightsREST_com_acmeair_wxs_service_FlightServiceImpl"><path d="M501.34,258.58 C418.4,284.5 292,324 292,324 C266.06,336.79 244.1164,352.3311 225.1564,367.2411 " fill="none" id="com_acmeair_web_FlightsREST-to-com_acmeair_wxs_service_FlightServiceImpl" style="stroke:#181818;stroke-width:1.0;stroke-dasharray:7.0,7.0;"/><polygon fill="#181818" points="220.44,370.95,229.9871,368.5309,224.3703,367.8592,225.0419,362.2424,220.44,370.95" style="stroke:#181818;stroke-width:1.0;"/><text fill="#000000" font-family="sans-serif" font-size="13" lengthAdjust="spacing" textLength="52" x="293" y="337.0669">requires</text></g><!--link com_acmeair_web_BookingsREST to com_acmeair_wxs_service_BookingServiceImpl--><g id="link_com_acmeair_web_BookingsREST_com_acmeair_wxs_service_BookingServiceImpl"><path d="M1207.06,258.66 C1178.07,276.15 1136.76,301.32 1101,324 C1076.69,339.42 1054.5283,353.9708 1033.9283,367.6508 " fill="none" id="com_acmeair_web_BookingsREST-to-com_acmeair_wxs_service_BookingServiceImpl" style="stroke:#181818;stroke-width:1.0;stroke-dasharray:7.0,7.0;"/><polygon fill="#181818" points="1028.93,370.97,1038.6402,369.3233,1033.0952,368.204,1034.2146,362.659,1028.93,370.97" style="stroke:#181818;stroke-width:1.0;"/><text fill="#000000" font-family="sans-serif" font-size="13" lengthAdjust="spacing" textLength="52" x="1102" y="337.0669">requires</text></g><!--link com_acmeair_config_AcmeAirConfiguration to com_acmeair_wxs_service_CustomerServiceImpl--><g id="link_com_acmeair_config_AcmeAirConfiguration_com_acmeair_wxs_service_CustomerServiceImpl"><path d="M959.83,258.54 C996.17,271.51 1044.64,286.75 1089,294 C1359.49,338.23 2056.87,254.51 2322,324 C2337.58,328.08 2338.75,335.84 2354,341 C2394.04,354.56 2432.3025,363.6106 2474.5225,371.1106 " fill="none" id="com_acmeair_config_AcmeAirConfiguration-to-com_acmeair_wxs_service_CustomerServiceImpl" style="stroke:#181818;stroke-width:1.0;stroke-dasharray:7.0,7.0;"/><polygon fill="#181818" points="2480.43,372.16,2472.2683,366.6475,2475.5071,371.2855,2470.8691,374.5242,2480.43,372.16" style="stroke:#181818;stroke-width:1.0;"/><text fill="#000000" font-family="sans-serif" font-size="13" lengthAdjust="spacing" textLength="52" x="2355" y="337.0669">requires</text></g><!--link com_acmeair_loader_FlightLoader to com_acmeair_wxs_service_FlightServiceImpl--><g id="link_com_acmeair_loader_FlightLoader_com_acmeair_wxs_service_FlightServiceImpl"><path d="M220.34,258.55 C210.57,275.68 198.25,300.42 193,324 C189.56,339.44 189.433,351.3215 190.593,365.0015 " fill="none" id="com_acmeair_loader_FlightLoader-to-com_acmeair_wxs_service_FlightServiceImpl" style="stroke:#181818;stroke-width:1.0;stroke-dasharray:7.0,7.0;"/><polygon fill="#181818" points="191.1,370.98,194.3253,361.6742,190.6775,365.9979,186.3539,362.3502,191.1,370.98" style="stroke:#181818;stroke-width:1.0;"/><text fill="#000000" font-family="sans-serif" font-size="13" lengthAdjust="spacing" textLength="52" x="194" y="337.0669">requires</text></g><!--link com_acmeair_web_RESTCookieSessionFilter to com_acmeair_wxs_service_CustomerServiceImpl--><g id="link_com_acmeair_web_RESTCookieSessionFilter_com_acmeair_wxs_service_CustomerServiceImpl"><path d="M1650.74,258.61 C1687.95,271.34 1737.12,286.3 1782,294 C1921.02,317.84 2279.98,286.68 2416,324 C2431.53,328.26 2432.93,335.32 2448,341 C2480.27,353.17 2510.4685,361.7602 2543.8585,369.5902 " fill="none" id="com_acmeair_web_RESTCookieSessionFilter-to-com_acmeair_wxs_service_CustomerServiceImpl" style="stroke:#181818;stroke-width:1.0;stroke-dasharray:7.0,7.0;"/><polygon fill="#181818" points="2549.7,370.96,2541.8509,365.0109,2544.8321,369.8185,2540.0245,372.7996,2549.7,370.96" style="stroke:#181818;stroke-width:1.0;"/><text fill="#000000" font-family="sans-serif" font-size="13" lengthAdjust="spacing" textLength="52" x="2449" y="337.0669">requires</text></g><!--link com_acmeair_loader_CustomerLoader to com_acmeair_morphia_services_CustomerServiceImpl--><g id="link_com_acmeair_loader_CustomerLoader_com_acmeair_morphia_services_CustomerServiceImpl"><path d="M1978.84,258.68 C2008.38,281.47 2057.04,316.93 2103,341 C2124.86,352.45 2144.1884,360.6199 2166.7684,368.9199 " fill="none" id="com_acmeair_loader_CustomerLoader-to-com_acmeair_morphia_services_CustomerServiceImpl" style="stroke:#181818;stroke-width:1.0;stroke-dasharray:7.0,7.0;"/><polygon fill="#181818" points="2172.4,370.99,2165.3327,364.1305,2167.707,369.2649,2162.5726,371.6393,2172.4,370.99" style="stroke:#181818;stroke-width:1.0;"/><text fill="#000000" font-family="sans-serif" font-size="13" lengthAdjust="spacing" textLength="52" x="2104" y="337.0669">requires</text></g><!--link com_acmeair_web_FlightsREST to com_acmeair_morphia_services_FlightServiceImpl--><g id="link_com_acmeair_web_FlightsREST_com_acmeair_morphia_services_FlightServiceImpl"><path d="M574.54,258.59 C577.96,288.33 583.3244,334.9893 586.7544,364.8093 " fill="none" id="com_acmeair_web_FlightsREST-to-com_acmeair_morphia_services_FlightServiceImpl" style="stroke:#181818;stroke-width:1.0;stroke-dasharray:7.0,7.0;"/><polygon fill="#181818" points="587.44,370.77,590.3854,361.3719,586.8686,365.8028,582.4378,362.286,587.44,370.77" style="stroke:#181818;stroke-width:1.0;"/><text fill="#000000" font-family="sans-serif" font-size="13" lengthAdjust="spacing" textLength="52" x="584" y="337.0669">requires</text></g><!--link com_acmeair_web_CustomerREST to com_acmeair_morphia_services_CustomerServiceImpl--><g id="link_com_acmeair_web_CustomerREST_com_acmeair_morphia_services_CustomerServiceImpl"><path d="M2663.71,258.56 C2633.38,270.94 2593.63,285.56 2557,294 C2493.22,308.7 2315.34,283.4 2264,324 C2249.87,335.17 2244.9423,349.2498 2242.5423,364.8498 " fill="none" id="com_acmeair_web_CustomerREST-to-com_acmeair_morphia_services_CustomerServiceImpl" style="stroke:#181818;stroke-width:1.0;stroke-dasharray:7.0,7.0;"/><polygon fill="#181818" points="2241.63,370.78,2246.952,362.4929,2242.3903,365.8381,2239.045,361.2764,2241.63,370.78" style="stroke:#181818;stroke-width:1.0;"/><text fill="#000000" font-family="sans-serif" font-size="13" lengthAdjust="spacing" textLength="52" x="2265" y="337.0669">requires</text></g><!--link com_acmeair_config_AcmeAirConfiguration to com_acmeair_morphia_services_BookingServiceImpl--><g id="link_com_acmeair_config_AcmeAirConfiguration_com_acmeair_morphia_services_BookingServiceImpl"><path d="M974.09,258.52 C1008.75,269.24 1051.04,282.32 1089,294 C1175.19,320.53 1268.6125,349.1447 1334.0825,369.1747 " fill="none" id="com_acmeair_config_AcmeAirConfiguration-to-com_acmeair_morphia_services_BookingServiceImpl" style="stroke:#181818;stroke-width:1.0;stroke-dasharray:7.0,7.0;"/><polygon fill="#181818" points="1339.82,370.93,1332.384,364.472,1335.0388,369.4672,1330.0435,372.122,1339.82,370.93" style="stroke:#181818;stroke-width:1.0;"/><text fill="#000000" font-family="sans-serif" font-size="13" lengthAdjust="spacing" textLength="52" x="1240" y="337.0669">requires</text></g><!--link com_acmeair_web_BookingsREST to com_acmeair_morphia_services_BookingServiceImpl--><g id="link_com_acmeair_web_BookingsREST_com_acmeair_morphia_services_BookingServiceImpl"><path d="M1267.71,258.59 C1299.64,288.33 1351.7398,336.8602 1383.7498,366.6802 " fill="none" id="com_acmeair_web_BookingsREST-to-com_acmeair_morphia_services_BookingServiceImpl" style="stroke:#181818;stroke-width:1.0;stroke-dasharray:7.0,7.0;"/><polygon fill="#181818" points="1388.14,370.77,1384.2813,361.7085,1384.4815,367.3618,1378.8282,367.5621,1388.14,370.77" style="stroke:#181818;stroke-width:1.0;"/><text fill="#000000" font-family="sans-serif" font-size="13" lengthAdjust="spacing" textLength="52" x="1353" y="337.0669">requires</text></g><!--link com_acmeair_config_AcmeAirConfiguration to com_acmeair_wxs_service_FlightServiceImpl--><g id="link_com_acmeair_config_AcmeAirConfiguration_com_acmeair_wxs_service_FlightServiceImpl"><path d="M843.42,258.54 C807.56,270.92 760.73,285.53 718,294 C572.23,322.88 528.18,284.22 385,324 C368.34,328.63 366.01,334.47 350,341 C323.17,351.93 298.7963,360.5159 272.2663,369.1359 " fill="none" id="com_acmeair_config_AcmeAirConfiguration-to-com_acmeair_wxs_service_FlightServiceImpl" style="stroke:#181818;stroke-width:1.0;stroke-dasharray:7.0,7.0;"/><polygon fill="#181818" points="266.56,370.99,276.3556,372.0131,271.3153,369.4449,273.8835,364.4047,266.56,370.99" style="stroke:#181818;stroke-width:1.0;"/><text fill="#000000" font-family="sans-serif" font-size="13" lengthAdjust="spacing" textLength="52" x="386" y="337.0669">requires</text></g><!--link com_acmeair_loader_FlightLoader to com_acmeair_morphia_services_FlightServiceImpl--><g id="link_com_acmeair_loader_FlightLoader_com_acmeair_morphia_services_FlightServiceImpl"><path d="M290.45,258.62 C333.6,275.79 394.43,300.54 447,324 C480.48,338.94 512.3912,354.3212 540.4912,368.2112 " fill="none" id="com_acmeair_loader_FlightLoader-to-com_acmeair_morphia_services_FlightServiceImpl" style="stroke:#181818;stroke-width:1.0;stroke-dasharray:7.0,7.0;"/><polygon fill="#181818" points="545.87,370.87,539.5744,363.296,541.3877,368.6544,536.0294,370.4677,545.87,370.87" style="stroke:#181818;stroke-width:1.0;"/><text fill="#000000" font-family="sans-serif" font-size="13" lengthAdjust="spacing" textLength="52" x="483" y="337.0669">requires</text></g><!--link com_acmeair_web_RESTCookieSessionFilter to com_acmeair_morphia_services_CustomerServiceImpl--><g id="link_com_acmeair_web_RESTCookieSessionFilter_com_acmeair_morphia_services_CustomerServiceImpl"><path d="M1659.59,258.59 C1695.8,269.89 1741.09,283.44 1782,294 C1898.38,324.05 2027.0963,351.2143 2120.1263,369.8043 " fill="none" id="com_acmeair_web_RESTCookieSessionFilter-to-com_acmeair_morphia_services_CustomerServiceImpl" style="stroke:#181818;stroke-width:1.0;stroke-dasharray:7.0,7.0;"/><polygon fill="#181818" points="2126.01,370.98,2117.9683,365.294,2121.1069,370.0002,2116.4007,373.1389,2126.01,370.98" style="stroke:#181818;stroke-width:1.0;"/><text fill="#000000" font-family="sans-serif" font-size="13" lengthAdjust="spacing" textLength="52" x="1970" y="337.0669">requires</text></g><!--link com_acmeair_loader_CustomerLoader to com_acmeair_wxs_service_CustomerServiceImpl--><g id="link_com_acmeair_loader_CustomerLoader_com_acmeair_wxs_service_CustomerServiceImpl"><path d="M2004.79,258.54 C2037.77,271.08 2081.16,285.86 2121,294 C2290.89,328.72 2343.48,275.64 2510,324 C2525.47,328.49 2527.44,334.12 2542,341 C2564.21,351.49 2583.5652,359.812 2605.2652,368.672 " fill="none" id="com_acmeair_loader_CustomerLoader-to-com_acmeair_wxs_service_CustomerServiceImpl" style="stroke:#181818;stroke-width:1.0;stroke-dasharray:7.0,7.0;"/><polygon fill="#181818" points="2610.82,370.94,2603.9998,363.8348,2606.191,369.05,2600.9757,371.2412,2610.82,370.94" style="stroke:#181818;stroke-width:1.0;"/><text fill="#000000" font-family="sans-serif" font-size="13" lengthAdjust="spacing" textLength="52" x="2543" y="337.0669">requires</text></g><!--link com_acmeair_web_LoginREST to com_acmeair_morphia_services_CustomerServiceImpl--><g id="link_com_acmeair_web_LoginREST_com_acmeair_morphia_services_CustomerServiceImpl"><path d="M2364.59,258.58 C2337.92,269.87 2304.47,283.43 2274,294 C2228.55,309.77 2198.92,285.56 2170,324 C2157.07,341.18 2168.7523,354.9736 2189.1023,367.7836 " fill="none" id="com_acmeair_web_LoginREST-to-com_acmeair_morphia_services_CustomerServiceImpl" style="stroke:#181818;stroke-width:1.0;stroke-dasharray:7.0,7.0;"/><polygon fill="#181818" points="2194.18,370.98,2188.6943,362.8003,2189.9486,368.3164,2184.4325,369.5706,2194.18,370.98" style="stroke:#181818;stroke-width:1.0;"/><text fill="#000000" font-family="sans-serif" font-size="13" lengthAdjust="spacing" textLength="52" x="2171" y="337.0669">requires</text></g><!--link com_acmeair_web_CustomerREST to com_acmeair_wxs_service_CustomerServiceImpl--><g id="link_com_acmeair_web_CustomerREST_com_acmeair_wxs_service_CustomerServiceImpl"><path d="M2713.07,258.72 C2711.6,280.3 2707.8,313.71 2698,341 C2694.27,351.39 2691.5891,356.9303 2685.9491,365.8403 " fill="none" id="com_acmeair_web_CustomerREST-to-com_acmeair_wxs_service_CustomerServiceImpl" style="stroke:#181818;stroke-width:1.0;stroke-dasharray:7.0,7.0;"/><polygon fill="#181818" points="2682.74,370.91,2690.9334,365.4449,2685.4142,366.6853,2684.1739,361.1661,2682.74,370.91" style="stroke:#181818;stroke-width:1.0;"/><text fill="#000000" font-family="sans-serif" font-size="13" lengthAdjust="spacing" textLength="52" x="2704" y="337.0669">requires</text></g><!--link com_acmeair_config_AcmeAirConfiguration to com_acmeair_morphia_services_CustomerServiceImpl--><g id="link_com_acmeair_config_AcmeAirConfiguration_com_acmeair_morphia_services_CustomerServiceImpl"><path d="M961.12,258.62 C997.34,271.35 1045.22,286.32 1089,294 C1364.66,342.38 1439.27,298.74 1718,324 C1774.72,329.14 1788.55,333.51 1845,341 C1919.39,350.88 1995.7312,360.9379 2065.8612,370.1579 " fill="none" id="com_acmeair_config_AcmeAirConfiguration-to-com_acmeair_morphia_services_CustomerServiceImpl" style="stroke:#181818;stroke-width:1.0;stroke-dasharray:7.0,7.0;"/><polygon fill="#181818" points="2071.81,370.94,2063.4082,365.801,2066.8527,370.2883,2062.3654,373.7327,2071.81,370.94" style="stroke:#181818;stroke-width:1.0;"/><text fill="#000000" font-family="sans-serif" font-size="13" lengthAdjust="spacing" textLength="52" x="1846" y="337.0669">requires</text></g><!--link com_acmeair_requires_SERVICE_HOST_login to com_acmeair_web_LoginREST--><g id="link_com_acmeair_requires_SERVICE_HOST_login_com_acmeair_web_LoginREST"><path d="M2333.65,116.31 C2344.9,132.65 2379.48,182.9 2399.75,212.35 " fill="none" id="com_acmeair_requires_SERVICE_HOST_login-com_acmeair_web_LoginREST" style="stroke:#181818;stroke-width:1.0;"/></g><!--link com_acmeair_requires_SERVICE_HOST_flights to com_acmeair_web_FlightsREST--><g id="link_com_acmeair_requires_SERVICE_HOST_flights_com_acmeair_web_FlightsREST"><path d="M635.16,116.31 C626.43,132.65 599.58,182.9 583.84,212.35 " fill="none" id="com_acmeair_requires_SERVICE_HOST_flights-com_acmeair_web_FlightsREST" style="stroke:#181818;stroke-width:1.0;"/></g><!--link com_acmeair_requires_SERVICE_HOST_bookings to com_acmeair_web_BookingsREST--><g id="link_com_acmeair_requires_SERVICE_HOST_bookings_com_acmeair_web_BookingsREST"><path d="M1244,116.31 C1244,132.65 1244,182.9 1244,212.35 " fill="none" id="com_acmeair_requires_SERVICE_HOST_bookings-com_acmeair_web_BookingsREST" style="stroke:#181818;stroke-width:1.0;"/></g><!--link com_acmeair_requires_SERVICE_HOST_customer_byid to com_acmeair_web_CustomerREST--><g id="link_com_acmeair_requires_SERVICE_HOST_customer_byid_com_acmeair_web_CustomerREST"><path d="M2245.18,111.63 C2277.92,115.05 2434.31,132.68 2557,169 C2595.66,180.44 2637.72,198.31 2668.58,212.49 " fill="none" id="com_acmeair_requires_SERVICE_HOST_customer_byid-com_acmeair_web_CustomerREST" style="stroke:#181818;stroke-width:1.0;"/></g><!--link com_acmeair_requires_SERVICE_HOST_config to com_acmeair_config_AcmeAirConfiguration--><g id="link_com_acmeair_requires_SERVICE_HOST_config_com_acmeair_config_AcmeAirConfiguration"><path d="M903,116.31 C903,132.65 903,182.9 903,212.35 " fill="none" id="com_acmeair_requires_SERVICE_HOST_config-com_acmeair_config_AcmeAirConfiguration" style="stroke:#181818;stroke-width:1.0;"/></g><!--link interface.SERVICE_HOST_bookings to com_acmeair_requires_SERVICE_HOST_bookings--><g id="link_interface.SERVICE_HOST_bookings_com_acmeair_requires_SERVICE_HOST_bookings"><path d="M1244,23.01 C1244,41.84 1244,88.45 1244,103.92 " fill="none" id="interface.SERVICE_HOST_bookings-com_acmeair_requires_SERVICE_HOST_bookings" style="stroke:#181818;stroke-width:1.0;"/></g><!--link interface.SERVICE_HOST_config to com_acmeair_requires_SERVICE_HOST_config--><g id="link_interface.SERVICE_HOST_config_com_acmeair_requires_SERVICE_HOST_config"><path d="M903,23.01 C903,41.84 903,88.45 903,103.92 " fill="none" id="interface.SERVICE_HOST_config-com_acmeair_requires_SERVICE_HOST_config" style="stroke:#181818;stroke-width:1.0;"/></g><!--link interface.SERVICE_HOST_customer_byid to com_acmeair_requires_SERVICE_HOST_customer_byid--><g id="link_interface.SERVICE_HOST_customer_byid_com_acmeair_requires_SERVICE_HOST_customer_byid"><path d="M2177.71,23.01 C2191.13,41.84 2224.36,88.45 2235.38,103.92 " fill="none" id="interface.SERVICE_HOST_customer_byid-com_acmeair_requires_SERVICE_HOST_customer_byid" style="stroke:#181818;stroke-width:1.0;"/></g><!--link interface.SERVICE_HOST_flights to com_acmeair_requires_SERVICE_HOST_flights--><g id="link_interface.SERVICE_HOST_flights_com_acmeair_requires_SERVICE_HOST_flights"><path d="M638,23.01 C638,41.84 638,88.45 638,103.92 " fill="none" id="interface.SERVICE_HOST_flights-com_acmeair_requires_SERVICE_HOST_flights" style="stroke:#181818;stroke-width:1.0;"/></g><!--link interface.SERVICE_HOST_login to com_acmeair_requires_SERVICE_HOST_login--><g id="link_interface.SERVICE_HOST_login_com_acmeair_requires_SERVICE_HOST_login"><path d="M2390.37,23.01 C2377.16,41.84 2344.43,88.45 2333.57,103.92 " fill="none" id="interface.SERVICE_HOST_login-com_acmeair_requires_SERVICE_HOST_login" style="stroke:#181818;stroke-width:1.0;"/></g><!--link com_acmeair_config_LoaderREST to com_acmeair_loader_Loader--><g id="link_com_acmeair_config_LoaderREST_com_acmeair_loader_Loader"><path d="M3198,258.59 C3198,288.33 3198,334.95 3198,364.77 " fill="none" id="com_acmeair_config_LoaderREST-to-com_acmeair_loader_Loader" style="stroke:#181818;stroke-width:1.0;stroke-dasharray:7.0,7.0;"/><polygon fill="#181818" points="3198,370.77,3202,361.77,3198,365.77,3194,361.77,3198,370.77" style="stroke:#181818;stroke-width:1.0;"/><text fill="#000000" font-family="sans-serif" font-size="13" lengthAdjust="spacing" textLength="52" x="3199" y="337.0669">requires</text></g><!--link com_acmeair_2_requires_SERVICE_HOST_loader to com_acmeair_config_LoaderREST--><g id="link_com_acmeair_2_requires_SERVICE_HOST_loader_com_acmeair_config_LoaderREST"><path d="M3027.3,115.4 C3049.22,130.69 3123.19,182.3 3166.22,212.33 " fill="none" id="com_acmeair_2_requires_SERVICE_HOST_loader-com_acmeair_config_LoaderREST" style="stroke:#181818;stroke-width:1.0;"/></g><!--link interface.SERVICE_HOST_loader to com_acmeair_2_requires_SERVICE_HOST_loader--><g id="link_interface.SERVICE_HOST_loader_com_acmeair_2_requires_SERVICE_HOST_loader"><path d="M3021,23.01 C3021,41.84 3021,88.45 3021,103.92 " fill="none" id="interface.SERVICE_HOST_loader-com_acmeair_2_requires_SERVICE_HOST_loader" style="stroke:#181818;stroke-width:1.0;"/></g><!--SRC=[nLVVQzim47xtNo7ydXJok8T2Pr9Mo2ZKPHjimoYkuehAaYVPNSle_px_a3qxbSvI71XvYNodk-zqzqbtwedo0akSemDzYQXC6TdXFM6tpqGoN1IKPwYK5GdKe9YAl12Sy38kNnb1LSusmV0DXVNV1ASvmLJ-uFz-8VeJV1_9ajylAb54FjEK9DUCPezbtArkyeBzdEhcGXQF5FVwAlaeH8qdi-yOMvzLVcVU6qzKgLBaHBe1cjTc0ZyGEIZksgN1ObLIffAlt-AOA4K5_umvpjvhalrWwcuRtnl4NSJA8js9Z7A3JCFiDXj1fe8VQ9PSrSihAgDsLKbSrbWDVdIcR32Qpr6ZGdIurvILZSj2o99o5DO_hD1ucoI_AYhh3CNRkoytqJRvT1lV9uSkMkzzNJJUs_OwBE-Dh3btVvGwrSd-bJv0oLolBxrg57r0lKVtv9YSsChMwW0g8oWA0_NFuiFXnW0FQqmt2B-dsGb__iUvd5n1fflaZ0VZKvnBy1zTsBDbuyqog72M5kNaYJWlz4NSyYdMMHOiidug5JmIuKA4fObsPSEodBjHOj6ROt_AbZCDPCF9g1SHOSvJwDXHXAiLrEA5pWsKoT2aampTcoEJhMa_67gsFYQBqpOuT6tvZas1RUrRG7bDfmDE2GgriLLZx6A8jMda1gMrkLcSaQzMFeThXQJZ0m3ffXUKEe7HhknGT6ukskH1Y2ODhekI6xv9yLXXzhKF0Epd2rZi1AhtPeNJCHe0qmqHaD09IEV7CkcZ3JZhQxfqJu1zZkmdIFl0ix62QtREEJs-OATkhJSfxDHoDOnZVGEIrve0izT61agFyZU3D_WB]--></g></svg>