<?xml version="1.0" encoding="us-ascii" standalone="no"?><svg xmlns="http://www.w3.org/2000/svg" xmlns:xlink="http://www.w3.org/1999/xlink" contentStyleType="text/css" height="562px" preserveAspectRatio="none" style="width:3705px;height:562px;background:#FFFFFF;" version="1.1" viewBox="0 0 3705 562" width="3705px" zoomAndPan="magnify"><defs/><g><!--cluster AcmeAirConfiguration\n\n\n\n\n\n--><g id="cluster_AcmeAirConfiguration\n\n\n\n\n\n"><rect fill="none" height="446" rx="2.5" ry="2.5" style="stroke:#181818;stroke-width:1.0;" width="2910" x="332.5" y="110"/><rect fill="none" height="10" style="stroke:#181818;stroke-width:1.0;" width="15" x="3222.5" y="115"/><rect fill="none" height="2" style="stroke:#181818;stroke-width:1.0;" width="4" x="3220.5" y="117"/><rect fill="none" height="2" style="stroke:#181818;stroke-width:1.0;" width="4" x="3220.5" y="121"/><text fill="#000000" font-family="sans-serif" font-size="14" font-weight="bold" lengthAdjust="spacing" textLength="173" x="1701" y="135.9951">AcmeAirConfiguration</text><text fill="#000000" font-family="sans-serif" font-size="14" font-weight="bold" lengthAdjust="spacing" textLength="5" x="1785" y="152.292">&#160;</text><text fill="#000000" font-family="sans-serif" font-size="14" font-weight="bold" lengthAdjust="spacing" textLength="5" x="1785" y="168.5889">&#160;</text><text fill="#000000" font-family="sans-serif" font-size="14" font-weight="bold" lengthAdjust="spacing" textLength="5" x="1785" y="184.8857">&#160;</text><text fill="#000000" font-family="sans-serif" font-size="14" font-weight="bold" lengthAdjust="spacing" textLength="5" x="1785" y="201.1826">&#160;</text><text fill="#000000" font-family="sans-serif" font-size="14" font-weight="bold" lengthAdjust="spacing" textLength="5" x="1785" y="217.4795">&#160;</text><text fill="#000000" font-family="sans-serif" font-size="14" font-weight="bold" lengthAdjust="spacing" textLength="5" x="1785" y="233.7764">&#160;</text></g><!--cluster LoaderREST\n\n\n\n\n\n--><g id="cluster_LoaderREST\n\n\n\n\n\n"><rect fill="none" height="323" rx="2.5" ry="2.5" style="stroke:#181818;stroke-width:1.0;" width="338" x="3361.5" y="110"/><rect fill="none" height="10" style="stroke:#181818;stroke-width:1.0;" width="15" x="3679.5" y="115"/><rect fill="none" height="2" style="stroke:#181818;stroke-width:1.0;" width="4" x="3677.5" y="117"/><rect fill="none" height="2" style="stroke:#181818;stroke-width:1.0;" width="4" x="3677.5" y="121"/><text fill="#000000" font-family="sans-serif" font-size="14" font-weight="bold" lengthAdjust="spacing" textLength="94" x="3483.5" y="135.9951">LoaderREST</text><text fill="#000000" font-family="sans-serif" font-size="14" font-weight="bold" lengthAdjust="spacing" textLength="5" x="3528" y="152.292">&#160;</text><text fill="#000000" font-family="sans-serif" font-size="14" font-weight="bold" lengthAdjust="spacing" textLength="5" x="3528" y="168.5889">&#160;</text><text fill="#000000" font-family="sans-serif" font-size="14" font-weight="bold" lengthAdjust="spacing" textLength="5" x="3528" y="184.8857">&#160;</text><text fill="#000000" font-family="sans-serif" font-size="14" font-weight="bold" lengthAdjust="spacing" textLength="5" x="3528" y="201.1826">&#160;</text><text fill="#000000" font-family="sans-serif" font-size="14" font-weight="bold" lengthAdjust="spacing" textLength="5" x="3528" y="217.4795">&#160;</text><text fill="#000000" font-family="sans-serif" font-size="14" font-weight="bold" lengthAdjust="spacing" textLength="5" x="3528" y="233.7764">&#160;</text></g><!--entity com_acmeair_web_BookingsREST--><g id="elem_com_acmeair_web_BookingsREST"><rect fill="#F1F1F1" height="46.2969" rx="2.5" ry="2.5" style="stroke:#181818;stroke-width:0.5;" width="276" x="821.5" y="212.5"/><rect fill="#F1F1F1" height="10" style="stroke:#181818;stroke-width:0.5;" width="15" x="1077.5" y="217.5"/><rect fill="#F1F1F1" height="2" style="stroke:#181818;stroke-width:0.5;" width="4" x="1075.5" y="219.5"/><rect fill="#F1F1F1" height="2" style="stroke:#181818;stroke-width:0.5;" width="4" x="1075.5" y="223.5"/><text fill="#000000" font-family="sans-serif" font-size="14" lengthAdjust="spacing" textLength="236" x="836.5" y="245.4951">com_acmeair_web_BookingsREST</text></g><!--entity com_acmeair_config_AcmeAirConfiguration--><g id="elem_com_acmeair_config_AcmeAirConfiguration"><rect fill="#F1F1F1" height="46.2969" rx="2.5" ry="2.5" style="stroke:#181818;stroke-width:0.5;" width="335" x="1133" y="212.5"/><rect fill="#F1F1F1" height="10" style="stroke:#181818;stroke-width:0.5;" width="15" x="1448" y="217.5"/><rect fill="#F1F1F1" height="2" style="stroke:#181818;stroke-width:0.5;" width="4" x="1446" y="219.5"/><rect fill="#F1F1F1" height="2" style="stroke:#181818;stroke-width:0.5;" width="4" x="1446" y="223.5"/><text fill="#000000" font-family="sans-serif" font-size="14" lengthAdjust="spacing" textLength="295" x="1148" y="245.4951">com_acmeair_config_AcmeAirConfiguration</text></g><!--entity com_acmeair_service_BookingService--><g id="elem_com_acmeair_service_BookingService"><rect fill="#F1F1F1" height="46.2969" rx="2.5" ry="2.5" style="stroke:#181818;stroke-width:0.5;" width="301" x="2019" y="371"/><rect fill="#F1F1F1" height="10" style="stroke:#181818;stroke-width:0.5;" width="15" x="2300" y="376"/><rect fill="#F1F1F1" height="2" style="stroke:#181818;stroke-width:0.5;" width="4" x="2298" y="378"/><rect fill="#F1F1F1" height="2" style="stroke:#181818;stroke-width:0.5;" width="4" x="2298" y="382"/><text fill="#000000" font-family="sans-serif" font-size="14" lengthAdjust="spacing" textLength="261" x="2034" y="403.9951">com_acmeair_service_BookingService</text></g><!--entity com_acmeair_wxs_service_BookingServiceImpl--><g id="elem_com_acmeair_wxs_service_BookingServiceImpl"><rect fill="#F1F1F1" height="46.2969" rx="2.5" ry="2.5" style="stroke:#181818;stroke-width:0.5;" width="362" x="1186.5" y="371"/><rect fill="#F1F1F1" height="10" style="stroke:#181818;stroke-width:0.5;" width="15" x="1528.5" y="376"/><rect fill="#F1F1F1" height="2" style="stroke:#181818;stroke-width:0.5;" width="4" x="1526.5" y="378"/><rect fill="#F1F1F1" height="2" style="stroke:#181818;stroke-width:0.5;" width="4" x="1526.5" y="382"/><text fill="#000000" font-family="sans-serif" font-size="14" lengthAdjust="spacing" textLength="322" x="1201.5" y="403.9951">com_acmeair_wxs_service_BookingServiceImpl</text></g><!--entity com_acmeair_service_FlightService--><g id="elem_com_acmeair_service_FlightService"><rect fill="#F1F1F1" height="46.2969" rx="2.5" ry="2.5" style="stroke:#181818;stroke-width:0.5;" width="281" x="2703" y="371"/><rect fill="#F1F1F1" height="10" style="stroke:#181818;stroke-width:0.5;" width="15" x="2964" y="376"/><rect fill="#F1F1F1" height="2" style="stroke:#181818;stroke-width:0.5;" width="4" x="2962" y="378"/><rect fill="#F1F1F1" height="2" style="stroke:#181818;stroke-width:0.5;" width="4" x="2962" y="382"/><text fill="#000000" font-family="sans-serif" font-size="14" lengthAdjust="spacing" textLength="241" x="2718" y="403.9951">com_acmeair_service_FlightService</text></g><!--entity com_acmeair_service_TransactionService--><g id="elem_com_acmeair_service_TransactionService"><rect fill="#F1F1F1" height="46.2969" rx="2.5" ry="2.5" style="stroke:#181818;stroke-width:0.5;" width="325" x="826" y="371"/><rect fill="#F1F1F1" height="10" style="stroke:#181818;stroke-width:0.5;" width="15" x="1131" y="376"/><rect fill="#F1F1F1" height="2" style="stroke:#181818;stroke-width:0.5;" width="4" x="1129" y="378"/><rect fill="#F1F1F1" height="2" style="stroke:#181818;stroke-width:0.5;" width="4" x="1129" y="382"/><text fill="#000000" font-family="sans-serif" font-size="14" lengthAdjust="spacing" textLength="285" x="841" y="403.9951">com_acmeair_service_TransactionService</text></g><!--entity com_acmeair_service_CustomerService--><g id="elem_com_acmeair_service_CustomerService"><rect fill="#F1F1F1" height="46.2969" rx="2.5" ry="2.5" style="stroke:#181818;stroke-width:0.5;" width="312" x="2355.5" y="371"/><rect fill="#F1F1F1" height="10" style="stroke:#181818;stroke-width:0.5;" width="15" x="2647.5" y="376"/><rect fill="#F1F1F1" height="2" style="stroke:#181818;stroke-width:0.5;" width="4" x="2645.5" y="378"/><rect fill="#F1F1F1" height="2" style="stroke:#181818;stroke-width:0.5;" width="4" x="2645.5" y="382"/><text fill="#000000" font-family="sans-serif" font-size="14" lengthAdjust="spacing" textLength="272" x="2370.5" y="403.9951">com_acmeair_service_CustomerService</text></g><!--entity com_acmeair_morphia_services_BookingServiceImpl--><g id="elem_com_acmeair_morphia_services_BookingServiceImpl"><rect fill="#F1F1F1" height="46.2969" rx="2.5" ry="2.5" style="stroke:#181818;stroke-width:0.5;" width="400" x="1583.5" y="371"/><rect fill="#F1F1F1" height="10" style="stroke:#181818;stroke-width:0.5;" width="15" x="1963.5" y="376"/><rect fill="#F1F1F1" height="2" style="stroke:#181818;stroke-width:0.5;" width="4" x="1961.5" y="378"/><rect fill="#F1F1F1" height="2" style="stroke:#181818;stroke-width:0.5;" width="4" x="1961.5" y="382"/><text fill="#000000" font-family="sans-serif" font-size="14" lengthAdjust="spacing" textLength="360" x="1598.5" y="403.9951">com_acmeair_morphia_services_BookingServiceImpl</text></g><!--entity com_acmeair_web_RESTCookieSessionFilter--><g id="elem_com_acmeair_web_RESTCookieSessionFilter"><rect fill="#F1F1F1" height="46.2969" rx="2.5" ry="2.5" style="stroke:#181818;stroke-width:0.5;" width="347" x="439" y="212.5"/><rect fill="#F1F1F1" height="10" style="stroke:#181818;stroke-width:0.5;" width="15" x="766" y="217.5"/><rect fill="#F1F1F1" height="2" style="stroke:#181818;stroke-width:0.5;" width="4" x="764" y="219.5"/><rect fill="#F1F1F1" height="2" style="stroke:#181818;stroke-width:0.5;" width="4" x="764" y="223.5"/><text fill="#000000" font-family="sans-serif" font-size="14" lengthAdjust="spacing" textLength="307" x="454" y="245.4951">com_acmeair_web_RESTCookieSessionFilter</text></g><!--entity com_acmeair_service_KeyGenerator--><g id="elem_com_acmeair_service_KeyGenerator"><rect fill="#F1F1F1" height="46.2969" rx="2.5" ry="2.5" style="stroke:#181818;stroke-width:0.5;" width="289" x="2367" y="494"/><rect fill="#F1F1F1" height="10" style="stroke:#181818;stroke-width:0.5;" width="15" x="2636" y="499"/><rect fill="#F1F1F1" height="2" style="stroke:#181818;stroke-width:0.5;" width="4" x="2634" y="501"/><rect fill="#F1F1F1" height="2" style="stroke:#181818;stroke-width:0.5;" width="4" x="2634" y="505"/><text fill="#000000" font-family="sans-serif" font-size="14" lengthAdjust="spacing" textLength="249" x="2382" y="526.9951">com_acmeair_service_KeyGenerator</text></g><!--entity com_acmeair_loader_CustomerLoader--><g id="elem_com_acmeair_loader_CustomerLoader"><rect fill="#F1F1F1" height="46.2969" rx="2.5" ry="2.5" style="stroke:#181818;stroke-width:0.5;" width="303" x="1817" y="212.5"/><rect fill="#F1F1F1" height="10" style="stroke:#181818;stroke-width:0.5;" width="15" x="2100" y="217.5"/><rect fill="#F1F1F1" height="2" style="stroke:#181818;stroke-width:0.5;" width="4" x="2098" y="219.5"/><rect fill="#F1F1F1" height="2" style="stroke:#181818;stroke-width:0.5;" width="4" x="2098" y="223.5"/><text fill="#000000" font-family="sans-serif" font-size="14" lengthAdjust="spacing" textLength="263" x="1832" y="245.4951">com_acmeair_loader_CustomerLoader</text></g><!--entity com_acmeair_web_CustomerREST--><g id="elem_com_acmeair_web_CustomerREST"><rect fill="#F1F1F1" height="46.2969" rx="2.5" ry="2.5" style="stroke:#181818;stroke-width:0.5;" width="279" x="1503" y="212.5"/><rect fill="#F1F1F1" height="10" style="stroke:#181818;stroke-width:0.5;" width="15" x="1762" y="217.5"/><rect fill="#F1F1F1" height="2" style="stroke:#181818;stroke-width:0.5;" width="4" x="1760" y="219.5"/><rect fill="#F1F1F1" height="2" style="stroke:#181818;stroke-width:0.5;" width="4" x="1760" y="223.5"/><text fill="#000000" font-family="sans-serif" font-size="14" lengthAdjust="spacing" textLength="239" x="1518" y="245.4951">com_acmeair_web_CustomerREST</text></g><!--entity com_acmeair_wxs_utils_WXSSessionManager--><g id="elem_com_acmeair_wxs_utils_WXSSessionManager"><rect fill="#F1F1F1" height="46.2969" rx="2.5" ry="2.5" style="stroke:#181818;stroke-width:0.5;" width="352" x="439.5" y="371"/><rect fill="#F1F1F1" height="10" style="stroke:#181818;stroke-width:0.5;" width="15" x="771.5" y="376"/><rect fill="#F1F1F1" height="2" style="stroke:#181818;stroke-width:0.5;" width="4" x="769.5" y="378"/><rect fill="#F1F1F1" height="2" style="stroke:#181818;stroke-width:0.5;" width="4" x="769.5" y="382"/><text fill="#000000" font-family="sans-serif" font-size="14" lengthAdjust="spacing" textLength="312" x="454.5" y="403.9951">com_acmeair_wxs_utils_WXSSessionManager</text></g><!--entity com_acmeair_loader_FlightLoader--><g id="elem_com_acmeair_loader_FlightLoader"><rect fill="#F1F1F1" height="46.2969" rx="2.5" ry="2.5" style="stroke:#181818;stroke-width:0.5;" width="272" x="2954.5" y="212.5"/><rect fill="#F1F1F1" height="10" style="stroke:#181818;stroke-width:0.5;" width="15" x="3206.5" y="217.5"/><rect fill="#F1F1F1" height="2" style="stroke:#181818;stroke-width:0.5;" width="4" x="3204.5" y="219.5"/><rect fill="#F1F1F1" height="2" style="stroke:#181818;stroke-width:0.5;" width="4" x="3204.5" y="223.5"/><text fill="#000000" font-family="sans-serif" font-size="14" lengthAdjust="spacing" textLength="232" x="2969.5" y="245.4951">com_acmeair_loader_FlightLoader</text></g><!--entity com_acmeair_web_FlightsREST--><g id="elem_com_acmeair_web_FlightsREST"><rect fill="#F1F1F1" height="46.2969" rx="2.5" ry="2.5" style="stroke:#181818;stroke-width:0.5;" width="256" x="2155.5" y="212.5"/><rect fill="#F1F1F1" height="10" style="stroke:#181818;stroke-width:0.5;" width="15" x="2391.5" y="217.5"/><rect fill="#F1F1F1" height="2" style="stroke:#181818;stroke-width:0.5;" width="4" x="2389.5" y="219.5"/><rect fill="#F1F1F1" height="2" style="stroke:#181818;stroke-width:0.5;" width="4" x="2389.5" y="223.5"/><text fill="#000000" font-family="sans-serif" font-size="14" lengthAdjust="spacing" textLength="216" x="2170.5" y="245.4951">com_acmeair_web_FlightsREST</text></g><!--entity com_acmeair_web_LoginREST--><g id="elem_com_acmeair_web_LoginREST"><rect fill="#F1F1F1" height="46.2969" rx="2.5" ry="2.5" style="stroke:#181818;stroke-width:0.5;" width="248" x="2671.5" y="212.5"/><rect fill="#F1F1F1" height="10" style="stroke:#181818;stroke-width:0.5;" width="15" x="2899.5" y="217.5"/><rect fill="#F1F1F1" height="2" style="stroke:#181818;stroke-width:0.5;" width="4" x="2897.5" y="219.5"/><rect fill="#F1F1F1" height="2" style="stroke:#181818;stroke-width:0.5;" width="4" x="2897.5" y="223.5"/><text fill="#000000" font-family="sans-serif" font-size="14" lengthAdjust="spacing" textLength="208" x="2686.5" y="245.4951">com_acmeair_web_LoginREST</text></g><text fill="#000000" font-family="sans-serif" font-size="14" lengthAdjust="spacing" textLength="4" x="1298.5" y="88.6982">&#160;</text><rect fill="#F1F1F1" height="12" style="stroke:#181818;stroke-width:1.5;" width="12" x="1294.5" y="104"/><text fill="#000000" font-family="sans-serif" font-size="14" lengthAdjust="spacing" textLength="4" x="1422.5" y="88.6982">&#160;</text><rect fill="#F1F1F1" height="12" style="stroke:#181818;stroke-width:1.5;" width="12" x="1418.5" y="104"/><text fill="#000000" font-family="sans-serif" font-size="14" lengthAdjust="spacing" textLength="4" x="635.5" y="88.6982">&#160;</text><rect fill="#F1F1F1" height="12" style="stroke:#181818;stroke-width:1.5;" width="12" x="631.5" y="104"/><text fill="#000000" font-family="sans-serif" font-size="14" lengthAdjust="spacing" textLength="4" x="348.5" y="88.6982">&#160;</text><rect fill="#F1F1F1" height="12" style="stroke:#181818;stroke-width:1.5;" width="12" x="344.5" y="104"/><text fill="#000000" font-family="sans-serif" font-size="14" lengthAdjust="spacing" textLength="4" x="430.5" y="88.6982">&#160;</text><rect fill="#F1F1F1" height="12" style="stroke:#181818;stroke-width:1.5;" width="12" x="426.5" y="104"/><text fill="#000000" font-family="sans-serif" font-size="14" lengthAdjust="spacing" textLength="4" x="957.5" y="88.6982">&#160;</text><rect fill="#F1F1F1" height="12" style="stroke:#181818;stroke-width:1.5;" width="12" x="953.5" y="104"/><text fill="#000000" font-family="sans-serif" font-size="14" lengthAdjust="spacing" textLength="4" x="2281.5" y="88.6982">&#160;</text><rect fill="#F1F1F1" height="12" style="stroke:#181818;stroke-width:1.5;" width="12" x="2277.5" y="104"/><text fill="#000000" font-family="sans-serif" font-size="14" lengthAdjust="spacing" textLength="4" x="2539.5" y="88.6982">&#160;</text><rect fill="#F1F1F1" height="12" style="stroke:#181818;stroke-width:1.5;" width="12" x="2535.5" y="104"/><!--entity com_acmeair_config_LoaderREST--><g id="elem_com_acmeair_config_LoaderREST"><rect fill="#F1F1F1" height="46.2969" rx="2.5" ry="2.5" style="stroke:#181818;stroke-width:0.5;" width="271" x="3412" y="212.5"/><rect fill="#F1F1F1" height="10" style="stroke:#181818;stroke-width:0.5;" width="15" x="3663" y="217.5"/><rect fill="#F1F1F1" height="2" style="stroke:#181818;stroke-width:0.5;" width="4" x="3661" y="219.5"/><rect fill="#F1F1F1" height="2" style="stroke:#181818;stroke-width:0.5;" width="4" x="3661" y="223.5"/><text fill="#000000" font-family="sans-serif" font-size="14" lengthAdjust="spacing" textLength="231" x="3427" y="245.4951">com_acmeair_config_LoaderREST</text></g><!--entity com_acmeair_loader_Loader--><g id="elem_com_acmeair_loader_Loader"><rect fill="#F1F1F1" height="46.2969" rx="2.5" ry="2.5" style="stroke:#181818;stroke-width:0.5;" width="235" x="3430" y="371"/><rect fill="#F1F1F1" height="10" style="stroke:#181818;stroke-width:0.5;" width="15" x="3645" y="376"/><rect fill="#F1F1F1" height="2" style="stroke:#181818;stroke-width:0.5;" width="4" x="3643" y="378"/><rect fill="#F1F1F1" height="2" style="stroke:#181818;stroke-width:0.5;" width="4" x="3643" y="382"/><text fill="#000000" font-family="sans-serif" font-size="14" lengthAdjust="spacing" textLength="195" x="3445" y="403.9951">com_acmeair_loader_Loader</text></g><text fill="#000000" font-family="sans-serif" font-size="14" lengthAdjust="spacing" textLength="4" x="3377.5" y="88.6982">&#160;</text><rect fill="#F1F1F1" height="12" style="stroke:#181818;stroke-width:1.5;" width="12" x="3373.5" y="104"/><!--entity interface.Filter--><g id="elem_interface.Filter"><ellipse cx="645.5" cy="14" fill="#F1F1F1" rx="8" ry="8" style="stroke:#181818;stroke-width:0.5;"/><text fill="#000000" font-family="sans-serif" font-size="14" lengthAdjust="spacing" textLength="33" x="629" y="43.9951">Filter</text></g><!--entity interface.SERVICE_HOST_bookings--><g id="elem_interface.SERVICE_HOST_bookings"><ellipse cx="959.5" cy="14" fill="#F1F1F1" rx="8" ry="8" style="stroke:#181818;stroke-width:0.5;"/><text fill="#000000" font-family="sans-serif" font-size="14" lengthAdjust="spacing" textLength="172" x="873.5" y="43.9951">SERVICE-HOST/bookings</text></g><!--entity interface.SERVICE_HOST_config--><g id="elem_interface.SERVICE_HOST_config"><ellipse cx="1236.5" cy="14" fill="#F1F1F1" rx="8" ry="8" style="stroke:#181818;stroke-width:0.5;"/><text fill="#000000" font-family="sans-serif" font-size="14" lengthAdjust="spacing" textLength="150" x="1161.5" y="43.9951">SERVICE-HOST/config</text></g><!--entity interface.SERVICE_HOST_customer_byid--><g id="elem_interface.SERVICE_HOST_customer_byid"><ellipse cx="1465.5" cy="14" fill="#F1F1F1" rx="8" ry="8" style="stroke:#181818;stroke-width:0.5;"/><text fill="#000000" font-family="sans-serif" font-size="14" lengthAdjust="spacing" textLength="207" x="1362" y="43.9951">SERVICE-HOST/customer/byid</text></g><!--entity interface.SERVICE_HOST_flights--><g id="elem_interface.SERVICE_HOST_flights"><ellipse cx="2283.5" cy="14" fill="#F1F1F1" rx="8" ry="8" style="stroke:#181818;stroke-width:0.5;"/><text fill="#000000" font-family="sans-serif" font-size="14" lengthAdjust="spacing" textLength="149" x="2209" y="43.9951">SERVICE-HOST/flights</text></g><!--entity interface.SERVICE_HOST_login--><g id="elem_interface.SERVICE_HOST_login"><ellipse cx="2541.5" cy="14" fill="#F1F1F1" rx="8" ry="8" style="stroke:#181818;stroke-width:0.5;"/><text fill="#000000" font-family="sans-serif" font-size="14" lengthAdjust="spacing" textLength="141" x="2471" y="43.9951">SERVICE-HOST/login</text></g><!--entity interface.com_acmeair_morphia_MorphiaConstants--><g id="elem_interface.com_acmeair_morphia_MorphiaConstants"><ellipse cx="432.5" cy="14" fill="#F1F1F1" rx="8" ry="8" style="stroke:#181818;stroke-width:0.5;"/><text fill="#000000" font-family="sans-serif" font-size="14" lengthAdjust="spacing" textLength="287" x="289" y="43.9951">com_acmeair_morphia_MorphiaConstants</text></g><!--entity interface.com_acmeair_wxs_WXSConstants--><g id="elem_interface.com_acmeair_wxs_WXSConstants"><ellipse cx="122.5" cy="14" fill="#F1F1F1" rx="8" ry="8" style="stroke:#181818;stroke-width:0.5;"/><text fill="#000000" font-family="sans-serif" font-size="14" lengthAdjust="spacing" textLength="233" x="6" y="43.9951">com_acmeair_wxs_WXSConstants</text></g><!--entity interface.SERVICE_HOST_loader--><g id="elem_interface.SERVICE_HOST_loader"><ellipse cx="3379.5" cy="14" fill="#F1F1F1" rx="8" ry="8" style="stroke:#181818;stroke-width:0.5;"/><text fill="#000000" font-family="sans-serif" font-size="14" lengthAdjust="spacing" textLength="151" x="3304" y="43.9951">SERVICE-HOST/loader</text></g><!--link com_acmeair_web_BookingsREST to com_acmeair_wxs_service_BookingServiceImpl--><g id="link_com_acmeair_web_BookingsREST_com_acmeair_wxs_service_BookingServiceImpl"><path d="M955.45,258.64 C952.49,282.42 952.12,319.66 973.5,341 C977.58,345.07 1078.7945,358.3302 1180.3145,370.7702 " fill="none" id="com_acmeair_web_BookingsREST-to-com_acmeair_wxs_service_BookingServiceImpl" style="stroke:#181818;stroke-width:1.0;stroke-dasharray:7.0,7.0;"/><polygon fill="#181818" points="1186.27,371.5,1177.8233,366.435,1181.3071,370.8919,1176.8503,374.3757,1186.27,371.5" style="stroke:#181818;stroke-width:1.0;"/><text fill="#000000" font-family="sans-serif" font-size="13" lengthAdjust="spacing" textLength="52" x="974.5" y="337.0669">requires</text></g><!--link com_acmeair_config_AcmeAirConfiguration to com_acmeair_wxs_service_BookingServiceImpl--><g id="link_com_acmeair_config_AcmeAirConfiguration_com_acmeair_wxs_service_BookingServiceImpl"><path d="M1309.96,258.59 C1322.69,288.33 1342.8596,335.4338 1355.6196,365.2538 " fill="none" id="com_acmeair_config_AcmeAirConfiguration-to-com_acmeair_wxs_service_BookingServiceImpl" style="stroke:#181818;stroke-width:1.0;stroke-dasharray:7.0,7.0;"/><polygon fill="#181818" points="1357.98,370.77,1358.1169,360.9221,1356.013,366.1732,1350.7619,364.0693,1357.98,370.77" style="stroke:#181818;stroke-width:1.0;"/><text fill="#000000" font-family="sans-serif" font-size="13" lengthAdjust="spacing" textLength="52" x="1344.5" y="337.0669">requires</text></g><!--link com_acmeair_service_CustomerService to com_acmeair_service_KeyGenerator--><g id="link_com_acmeair_service_CustomerService_com_acmeair_service_KeyGenerator"><path d="M2511.5,417.19 C2511.5,439.03 2511.5,466.16 2511.5,487.95 " fill="none" id="com_acmeair_service_CustomerService-to-com_acmeair_service_KeyGenerator" style="stroke:#181818;stroke-width:1.0;stroke-dasharray:7.0,7.0;"/><polygon fill="#181818" points="2511.5,493.95,2515.5,484.95,2511.5,488.95,2507.5,484.95,2511.5,493.95" style="stroke:#181818;stroke-width:1.0;"/><text fill="#000000" font-family="sans-serif" font-size="13" lengthAdjust="spacing" textLength="52" x="2512.5" y="460.0669">requires</text></g><!--link com_acmeair_config_AcmeAirConfiguration to com_acmeair_service_CustomerService--><g id="link_com_acmeair_config_AcmeAirConfiguration_com_acmeair_service_CustomerService"><path d="M1361.42,258.51 C1397.15,270.63 1443.4,285.01 1485.5,294 C1594.94,317.37 1626.45,298.85 1735.5,324 C1757.96,329.18 1761.88,336.55 1784.5,341 C2026.02,388.47 2092.36,348.88 2337.5,371 C2343.26,371.52 2343.1606,371.475 2349.0806,372.075 " fill="none" id="com_acmeair_config_AcmeAirConfiguration-to-com_acmeair_service_CustomerService" style="stroke:#181818;stroke-width:1.0;stroke-dasharray:7.0,7.0;"/><polygon fill="#181818" points="2355.05,372.68,2346.4992,367.7929,2350.0755,372.1758,2345.6925,375.7521,2355.05,372.68" style="stroke:#181818;stroke-width:1.0;"/><text fill="#000000" font-family="sans-serif" font-size="13" lengthAdjust="spacing" textLength="52" x="1785.5" y="337.0669">requires</text></g><!--link com_acmeair_web_CustomerREST to com_acmeair_service_CustomerService--><g id="link_com_acmeair_web_CustomerREST_com_acmeair_service_CustomerService"><path d="M1693.96,258.5 C1724.2,270.63 1763.45,285 1799.5,294 C1852.17,307.15 2156.2193,347.3924 2349.4093,372.3124 " fill="none" id="com_acmeair_web_CustomerREST-to-com_acmeair_service_CustomerService" style="stroke:#181818;stroke-width:1.0;stroke-dasharray:7.0,7.0;"/><polygon fill="#181818" points="2355.36,373.08,2346.9457,367.9615,2350.4011,372.4403,2345.9222,375.8957,2355.36,373.08" style="stroke:#181818;stroke-width:1.0;"/><text fill="#000000" font-family="sans-serif" font-size="13" lengthAdjust="spacing" textLength="52" x="2104.5" y="337.0669">requires</text></g><!--link com_acmeair_web_FlightsREST to com_acmeair_service_FlightService--><g id="link_com_acmeair_web_FlightsREST_com_acmeair_service_FlightService"><path d="M2330.85,258.54 C2383.11,282.06 2470.2,318.91 2548.5,341 C2577.78,349.26 2635.991,359.8474 2697.011,369.9774 " fill="none" id="com_acmeair_web_FlightsREST-to-com_acmeair_service_FlightService" style="stroke:#181818;stroke-width:1.0;stroke-dasharray:7.0,7.0;"/><polygon fill="#181818" points="2702.93,370.96,2694.7066,365.5401,2697.9975,370.1412,2693.3964,373.4321,2702.93,370.96" style="stroke:#181818;stroke-width:1.0;"/><text fill="#000000" font-family="sans-serif" font-size="13" lengthAdjust="spacing" textLength="52" x="2549.5" y="337.0669">requires</text></g><!--link com_acmeair_loader_FlightLoader to com_acmeair_service_FlightService--><g id="link_com_acmeair_loader_FlightLoader_com_acmeair_service_FlightService"><path d="M3055.63,258.59 C3008.69,288.33 2930.7079,337.738 2883.6579,367.558 " fill="none" id="com_acmeair_loader_FlightLoader-to-com_acmeair_service_FlightService" style="stroke:#181818;stroke-width:1.0;stroke-dasharray:7.0,7.0;"/><polygon fill="#181818" points="2878.59,370.77,2888.3331,369.3306,2882.8132,368.0934,2884.0505,362.5735,2878.59,370.77" style="stroke:#181818;stroke-width:1.0;"/><text fill="#000000" font-family="sans-serif" font-size="13" lengthAdjust="spacing" textLength="52" x="2952.5" y="337.0669">requires</text></g><!--link com_acmeair_config_AcmeAirConfiguration to com_acmeair_morphia_services_BookingServiceImpl--><g id="link_com_acmeair_config_AcmeAirConfiguration_com_acmeair_morphia_services_BookingServiceImpl"><path d="M1348.44,258.7 C1399.43,281.66 1482.87,317.41 1557.5,341 C1594.16,352.59 1629.0647,361.4601 1665.7647,369.6701 " fill="none" id="com_acmeair_config_AcmeAirConfiguration-to-com_acmeair_morphia_services_BookingServiceImpl" style="stroke:#181818;stroke-width:1.0;stroke-dasharray:7.0,7.0;"/><polygon fill="#181818" points="1671.62,370.98,1663.7103,365.1117,1666.7406,369.8885,1661.9638,372.9187,1671.62,370.98" style="stroke:#181818;stroke-width:1.0;"/><text fill="#000000" font-family="sans-serif" font-size="13" lengthAdjust="spacing" textLength="52" x="1558.5" y="337.0669">requires</text></g><!--link com_acmeair_config_AcmeAirConfiguration to com_acmeair_service_FlightService--><g id="link_com_acmeair_config_AcmeAirConfiguration_com_acmeair_service_FlightService"><path d="M1360.06,258.64 C1395.91,271.05 1442.75,285.66 1485.5,294 C1641.78,324.48 1684.52,304.1 1842.5,324 C1887.66,329.69 1898.22,336.29 1943.5,341 C2271.78,375.13 2356.77,341.54 2685.5,371 C2691.15,371.51 2690.9539,371.4333 2696.7639,372.0533 " fill="none" id="com_acmeair_config_AcmeAirConfiguration-to-com_acmeair_service_FlightService" style="stroke:#181818;stroke-width:1.0;stroke-dasharray:7.0,7.0;"/><polygon fill="#181818" points="2702.73,372.69,2694.2053,367.7576,2697.7582,372.1594,2693.3564,375.7124,2702.73,372.69" style="stroke:#181818;stroke-width:1.0;"/><text fill="#000000" font-family="sans-serif" font-size="13" lengthAdjust="spacing" textLength="52" x="1944.5" y="337.0669">requires</text></g><!--link com_acmeair_web_RESTCookieSessionFilter to com_acmeair_service_CustomerService--><g id="link_com_acmeair_web_RESTCookieSessionFilter_com_acmeair_service_CustomerService"><path d="M658.4,258.57 C713.98,284.01 811.15,324.46 899.5,341 C1213.67,399.8 2018.73,347.59 2337.5,371 C2343.27,371.42 2343.1638,371.3759 2349.0938,371.9059 " fill="none" id="com_acmeair_web_RESTCookieSessionFilter-to-com_acmeair_service_CustomerService" style="stroke:#181818;stroke-width:1.0;stroke-dasharray:7.0,7.0;"/><polygon fill="#181818" points="2355.07,372.44,2346.4618,367.6547,2350.0899,371.9949,2345.7496,375.6229,2355.07,372.44" style="stroke:#181818;stroke-width:1.0;"/><text fill="#000000" font-family="sans-serif" font-size="13" lengthAdjust="spacing" textLength="52" x="900.5" y="337.0669">requires</text></g><!--link com_acmeair_web_BookingsREST to com_acmeair_service_BookingService--><g id="link_com_acmeair_web_BookingsREST_com_acmeair_service_BookingService"><path d="M1009.71,258.54 C1071.03,284.17 1178.58,325.01 1275.5,341 C1594.13,393.57 1679.74,343.34 2001.5,371 C2007.21,371.49 2007.059,371.451 2012.939,372.031 " fill="none" id="com_acmeair_web_BookingsREST-to-com_acmeair_service_BookingService" style="stroke:#181818;stroke-width:1.0;stroke-dasharray:7.0,7.0;"/><polygon fill="#181818" points="2018.91,372.62,2010.3461,367.7559,2013.9341,372.1292,2009.5608,375.7172,2018.91,372.62" style="stroke:#181818;stroke-width:1.0;"/><text fill="#000000" font-family="sans-serif" font-size="13" lengthAdjust="spacing" textLength="52" x="1276.5" y="337.0669">requires</text></g><!--link com_acmeair_config_AcmeAirConfiguration to com_acmeair_service_BookingService--><g id="link_com_acmeair_config_AcmeAirConfiguration_com_acmeair_service_BookingService"><path d="M1367.37,258.61 C1402.38,269.84 1446.05,283.33 1485.5,294 C1542.74,309.48 1558.01,309.49 1615.5,324 C1643.2,330.99 1649.39,335.89 1677.5,341 C1819.78,366.89 1857.78,354.94 2001.5,371 C2007.2,371.64 2007.0512,371.5984 2012.9112,372.2884 " fill="none" id="com_acmeair_config_AcmeAirConfiguration-to-com_acmeair_service_BookingService" style="stroke:#181818;stroke-width:1.0;stroke-dasharray:7.0,7.0;"/><polygon fill="#181818" points="2018.87,372.99,2010.3995,367.965,2013.9043,372.4053,2009.464,375.9101,2018.87,372.99" style="stroke:#181818;stroke-width:1.0;"/><text fill="#000000" font-family="sans-serif" font-size="13" lengthAdjust="spacing" textLength="52" x="1678.5" y="337.0669">requires</text></g><!--link com_acmeair_loader_CustomerLoader to com_acmeair_service_CustomerService--><g id="link_com_acmeair_loader_CustomerLoader_com_acmeair_service_CustomerService"><path d="M2030.35,258.53 C2062.45,269.68 2102.41,283.12 2138.5,294 C2234.56,322.96 2340.0507,350.4485 2415.9007,369.4985 " fill="none" id="com_acmeair_loader_CustomerLoader-to-com_acmeair_service_CustomerService" style="stroke:#181818;stroke-width:1.0;stroke-dasharray:7.0,7.0;"/><polygon fill="#181818" points="2421.72,370.96,2413.9654,364.8882,2416.8706,369.7421,2412.0167,372.6472,2421.72,370.96" style="stroke:#181818;stroke-width:1.0;"/><text fill="#000000" font-family="sans-serif" font-size="13" lengthAdjust="spacing" textLength="52" x="2302.5" y="337.0669">requires</text></g><!--link com_acmeair_web_LoginREST to com_acmeair_service_CustomerService--><g id="link_com_acmeair_web_LoginREST_com_acmeair_service_CustomerService"><path d="M2755.41,258.59 C2701.44,288.33 2611.2049,338.0541 2557.0949,367.8741 " fill="none" id="com_acmeair_web_LoginREST-to-com_acmeair_service_CustomerService" style="stroke:#181818;stroke-width:1.0;stroke-dasharray:7.0,7.0;"/><polygon fill="#181818" points="2551.84,370.77,2561.6529,369.9293,2556.219,368.3567,2557.7916,362.9228,2551.84,370.77" style="stroke:#181818;stroke-width:1.0;"/><text fill="#000000" font-family="sans-serif" font-size="13" lengthAdjust="spacing" textLength="52" x="2636.5" y="337.0669">requires</text></g><!--link com_acmeair_web_BookingsREST to com_acmeair_morphia_services_BookingServiceImpl--><g id="link_com_acmeair_web_BookingsREST_com_acmeair_morphia_services_BookingServiceImpl"><path d="M980.25,258.82 C1005.13,283.9 1049.42,323.41 1096.5,341 C1194.53,377.64 1462.2,362.39 1566.5,371 C1572.07,371.46 1571.733,371.4157 1577.433,371.9157 " fill="none" id="com_acmeair_web_BookingsREST-to-com_acmeair_morphia_services_BookingServiceImpl" style="stroke:#181818;stroke-width:1.0;stroke-dasharray:7.0,7.0;"/><polygon fill="#181818" points="1583.41,372.44,1574.794,367.6688,1578.4291,372.0031,1574.0949,375.6382,1583.41,372.44" style="stroke:#181818;stroke-width:1.0;"/><text fill="#000000" font-family="sans-serif" font-size="13" lengthAdjust="spacing" textLength="52" x="1097.5" y="337.0669">requires</text></g><!--link com_acmeair_web_RESTCookieSessionFilter to com_acmeair_service_TransactionService--><g id="link_com_acmeair_web_RESTCookieSessionFilter_com_acmeair_service_TransactionService"><path d="M636.89,258.51 C664.62,282.36 712.2,319.84 759.5,341 C787.97,353.74 814.0383,362.089 844.7883,369.529 " fill="none" id="com_acmeair_web_RESTCookieSessionFilter-to-com_acmeair_service_TransactionService" style="stroke:#181818;stroke-width:1.0;stroke-dasharray:7.0,7.0;"/><polygon fill="#181818" points="850.62,370.94,842.8131,364.9357,845.7602,369.7642,840.9317,372.7113,850.62,370.94" style="stroke:#181818;stroke-width:1.0;"/><text fill="#000000" font-family="sans-serif" font-size="13" lengthAdjust="spacing" textLength="52" x="760.5" y="337.0669">requires</text></g><!--link com_acmeair_web_RESTCookieSessionFilter to com_acmeair_wxs_utils_WXSSessionManager--><g id="link_com_acmeair_web_RESTCookieSessionFilter_com_acmeair_wxs_utils_WXSSessionManager"><path d="M612.92,258.59 C613.49,288.33 614.3853,334.9511 614.9553,364.7711 " fill="none" id="com_acmeair_web_RESTCookieSessionFilter-to-com_acmeair_wxs_utils_WXSSessionManager" style="stroke:#181818;stroke-width:1.0;stroke-dasharray:7.0,7.0;"/><polygon fill="#181818" points="615.07,370.77,618.8973,361.6952,614.9744,365.7709,610.8987,361.8481,615.07,370.77" style="stroke:#181818;stroke-width:1.0;"/><text fill="#000000" font-family="sans-serif" font-size="13" lengthAdjust="spacing" textLength="52" x="615.5" y="337.0669">requires</text></g><!--link AcmeAirConfiguration_requires_com_acmeair_wxs_WXSConstants to com_acmeair_wxs_utils_WXSSessionManager--><g id="link_AcmeAirConfiguration_requires_com_acmeair_wxs_WXSConstants_com_acmeair_wxs_utils_WXSSessionManager"><path d="M348.62,116.15 C339.09,143.34 298.74,271.4 357.5,341 C369.88,355.66 401.91,366.3 439.37,373.98 " fill="none" id="AcmeAirConfiguration_requires_com_acmeair_wxs_WXSConstants-com_acmeair_wxs_utils_WXSSessionManager" style="stroke:#181818;stroke-width:1.0;"/></g><!--link AcmeAirConfiguration_requires_com_acmeair_morphia_MorphiaConstants to com_acmeair_morphia_services_BookingServiceImpl--><g id="link_AcmeAirConfiguration_requires_com_acmeair_morphia_MorphiaConstants_com_acmeair_morphia_services_BookingServiceImpl"><path d="M429.98,116.23 C418.98,139.82 377.73,237.72 421.5,294 C473.58,360.97 522.5,329.16 606.5,341 C1029.2,400.57 1140.56,342.79 1566.5,371 C1572.07,371.37 1577.72,371.77 1583.43,372.19 " fill="none" id="AcmeAirConfiguration_requires_com_acmeair_morphia_MorphiaConstants-com_acmeair_morphia_services_BookingServiceImpl" style="stroke:#181818;stroke-width:1.0;"/></g><!--link AcmeAirConfiguration_requires_Filter to com_acmeair_web_RESTCookieSessionFilter--><g id="link_AcmeAirConfiguration_requires_Filter_com_acmeair_web_RESTCookieSessionFilter"><path d="M636.43,116.31 C633.12,132.65 622.95,182.9 616.98,212.35 " fill="none" id="AcmeAirConfiguration_requires_Filter-com_acmeair_web_RESTCookieSessionFilter" style="stroke:#181818;stroke-width:1.0;"/></g><!--link AcmeAirConfiguration_requires_SERVICE_HOST_bookings to com_acmeair_web_BookingsREST--><g id="link_AcmeAirConfiguration_requires_SERVICE_HOST_bookings_com_acmeair_web_BookingsREST"><path d="M959.5,116.31 C959.5,132.65 959.5,182.9 959.5,212.35 " fill="none" id="AcmeAirConfiguration_requires_SERVICE_HOST_bookings-com_acmeair_web_BookingsREST" style="stroke:#181818;stroke-width:1.0;"/></g><!--link AcmeAirConfiguration_requires_SERVICE_HOST_login to com_acmeair_web_LoginREST--><g id="link_AcmeAirConfiguration_requires_SERVICE_HOST_login_com_acmeair_web_LoginREST"><path d="M2547.78,114.05 C2575.28,127.42 2686.58,181.54 2750.24,212.49 " fill="none" id="AcmeAirConfiguration_requires_SERVICE_HOST_login-com_acmeair_web_LoginREST" style="stroke:#181818;stroke-width:1.0;"/></g><!--link AcmeAirConfiguration_requires_com_acmeair_wxs_WXSConstants to com_acmeair_wxs_service_BookingServiceImpl--><g id="link_AcmeAirConfiguration_requires_com_acmeair_wxs_WXSConstants_com_acmeair_wxs_service_BookingServiceImpl"><path d="M350.66,116.28 C351.72,147.75 358.9,310.38 394.5,341 C427.13,369.06 1125.59,367.8 1168.5,371 C1174.39,371.44 1180.38,371.92 1186.42,372.43 " fill="none" id="AcmeAirConfiguration_requires_com_acmeair_wxs_WXSConstants-com_acmeair_wxs_service_BookingServiceImpl" style="stroke:#181818;stroke-width:1.0;"/></g><!--link AcmeAirConfiguration_requires_SERVICE_HOST_config to com_acmeair_config_AcmeAirConfiguration--><g id="link_AcmeAirConfiguration_requires_SERVICE_HOST_config_com_acmeair_config_AcmeAirConfiguration"><path d="M1300.5,116.31 C1300.5,132.65 1300.5,182.9 1300.5,212.35 " fill="none" id="AcmeAirConfiguration_requires_SERVICE_HOST_config-com_acmeair_config_AcmeAirConfiguration" style="stroke:#181818;stroke-width:1.0;"/></g><!--link AcmeAirConfiguration_requires_SERVICE_HOST_flights to com_acmeair_web_FlightsREST--><g id="link_AcmeAirConfiguration_requires_SERVICE_HOST_flights_com_acmeair_web_FlightsREST"><path d="M2283.5,116.31 C2283.5,132.65 2283.5,182.9 2283.5,212.35 " fill="none" id="AcmeAirConfiguration_requires_SERVICE_HOST_flights-com_acmeair_web_FlightsREST" style="stroke:#181818;stroke-width:1.0;"/></g><!--link AcmeAirConfiguration_requires_SERVICE_HOST_customer_byid to com_acmeair_web_CustomerREST--><g id="link_AcmeAirConfiguration_requires_SERVICE_HOST_customer_byid_com_acmeair_web_CustomerREST"><path d="M1430.79,114.56 C1455.78,128.72 1549.33,181.72 1603.35,212.32 " fill="none" id="AcmeAirConfiguration_requires_SERVICE_HOST_customer_byid-com_acmeair_web_CustomerREST" style="stroke:#181818;stroke-width:1.0;"/></g><!--link interface.Filter to AcmeAirConfiguration_requires_Filter--><g id="link_interface.Filter_AcmeAirConfiguration_requires_Filter"><path d="M644.82,23.01 C643.22,41.84 639.25,88.45 637.93,103.92 " fill="none" id="interface.Filter-AcmeAirConfiguration_requires_Filter" style="stroke:#181818;stroke-width:1.0;"/></g><!--link interface.SERVICE_HOST_bookings to AcmeAirConfiguration_requires_SERVICE_HOST_bookings--><g id="link_interface.SERVICE_HOST_bookings_AcmeAirConfiguration_requires_SERVICE_HOST_bookings"><path d="M959.5,23.01 C959.5,41.84 959.5,88.45 959.5,103.92 " fill="none" id="interface.SERVICE_HOST_bookings-AcmeAirConfiguration_requires_SERVICE_HOST_bookings" style="stroke:#181818;stroke-width:1.0;"/></g><!--link interface.SERVICE_HOST_config to AcmeAirConfiguration_requires_SERVICE_HOST_config--><g id="link_interface.SERVICE_HOST_config_AcmeAirConfiguration_requires_SERVICE_HOST_config"><path d="M1241.96,23.01 C1254.77,41.84 1286.51,88.45 1297.04,103.92 " fill="none" id="interface.SERVICE_HOST_config-AcmeAirConfiguration_requires_SERVICE_HOST_config" style="stroke:#181818;stroke-width:1.0;"/></g><!--link interface.SERVICE_HOST_customer_byid to AcmeAirConfiguration_requires_SERVICE_HOST_customer_byid--><g id="link_interface.SERVICE_HOST_customer_byid_AcmeAirConfiguration_requires_SERVICE_HOST_customer_byid"><path d="M1462,23.01 C1453.79,41.84 1433.46,88.45 1426.72,103.92 " fill="none" id="interface.SERVICE_HOST_customer_byid-AcmeAirConfiguration_requires_SERVICE_HOST_customer_byid" style="stroke:#181818;stroke-width:1.0;"/></g><!--link interface.SERVICE_HOST_flights to AcmeAirConfiguration_requires_SERVICE_HOST_flights--><g id="link_interface.SERVICE_HOST_flights_AcmeAirConfiguration_requires_SERVICE_HOST_flights"><path d="M2283.5,23.01 C2283.5,41.84 2283.5,88.45 2283.5,103.92 " fill="none" id="interface.SERVICE_HOST_flights-AcmeAirConfiguration_requires_SERVICE_HOST_flights" style="stroke:#181818;stroke-width:1.0;"/></g><!--link interface.SERVICE_HOST_login to AcmeAirConfiguration_requires_SERVICE_HOST_login--><g id="link_interface.SERVICE_HOST_login_AcmeAirConfiguration_requires_SERVICE_HOST_login"><path d="M2541.5,23.01 C2541.5,41.84 2541.5,88.45 2541.5,103.92 " fill="none" id="interface.SERVICE_HOST_login-AcmeAirConfiguration_requires_SERVICE_HOST_login" style="stroke:#181818;stroke-width:1.0;"/></g><!--link interface.com_acmeair_morphia_MorphiaConstants to AcmeAirConfiguration_requires_com_acmeair_morphia_MorphiaConstants--><g id="link_interface.com_acmeair_morphia_MorphiaConstants_AcmeAirConfiguration_requires_com_acmeair_morphia_MorphiaConstants"><path d="M432.5,23.01 C432.5,41.84 432.5,88.45 432.5,103.92 " fill="none" id="interface.com_acmeair_morphia_MorphiaConstants-AcmeAirConfiguration_requires_com_acmeair_morphia_MorphiaConstants" style="stroke:#181818;stroke-width:1.0;"/></g><!--link interface.com_acmeair_wxs_WXSConstants to AcmeAirConfiguration_requires_com_acmeair_wxs_WXSConstants--><g id="link_interface.com_acmeair_wxs_WXSConstants_AcmeAirConfiguration_requires_com_acmeair_wxs_WXSConstants"><path d="M131.72,18.8 C169.54,34.4 312.31,93.25 344.17,106.39 " fill="none" id="interface.com_acmeair_wxs_WXSConstants-AcmeAirConfiguration_requires_com_acmeair_wxs_WXSConstants" style="stroke:#181818;stroke-width:1.0;"/></g><!--link com_acmeair_config_LoaderREST to com_acmeair_loader_Loader--><g id="link_com_acmeair_config_LoaderREST_com_acmeair_loader_Loader"><path d="M3547.5,258.59 C3547.5,288.33 3547.5,334.95 3547.5,364.77 " fill="none" id="com_acmeair_config_LoaderREST-to-com_acmeair_loader_Loader" style="stroke:#181818;stroke-width:1.0;stroke-dasharray:7.0,7.0;"/><polygon fill="#181818" points="3547.5,370.77,3551.5,361.77,3547.5,365.77,3543.5,361.77,3547.5,370.77" style="stroke:#181818;stroke-width:1.0;"/><text fill="#000000" font-family="sans-serif" font-size="13" lengthAdjust="spacing" textLength="52" x="3548.5" y="337.0669">requires</text></g><!--link LoaderREST_requires_SERVICE_HOST_loader to com_acmeair_config_LoaderREST--><g id="link_LoaderREST_requires_SERVICE_HOST_loader_com_acmeair_config_LoaderREST"><path d="M3385.88,115.69 C3407.16,131.33 3476.63,182.4 3517.23,212.25 " fill="none" id="LoaderREST_requires_SERVICE_HOST_loader-com_acmeair_config_LoaderREST" style="stroke:#181818;stroke-width:1.0;"/></g><!--link interface.SERVICE_HOST_loader to LoaderREST_requires_SERVICE_HOST_loader--><g id="link_interface.SERVICE_HOST_loader_LoaderREST_requires_SERVICE_HOST_loader"><path d="M3379.5,23.01 C3379.5,41.84 3379.5,88.45 3379.5,103.92 " fill="none" id="interface.SERVICE_HOST_loader-LoaderREST_requires_SERVICE_HOST_loader" style="stroke:#181818;stroke-width:1.0;"/></g><!--SRC=[jLXHRvim47xFhq1-JohjSG-JkYZTggMgLA9jqZOXXphKch6P3MsZgVzz49i44zlOX8c7AFZuxlFTSVSPyHlJ0dAOHplykiGy9MWDjuZSFoDEO55WcaKbhz1C70rJbXUC8bh6vPwWgCh9kzdnNWIkqnnTOxvaT8UpYiCIC_gpSu7ex-n7RP_0sX1YdhoWRVAHiHe_4m-hUFDBNquFG8a9jcSf47_6AMh1OlctP_JoAYo6jtb1B8Wt16TFfHcmjTbmI0LC6rvkmsKbIfOZRhRA6I-UC6ojnJ399dvDt9QD8OgH43M56qnAn2qClg3z9qHH7KJMDo4CFY9-vBW-_3KuR0qC2MiYN9MOYEJRzrZHkOCKPiZYJ4RNwaekcqgZMLsp35EvLZ1UOXg1-e8YCXLCmj6V2lCwgl7guUljSfLyleytgiGkU5u58zdkyMCGZ4nJq2FzKDT1hYr52MafHWErLNSdVyS1QZ7PgZTwFC9Evdqy06bAOw3NB1OVGjf3z3vgVVbtgQbys1f87z_uca_2tCR02dxMAYP1x7O46w3UigrmfXPq8MH8G7sw_QIPyzo3QwPCaaBdIsWPv9C6mXVRF10dYS5fTFt_a5vKQ6EgmI279i5tgOkk0p1-YeBvt5_GWCk7RD-VbmG4FiBYR2SkgGX6J7UJ0rtBWz21ROBiYBo9y-ew2e1W2Tdtu3oxW70jP8gD9e_1MDLgGjOr_jiCqxfETZ154L3brGYouzs54hFz6_EvNwrsyHNHUKFqwbXikZkpt1nO7oHZBdChDvLt1pDrk72kXh5IFksSLDwk3ebrKTFEBJv6WKIr2hFoROlRmRGz2xYNmzYrRgsyP3joi9873DTY62FfiCl7Qtpe3BsETM7cWxlmecdRrrcRjk_dxBphPnR4_unEz-EMb7zDGtH-qb9z_sHj_l3HVlBGJxYdfwnbqXWCUUmB9zsd9fKyFLgcMtUNRuwNwG3XV9iEstAkrfdq9Jlx1m00]--></g></svg>