<?xml version="1.0" encoding="us-ascii" standalone="no"?><svg xmlns="http://www.w3.org/2000/svg" xmlns:xlink="http://www.w3.org/1999/xlink" contentStyleType="text/css" height="439px" preserveAspectRatio="none" style="width:3356px;height:439px;background:#FFFFFF;" version="1.1" viewBox="0 0 3356 439" width="3356px" zoomAndPan="magnify"><defs/><g><!--cluster com_acmeair\n\n\n\n\n\n--><g id="cluster_com_acmeair\n\n\n\n\n\n"><rect fill="none" height="323" rx="2.5" ry="2.5" style="stroke:#181818;stroke-width:1.0;" width="2863" x="7" y="110"/><rect fill="none" height="10" style="stroke:#181818;stroke-width:1.0;" width="15" x="2850" y="115"/><rect fill="none" height="2" style="stroke:#181818;stroke-width:1.0;" width="4" x="2848" y="117"/><rect fill="none" height="2" style="stroke:#181818;stroke-width:1.0;" width="4" x="2848" y="121"/><text fill="#000000" font-family="sans-serif" font-size="14" font-weight="bold" lengthAdjust="spacing" textLength="102" x="1387.5" y="135.9951">com_acmeair</text><text fill="#000000" font-family="sans-serif" font-size="14" font-weight="bold" lengthAdjust="spacing" textLength="5" x="1436" y="152.292">&#160;</text><text fill="#000000" font-family="sans-serif" font-size="14" font-weight="bold" lengthAdjust="spacing" textLength="5" x="1436" y="168.5889">&#160;</text><text fill="#000000" font-family="sans-serif" font-size="14" font-weight="bold" lengthAdjust="spacing" textLength="5" x="1436" y="184.8857">&#160;</text><text fill="#000000" font-family="sans-serif" font-size="14" font-weight="bold" lengthAdjust="spacing" textLength="5" x="1436" y="201.1826">&#160;</text><text fill="#000000" font-family="sans-serif" font-size="14" font-weight="bold" lengthAdjust="spacing" textLength="5" x="1436" y="217.4795">&#160;</text><text fill="#000000" font-family="sans-serif" font-size="14" font-weight="bold" lengthAdjust="spacing" textLength="5" x="1436" y="233.7764">&#160;</text></g><!--cluster com_acmeair 2\n\n\n\n\n\n--><g id="cluster_com_acmeair 2\n\n\n\n\n\n"><rect fill="none" height="323" rx="2.5" ry="2.5" style="stroke:#181818;stroke-width:1.0;" width="347" x="3003" y="110"/><rect fill="none" height="10" style="stroke:#181818;stroke-width:1.0;" width="15" x="3330" y="115"/><rect fill="none" height="2" style="stroke:#181818;stroke-width:1.0;" width="4" x="3328" y="117"/><rect fill="none" height="2" style="stroke:#181818;stroke-width:1.0;" width="4" x="3328" y="121"/><text fill="#000000" font-family="sans-serif" font-size="14" font-weight="bold" lengthAdjust="spacing" textLength="117" x="3118" y="135.9951">com_acmeair 2</text><text fill="#000000" font-family="sans-serif" font-size="14" font-weight="bold" lengthAdjust="spacing" textLength="5" x="3174" y="152.292">&#160;</text><text fill="#000000" font-family="sans-serif" font-size="14" font-weight="bold" lengthAdjust="spacing" textLength="5" x="3174" y="168.5889">&#160;</text><text fill="#000000" font-family="sans-serif" font-size="14" font-weight="bold" lengthAdjust="spacing" textLength="5" x="3174" y="184.8857">&#160;</text><text fill="#000000" font-family="sans-serif" font-size="14" font-weight="bold" lengthAdjust="spacing" textLength="5" x="3174" y="201.1826">&#160;</text><text fill="#000000" font-family="sans-serif" font-size="14" font-weight="bold" lengthAdjust="spacing" textLength="5" x="3174" y="217.4795">&#160;</text><text fill="#000000" font-family="sans-serif" font-size="14" font-weight="bold" lengthAdjust="spacing" textLength="5" x="3174" y="233.7764">&#160;</text></g><!--entity com_acmeair_loader_CustomerLoader--><g id="elem_com_acmeair_loader_CustomerLoader"><rect fill="#F1F1F1" height="46.2969" rx="2.5" ry="2.5" style="stroke:#181818;stroke-width:0.5;" width="303" x="407.5" y="212.5"/><rect fill="#F1F1F1" height="10" style="stroke:#181818;stroke-width:0.5;" width="15" x="690.5" y="217.5"/><rect fill="#F1F1F1" height="2" style="stroke:#181818;stroke-width:0.5;" width="4" x="688.5" y="219.5"/><rect fill="#F1F1F1" height="2" style="stroke:#181818;stroke-width:0.5;" width="4" x="688.5" y="223.5"/><text fill="#000000" font-family="sans-serif" font-size="14" lengthAdjust="spacing" textLength="263" x="422.5" y="245.4951">com_acmeair_loader_CustomerLoader</text></g><!--entity com_acmeair_morphia_services_BookingServiceImpl--><g id="elem_com_acmeair_morphia_services_BookingServiceImpl"><rect fill="#F1F1F1" height="46.2969" rx="2.5" ry="2.5" style="stroke:#181818;stroke-width:0.5;" width="400" x="1662" y="371"/><rect fill="#F1F1F1" height="10" style="stroke:#181818;stroke-width:0.5;" width="15" x="2042" y="376"/><rect fill="#F1F1F1" height="2" style="stroke:#181818;stroke-width:0.5;" width="4" x="2040" y="378"/><rect fill="#F1F1F1" height="2" style="stroke:#181818;stroke-width:0.5;" width="4" x="2040" y="382"/><text fill="#000000" font-family="sans-serif" font-size="14" lengthAdjust="spacing" textLength="360" x="1677" y="403.9951">com_acmeair_morphia_services_BookingServiceImpl</text></g><!--entity com_acmeair_web_CustomerREST--><g id="elem_com_acmeair_web_CustomerREST"><rect fill="#F1F1F1" height="46.2969" rx="2.5" ry="2.5" style="stroke:#181818;stroke-width:0.5;" width="279" x="745.5" y="212.5"/><rect fill="#F1F1F1" height="10" style="stroke:#181818;stroke-width:0.5;" width="15" x="1004.5" y="217.5"/><rect fill="#F1F1F1" height="2" style="stroke:#181818;stroke-width:0.5;" width="4" x="1002.5" y="219.5"/><rect fill="#F1F1F1" height="2" style="stroke:#181818;stroke-width:0.5;" width="4" x="1002.5" y="223.5"/><text fill="#000000" font-family="sans-serif" font-size="14" lengthAdjust="spacing" textLength="239" x="760.5" y="245.4951">com_acmeair_web_CustomerREST</text></g><!--entity com_acmeair_wxs_service_BookingServiceImpl--><g id="elem_com_acmeair_wxs_service_BookingServiceImpl"><rect fill="#F1F1F1" height="46.2969" rx="2.5" ry="2.5" style="stroke:#181818;stroke-width:0.5;" width="362" x="1265" y="371"/><rect fill="#F1F1F1" height="10" style="stroke:#181818;stroke-width:0.5;" width="15" x="1607" y="376"/><rect fill="#F1F1F1" height="2" style="stroke:#181818;stroke-width:0.5;" width="4" x="1605" y="378"/><rect fill="#F1F1F1" height="2" style="stroke:#181818;stroke-width:0.5;" width="4" x="1605" y="382"/><text fill="#000000" font-family="sans-serif" font-size="14" lengthAdjust="spacing" textLength="322" x="1280" y="403.9951">com_acmeair_wxs_service_BookingServiceImpl</text></g><!--entity com_acmeair_loader_FlightLoader--><g id="elem_com_acmeair_loader_FlightLoader"><rect fill="#F1F1F1" height="46.2969" rx="2.5" ry="2.5" style="stroke:#181818;stroke-width:0.5;" width="272" x="2508" y="212.5"/><rect fill="#F1F1F1" height="10" style="stroke:#181818;stroke-width:0.5;" width="15" x="2760" y="217.5"/><rect fill="#F1F1F1" height="2" style="stroke:#181818;stroke-width:0.5;" width="4" x="2758" y="219.5"/><rect fill="#F1F1F1" height="2" style="stroke:#181818;stroke-width:0.5;" width="4" x="2758" y="223.5"/><text fill="#000000" font-family="sans-serif" font-size="14" lengthAdjust="spacing" textLength="232" x="2523" y="245.4951">com_acmeair_loader_FlightLoader</text></g><!--entity com_acmeair_wxs_utils_WXSSessionManager--><g id="elem_com_acmeair_wxs_utils_WXSSessionManager"><rect fill="#F1F1F1" height="46.2969" rx="2.5" ry="2.5" style="stroke:#181818;stroke-width:0.5;" width="352" x="23" y="371"/><rect fill="#F1F1F1" height="10" style="stroke:#181818;stroke-width:0.5;" width="15" x="355" y="376"/><rect fill="#F1F1F1" height="2" style="stroke:#181818;stroke-width:0.5;" width="4" x="353" y="378"/><rect fill="#F1F1F1" height="2" style="stroke:#181818;stroke-width:0.5;" width="4" x="353" y="382"/><text fill="#000000" font-family="sans-serif" font-size="14" lengthAdjust="spacing" textLength="312" x="38" y="403.9951">com_acmeair_wxs_utils_WXSSessionManager</text></g><!--entity com_acmeair_web_BookingsREST--><g id="elem_com_acmeair_web_BookingsREST"><rect fill="#F1F1F1" height="46.2969" rx="2.5" ry="2.5" style="stroke:#181818;stroke-width:0.5;" width="276" x="1060" y="212.5"/><rect fill="#F1F1F1" height="10" style="stroke:#181818;stroke-width:0.5;" width="15" x="1316" y="217.5"/><rect fill="#F1F1F1" height="2" style="stroke:#181818;stroke-width:0.5;" width="4" x="1314" y="219.5"/><rect fill="#F1F1F1" height="2" style="stroke:#181818;stroke-width:0.5;" width="4" x="1314" y="223.5"/><text fill="#000000" font-family="sans-serif" font-size="14" lengthAdjust="spacing" textLength="236" x="1075" y="245.4951">com_acmeair_web_BookingsREST</text></g><!--entity com_acmeair_wxs_service_FlightServiceImpl--><g id="elem_com_acmeair_wxs_service_FlightServiceImpl"><rect fill="#F1F1F1" height="46.2969" rx="2.5" ry="2.5" style="stroke:#181818;stroke-width:0.5;" width="342" x="2512" y="371"/><rect fill="#F1F1F1" height="10" style="stroke:#181818;stroke-width:0.5;" width="15" x="2834" y="376"/><rect fill="#F1F1F1" height="2" style="stroke:#181818;stroke-width:0.5;" width="4" x="2832" y="378"/><rect fill="#F1F1F1" height="2" style="stroke:#181818;stroke-width:0.5;" width="4" x="2832" y="382"/><text fill="#000000" font-family="sans-serif" font-size="14" lengthAdjust="spacing" textLength="302" x="2527" y="403.9951">com_acmeair_wxs_service_FlightServiceImpl</text></g><!--entity com_acmeair_config_AcmeAirConfiguration--><g id="elem_com_acmeair_config_AcmeAirConfiguration"><rect fill="#F1F1F1" height="46.2969" rx="2.5" ry="2.5" style="stroke:#181818;stroke-width:0.5;" width="335" x="1807.5" y="212.5"/><rect fill="#F1F1F1" height="10" style="stroke:#181818;stroke-width:0.5;" width="15" x="2122.5" y="217.5"/><rect fill="#F1F1F1" height="2" style="stroke:#181818;stroke-width:0.5;" width="4" x="2120.5" y="219.5"/><rect fill="#F1F1F1" height="2" style="stroke:#181818;stroke-width:0.5;" width="4" x="2120.5" y="223.5"/><text fill="#000000" font-family="sans-serif" font-size="14" lengthAdjust="spacing" textLength="295" x="1822.5" y="245.4951">com_acmeair_config_AcmeAirConfiguration</text></g><!--entity com_acmeair_wxs_service_CustomerServiceImpl--><g id="elem_com_acmeair_wxs_service_CustomerServiceImpl"><rect fill="#F1F1F1" height="46.2969" rx="2.5" ry="2.5" style="stroke:#181818;stroke-width:0.5;" width="373" x="410.5" y="371"/><rect fill="#F1F1F1" height="10" style="stroke:#181818;stroke-width:0.5;" width="15" x="763.5" y="376"/><rect fill="#F1F1F1" height="2" style="stroke:#181818;stroke-width:0.5;" width="4" x="761.5" y="378"/><rect fill="#F1F1F1" height="2" style="stroke:#181818;stroke-width:0.5;" width="4" x="761.5" y="382"/><text fill="#000000" font-family="sans-serif" font-size="14" lengthAdjust="spacing" textLength="333" x="425.5" y="403.9951">com_acmeair_wxs_service_CustomerServiceImpl</text></g><!--entity com_acmeair_web_FlightsREST--><g id="elem_com_acmeair_web_FlightsREST"><rect fill="#F1F1F1" height="46.2969" rx="2.5" ry="2.5" style="stroke:#181818;stroke-width:0.5;" width="256" x="2178" y="212.5"/><rect fill="#F1F1F1" height="10" style="stroke:#181818;stroke-width:0.5;" width="15" x="2414" y="217.5"/><rect fill="#F1F1F1" height="2" style="stroke:#181818;stroke-width:0.5;" width="4" x="2412" y="219.5"/><rect fill="#F1F1F1" height="2" style="stroke:#181818;stroke-width:0.5;" width="4" x="2412" y="223.5"/><text fill="#000000" font-family="sans-serif" font-size="14" lengthAdjust="spacing" textLength="216" x="2193" y="245.4951">com_acmeair_web_FlightsREST</text></g><!--entity com_acmeair_morphia_services_CustomerServiceImpl--><g id="elem_com_acmeair_morphia_services_CustomerServiceImpl"><rect fill="#F1F1F1" height="46.2969" rx="2.5" ry="2.5" style="stroke:#181818;stroke-width:0.5;" width="411" x="818.5" y="371"/><rect fill="#F1F1F1" height="10" style="stroke:#181818;stroke-width:0.5;" width="15" x="1209.5" y="376"/><rect fill="#F1F1F1" height="2" style="stroke:#181818;stroke-width:0.5;" width="4" x="1207.5" y="378"/><rect fill="#F1F1F1" height="2" style="stroke:#181818;stroke-width:0.5;" width="4" x="1207.5" y="382"/><text fill="#000000" font-family="sans-serif" font-size="14" lengthAdjust="spacing" textLength="371" x="833.5" y="403.9951">com_acmeair_morphia_services_CustomerServiceImpl</text></g><!--entity com_acmeair_web_RESTCookieSessionFilter--><g id="elem_com_acmeair_web_RESTCookieSessionFilter"><rect fill="#F1F1F1" height="46.2969" rx="2.5" ry="2.5" style="stroke:#181818;stroke-width:0.5;" width="347" x="25.5" y="212.5"/><rect fill="#F1F1F1" height="10" style="stroke:#181818;stroke-width:0.5;" width="15" x="352.5" y="217.5"/><rect fill="#F1F1F1" height="2" style="stroke:#181818;stroke-width:0.5;" width="4" x="350.5" y="219.5"/><rect fill="#F1F1F1" height="2" style="stroke:#181818;stroke-width:0.5;" width="4" x="350.5" y="223.5"/><text fill="#000000" font-family="sans-serif" font-size="14" lengthAdjust="spacing" textLength="307" x="40.5" y="245.4951">com_acmeair_web_RESTCookieSessionFilter</text></g><!--entity com_acmeair_web_LoginREST--><g id="elem_com_acmeair_web_LoginREST"><rect fill="#F1F1F1" height="46.2969" rx="2.5" ry="2.5" style="stroke:#181818;stroke-width:0.5;" width="248" x="1524" y="212.5"/><rect fill="#F1F1F1" height="10" style="stroke:#181818;stroke-width:0.5;" width="15" x="1752" y="217.5"/><rect fill="#F1F1F1" height="2" style="stroke:#181818;stroke-width:0.5;" width="4" x="1750" y="219.5"/><rect fill="#F1F1F1" height="2" style="stroke:#181818;stroke-width:0.5;" width="4" x="1750" y="223.5"/><text fill="#000000" font-family="sans-serif" font-size="14" lengthAdjust="spacing" textLength="208" x="1539" y="245.4951">com_acmeair_web_LoginREST</text></g><!--entity com_acmeair_morphia_services_FlightServiceImpl--><g id="elem_com_acmeair_morphia_services_FlightServiceImpl"><rect fill="#F1F1F1" height="46.2969" rx="2.5" ry="2.5" style="stroke:#181818;stroke-width:0.5;" width="380" x="2097" y="371"/><rect fill="#F1F1F1" height="10" style="stroke:#181818;stroke-width:0.5;" width="15" x="2457" y="376"/><rect fill="#F1F1F1" height="2" style="stroke:#181818;stroke-width:0.5;" width="4" x="2455" y="378"/><rect fill="#F1F1F1" height="2" style="stroke:#181818;stroke-width:0.5;" width="4" x="2455" y="382"/><text fill="#000000" font-family="sans-serif" font-size="14" lengthAdjust="spacing" textLength="340" x="2112" y="403.9951">com_acmeair_morphia_services_FlightServiceImpl</text></g><text fill="#000000" font-family="sans-serif" font-size="14" lengthAdjust="spacing" textLength="4" x="1941" y="88.6982">&#160;</text><rect fill="#F1F1F1" height="12" style="stroke:#181818;stroke-width:1.5;" width="12" x="1937" y="104"/><text fill="#000000" font-family="sans-serif" font-size="14" lengthAdjust="spacing" textLength="4" x="1229" y="88.6982">&#160;</text><rect fill="#F1F1F1" height="12" style="stroke:#181818;stroke-width:1.5;" width="12" x="1225" y="104"/><text fill="#000000" font-family="sans-serif" font-size="14" lengthAdjust="spacing" textLength="4" x="1070" y="88.6982">&#160;</text><rect fill="#F1F1F1" height="12" style="stroke:#181818;stroke-width:1.5;" width="12" x="1066" y="104"/><text fill="#000000" font-family="sans-serif" font-size="14" lengthAdjust="spacing" textLength="4" x="1624" y="88.6982">&#160;</text><rect fill="#F1F1F1" height="12" style="stroke:#181818;stroke-width:1.5;" width="12" x="1620" y="104"/><text fill="#000000" font-family="sans-serif" font-size="14" lengthAdjust="spacing" textLength="4" x="1485" y="88.6982">&#160;</text><rect fill="#F1F1F1" height="12" style="stroke:#181818;stroke-width:1.5;" width="12" x="1481" y="104"/><!--entity com_acmeair_config_LoaderREST--><g id="elem_com_acmeair_config_LoaderREST"><rect fill="#F1F1F1" height="46.2969" rx="2.5" ry="2.5" style="stroke:#181818;stroke-width:0.5;" width="271" x="3062.5" y="212.5"/><rect fill="#F1F1F1" height="10" style="stroke:#181818;stroke-width:0.5;" width="15" x="3313.5" y="217.5"/><rect fill="#F1F1F1" height="2" style="stroke:#181818;stroke-width:0.5;" width="4" x="3311.5" y="219.5"/><rect fill="#F1F1F1" height="2" style="stroke:#181818;stroke-width:0.5;" width="4" x="3311.5" y="223.5"/><text fill="#000000" font-family="sans-serif" font-size="14" lengthAdjust="spacing" textLength="231" x="3077.5" y="245.4951">com_acmeair_config_LoaderREST</text></g><!--entity com_acmeair_loader_Loader--><g id="elem_com_acmeair_loader_Loader"><rect fill="#F1F1F1" height="46.2969" rx="2.5" ry="2.5" style="stroke:#181818;stroke-width:0.5;" width="235" x="3080.5" y="371"/><rect fill="#F1F1F1" height="10" style="stroke:#181818;stroke-width:0.5;" width="15" x="3295.5" y="376"/><rect fill="#F1F1F1" height="2" style="stroke:#181818;stroke-width:0.5;" width="4" x="3293.5" y="378"/><rect fill="#F1F1F1" height="2" style="stroke:#181818;stroke-width:0.5;" width="4" x="3293.5" y="382"/><text fill="#000000" font-family="sans-serif" font-size="14" lengthAdjust="spacing" textLength="195" x="3095.5" y="403.9951">com_acmeair_loader_Loader</text></g><text fill="#000000" font-family="sans-serif" font-size="14" lengthAdjust="spacing" textLength="4" x="3019" y="88.6982">&#160;</text><rect fill="#F1F1F1" height="12" style="stroke:#181818;stroke-width:1.5;" width="12" x="3015" y="104"/><!--entity interface.SERVICE_HOST_bookings--><g id="elem_interface.SERVICE_HOST_bookings"><ellipse cx="1236" cy="14" fill="#F1F1F1" rx="8" ry="8" style="stroke:#181818;stroke-width:0.5;"/><text fill="#000000" font-family="sans-serif" font-size="14" lengthAdjust="spacing" textLength="172" x="1150" y="43.9951">SERVICE-HOST/bookings</text></g><!--entity interface.SERVICE_HOST_config--><g id="elem_interface.SERVICE_HOST_config"><ellipse cx="1458" cy="14" fill="#F1F1F1" rx="8" ry="8" style="stroke:#181818;stroke-width:0.5;"/><text fill="#000000" font-family="sans-serif" font-size="14" lengthAdjust="spacing" textLength="150" x="1383" y="43.9951">SERVICE-HOST/config</text></g><!--entity interface.SERVICE_HOST_customer_byid--><g id="elem_interface.SERVICE_HOST_customer_byid"><ellipse cx="996" cy="14" fill="#F1F1F1" rx="8" ry="8" style="stroke:#181818;stroke-width:0.5;"/><text fill="#000000" font-family="sans-serif" font-size="14" lengthAdjust="spacing" textLength="207" x="892.5" y="43.9951">SERVICE-HOST/customer/byid</text></g><!--entity interface.SERVICE_HOST_flights--><g id="elem_interface.SERVICE_HOST_flights"><ellipse cx="1943" cy="14" fill="#F1F1F1" rx="8" ry="8" style="stroke:#181818;stroke-width:0.5;"/><text fill="#000000" font-family="sans-serif" font-size="14" lengthAdjust="spacing" textLength="149" x="1868.5" y="43.9951">SERVICE-HOST/flights</text></g><!--entity interface.SERVICE_HOST_login--><g id="elem_interface.SERVICE_HOST_login"><ellipse cx="1654" cy="14" fill="#F1F1F1" rx="8" ry="8" style="stroke:#181818;stroke-width:0.5;"/><text fill="#000000" font-family="sans-serif" font-size="14" lengthAdjust="spacing" textLength="141" x="1583.5" y="43.9951">SERVICE-HOST/login</text></g><!--entity interface.SERVICE_HOST_loader--><g id="elem_interface.SERVICE_HOST_loader"><ellipse cx="3021" cy="14" fill="#F1F1F1" rx="8" ry="8" style="stroke:#181818;stroke-width:0.5;"/><text fill="#000000" font-family="sans-serif" font-size="14" lengthAdjust="spacing" textLength="151" x="2945.5" y="43.9951">SERVICE-HOST/loader</text></g><!--link com_acmeair_web_CustomerREST to com_acmeair_wxs_service_CustomerServiceImpl--><g id="link_com_acmeair_web_CustomerREST_com_acmeair_wxs_service_CustomerServiceImpl"><path d="M830.37,258.51 C800.45,270.05 762.54,283.86 728,294 C669.44,311.2 632.15,276.36 594,324 C583.66,336.92 583.8709,350.1426 587.6109,364.9526 " fill="none" id="com_acmeair_web_CustomerREST-to-com_acmeair_wxs_service_CustomerServiceImpl" style="stroke:#181818;stroke-width:1.0;stroke-dasharray:7.0,7.0;"/><polygon fill="#181818" points="589.08,370.77,590.7546,361.0646,587.8558,365.9222,582.9981,363.0233,589.08,370.77" style="stroke:#181818;stroke-width:1.0;"/><text fill="#000000" font-family="sans-serif" font-size="13" lengthAdjust="spacing" textLength="52" x="595" y="337.0669">requires</text></g><!--link com_acmeair_loader_FlightLoader to com_acmeair_wxs_service_FlightServiceImpl--><g id="link_com_acmeair_loader_FlightLoader_com_acmeair_wxs_service_FlightServiceImpl"><path d="M2649.51,258.59 C2656.92,288.33 2668.5794,335.128 2676.0094,364.948 " fill="none" id="com_acmeair_loader_FlightLoader-to-com_acmeair_wxs_service_FlightServiceImpl" style="stroke:#181818;stroke-width:1.0;stroke-dasharray:7.0,7.0;"/><polygon fill="#181818" points="2677.46,370.77,2679.1654,361.0699,2676.2512,365.9183,2671.4027,363.0041,2677.46,370.77" style="stroke:#181818;stroke-width:1.0;"/><text fill="#000000" font-family="sans-serif" font-size="13" lengthAdjust="spacing" textLength="52" x="2670" y="337.0669">requires</text></g><!--link com_acmeair_web_BookingsREST to com_acmeair_morphia_services_BookingServiceImpl--><g id="link_com_acmeair_web_BookingsREST_com_acmeair_morphia_services_BookingServiceImpl"><path d="M1248.33,258.59 C1278.43,270.91 1317.76,285.44 1354,294 C1471.51,321.75 1505.58,300.44 1624,324 C1683.6,335.86 1744.1813,353.7932 1791.6313,369.1432 " fill="none" id="com_acmeair_web_BookingsREST-to-com_acmeair_morphia_services_BookingServiceImpl" style="stroke:#181818;stroke-width:1.0;stroke-dasharray:7.0,7.0;"/><polygon fill="#181818" points="1797.34,370.99,1790.0081,364.414,1792.5827,369.451,1787.5457,372.0257,1797.34,370.99" style="stroke:#181818;stroke-width:1.0;"/><text fill="#000000" font-family="sans-serif" font-size="13" lengthAdjust="spacing" textLength="52" x="1691" y="337.0669">requires</text></g><!--link com_acmeair_web_FlightsREST to com_acmeair_wxs_service_FlightServiceImpl--><g id="link_com_acmeair_web_FlightsREST_com_acmeair_wxs_service_FlightServiceImpl"><path d="M2373.91,258.5 C2422.92,275 2490.32,298.95 2548,324 C2580.71,338.21 2611.3342,353.871 2637.8842,368.131 " fill="none" id="com_acmeair_web_FlightsREST-to-com_acmeair_wxs_service_FlightServiceImpl" style="stroke:#181818;stroke-width:1.0;stroke-dasharray:7.0,7.0;"/><polygon fill="#181818" points="2643.17,370.97,2637.1339,363.1876,2638.7651,368.6042,2633.3486,370.2354,2643.17,370.97" style="stroke:#181818;stroke-width:1.0;"/><text fill="#000000" font-family="sans-serif" font-size="13" lengthAdjust="spacing" textLength="52" x="2582" y="337.0669">requires</text></g><!--link com_acmeair_web_RESTCookieSessionFilter to com_acmeair_morphia_services_CustomerServiceImpl--><g id="link_com_acmeair_web_RESTCookieSessionFilter_com_acmeair_morphia_services_CustomerServiceImpl"><path d="M259.64,258.59 C296.77,271.15 345.53,285.93 390,294 C587.22,329.79 647.22,269.1 840,324 C855.49,328.41 857.22,334.6 872,341 C897.59,352.09 920.6866,360.5566 946.2766,369.0666 " fill="none" id="com_acmeair_web_RESTCookieSessionFilter-to-com_acmeair_morphia_services_CustomerServiceImpl" style="stroke:#181818;stroke-width:1.0;stroke-dasharray:7.0,7.0;"/><polygon fill="#181818" points="951.97,370.96,944.6921,364.3243,947.2255,369.3822,942.1676,371.9156,951.97,370.96" style="stroke:#181818;stroke-width:1.0;"/><text fill="#000000" font-family="sans-serif" font-size="13" lengthAdjust="spacing" textLength="52" x="873" y="337.0669">requires</text></g><!--link com_acmeair_web_BookingsREST to com_acmeair_wxs_service_BookingServiceImpl--><g id="link_com_acmeair_web_BookingsREST_com_acmeair_wxs_service_BookingServiceImpl"><path d="M1243.96,258.52 C1277.11,275.07 1322.44,299.09 1360,324 C1381.53,338.28 1399.7015,352.8004 1416.3915,367.0104 " fill="none" id="com_acmeair_web_BookingsREST-to-com_acmeair_wxs_service_BookingServiceImpl" style="stroke:#181818;stroke-width:1.0;stroke-dasharray:7.0,7.0;"/><polygon fill="#181818" points="1420.96,370.9,1416.7004,362.0199,1417.1529,367.6586,1411.5142,368.1112,1420.96,370.9" style="stroke:#181818;stroke-width:1.0;"/><text fill="#000000" font-family="sans-serif" font-size="13" lengthAdjust="spacing" textLength="52" x="1383" y="337.0669">requires</text></g><!--link com_acmeair_web_LoginREST to com_acmeair_morphia_services_CustomerServiceImpl--><g id="link_com_acmeair_web_LoginREST_com_acmeair_morphia_services_CustomerServiceImpl"><path d="M1603.39,258.56 C1576.19,271.02 1540.35,285.72 1507,294 C1376.95,326.3 1337.47,293.44 1207,324 C1159.89,335.04 1114.0379,352.7902 1077.7479,368.4702 " fill="none" id="com_acmeair_web_LoginREST-to-com_acmeair_morphia_services_CustomerServiceImpl" style="stroke:#181818;stroke-width:1.0;stroke-dasharray:7.0,7.0;"/><polygon fill="#181818" points="1072.24,370.85,1082.0883,370.9522,1076.8299,368.8668,1078.9153,363.6084,1072.24,370.85" style="stroke:#181818;stroke-width:1.0;"/><text fill="#000000" font-family="sans-serif" font-size="13" lengthAdjust="spacing" textLength="52" x="1208" y="337.0669">requires</text></g><!--link com_acmeair_web_LoginREST to com_acmeair_wxs_service_CustomerServiceImpl--><g id="link_com_acmeair_web_LoginREST_com_acmeair_wxs_service_CustomerServiceImpl"><path d="M1605.13,258.59 C1577.81,271.49 1541.24,286.63 1507,294 C1328.95,332.31 859.53,262.8 688,324 C660.92,333.66 639.6668,350.3742 622.5668,366.6442 " fill="none" id="com_acmeair_web_LoginREST-to-com_acmeair_wxs_service_CustomerServiceImpl" style="stroke:#181818;stroke-width:1.0;stroke-dasharray:7.0,7.0;"/><polygon fill="#181818" points="618.22,370.78,627.4975,367.4741,621.8424,367.3335,621.983,361.6784,618.22,370.78" style="stroke:#181818;stroke-width:1.0;"/><text fill="#000000" font-family="sans-serif" font-size="13" lengthAdjust="spacing" textLength="52" x="689" y="337.0669">requires</text></g><!--link com_acmeair_web_RESTCookieSessionFilter to com_acmeair_wxs_utils_WXSSessionManager--><g id="link_com_acmeair_web_RESTCookieSessionFilter_com_acmeair_wxs_utils_WXSSessionManager"><path d="M199,258.59 C199,288.33 199,334.95 199,364.77 " fill="none" id="com_acmeair_web_RESTCookieSessionFilter-to-com_acmeair_wxs_utils_WXSSessionManager" style="stroke:#181818;stroke-width:1.0;stroke-dasharray:7.0,7.0;"/><polygon fill="#181818" points="199,370.77,203,361.77,199,365.77,195,361.77,199,370.77" style="stroke:#181818;stroke-width:1.0;"/><text fill="#000000" font-family="sans-serif" font-size="13" lengthAdjust="spacing" textLength="52" x="200" y="337.0669">requires</text></g><!--link com_acmeair_web_FlightsREST to com_acmeair_morphia_services_FlightServiceImpl--><g id="link_com_acmeair_web_FlightsREST_com_acmeair_morphia_services_FlightServiceImpl"><path d="M2303.14,258.79 C2300.88,276.47 2297.68,301.81 2295,324 C2293.11,339.68 2291.7319,351.4189 2290.1819,364.9689 " fill="none" id="com_acmeair_web_FlightsREST-to-com_acmeair_morphia_services_FlightServiceImpl" style="stroke:#181818;stroke-width:1.0;stroke-dasharray:7.0,7.0;"/><polygon fill="#181818" points="2289.5,370.93,2294.4969,362.4429,2290.0682,365.9624,2286.5488,361.5337,2289.5,370.93" style="stroke:#181818;stroke-width:1.0;"/><text fill="#000000" font-family="sans-serif" font-size="13" lengthAdjust="spacing" textLength="52" x="2296" y="337.0669">requires</text></g><!--link com_acmeair_loader_CustomerLoader to com_acmeair_wxs_service_CustomerServiceImpl--><g id="link_com_acmeair_loader_CustomerLoader_com_acmeair_wxs_service_CustomerServiceImpl"><path d="M531.82,258.7 C509.2,279.99 483.2,312.93 500,341 C507.56,353.62 514.1537,360.3431 526.9437,367.7831 " fill="none" id="com_acmeair_loader_CustomerLoader-to-com_acmeair_wxs_service_CustomerServiceImpl" style="stroke:#181818;stroke-width:1.0;stroke-dasharray:7.0,7.0;"/><polygon fill="#181818" points="532.13,370.8,526.3618,362.8171,527.808,368.2859,522.3392,369.7322,532.13,370.8" style="stroke:#181818;stroke-width:1.0;"/><text fill="#000000" font-family="sans-serif" font-size="13" lengthAdjust="spacing" textLength="52" x="501" y="337.0669">requires</text></g><!--link com_acmeair_web_CustomerREST to com_acmeair_morphia_services_CustomerServiceImpl--><g id="link_com_acmeair_web_CustomerREST_com_acmeair_morphia_services_CustomerServiceImpl"><path d="M948.74,258.55 C978.44,272.4 1010.92,293.53 1028,324 C1035.92,338.13 1035.6964,350.6984 1032.4664,364.9484 " fill="none" id="com_acmeair_web_CustomerREST-to-com_acmeair_morphia_services_CustomerServiceImpl" style="stroke:#181818;stroke-width:1.0;stroke-dasharray:7.0,7.0;"/><polygon fill="#181818" points="1031.14,370.8,1037.0306,362.9069,1032.2453,365.9237,1029.2285,361.1384,1031.14,370.8" style="stroke:#181818;stroke-width:1.0;"/><text fill="#000000" font-family="sans-serif" font-size="13" lengthAdjust="spacing" textLength="52" x="1034" y="337.0669">requires</text></g><!--link com_acmeair_web_RESTCookieSessionFilter to com_acmeair_wxs_service_CustomerServiceImpl--><g id="link_com_acmeair_web_RESTCookieSessionFilter_com_acmeair_wxs_service_CustomerServiceImpl"><path d="M243.88,258.51 C290.33,280.84 365.29,315.63 432,341 C460.49,351.84 486.5947,360.4975 514.6447,369.1175 " fill="none" id="com_acmeair_web_RESTCookieSessionFilter-to-com_acmeair_wxs_service_CustomerServiceImpl" style="stroke:#181818;stroke-width:1.0;stroke-dasharray:7.0,7.0;"/><polygon fill="#181818" points="520.38,370.88,512.9521,364.4127,515.6006,369.4112,510.6021,372.0598,520.38,370.88" style="stroke:#181818;stroke-width:1.0;"/><text fill="#000000" font-family="sans-serif" font-size="13" lengthAdjust="spacing" textLength="52" x="433" y="337.0669">requires</text></g><!--link com_acmeair_loader_CustomerLoader to com_acmeair_morphia_services_CustomerServiceImpl--><g id="link_com_acmeair_loader_CustomerLoader_com_acmeair_morphia_services_CustomerServiceImpl"><path d="M615.34,258.57 C647.84,270.56 689.73,284.79 728,294 C817.95,315.66 848.76,288.03 934,324 C959.94,334.95 980.5715,351.12 997.6315,366.87 " fill="none" id="com_acmeair_loader_CustomerLoader-to-com_acmeair_morphia_services_CustomerServiceImpl" style="stroke:#181818;stroke-width:1.0;stroke-dasharray:7.0,7.0;"/><polygon fill="#181818" points="1002.04,370.94,998.1405,361.896,998.3662,367.5483,992.7139,367.774,1002.04,370.94" style="stroke:#181818;stroke-width:1.0;"/><text fill="#000000" font-family="sans-serif" font-size="13" lengthAdjust="spacing" textLength="52" x="964" y="337.0669">requires</text></g><!--link com_acmeair_config_AcmeAirConfiguration to com_acmeair_morphia_services_BookingServiceImpl--><g id="link_com_acmeair_config_AcmeAirConfiguration_com_acmeair_morphia_services_BookingServiceImpl"><path d="M1959.05,258.59 C1937.57,288.33 1903.0922,336.0854 1881.5622,365.9054 " fill="none" id="com_acmeair_config_AcmeAirConfiguration-to-com_acmeair_morphia_services_BookingServiceImpl" style="stroke:#181818;stroke-width:1.0;stroke-dasharray:7.0,7.0;"/><polygon fill="#181818" points="1878.05,370.77,1886.5614,365.8146,1880.9769,366.7162,1880.0753,361.1316,1878.05,370.77" style="stroke:#181818;stroke-width:1.0;"/><text fill="#000000" font-family="sans-serif" font-size="13" lengthAdjust="spacing" textLength="52" x="1912" y="337.0669">requires</text></g><!--link com_acmeair_config_AcmeAirConfiguration to com_acmeair_wxs_service_CustomerServiceImpl--><g id="link_com_acmeair_config_AcmeAirConfiguration_com_acmeair_wxs_service_CustomerServiceImpl"><path d="M1918.07,258.61 C1881.97,271.51 1833.96,286.66 1790,294 C1568.09,331.06 995.48,266.38 778,324 C762.43,328.12 760.76,334.55 746,341 C720.77,352.03 698.0714,360.4808 672.8914,369.0308 " fill="none" id="com_acmeair_config_AcmeAirConfiguration-to-com_acmeair_wxs_service_CustomerServiceImpl" style="stroke:#181818;stroke-width:1.0;stroke-dasharray:7.0,7.0;"/><polygon fill="#181818" points="667.21,370.96,677.0182,371.8539,671.9445,369.3524,674.446,364.2787,667.21,370.96" style="stroke:#181818;stroke-width:1.0;"/><text fill="#000000" font-family="sans-serif" font-size="13" lengthAdjust="spacing" textLength="52" x="779" y="337.0669">requires</text></g><!--link com_acmeair_config_AcmeAirConfiguration to com_acmeair_morphia_services_FlightServiceImpl--><g id="link_com_acmeair_config_AcmeAirConfiguration_com_acmeair_morphia_services_FlightServiceImpl"><path d="M2019.04,258.59 C2078.42,288.38 2178.1772,338.4091 2237.5672,368.2091 " fill="none" id="com_acmeair_config_AcmeAirConfiguration-to-com_acmeair_morphia_services_FlightServiceImpl" style="stroke:#181818;stroke-width:1.0;stroke-dasharray:7.0,7.0;"/><polygon fill="#181818" points="2242.93,370.9,2236.6798,363.2885,2238.461,368.6576,2233.0919,370.4389,2242.93,370.9" style="stroke:#181818;stroke-width:1.0;"/><text fill="#000000" font-family="sans-serif" font-size="13" lengthAdjust="spacing" textLength="52" x="2178" y="337.0669">requires</text></g><!--link com_acmeair_config_AcmeAirConfiguration to com_acmeair_wxs_service_BookingServiceImpl--><g id="link_com_acmeair_config_AcmeAirConfiguration_com_acmeair_wxs_service_BookingServiceImpl"><path d="M1913.19,258.57 C1877.57,270.57 1831.71,284.79 1790,294 C1691.92,315.65 1661.11,291.69 1566,324 C1533.46,335.05 1504.8082,351.9407 1481.4582,367.6507 " fill="none" id="com_acmeair_config_AcmeAirConfiguration-to-com_acmeair_wxs_service_BookingServiceImpl" style="stroke:#181818;stroke-width:1.0;stroke-dasharray:7.0,7.0;"/><polygon fill="#181818" points="1476.48,371,1486.1801,369.2948,1480.6285,368.2089,1481.7143,362.6572,1476.48,371" style="stroke:#181818;stroke-width:1.0;"/><text fill="#000000" font-family="sans-serif" font-size="13" lengthAdjust="spacing" textLength="52" x="1567" y="337.0669">requires</text></g><!--link com_acmeair_config_AcmeAirConfiguration to com_acmeair_morphia_services_CustomerServiceImpl--><g id="link_com_acmeair_config_AcmeAirConfiguration_com_acmeair_morphia_services_CustomerServiceImpl"><path d="M1916.75,258.56 C1880.77,271.19 1833.34,286.06 1790,294 C1574.51,333.46 1509.24,265.93 1298,324 C1282.09,328.37 1280.53,335.43 1265,341 C1230.55,353.35 1198.0953,361.9858 1162.3253,369.6958 " fill="none" id="com_acmeair_config_AcmeAirConfiguration-to-com_acmeair_morphia_services_CustomerServiceImpl" style="stroke:#181818;stroke-width:1.0;stroke-dasharray:7.0,7.0;"/><polygon fill="#181818" points="1156.46,370.96,1166.1008,372.9739,1161.3477,369.9065,1164.4151,365.1535,1156.46,370.96" style="stroke:#181818;stroke-width:1.0;"/><text fill="#000000" font-family="sans-serif" font-size="13" lengthAdjust="spacing" textLength="52" x="1299" y="337.0669">requires</text></g><!--link com_acmeair_config_AcmeAirConfiguration to com_acmeair_wxs_service_FlightServiceImpl--><g id="link_com_acmeair_config_AcmeAirConfiguration_com_acmeair_wxs_service_FlightServiceImpl"><path d="M2035.79,258.62 C2071.75,270.86 2118.44,285.32 2161,294 C2288.39,319.99 2327.16,287.67 2452,324 C2468.22,328.72 2470.19,335.03 2486,341 C2517.11,352.74 2546.1186,361.3776 2577.7386,369.4976 " fill="none" id="com_acmeair_config_AcmeAirConfiguration-to-com_acmeair_wxs_service_FlightServiceImpl" style="stroke:#181818;stroke-width:1.0;stroke-dasharray:7.0,7.0;"/><polygon fill="#181818" points="2583.55,370.99,2575.8278,364.8771,2578.7071,369.7464,2573.8379,372.6257,2583.55,370.99" style="stroke:#181818;stroke-width:1.0;"/><text fill="#000000" font-family="sans-serif" font-size="13" lengthAdjust="spacing" textLength="52" x="2487" y="337.0669">requires</text></g><!--link com_acmeair_loader_FlightLoader to com_acmeair_morphia_services_FlightServiceImpl--><g id="link_com_acmeair_loader_FlightLoader_com_acmeair_morphia_services_FlightServiceImpl"><path d="M2566.06,258.56 C2515.75,274.06 2449.56,296.84 2394,324 C2366.79,337.3 2342.9711,352.6831 2322.1411,367.3031 " fill="none" id="com_acmeair_loader_FlightLoader-to-com_acmeair_morphia_services_FlightServiceImpl" style="stroke:#181818;stroke-width:1.0;stroke-dasharray:7.0,7.0;"/><polygon fill="#181818" points="2317.23,370.75,2326.8946,368.8536,2321.3226,367.8775,2322.2986,362.3055,2317.23,370.75" style="stroke:#181818;stroke-width:1.0;"/><text fill="#000000" font-family="sans-serif" font-size="13" lengthAdjust="spacing" textLength="52" x="2395" y="337.0669">requires</text></g><!--link com_acmeair_requires_SERVICE_HOST_bookings to com_acmeair_web_BookingsREST--><g id="link_com_acmeair_requires_SERVICE_HOST_bookings_com_acmeair_web_BookingsREST"><path d="M1229.58,116.31 C1225.21,132.65 1211.79,182.9 1203.92,212.35 " fill="none" id="com_acmeair_requires_SERVICE_HOST_bookings-com_acmeair_web_BookingsREST" style="stroke:#181818;stroke-width:1.0;"/></g><!--link com_acmeair_requires_SERVICE_HOST_config to com_acmeair_config_AcmeAirConfiguration--><g id="link_com_acmeair_requires_SERVICE_HOST_config_com_acmeair_config_AcmeAirConfiguration"><path d="M1493.27,111.84 C1525.17,116.19 1672.66,137.19 1790,169 C1834.39,181.03 1883.41,198.59 1919.83,212.5 " fill="none" id="com_acmeair_requires_SERVICE_HOST_config-com_acmeair_config_AcmeAirConfiguration" style="stroke:#181818;stroke-width:1.0;"/></g><!--link com_acmeair_requires_SERVICE_HOST_login to com_acmeair_web_LoginREST--><g id="link_com_acmeair_requires_SERVICE_HOST_login_com_acmeair_web_LoginREST"><path d="M1626.95,116.31 C1629.86,132.65 1638.81,182.9 1644.05,212.35 " fill="none" id="com_acmeair_requires_SERVICE_HOST_login-com_acmeair_web_LoginREST" style="stroke:#181818;stroke-width:1.0;"/></g><!--link com_acmeair_requires_SERVICE_HOST_flights to com_acmeair_web_FlightsREST--><g id="link_com_acmeair_requires_SERVICE_HOST_flights_com_acmeair_web_FlightsREST"><path d="M1949.15,112.26 C1975.14,117.68 2078.43,140.01 2160,169 C2194.95,181.42 2233.15,198.7 2261.71,212.39 " fill="none" id="com_acmeair_requires_SERVICE_HOST_flights-com_acmeair_web_FlightsREST" style="stroke:#181818;stroke-width:1.0;"/></g><!--link com_acmeair_requires_SERVICE_HOST_customer_byid to com_acmeair_web_CustomerREST--><g id="link_com_acmeair_requires_SERVICE_HOST_customer_byid_com_acmeair_web_CustomerREST"><path d="M1065.78,115.11 C1043.15,130.05 964.19,182.2 918.45,212.41 " fill="none" id="com_acmeair_requires_SERVICE_HOST_customer_byid-com_acmeair_web_CustomerREST" style="stroke:#181818;stroke-width:1.0;"/></g><!--link interface.SERVICE_HOST_bookings to com_acmeair_requires_SERVICE_HOST_bookings--><g id="link_interface.SERVICE_HOST_bookings_com_acmeair_requires_SERVICE_HOST_bookings"><path d="M1235.57,23.01 C1234.57,41.84 1232.09,88.45 1231.27,103.92 " fill="none" id="interface.SERVICE_HOST_bookings-com_acmeair_requires_SERVICE_HOST_bookings" style="stroke:#181818;stroke-width:1.0;"/></g><!--link interface.SERVICE_HOST_config to com_acmeair_requires_SERVICE_HOST_config--><g id="link_interface.SERVICE_HOST_config_com_acmeair_requires_SERVICE_HOST_config"><path d="M1460.47,23.01 C1466.28,41.84 1480.66,88.45 1485.43,103.92 " fill="none" id="interface.SERVICE_HOST_config-com_acmeair_requires_SERVICE_HOST_config" style="stroke:#181818;stroke-width:1.0;"/></g><!--link interface.SERVICE_HOST_customer_byid to com_acmeair_requires_SERVICE_HOST_customer_byid--><g id="link_interface.SERVICE_HOST_customer_byid_com_acmeair_requires_SERVICE_HOST_customer_byid"><path d="M1002.48,23.01 C1017.7,41.84 1055.39,88.45 1067.89,103.92 " fill="none" id="interface.SERVICE_HOST_customer_byid-com_acmeair_requires_SERVICE_HOST_customer_byid" style="stroke:#181818;stroke-width:1.0;"/></g><!--link interface.SERVICE_HOST_flights to com_acmeair_requires_SERVICE_HOST_flights--><g id="link_interface.SERVICE_HOST_flights_com_acmeair_requires_SERVICE_HOST_flights"><path d="M1943,23.01 C1943,41.84 1943,88.45 1943,103.92 " fill="none" id="interface.SERVICE_HOST_flights-com_acmeair_requires_SERVICE_HOST_flights" style="stroke:#181818;stroke-width:1.0;"/></g><!--link interface.SERVICE_HOST_login to com_acmeair_requires_SERVICE_HOST_login--><g id="link_interface.SERVICE_HOST_login_com_acmeair_requires_SERVICE_HOST_login"><path d="M1651.61,23.01 C1646.01,41.84 1632.12,88.45 1627.51,103.92 " fill="none" id="interface.SERVICE_HOST_login-com_acmeair_requires_SERVICE_HOST_login" style="stroke:#181818;stroke-width:1.0;"/></g><!--link com_acmeair_config_LoaderREST to com_acmeair_loader_Loader--><g id="link_com_acmeair_config_LoaderREST_com_acmeair_loader_Loader"><path d="M3198,258.59 C3198,288.33 3198,334.95 3198,364.77 " fill="none" id="com_acmeair_config_LoaderREST-to-com_acmeair_loader_Loader" style="stroke:#181818;stroke-width:1.0;stroke-dasharray:7.0,7.0;"/><polygon fill="#181818" points="3198,370.77,3202,361.77,3198,365.77,3194,361.77,3198,370.77" style="stroke:#181818;stroke-width:1.0;"/><text fill="#000000" font-family="sans-serif" font-size="13" lengthAdjust="spacing" textLength="52" x="3199" y="337.0669">requires</text></g><!--link com_acmeair_2_requires_SERVICE_HOST_loader to com_acmeair_config_LoaderREST--><g id="link_com_acmeair_2_requires_SERVICE_HOST_loader_com_acmeair_config_LoaderREST"><path d="M3027.3,115.4 C3049.22,130.69 3123.19,182.3 3166.22,212.33 " fill="none" id="com_acmeair_2_requires_SERVICE_HOST_loader-com_acmeair_config_LoaderREST" style="stroke:#181818;stroke-width:1.0;"/></g><!--link interface.SERVICE_HOST_loader to com_acmeair_2_requires_SERVICE_HOST_loader--><g id="link_interface.SERVICE_HOST_loader_com_acmeair_2_requires_SERVICE_HOST_loader"><path d="M3021,23.01 C3021,41.84 3021,88.45 3021,103.92 " fill="none" id="interface.SERVICE_HOST_loader-com_acmeair_2_requires_SERVICE_HOST_loader" style="stroke:#181818;stroke-width:1.0;"/></g><!--SRC=[lLVVRziW47xFNu7ydbJAunugTL6gLSfKgQwsITja4PUug1WyiBjMK__t-GTsRSSSu6IJNqA0xpw-EuuxzKHvXYLEqO6-RAYC6TdXFM6tpqGod6MK9oYN1LceRc4iqanmmlCmVsK45IbRBxh_K53-Z72S4apb3_x-1UZFudjlBc82Fn0PRGgLYvJ8NJtyELoJ2fazKXmf8fzfJ5JqKOYIHn8suviqOwCTlyc-WxpRXlVZwHVLWjcnDCDhHfF7V99V1LVabAdewxSm94fHmJzZZfFZbIKlRL1PU3NspBHYmGyqYQxAuHMLctfKI9oNjW7KLXHOkiRs5CCZLxW1LaYRwjn4otDDMJwfpauabBiOdj0d4pAd70NbXnNgxvRaLq5bkIlStdsvsMoZJxVXVNHeZkczRwyzwBqnrc95-rVwuBsRLTBuswmZmt8zLgjBhv117r1hpNvP8F1ZBngXZ-xE6DSbJO3e_R0_8sbJy5lvUoblbSUIz43WzrjvVj9cxDbHwACwbBndHuj3jh9TeT6BU5PjmBj_kaTzf3yborWaEkqWqFjwripZOsYsOYUTnYDuvnxcNmds_s9WvWFXyc1wEYHmhs22vT9IdmQk5SOO2gnF0yTgPufVhq8Cd6kyAQ11bHjuLczJWCEEusr1UPdr3ZWcAD10omheebE_gk2wHQlf6jColrpwkDj8IViG8AJhI73MYOmsPQQYLRoePOOO3QffbqLk_0PkDj9i0miWsFONyBGJgTQQaKvpNG0oJVS0JJeHQUmOEdsq1djzdHAQB3VHu-bSsFROvavdRIHNxRGP7QVNeLbZ9eMD6j9V_wnlWFDg2D1xzSd0sP7_B7mNVm40]--></g></svg>