<?xml version="1.0" encoding="us-ascii" standalone="no"?><svg xmlns="http://www.w3.org/2000/svg" xmlns:xlink="http://www.w3.org/1999/xlink" contentStyleType="text/css" height="125px" preserveAspectRatio="none" style="width:2705px;height:125px;background:#FFFFFF;" version="1.1" viewBox="0 0 2705 125" width="2705px" zoomAndPan="magnify"><defs/><g><!--cluster Placeholder_5--><g id="cluster_Placeholder_5"><polygon fill="none" points="1568.5,16,1578.5,6,2688.5,6,2688.5,98,2678.5,108,1568.5,108,1568.5,16" style="stroke:#181818;stroke-width:1.0;"/><line style="stroke:#181818;stroke-width:1.0;" x1="2678.5" x2="2688.5" y1="16" y2="6"/><line style="stroke:#181818;stroke-width:1.0;" x1="1568.5" x2="2678.5" y1="16" y2="16"/><line style="stroke:#181818;stroke-width:1.0;" x1="2678.5" x2="2678.5" y1="16" y2="108"/><text fill="#000000" font-family="sans-serif" font-size="14" font-weight="bold" lengthAdjust="spacing" textLength="110" x="2069.5" y="31.9951">Placeholder_5</text></g><!--entity aName--><g id="elem_aName"><a href="anilallewar-microservices-basics-spring-boot.system#_T8L5gLxEEe6sGrw6nNvNWA" target="_top" title="anilallewar-microservices-basics-spring-boot.system#_T8L5gLxEEe6sGrw6nNvNWA" xlink:actuate="onRequest" xlink:href="anilallewar-microservices-basics-spring-boot.system#_T8L5gLxEEe6sGrw6nNvNWA" xlink:show="new" xlink:title="anilallewar-microservices-basics-spring-boot.system#_T8L5gLxEEe6sGrw6nNvNWA" xlink:type="simple"><rect fill="#F1F1F1" height="46.2969" rx="2.5" ry="2.5" style="stroke:#181818;stroke-width:0.5;" width="88" x="1584.5" y="46"/><rect fill="#F1F1F1" height="10" style="stroke:#181818;stroke-width:0.5;" width="15" x="1652.5" y="51"/><rect fill="#F1F1F1" height="2" style="stroke:#181818;stroke-width:0.5;" width="4" x="1650.5" y="53"/><rect fill="#F1F1F1" height="2" style="stroke:#181818;stroke-width:0.5;" width="4" x="1650.5" y="57"/><text fill="#000000" font-family="sans-serif" font-size="14" lengthAdjust="spacing" textLength="48" x="1599.5" y="78.9951">aName</text></a></g><!--entity Placeholder_7--><g id="elem_Placeholder_7"><polygon fill="#F1F1F1" points="16,56,26,46,153,46,153,82.2969,143,92.2969,16,92.2969,16,56" style="stroke:#181818;stroke-width:0.5;"/><line style="stroke:#181818;stroke-width:0.5;" x1="143" x2="153" y1="56" y2="46"/><line style="stroke:#181818;stroke-width:0.5;" x1="16" x2="143" y1="56" y2="56"/><line style="stroke:#181818;stroke-width:0.5;" x1="143" x2="143" y1="56" y2="92.2969"/><text fill="#000000" font-family="sans-serif" font-size="14" lengthAdjust="spacing" textLength="97" x="31" y="78.9951">Placeholder_7</text></g><!--entity Placeholder_11--><g id="elem_Placeholder_11"><polygon fill="#F1F1F1" points="188.5,56,198.5,46,334.5,46,334.5,82.2969,324.5,92.2969,188.5,92.2969,188.5,56" style="stroke:#181818;stroke-width:0.5;"/><line style="stroke:#181818;stroke-width:0.5;" x1="324.5" x2="334.5" y1="56" y2="46"/><line style="stroke:#181818;stroke-width:0.5;" x1="188.5" x2="324.5" y1="56" y2="56"/><line style="stroke:#181818;stroke-width:0.5;" x1="324.5" x2="324.5" y1="56" y2="92.2969"/><text fill="#000000" font-family="sans-serif" font-size="14" lengthAdjust="spacing" textLength="106" x="203.5" y="78.9951">Placeholder_11</text></g><!--entity Placeholder_1--><g id="elem_Placeholder_1"><polygon fill="#F1F1F1" points="370,56,380,46,507,46,507,82.2969,497,92.2969,370,92.2969,370,56" style="stroke:#181818;stroke-width:0.5;"/><line style="stroke:#181818;stroke-width:0.5;" x1="497" x2="507" y1="56" y2="46"/><line style="stroke:#181818;stroke-width:0.5;" x1="370" x2="497" y1="56" y2="56"/><line style="stroke:#181818;stroke-width:0.5;" x1="497" x2="497" y1="56" y2="92.2969"/><text fill="#000000" font-family="sans-serif" font-size="14" lengthAdjust="spacing" textLength="97" x="385" y="78.9951">Placeholder_1</text></g><!--entity Placeholder_2--><g id="elem_Placeholder_2"><polygon fill="#F1F1F1" points="542,56,552,46,679,46,679,82.2969,669,92.2969,542,92.2969,542,56" style="stroke:#181818;stroke-width:0.5;"/><line style="stroke:#181818;stroke-width:0.5;" x1="669" x2="679" y1="56" y2="46"/><line style="stroke:#181818;stroke-width:0.5;" x1="542" x2="669" y1="56" y2="56"/><line style="stroke:#181818;stroke-width:0.5;" x1="669" x2="669" y1="56" y2="92.2969"/><text fill="#000000" font-family="sans-serif" font-size="14" lengthAdjust="spacing" textLength="97" x="557" y="78.9951">Placeholder_2</text></g><!--entity Placeholder_10--><g id="elem_Placeholder_10"><polygon fill="#F1F1F1" points="714.5,56,724.5,46,860.5,46,860.5,82.2969,850.5,92.2969,714.5,92.2969,714.5,56" style="stroke:#181818;stroke-width:0.5;"/><line style="stroke:#181818;stroke-width:0.5;" x1="850.5" x2="860.5" y1="56" y2="46"/><line style="stroke:#181818;stroke-width:0.5;" x1="714.5" x2="850.5" y1="56" y2="56"/><line style="stroke:#181818;stroke-width:0.5;" x1="850.5" x2="850.5" y1="56" y2="92.2969"/><text fill="#000000" font-family="sans-serif" font-size="14" lengthAdjust="spacing" textLength="106" x="729.5" y="78.9951">Placeholder_10</text></g><!--entity Placeholder_9--><g id="elem_Placeholder_9"><polygon fill="#F1F1F1" points="896,56,906,46,1033,46,1033,82.2969,1023,92.2969,896,92.2969,896,56" style="stroke:#181818;stroke-width:0.5;"/><line style="stroke:#181818;stroke-width:0.5;" x1="1023" x2="1033" y1="56" y2="46"/><line style="stroke:#181818;stroke-width:0.5;" x1="896" x2="1023" y1="56" y2="56"/><line style="stroke:#181818;stroke-width:0.5;" x1="1023" x2="1023" y1="56" y2="92.2969"/><text fill="#000000" font-family="sans-serif" font-size="14" lengthAdjust="spacing" textLength="97" x="911" y="78.9951">Placeholder_9</text></g><!--entity Placeholder_6--><g id="elem_Placeholder_6"><polygon fill="#F1F1F1" points="1068,56,1078,46,1205,46,1205,82.2969,1195,92.2969,1068,92.2969,1068,56" style="stroke:#181818;stroke-width:0.5;"/><line style="stroke:#181818;stroke-width:0.5;" x1="1195" x2="1205" y1="56" y2="46"/><line style="stroke:#181818;stroke-width:0.5;" x1="1068" x2="1195" y1="56" y2="56"/><line style="stroke:#181818;stroke-width:0.5;" x1="1195" x2="1195" y1="56" y2="92.2969"/><text fill="#000000" font-family="sans-serif" font-size="14" lengthAdjust="spacing" textLength="97" x="1083" y="78.9951">Placeholder_6</text></g><!--entity Placeholder_3--><g id="elem_Placeholder_3"><polygon fill="#F1F1F1" points="1240,56,1250,46,1377,46,1377,82.2969,1367,92.2969,1240,92.2969,1240,56" style="stroke:#181818;stroke-width:0.5;"/><line style="stroke:#181818;stroke-width:0.5;" x1="1367" x2="1377" y1="56" y2="46"/><line style="stroke:#181818;stroke-width:0.5;" x1="1240" x2="1367" y1="56" y2="56"/><line style="stroke:#181818;stroke-width:0.5;" x1="1367" x2="1367" y1="56" y2="92.2969"/><text fill="#000000" font-family="sans-serif" font-size="14" lengthAdjust="spacing" textLength="97" x="1255" y="78.9951">Placeholder_3</text></g><!--entity Placeholder_0--><g id="elem_Placeholder_0"><polygon fill="#F1F1F1" points="1412,56,1422,46,1549,46,1549,82.2969,1539,92.2969,1412,92.2969,1412,56" style="stroke:#181818;stroke-width:0.5;"/><line style="stroke:#181818;stroke-width:0.5;" x1="1539" x2="1549" y1="56" y2="46"/><line style="stroke:#181818;stroke-width:0.5;" x1="1412" x2="1539" y1="56" y2="56"/><line style="stroke:#181818;stroke-width:0.5;" x1="1539" x2="1539" y1="56" y2="92.2969"/><text fill="#000000" font-family="sans-serif" font-size="14" lengthAdjust="spacing" textLength="97" x="1427" y="78.9951">Placeholder_0</text></g><!--link aName to aName--><g id="link_aName_aName"><path d="M1672.77,64.73 C1691.52,64.41 1707.5,65.83 1707.5,69 C1707.5,72.17 1691.52,73.59 1672.77,73.27 " fill="none" id="aName-aName" style="stroke:#181818;stroke-width:1.0;"/><text fill="#000000" font-family="sans-serif" font-size="13" lengthAdjust="spacing" textLength="447" x="1720.5" y="73.5669">com_anilallewar_microservices_task_apis_CommentsService_Provider</text><path d="M1665.5793,57.7806 A10,10 0 0 0 1665.8206 71.9207" fill="none" style="stroke:#181818;stroke-width:1.5;"/><ellipse cx="1672.77" cy="64.73" fill="#FFFFFF" rx="6" ry="6" style="stroke:#181818;stroke-width:1.5;"/></g><!--link aName to aName--><g id="link_aName_aName"><path d="M1672.73,64.69 C1806.06,57.75 2180.5,59.18 2180.5,69 C2180.5,78.82 1806.06,80.25 1672.73,73.31 " fill="none" id="aName-aName-1" style="stroke:#181818;stroke-width:1.0;"/><text fill="#000000" font-family="sans-serif" font-size="13" lengthAdjust="spacing" textLength="465" x="2193.5" y="73.5669">com_anilallewar_microservices_task_apis_OAuth2RestTemplate_Provider</text><path d="M1665.3009,57.9961 A10,10 0 0 0 1666.0361 72.1191" fill="none" style="stroke:#181818;stroke-width:1.5;"/><ellipse cx="1672.73" cy="64.69" fill="#FFFFFF" rx="6" ry="6" style="stroke:#181818;stroke-width:1.5;"/></g><!--SRC=[lT5DQm8n483X-_wAW9TUKjJYjlOc8hqigxH23yiIPkDKW_bY9gwMqlzUeGYM7ajp30FlCqDuRtm40YVUp6bkI5kie4Exx94in6ZyLYGwOE731iNAWiPTi1iaDH4VHGCrE6n5qu0t5gp58v1qHbDWfDvePDa16ysI8vrRiWiXtV8x9tG3jNwe9jlgj5XWoKzqB7tTrw-pjYq-VtFtURdHABENbnjdlcwOrvlcvSgyt5rUxd__xbAMDqCfBez7eODJLvJwGQa4l5SG3QjvS0vzufVlaLfHwCrvwxzsbxD3sesVaTCQNRIGhj9V]--></g></svg>