<?xml version="1.0" encoding="us-ascii" standalone="no"?><svg xmlns="http://www.w3.org/2000/svg" xmlns:xlink="http://www.w3.org/1999/xlink" contentStyleType="text/css" height="125px" preserveAspectRatio="none" style="width:2714px;height:125px;background:#FFFFFF;" version="1.1" viewBox="0 0 2714 125" width="2714px" zoomAndPan="magnify"><defs/><g><!--cluster Placeholder_6--><g id="cluster_Placeholder_6"><polygon fill="none" points="1577.5,16,1587.5,6,2697.5,6,2697.5,98,2687.5,108,1577.5,108,1577.5,16" style="stroke:#181818;stroke-width:1.0;"/><line style="stroke:#181818;stroke-width:1.0;" x1="2687.5" x2="2697.5" y1="16" y2="6"/><line style="stroke:#181818;stroke-width:1.0;" x1="1577.5" x2="2687.5" y1="16" y2="16"/><line style="stroke:#181818;stroke-width:1.0;" x1="2687.5" x2="2687.5" y1="16" y2="108"/><text fill="#000000" font-family="sans-serif" font-size="14" font-weight="bold" lengthAdjust="spacing" textLength="110" x="2078.5" y="31.9951">Placeholder_6</text></g><!--entity aName--><g id="elem_aName"><a href="anilallewar-microservices-basics-spring-boot.system#_k5e78L8UEe65steytpoKmw" target="_top" title="anilallewar-microservices-basics-spring-boot.system#_k5e78L8UEe65steytpoKmw" xlink:actuate="onRequest" xlink:href="anilallewar-microservices-basics-spring-boot.system#_k5e78L8UEe65steytpoKmw" xlink:show="new" xlink:title="anilallewar-microservices-basics-spring-boot.system#_k5e78L8UEe65steytpoKmw" xlink:type="simple"><rect fill="#F1F1F1" height="46.2969" rx="2.5" ry="2.5" style="stroke:#181818;stroke-width:0.5;" width="88" x="1593.5" y="46"/><rect fill="#F1F1F1" height="10" style="stroke:#181818;stroke-width:0.5;" width="15" x="1661.5" y="51"/><rect fill="#F1F1F1" height="2" style="stroke:#181818;stroke-width:0.5;" width="4" x="1659.5" y="53"/><rect fill="#F1F1F1" height="2" style="stroke:#181818;stroke-width:0.5;" width="4" x="1659.5" y="57"/><text fill="#000000" font-family="sans-serif" font-size="14" lengthAdjust="spacing" textLength="48" x="1608.5" y="78.9951">aName</text></a></g><!--entity Placeholder_5--><g id="elem_Placeholder_5"><polygon fill="#F1F1F1" points="16,56,26,46,153,46,153,82.2969,143,92.2969,16,92.2969,16,56" style="stroke:#181818;stroke-width:0.5;"/><line style="stroke:#181818;stroke-width:0.5;" x1="143" x2="153" y1="56" y2="46"/><line style="stroke:#181818;stroke-width:0.5;" x1="16" x2="143" y1="56" y2="56"/><line style="stroke:#181818;stroke-width:0.5;" x1="143" x2="143" y1="56" y2="92.2969"/><text fill="#000000" font-family="sans-serif" font-size="14" lengthAdjust="spacing" textLength="97" x="31" y="78.9951">Placeholder_5</text></g><!--entity Placeholder_2--><g id="elem_Placeholder_2"><polygon fill="#F1F1F1" points="188,56,198,46,325,46,325,82.2969,315,92.2969,188,92.2969,188,56" style="stroke:#181818;stroke-width:0.5;"/><line style="stroke:#181818;stroke-width:0.5;" x1="315" x2="325" y1="56" y2="46"/><line style="stroke:#181818;stroke-width:0.5;" x1="188" x2="315" y1="56" y2="56"/><line style="stroke:#181818;stroke-width:0.5;" x1="315" x2="315" y1="56" y2="92.2969"/><text fill="#000000" font-family="sans-serif" font-size="14" lengthAdjust="spacing" textLength="97" x="203" y="78.9951">Placeholder_2</text></g><!--entity Placeholder_3--><g id="elem_Placeholder_3"><polygon fill="#F1F1F1" points="360,56,370,46,497,46,497,82.2969,487,92.2969,360,92.2969,360,56" style="stroke:#181818;stroke-width:0.5;"/><line style="stroke:#181818;stroke-width:0.5;" x1="487" x2="497" y1="56" y2="46"/><line style="stroke:#181818;stroke-width:0.5;" x1="360" x2="487" y1="56" y2="56"/><line style="stroke:#181818;stroke-width:0.5;" x1="487" x2="487" y1="56" y2="92.2969"/><text fill="#000000" font-family="sans-serif" font-size="14" lengthAdjust="spacing" textLength="97" x="375" y="78.9951">Placeholder_3</text></g><!--entity Placeholder_8--><g id="elem_Placeholder_8"><polygon fill="#F1F1F1" points="532,56,542,46,669,46,669,82.2969,659,92.2969,532,92.2969,532,56" style="stroke:#181818;stroke-width:0.5;"/><line style="stroke:#181818;stroke-width:0.5;" x1="659" x2="669" y1="56" y2="46"/><line style="stroke:#181818;stroke-width:0.5;" x1="532" x2="659" y1="56" y2="56"/><line style="stroke:#181818;stroke-width:0.5;" x1="659" x2="659" y1="56" y2="92.2969"/><text fill="#000000" font-family="sans-serif" font-size="14" lengthAdjust="spacing" textLength="97" x="547" y="78.9951">Placeholder_8</text></g><!--entity Placeholder_14--><g id="elem_Placeholder_14"><polygon fill="#F1F1F1" points="704.5,56,714.5,46,850.5,46,850.5,82.2969,840.5,92.2969,704.5,92.2969,704.5,56" style="stroke:#181818;stroke-width:0.5;"/><line style="stroke:#181818;stroke-width:0.5;" x1="840.5" x2="850.5" y1="56" y2="46"/><line style="stroke:#181818;stroke-width:0.5;" x1="704.5" x2="840.5" y1="56" y2="56"/><line style="stroke:#181818;stroke-width:0.5;" x1="840.5" x2="840.5" y1="56" y2="92.2969"/><text fill="#000000" font-family="sans-serif" font-size="14" lengthAdjust="spacing" textLength="106" x="719.5" y="78.9951">Placeholder_14</text></g><!--entity Placeholder_9--><g id="elem_Placeholder_9"><polygon fill="#F1F1F1" points="886,56,896,46,1023,46,1023,82.2969,1013,92.2969,886,92.2969,886,56" style="stroke:#181818;stroke-width:0.5;"/><line style="stroke:#181818;stroke-width:0.5;" x1="1013" x2="1023" y1="56" y2="46"/><line style="stroke:#181818;stroke-width:0.5;" x1="886" x2="1013" y1="56" y2="56"/><line style="stroke:#181818;stroke-width:0.5;" x1="1013" x2="1013" y1="56" y2="92.2969"/><text fill="#000000" font-family="sans-serif" font-size="14" lengthAdjust="spacing" textLength="97" x="901" y="78.9951">Placeholder_9</text></g><!--entity Placeholder_11--><g id="elem_Placeholder_11"><polygon fill="#F1F1F1" points="1058.5,56,1068.5,46,1204.5,46,1204.5,82.2969,1194.5,92.2969,1058.5,92.2969,1058.5,56" style="stroke:#181818;stroke-width:0.5;"/><line style="stroke:#181818;stroke-width:0.5;" x1="1194.5" x2="1204.5" y1="56" y2="46"/><line style="stroke:#181818;stroke-width:0.5;" x1="1058.5" x2="1194.5" y1="56" y2="56"/><line style="stroke:#181818;stroke-width:0.5;" x1="1194.5" x2="1194.5" y1="56" y2="92.2969"/><text fill="#000000" font-family="sans-serif" font-size="14" lengthAdjust="spacing" textLength="106" x="1073.5" y="78.9951">Placeholder_11</text></g><!--entity Placeholder_4--><g id="elem_Placeholder_4"><polygon fill="#F1F1F1" points="1240,56,1250,46,1377,46,1377,82.2969,1367,92.2969,1240,92.2969,1240,56" style="stroke:#181818;stroke-width:0.5;"/><line style="stroke:#181818;stroke-width:0.5;" x1="1367" x2="1377" y1="56" y2="46"/><line style="stroke:#181818;stroke-width:0.5;" x1="1240" x2="1367" y1="56" y2="56"/><line style="stroke:#181818;stroke-width:0.5;" x1="1367" x2="1367" y1="56" y2="92.2969"/><text fill="#000000" font-family="sans-serif" font-size="14" lengthAdjust="spacing" textLength="97" x="1255" y="78.9951">Placeholder_4</text></g><!--entity Placeholder_10--><g id="elem_Placeholder_10"><polygon fill="#F1F1F1" points="1412.5,56,1422.5,46,1558.5,46,1558.5,82.2969,1548.5,92.2969,1412.5,92.2969,1412.5,56" style="stroke:#181818;stroke-width:0.5;"/><line style="stroke:#181818;stroke-width:0.5;" x1="1548.5" x2="1558.5" y1="56" y2="46"/><line style="stroke:#181818;stroke-width:0.5;" x1="1412.5" x2="1548.5" y1="56" y2="56"/><line style="stroke:#181818;stroke-width:0.5;" x1="1548.5" x2="1548.5" y1="56" y2="92.2969"/><text fill="#000000" font-family="sans-serif" font-size="14" lengthAdjust="spacing" textLength="106" x="1427.5" y="78.9951">Placeholder_10</text></g><!--link aName to aName--><g id="link_aName_aName"><path d="M1681.77,64.73 C1700.52,64.41 1716.5,65.83 1716.5,69 C1716.5,72.17 1700.52,73.59 1681.77,73.27 " fill="none" id="aName-aName" style="stroke:#181818;stroke-width:1.0;"/><text fill="#000000" font-family="sans-serif" font-size="13" lengthAdjust="spacing" textLength="447" x="1729.5" y="73.5669">com_anilallewar_microservices_task_apis_CommentsService_Provider</text><path d="M1674.5793,57.7806 A10,10 0 0 0 1674.8206 71.9207" fill="none" style="stroke:#181818;stroke-width:1.5;"/><ellipse cx="1681.77" cy="64.73" fill="#FFFFFF" rx="6" ry="6" style="stroke:#181818;stroke-width:1.5;"/></g><!--link aName to aName--><g id="link_aName_aName"><path d="M1681.73,64.69 C1815.06,57.75 2189.5,59.18 2189.5,69 C2189.5,78.82 1815.06,80.25 1681.73,73.31 " fill="none" id="aName-aName-1" style="stroke:#181818;stroke-width:1.0;"/><text fill="#000000" font-family="sans-serif" font-size="13" lengthAdjust="spacing" textLength="465" x="2202.5" y="73.5669">com_anilallewar_microservices_task_apis_OAuth2RestTemplate_Provider</text><path d="M1674.3009,57.9961 A10,10 0 0 0 1675.0361 72.1191" fill="none" style="stroke:#181818;stroke-width:1.5;"/><ellipse cx="1681.73" cy="64.69" fill="#FFFFFF" rx="6" ry="6" style="stroke:#181818;stroke-width:1.5;"/></g><!--SRC=[lT1DImD130RW-_wA0IzUHhhLhQitAPuijlXnMfOXEuqsx7mncMujudztGGeLZyKv9e7tIS8zkG0Hh7YZZpb5RN017PhbWD502EJUHOfRB9nVerWPqBZnPerHpSHdqS0ZM6n5qu0Z0yRW3gAqfADdZ0DfPDa1asR98OvPilC-NV2U4zeprLTuNI_grtkSLMDddu9_iBksBRx-SbLURfgNkypBrNcvyYglTvFvl3Alb_cRvUHVlKEoF9z8SIXkXVPM7L7g5wKISAyW4AkvjnPTukUVaLf5Fz2uzgcvoxjjsaoVaDCBsc0W7KL_0m00]--></g></svg>