<?xml version="1.0" encoding="us-ascii" standalone="no"?><svg xmlns="http://www.w3.org/2000/svg" xmlns:xlink="http://www.w3.org/1999/xlink" contentStyleType="text/css" height="125px" preserveAspectRatio="none" style="width:2704px;height:125px;background:#FFFFFF;" version="1.1" viewBox="0 0 2704 125" width="2704px" zoomAndPan="magnify"><defs/><g><!--cluster Placeholder_9--><g id="cluster_Placeholder_9"><polygon fill="none" points="1567.5,16,1577.5,6,2687.5,6,2687.5,98,2677.5,108,1567.5,108,1567.5,16" style="stroke:#181818;stroke-width:1.0;"/><line style="stroke:#181818;stroke-width:1.0;" x1="2677.5" x2="2687.5" y1="16" y2="6"/><line style="stroke:#181818;stroke-width:1.0;" x1="1567.5" x2="2677.5" y1="16" y2="16"/><line style="stroke:#181818;stroke-width:1.0;" x1="2677.5" x2="2677.5" y1="16" y2="108"/><text fill="#000000" font-family="sans-serif" font-size="14" font-weight="bold" lengthAdjust="spacing" textLength="110" x="2068.5" y="31.9951">Placeholder_9</text></g><!--entity aName--><g id="elem_aName"><a href="anilallewar-microservices-basics-spring-boot.system#_2ctIwL_dEe6i98w7u7VanQ" target="_top" title="anilallewar-microservices-basics-spring-boot.system#_2ctIwL_dEe6i98w7u7VanQ" xlink:actuate="onRequest" xlink:href="anilallewar-microservices-basics-spring-boot.system#_2ctIwL_dEe6i98w7u7VanQ" xlink:show="new" xlink:title="anilallewar-microservices-basics-spring-boot.system#_2ctIwL_dEe6i98w7u7VanQ" xlink:type="simple"><rect fill="#F1F1F1" height="46.2969" rx="2.5" ry="2.5" style="stroke:#181818;stroke-width:0.5;" width="88" x="1583.5" y="46"/><rect fill="#F1F1F1" height="10" style="stroke:#181818;stroke-width:0.5;" width="15" x="1651.5" y="51"/><rect fill="#F1F1F1" height="2" style="stroke:#181818;stroke-width:0.5;" width="4" x="1649.5" y="53"/><rect fill="#F1F1F1" height="2" style="stroke:#181818;stroke-width:0.5;" width="4" x="1649.5" y="57"/><text fill="#000000" font-family="sans-serif" font-size="14" lengthAdjust="spacing" textLength="48" x="1598.5" y="78.9951">aName</text></a></g><!--entity Placeholder_1--><g id="elem_Placeholder_1"><polygon fill="#F1F1F1" points="16,56,26,46,153,46,153,82.2969,143,92.2969,16,92.2969,16,56" style="stroke:#181818;stroke-width:0.5;"/><line style="stroke:#181818;stroke-width:0.5;" x1="143" x2="153" y1="56" y2="46"/><line style="stroke:#181818;stroke-width:0.5;" x1="16" x2="143" y1="56" y2="56"/><line style="stroke:#181818;stroke-width:0.5;" x1="143" x2="143" y1="56" y2="92.2969"/><text fill="#000000" font-family="sans-serif" font-size="14" lengthAdjust="spacing" textLength="97" x="31" y="78.9951">Placeholder_1</text></g><!--entity Placeholder_7--><g id="elem_Placeholder_7"><polygon fill="#F1F1F1" points="188,56,198,46,325,46,325,82.2969,315,92.2969,188,92.2969,188,56" style="stroke:#181818;stroke-width:0.5;"/><line style="stroke:#181818;stroke-width:0.5;" x1="315" x2="325" y1="56" y2="46"/><line style="stroke:#181818;stroke-width:0.5;" x1="188" x2="315" y1="56" y2="56"/><line style="stroke:#181818;stroke-width:0.5;" x1="315" x2="315" y1="56" y2="92.2969"/><text fill="#000000" font-family="sans-serif" font-size="14" lengthAdjust="spacing" textLength="97" x="203" y="78.9951">Placeholder_7</text></g><!--entity Placeholder_8--><g id="elem_Placeholder_8"><polygon fill="#F1F1F1" points="360,56,370,46,497,46,497,82.2969,487,92.2969,360,92.2969,360,56" style="stroke:#181818;stroke-width:0.5;"/><line style="stroke:#181818;stroke-width:0.5;" x1="487" x2="497" y1="56" y2="46"/><line style="stroke:#181818;stroke-width:0.5;" x1="360" x2="487" y1="56" y2="56"/><line style="stroke:#181818;stroke-width:0.5;" x1="487" x2="487" y1="56" y2="92.2969"/><text fill="#000000" font-family="sans-serif" font-size="14" lengthAdjust="spacing" textLength="97" x="375" y="78.9951">Placeholder_8</text></g><!--entity Placeholder_6--><g id="elem_Placeholder_6"><polygon fill="#F1F1F1" points="532,56,542,46,669,46,669,82.2969,659,92.2969,532,92.2969,532,56" style="stroke:#181818;stroke-width:0.5;"/><line style="stroke:#181818;stroke-width:0.5;" x1="659" x2="669" y1="56" y2="46"/><line style="stroke:#181818;stroke-width:0.5;" x1="532" x2="659" y1="56" y2="56"/><line style="stroke:#181818;stroke-width:0.5;" x1="659" x2="659" y1="56" y2="92.2969"/><text fill="#000000" font-family="sans-serif" font-size="14" lengthAdjust="spacing" textLength="97" x="547" y="78.9951">Placeholder_6</text></g><!--entity Placeholder_11--><g id="elem_Placeholder_11"><polygon fill="#F1F1F1" points="704.5,56,714.5,46,850.5,46,850.5,82.2969,840.5,92.2969,704.5,92.2969,704.5,56" style="stroke:#181818;stroke-width:0.5;"/><line style="stroke:#181818;stroke-width:0.5;" x1="840.5" x2="850.5" y1="56" y2="46"/><line style="stroke:#181818;stroke-width:0.5;" x1="704.5" x2="840.5" y1="56" y2="56"/><line style="stroke:#181818;stroke-width:0.5;" x1="840.5" x2="840.5" y1="56" y2="92.2969"/><text fill="#000000" font-family="sans-serif" font-size="14" lengthAdjust="spacing" textLength="106" x="719.5" y="78.9951">Placeholder_11</text></g><!--entity Placeholder_4--><g id="elem_Placeholder_4"><polygon fill="#F1F1F1" points="886,56,896,46,1023,46,1023,82.2969,1013,92.2969,886,92.2969,886,56" style="stroke:#181818;stroke-width:0.5;"/><line style="stroke:#181818;stroke-width:0.5;" x1="1013" x2="1023" y1="56" y2="46"/><line style="stroke:#181818;stroke-width:0.5;" x1="886" x2="1013" y1="56" y2="56"/><line style="stroke:#181818;stroke-width:0.5;" x1="1013" x2="1013" y1="56" y2="92.2969"/><text fill="#000000" font-family="sans-serif" font-size="14" lengthAdjust="spacing" textLength="97" x="901" y="78.9951">Placeholder_4</text></g><!--entity Placeholder_5--><g id="elem_Placeholder_5"><polygon fill="#F1F1F1" points="1058,56,1068,46,1195,46,1195,82.2969,1185,92.2969,1058,92.2969,1058,56" style="stroke:#181818;stroke-width:0.5;"/><line style="stroke:#181818;stroke-width:0.5;" x1="1185" x2="1195" y1="56" y2="46"/><line style="stroke:#181818;stroke-width:0.5;" x1="1058" x2="1185" y1="56" y2="56"/><line style="stroke:#181818;stroke-width:0.5;" x1="1185" x2="1185" y1="56" y2="92.2969"/><text fill="#000000" font-family="sans-serif" font-size="14" lengthAdjust="spacing" textLength="97" x="1073" y="78.9951">Placeholder_5</text></g><!--entity Placeholder_0--><g id="elem_Placeholder_0"><polygon fill="#F1F1F1" points="1230,56,1240,46,1367,46,1367,82.2969,1357,92.2969,1230,92.2969,1230,56" style="stroke:#181818;stroke-width:0.5;"/><line style="stroke:#181818;stroke-width:0.5;" x1="1357" x2="1367" y1="56" y2="46"/><line style="stroke:#181818;stroke-width:0.5;" x1="1230" x2="1357" y1="56" y2="56"/><line style="stroke:#181818;stroke-width:0.5;" x1="1357" x2="1357" y1="56" y2="92.2969"/><text fill="#000000" font-family="sans-serif" font-size="14" lengthAdjust="spacing" textLength="97" x="1245" y="78.9951">Placeholder_0</text></g><!--entity Placeholder_10--><g id="elem_Placeholder_10"><polygon fill="#F1F1F1" points="1402.5,56,1412.5,46,1548.5,46,1548.5,82.2969,1538.5,92.2969,1402.5,92.2969,1402.5,56" style="stroke:#181818;stroke-width:0.5;"/><line style="stroke:#181818;stroke-width:0.5;" x1="1538.5" x2="1548.5" y1="56" y2="46"/><line style="stroke:#181818;stroke-width:0.5;" x1="1402.5" x2="1538.5" y1="56" y2="56"/><line style="stroke:#181818;stroke-width:0.5;" x1="1538.5" x2="1538.5" y1="56" y2="92.2969"/><text fill="#000000" font-family="sans-serif" font-size="14" lengthAdjust="spacing" textLength="106" x="1417.5" y="78.9951">Placeholder_10</text></g><!--link aName to aName--><g id="link_aName_aName"><path d="M1671.77,64.73 C1690.52,64.41 1706.5,65.83 1706.5,69 C1706.5,72.17 1690.52,73.59 1671.77,73.27 " fill="none" id="aName-aName" style="stroke:#181818;stroke-width:1.0;"/><text fill="#000000" font-family="sans-serif" font-size="13" lengthAdjust="spacing" textLength="447" x="1719.5" y="73.5669">com_anilallewar_microservices_task_apis_CommentsService_Provider</text><path d="M1664.5793,57.7806 A10,10 0 0 0 1664.8206 71.9207" fill="none" style="stroke:#181818;stroke-width:1.5;"/><ellipse cx="1671.77" cy="64.73" fill="#FFFFFF" rx="6" ry="6" style="stroke:#181818;stroke-width:1.5;"/></g><!--link aName to aName--><g id="link_aName_aName"><path d="M1671.73,64.69 C1805.06,57.75 2179.5,59.18 2179.5,69 C2179.5,78.82 1805.06,80.25 1671.73,73.31 " fill="none" id="aName-aName-1" style="stroke:#181818;stroke-width:1.0;"/><text fill="#000000" font-family="sans-serif" font-size="13" lengthAdjust="spacing" textLength="465" x="2192.5" y="73.5669">com_anilallewar_microservices_task_apis_OAuth2RestTemplate_Provider</text><path d="M1664.3009,57.9961 A10,10 0 0 0 1665.0361 72.1191" fill="none" style="stroke:#181818;stroke-width:1.5;"/><ellipse cx="1671.73" cy="64.69" fill="#FFFFFF" rx="6" ry="6" style="stroke:#181818;stroke-width:1.5;"/></g><!--SRC=[lT5DImCn4CRn-twAW9TU8hNKRkjDYeT2QUiBNfObp6P7EpHlPBAxYlZTBKYXub7CCGJ-lu673-G2HB3YXTwM5BN1DJHejZr60o6GUnKfTbWutwBO6T2uzwR5g1RYewXW0nPhKLNWo80nE42KbdJqZB4dZImROD8iESHZIpRUfqj-vuJsGarqMWrhrTxXZ1RpeUpAPt3tTLry_kQkyd9bNcwUbvjbtYxpUDEyt7LURfnvlF_rJcKv6ajnUjm8xQqwezGFIYNWWu90h9RUMdI97x-_r2xwdevd_xMxlUtIVlA0d9xG1WFfBFq5]--></g></svg>