<?xml version="1.0" encoding="us-ascii" standalone="no"?><svg xmlns="http://www.w3.org/2000/svg" xmlns:xlink="http://www.w3.org/1999/xlink" contentStyleType="text/css" height="133px" preserveAspectRatio="none" style="width:16338px;height:133px;background:#FFFFFF;" version="1.1" viewBox="0 0 16338 133" width="16338px" zoomAndPan="magnify"><defs/><g><!--cluster Placeholder_5--><g id="cluster_Placeholder_5"><polygon fill="none" points="7545,16,7555,6,16321,6,16321,98,16311,108,7545,108,7545,16" style="stroke:#181818;stroke-width:1.0;"/><line style="stroke:#181818;stroke-width:1.0;" x1="16311" x2="16321" y1="16" y2="6"/><line style="stroke:#181818;stroke-width:1.0;" x1="7545" x2="16311" y1="16" y2="16"/><line style="stroke:#181818;stroke-width:1.0;" x1="16311" x2="16311" y1="16" y2="108"/><text fill="#000000" font-family="sans-serif" font-size="14" font-weight="bold" lengthAdjust="spacing" textLength="110" x="11874" y="31.9951">Placeholder_5</text></g><!--entity aName--><g id="elem_aName"><a href="kbastani-spring-cloud-event-sourcing-example.system#_1X5c0r_dEe6GWZ9v57rNHg" target="_top" title="kbastani-spring-cloud-event-sourcing-example.system#_1X5c0r_dEe6GWZ9v57rNHg" xlink:actuate="onRequest" xlink:href="kbastani-spring-cloud-event-sourcing-example.system#_1X5c0r_dEe6GWZ9v57rNHg" xlink:show="new" xlink:title="kbastani-spring-cloud-event-sourcing-example.system#_1X5c0r_dEe6GWZ9v57rNHg" xlink:type="simple"><rect fill="#F1F1F1" height="46.2969" rx="2.5" ry="2.5" style="stroke:#181818;stroke-width:0.5;" width="88" x="7561" y="46"/><rect fill="#F1F1F1" height="10" style="stroke:#181818;stroke-width:0.5;" width="15" x="7629" y="51"/><rect fill="#F1F1F1" height="2" style="stroke:#181818;stroke-width:0.5;" width="4" x="7627" y="53"/><rect fill="#F1F1F1" height="2" style="stroke:#181818;stroke-width:0.5;" width="4" x="7627" y="57"/><text fill="#000000" font-family="sans-serif" font-size="14" lengthAdjust="spacing" textLength="48" x="7576" y="78.9951">aName</text></a></g><!--entity Placeholder_43--><g id="elem_Placeholder_43"><polygon fill="#F1F1F1" points="16,56,26,46,162,46,162,82.2969,152,92.2969,16,92.2969,16,56" style="stroke:#181818;stroke-width:0.5;"/><line style="stroke:#181818;stroke-width:0.5;" x1="152" x2="162" y1="56" y2="46"/><line style="stroke:#181818;stroke-width:0.5;" x1="16" x2="152" y1="56" y2="56"/><line style="stroke:#181818;stroke-width:0.5;" x1="152" x2="152" y1="56" y2="92.2969"/><text fill="#000000" font-family="sans-serif" font-size="14" lengthAdjust="spacing" textLength="106" x="31" y="78.9951">Placeholder_43</text></g><!--entity Placeholder_6--><g id="elem_Placeholder_6"><polygon fill="#F1F1F1" points="197.5,56,207.5,46,334.5,46,334.5,82.2969,324.5,92.2969,197.5,92.2969,197.5,56" style="stroke:#181818;stroke-width:0.5;"/><line style="stroke:#181818;stroke-width:0.5;" x1="324.5" x2="334.5" y1="56" y2="46"/><line style="stroke:#181818;stroke-width:0.5;" x1="197.5" x2="324.5" y1="56" y2="56"/><line style="stroke:#181818;stroke-width:0.5;" x1="324.5" x2="324.5" y1="56" y2="92.2969"/><text fill="#000000" font-family="sans-serif" font-size="14" lengthAdjust="spacing" textLength="97" x="212.5" y="78.9951">Placeholder_6</text></g><!--entity Placeholder_42--><g id="elem_Placeholder_42"><polygon fill="#F1F1F1" points="370,56,380,46,516,46,516,82.2969,506,92.2969,370,92.2969,370,56" style="stroke:#181818;stroke-width:0.5;"/><line style="stroke:#181818;stroke-width:0.5;" x1="506" x2="516" y1="56" y2="46"/><line style="stroke:#181818;stroke-width:0.5;" x1="370" x2="506" y1="56" y2="56"/><line style="stroke:#181818;stroke-width:0.5;" x1="506" x2="506" y1="56" y2="92.2969"/><text fill="#000000" font-family="sans-serif" font-size="14" lengthAdjust="spacing" textLength="106" x="385" y="78.9951">Placeholder_42</text></g><!--entity Placeholder_24--><g id="elem_Placeholder_24"><polygon fill="#F1F1F1" points="551,56,561,46,697,46,697,82.2969,687,92.2969,551,92.2969,551,56" style="stroke:#181818;stroke-width:0.5;"/><line style="stroke:#181818;stroke-width:0.5;" x1="687" x2="697" y1="56" y2="46"/><line style="stroke:#181818;stroke-width:0.5;" x1="551" x2="687" y1="56" y2="56"/><line style="stroke:#181818;stroke-width:0.5;" x1="687" x2="687" y1="56" y2="92.2969"/><text fill="#000000" font-family="sans-serif" font-size="14" lengthAdjust="spacing" textLength="106" x="566" y="78.9951">Placeholder_24</text></g><!--entity Placeholder_67--><g id="elem_Placeholder_67"><polygon fill="#F1F1F1" points="732,56,742,46,878,46,878,82.2969,868,92.2969,732,92.2969,732,56" style="stroke:#181818;stroke-width:0.5;"/><line style="stroke:#181818;stroke-width:0.5;" x1="868" x2="878" y1="56" y2="46"/><line style="stroke:#181818;stroke-width:0.5;" x1="732" x2="868" y1="56" y2="56"/><line style="stroke:#181818;stroke-width:0.5;" x1="868" x2="868" y1="56" y2="92.2969"/><text fill="#000000" font-family="sans-serif" font-size="14" lengthAdjust="spacing" textLength="106" x="747" y="78.9951">Placeholder_67</text></g><!--entity Placeholder_41--><g id="elem_Placeholder_41"><polygon fill="#F1F1F1" points="913,56,923,46,1059,46,1059,82.2969,1049,92.2969,913,92.2969,913,56" style="stroke:#181818;stroke-width:0.5;"/><line style="stroke:#181818;stroke-width:0.5;" x1="1049" x2="1059" y1="56" y2="46"/><line style="stroke:#181818;stroke-width:0.5;" x1="913" x2="1049" y1="56" y2="56"/><line style="stroke:#181818;stroke-width:0.5;" x1="1049" x2="1049" y1="56" y2="92.2969"/><text fill="#000000" font-family="sans-serif" font-size="14" lengthAdjust="spacing" textLength="106" x="928" y="78.9951">Placeholder_41</text></g><!--entity Placeholder_65--><g id="elem_Placeholder_65"><polygon fill="#F1F1F1" points="1094,56,1104,46,1240,46,1240,82.2969,1230,92.2969,1094,92.2969,1094,56" style="stroke:#181818;stroke-width:0.5;"/><line style="stroke:#181818;stroke-width:0.5;" x1="1230" x2="1240" y1="56" y2="46"/><line style="stroke:#181818;stroke-width:0.5;" x1="1094" x2="1230" y1="56" y2="56"/><line style="stroke:#181818;stroke-width:0.5;" x1="1230" x2="1230" y1="56" y2="92.2969"/><text fill="#000000" font-family="sans-serif" font-size="14" lengthAdjust="spacing" textLength="106" x="1109" y="78.9951">Placeholder_65</text></g><!--entity Placeholder_22--><g id="elem_Placeholder_22"><polygon fill="#F1F1F1" points="1275,56,1285,46,1421,46,1421,82.2969,1411,92.2969,1275,92.2969,1275,56" style="stroke:#181818;stroke-width:0.5;"/><line style="stroke:#181818;stroke-width:0.5;" x1="1411" x2="1421" y1="56" y2="46"/><line style="stroke:#181818;stroke-width:0.5;" x1="1275" x2="1411" y1="56" y2="56"/><line style="stroke:#181818;stroke-width:0.5;" x1="1411" x2="1411" y1="56" y2="92.2969"/><text fill="#000000" font-family="sans-serif" font-size="14" lengthAdjust="spacing" textLength="106" x="1290" y="78.9951">Placeholder_22</text></g><!--entity Placeholder_16--><g id="elem_Placeholder_16"><polygon fill="#F1F1F1" points="1456,56,1466,46,1602,46,1602,82.2969,1592,92.2969,1456,92.2969,1456,56" style="stroke:#181818;stroke-width:0.5;"/><line style="stroke:#181818;stroke-width:0.5;" x1="1592" x2="1602" y1="56" y2="46"/><line style="stroke:#181818;stroke-width:0.5;" x1="1456" x2="1592" y1="56" y2="56"/><line style="stroke:#181818;stroke-width:0.5;" x1="1592" x2="1592" y1="56" y2="92.2969"/><text fill="#000000" font-family="sans-serif" font-size="14" lengthAdjust="spacing" textLength="106" x="1471" y="78.9951">Placeholder_16</text></g><!--entity Placeholder_37--><g id="elem_Placeholder_37"><polygon fill="#F1F1F1" points="1637,56,1647,46,1783,46,1783,82.2969,1773,92.2969,1637,92.2969,1637,56" style="stroke:#181818;stroke-width:0.5;"/><line style="stroke:#181818;stroke-width:0.5;" x1="1773" x2="1783" y1="56" y2="46"/><line style="stroke:#181818;stroke-width:0.5;" x1="1637" x2="1773" y1="56" y2="56"/><line style="stroke:#181818;stroke-width:0.5;" x1="1773" x2="1773" y1="56" y2="92.2969"/><text fill="#000000" font-family="sans-serif" font-size="14" lengthAdjust="spacing" textLength="106" x="1652" y="78.9951">Placeholder_37</text></g><!--entity Placeholder_44--><g id="elem_Placeholder_44"><polygon fill="#F1F1F1" points="1818,56,1828,46,1964,46,1964,82.2969,1954,92.2969,1818,92.2969,1818,56" style="stroke:#181818;stroke-width:0.5;"/><line style="stroke:#181818;stroke-width:0.5;" x1="1954" x2="1964" y1="56" y2="46"/><line style="stroke:#181818;stroke-width:0.5;" x1="1818" x2="1954" y1="56" y2="56"/><line style="stroke:#181818;stroke-width:0.5;" x1="1954" x2="1954" y1="56" y2="92.2969"/><text fill="#000000" font-family="sans-serif" font-size="14" lengthAdjust="spacing" textLength="106" x="1833" y="78.9951">Placeholder_44</text></g><!--entity Placeholder_57--><g id="elem_Placeholder_57"><polygon fill="#F1F1F1" points="1999,56,2009,46,2145,46,2145,82.2969,2135,92.2969,1999,92.2969,1999,56" style="stroke:#181818;stroke-width:0.5;"/><line style="stroke:#181818;stroke-width:0.5;" x1="2135" x2="2145" y1="56" y2="46"/><line style="stroke:#181818;stroke-width:0.5;" x1="1999" x2="2135" y1="56" y2="56"/><line style="stroke:#181818;stroke-width:0.5;" x1="2135" x2="2135" y1="56" y2="92.2969"/><text fill="#000000" font-family="sans-serif" font-size="14" lengthAdjust="spacing" textLength="106" x="2014" y="78.9951">Placeholder_57</text></g><!--entity Placeholder_13--><g id="elem_Placeholder_13"><polygon fill="#F1F1F1" points="2180,56,2190,46,2326,46,2326,82.2969,2316,92.2969,2180,92.2969,2180,56" style="stroke:#181818;stroke-width:0.5;"/><line style="stroke:#181818;stroke-width:0.5;" x1="2316" x2="2326" y1="56" y2="46"/><line style="stroke:#181818;stroke-width:0.5;" x1="2180" x2="2316" y1="56" y2="56"/><line style="stroke:#181818;stroke-width:0.5;" x1="2316" x2="2316" y1="56" y2="92.2969"/><text fill="#000000" font-family="sans-serif" font-size="14" lengthAdjust="spacing" textLength="106" x="2195" y="78.9951">Placeholder_13</text></g><!--entity Placeholder_28--><g id="elem_Placeholder_28"><polygon fill="#F1F1F1" points="2361,56,2371,46,2507,46,2507,82.2969,2497,92.2969,2361,92.2969,2361,56" style="stroke:#181818;stroke-width:0.5;"/><line style="stroke:#181818;stroke-width:0.5;" x1="2497" x2="2507" y1="56" y2="46"/><line style="stroke:#181818;stroke-width:0.5;" x1="2361" x2="2497" y1="56" y2="56"/><line style="stroke:#181818;stroke-width:0.5;" x1="2497" x2="2497" y1="56" y2="92.2969"/><text fill="#000000" font-family="sans-serif" font-size="14" lengthAdjust="spacing" textLength="106" x="2376" y="78.9951">Placeholder_28</text></g><!--entity Placeholder_31--><g id="elem_Placeholder_31"><polygon fill="#F1F1F1" points="2542,56,2552,46,2688,46,2688,82.2969,2678,92.2969,2542,92.2969,2542,56" style="stroke:#181818;stroke-width:0.5;"/><line style="stroke:#181818;stroke-width:0.5;" x1="2678" x2="2688" y1="56" y2="46"/><line style="stroke:#181818;stroke-width:0.5;" x1="2542" x2="2678" y1="56" y2="56"/><line style="stroke:#181818;stroke-width:0.5;" x1="2678" x2="2678" y1="56" y2="92.2969"/><text fill="#000000" font-family="sans-serif" font-size="14" lengthAdjust="spacing" textLength="106" x="2557" y="78.9951">Placeholder_31</text></g><!--entity Placeholder_26--><g id="elem_Placeholder_26"><polygon fill="#F1F1F1" points="2723,56,2733,46,2869,46,2869,82.2969,2859,92.2969,2723,92.2969,2723,56" style="stroke:#181818;stroke-width:0.5;"/><line style="stroke:#181818;stroke-width:0.5;" x1="2859" x2="2869" y1="56" y2="46"/><line style="stroke:#181818;stroke-width:0.5;" x1="2723" x2="2859" y1="56" y2="56"/><line style="stroke:#181818;stroke-width:0.5;" x1="2859" x2="2859" y1="56" y2="92.2969"/><text fill="#000000" font-family="sans-serif" font-size="14" lengthAdjust="spacing" textLength="106" x="2738" y="78.9951">Placeholder_26</text></g><!--entity Placeholder_0--><g id="elem_Placeholder_0"><polygon fill="#F1F1F1" points="2904.5,56,2914.5,46,3041.5,46,3041.5,82.2969,3031.5,92.2969,2904.5,92.2969,2904.5,56" style="stroke:#181818;stroke-width:0.5;"/><line style="stroke:#181818;stroke-width:0.5;" x1="3031.5" x2="3041.5" y1="56" y2="46"/><line style="stroke:#181818;stroke-width:0.5;" x1="2904.5" x2="3031.5" y1="56" y2="56"/><line style="stroke:#181818;stroke-width:0.5;" x1="3031.5" x2="3031.5" y1="56" y2="92.2969"/><text fill="#000000" font-family="sans-serif" font-size="14" lengthAdjust="spacing" textLength="97" x="2919.5" y="78.9951">Placeholder_0</text></g><!--entity Placeholder_10--><g id="elem_Placeholder_10"><polygon fill="#F1F1F1" points="3077,56,3087,46,3223,46,3223,82.2969,3213,92.2969,3077,92.2969,3077,56" style="stroke:#181818;stroke-width:0.5;"/><line style="stroke:#181818;stroke-width:0.5;" x1="3213" x2="3223" y1="56" y2="46"/><line style="stroke:#181818;stroke-width:0.5;" x1="3077" x2="3213" y1="56" y2="56"/><line style="stroke:#181818;stroke-width:0.5;" x1="3213" x2="3213" y1="56" y2="92.2969"/><text fill="#000000" font-family="sans-serif" font-size="14" lengthAdjust="spacing" textLength="106" x="3092" y="78.9951">Placeholder_10</text></g><!--entity Placeholder_4--><g id="elem_Placeholder_4"><polygon fill="#F1F1F1" points="3258.5,56,3268.5,46,3395.5,46,3395.5,82.2969,3385.5,92.2969,3258.5,92.2969,3258.5,56" style="stroke:#181818;stroke-width:0.5;"/><line style="stroke:#181818;stroke-width:0.5;" x1="3385.5" x2="3395.5" y1="56" y2="46"/><line style="stroke:#181818;stroke-width:0.5;" x1="3258.5" x2="3385.5" y1="56" y2="56"/><line style="stroke:#181818;stroke-width:0.5;" x1="3385.5" x2="3385.5" y1="56" y2="92.2969"/><text fill="#000000" font-family="sans-serif" font-size="14" lengthAdjust="spacing" textLength="97" x="3273.5" y="78.9951">Placeholder_4</text></g><!--entity Placeholder_38--><g id="elem_Placeholder_38"><polygon fill="#F1F1F1" points="3431,56,3441,46,3577,46,3577,82.2969,3567,92.2969,3431,92.2969,3431,56" style="stroke:#181818;stroke-width:0.5;"/><line style="stroke:#181818;stroke-width:0.5;" x1="3567" x2="3577" y1="56" y2="46"/><line style="stroke:#181818;stroke-width:0.5;" x1="3431" x2="3567" y1="56" y2="56"/><line style="stroke:#181818;stroke-width:0.5;" x1="3567" x2="3567" y1="56" y2="92.2969"/><text fill="#000000" font-family="sans-serif" font-size="14" lengthAdjust="spacing" textLength="106" x="3446" y="78.9951">Placeholder_38</text></g><!--entity Placeholder_39--><g id="elem_Placeholder_39"><polygon fill="#F1F1F1" points="3612,56,3622,46,3758,46,3758,82.2969,3748,92.2969,3612,92.2969,3612,56" style="stroke:#181818;stroke-width:0.5;"/><line style="stroke:#181818;stroke-width:0.5;" x1="3748" x2="3758" y1="56" y2="46"/><line style="stroke:#181818;stroke-width:0.5;" x1="3612" x2="3748" y1="56" y2="56"/><line style="stroke:#181818;stroke-width:0.5;" x1="3748" x2="3748" y1="56" y2="92.2969"/><text fill="#000000" font-family="sans-serif" font-size="14" lengthAdjust="spacing" textLength="106" x="3627" y="78.9951">Placeholder_39</text></g><!--entity Placeholder_14--><g id="elem_Placeholder_14"><polygon fill="#F1F1F1" points="3793,56,3803,46,3939,46,3939,82.2969,3929,92.2969,3793,92.2969,3793,56" style="stroke:#181818;stroke-width:0.5;"/><line style="stroke:#181818;stroke-width:0.5;" x1="3929" x2="3939" y1="56" y2="46"/><line style="stroke:#181818;stroke-width:0.5;" x1="3793" x2="3929" y1="56" y2="56"/><line style="stroke:#181818;stroke-width:0.5;" x1="3929" x2="3929" y1="56" y2="92.2969"/><text fill="#000000" font-family="sans-serif" font-size="14" lengthAdjust="spacing" textLength="106" x="3808" y="78.9951">Placeholder_14</text></g><!--entity Placeholder_73--><g id="elem_Placeholder_73"><polygon fill="#F1F1F1" points="3974,56,3984,46,4120,46,4120,82.2969,4110,92.2969,3974,92.2969,3974,56" style="stroke:#181818;stroke-width:0.5;"/><line style="stroke:#181818;stroke-width:0.5;" x1="4110" x2="4120" y1="56" y2="46"/><line style="stroke:#181818;stroke-width:0.5;" x1="3974" x2="4110" y1="56" y2="56"/><line style="stroke:#181818;stroke-width:0.5;" x1="4110" x2="4110" y1="56" y2="92.2969"/><text fill="#000000" font-family="sans-serif" font-size="14" lengthAdjust="spacing" textLength="106" x="3989" y="78.9951">Placeholder_73</text></g><!--entity Placeholder_29--><g id="elem_Placeholder_29"><polygon fill="#F1F1F1" points="4155,56,4165,46,4301,46,4301,82.2969,4291,92.2969,4155,92.2969,4155,56" style="stroke:#181818;stroke-width:0.5;"/><line style="stroke:#181818;stroke-width:0.5;" x1="4291" x2="4301" y1="56" y2="46"/><line style="stroke:#181818;stroke-width:0.5;" x1="4155" x2="4291" y1="56" y2="56"/><line style="stroke:#181818;stroke-width:0.5;" x1="4291" x2="4291" y1="56" y2="92.2969"/><text fill="#000000" font-family="sans-serif" font-size="14" lengthAdjust="spacing" textLength="106" x="4170" y="78.9951">Placeholder_29</text></g><!--entity Placeholder_3--><g id="elem_Placeholder_3"><polygon fill="#F1F1F1" points="4336.5,56,4346.5,46,4473.5,46,4473.5,82.2969,4463.5,92.2969,4336.5,92.2969,4336.5,56" style="stroke:#181818;stroke-width:0.5;"/><line style="stroke:#181818;stroke-width:0.5;" x1="4463.5" x2="4473.5" y1="56" y2="46"/><line style="stroke:#181818;stroke-width:0.5;" x1="4336.5" x2="4463.5" y1="56" y2="56"/><line style="stroke:#181818;stroke-width:0.5;" x1="4463.5" x2="4463.5" y1="56" y2="92.2969"/><text fill="#000000" font-family="sans-serif" font-size="14" lengthAdjust="spacing" textLength="97" x="4351.5" y="78.9951">Placeholder_3</text></g><!--entity Placeholder_54--><g id="elem_Placeholder_54"><polygon fill="#F1F1F1" points="4509,56,4519,46,4655,46,4655,82.2969,4645,92.2969,4509,92.2969,4509,56" style="stroke:#181818;stroke-width:0.5;"/><line style="stroke:#181818;stroke-width:0.5;" x1="4645" x2="4655" y1="56" y2="46"/><line style="stroke:#181818;stroke-width:0.5;" x1="4509" x2="4645" y1="56" y2="56"/><line style="stroke:#181818;stroke-width:0.5;" x1="4645" x2="4645" y1="56" y2="92.2969"/><text fill="#000000" font-family="sans-serif" font-size="14" lengthAdjust="spacing" textLength="106" x="4524" y="78.9951">Placeholder_54</text></g><!--entity Placeholder_7--><g id="elem_Placeholder_7"><polygon fill="#F1F1F1" points="4690.5,56,4700.5,46,4827.5,46,4827.5,82.2969,4817.5,92.2969,4690.5,92.2969,4690.5,56" style="stroke:#181818;stroke-width:0.5;"/><line style="stroke:#181818;stroke-width:0.5;" x1="4817.5" x2="4827.5" y1="56" y2="46"/><line style="stroke:#181818;stroke-width:0.5;" x1="4690.5" x2="4817.5" y1="56" y2="56"/><line style="stroke:#181818;stroke-width:0.5;" x1="4817.5" x2="4817.5" y1="56" y2="92.2969"/><text fill="#000000" font-family="sans-serif" font-size="14" lengthAdjust="spacing" textLength="97" x="4705.5" y="78.9951">Placeholder_7</text></g><!--entity Placeholder_32--><g id="elem_Placeholder_32"><polygon fill="#F1F1F1" points="4863,56,4873,46,5009,46,5009,82.2969,4999,92.2969,4863,92.2969,4863,56" style="stroke:#181818;stroke-width:0.5;"/><line style="stroke:#181818;stroke-width:0.5;" x1="4999" x2="5009" y1="56" y2="46"/><line style="stroke:#181818;stroke-width:0.5;" x1="4863" x2="4999" y1="56" y2="56"/><line style="stroke:#181818;stroke-width:0.5;" x1="4999" x2="4999" y1="56" y2="92.2969"/><text fill="#000000" font-family="sans-serif" font-size="14" lengthAdjust="spacing" textLength="106" x="4878" y="78.9951">Placeholder_32</text></g><!--entity Placeholder_25--><g id="elem_Placeholder_25"><polygon fill="#F1F1F1" points="5044,56,5054,46,5190,46,5190,82.2969,5180,92.2969,5044,92.2969,5044,56" style="stroke:#181818;stroke-width:0.5;"/><line style="stroke:#181818;stroke-width:0.5;" x1="5180" x2="5190" y1="56" y2="46"/><line style="stroke:#181818;stroke-width:0.5;" x1="5044" x2="5180" y1="56" y2="56"/><line style="stroke:#181818;stroke-width:0.5;" x1="5180" x2="5180" y1="56" y2="92.2969"/><text fill="#000000" font-family="sans-serif" font-size="14" lengthAdjust="spacing" textLength="106" x="5059" y="78.9951">Placeholder_25</text></g><!--entity Placeholder_23--><g id="elem_Placeholder_23"><polygon fill="#F1F1F1" points="5225,56,5235,46,5371,46,5371,82.2969,5361,92.2969,5225,92.2969,5225,56" style="stroke:#181818;stroke-width:0.5;"/><line style="stroke:#181818;stroke-width:0.5;" x1="5361" x2="5371" y1="56" y2="46"/><line style="stroke:#181818;stroke-width:0.5;" x1="5225" x2="5361" y1="56" y2="56"/><line style="stroke:#181818;stroke-width:0.5;" x1="5361" x2="5361" y1="56" y2="92.2969"/><text fill="#000000" font-family="sans-serif" font-size="14" lengthAdjust="spacing" textLength="106" x="5240" y="78.9951">Placeholder_23</text></g><!--entity Placeholder_1--><g id="elem_Placeholder_1"><polygon fill="#F1F1F1" points="5406.5,56,5416.5,46,5543.5,46,5543.5,82.2969,5533.5,92.2969,5406.5,92.2969,5406.5,56" style="stroke:#181818;stroke-width:0.5;"/><line style="stroke:#181818;stroke-width:0.5;" x1="5533.5" x2="5543.5" y1="56" y2="46"/><line style="stroke:#181818;stroke-width:0.5;" x1="5406.5" x2="5533.5" y1="56" y2="56"/><line style="stroke:#181818;stroke-width:0.5;" x1="5533.5" x2="5533.5" y1="56" y2="92.2969"/><text fill="#000000" font-family="sans-serif" font-size="14" lengthAdjust="spacing" textLength="97" x="5421.5" y="78.9951">Placeholder_1</text></g><!--entity Placeholder_8--><g id="elem_Placeholder_8"><polygon fill="#F1F1F1" points="5578.5,56,5588.5,46,5715.5,46,5715.5,82.2969,5705.5,92.2969,5578.5,92.2969,5578.5,56" style="stroke:#181818;stroke-width:0.5;"/><line style="stroke:#181818;stroke-width:0.5;" x1="5705.5" x2="5715.5" y1="56" y2="46"/><line style="stroke:#181818;stroke-width:0.5;" x1="5578.5" x2="5705.5" y1="56" y2="56"/><line style="stroke:#181818;stroke-width:0.5;" x1="5705.5" x2="5705.5" y1="56" y2="92.2969"/><text fill="#000000" font-family="sans-serif" font-size="14" lengthAdjust="spacing" textLength="97" x="5593.5" y="78.9951">Placeholder_8</text></g><!--entity Placeholder_18--><g id="elem_Placeholder_18"><polygon fill="#F1F1F1" points="5751,56,5761,46,5897,46,5897,82.2969,5887,92.2969,5751,92.2969,5751,56" style="stroke:#181818;stroke-width:0.5;"/><line style="stroke:#181818;stroke-width:0.5;" x1="5887" x2="5897" y1="56" y2="46"/><line style="stroke:#181818;stroke-width:0.5;" x1="5751" x2="5887" y1="56" y2="56"/><line style="stroke:#181818;stroke-width:0.5;" x1="5887" x2="5887" y1="56" y2="92.2969"/><text fill="#000000" font-family="sans-serif" font-size="14" lengthAdjust="spacing" textLength="106" x="5766" y="78.9951">Placeholder_18</text></g><!--entity Placeholder_11--><g id="elem_Placeholder_11"><polygon fill="#F1F1F1" points="5932,56,5942,46,6078,46,6078,82.2969,6068,92.2969,5932,92.2969,5932,56" style="stroke:#181818;stroke-width:0.5;"/><line style="stroke:#181818;stroke-width:0.5;" x1="6068" x2="6078" y1="56" y2="46"/><line style="stroke:#181818;stroke-width:0.5;" x1="5932" x2="6068" y1="56" y2="56"/><line style="stroke:#181818;stroke-width:0.5;" x1="6068" x2="6068" y1="56" y2="92.2969"/><text fill="#000000" font-family="sans-serif" font-size="14" lengthAdjust="spacing" textLength="106" x="5947" y="78.9951">Placeholder_11</text></g><!--entity Placeholder_35--><g id="elem_Placeholder_35"><polygon fill="#F1F1F1" points="6113,56,6123,46,6259,46,6259,82.2969,6249,92.2969,6113,92.2969,6113,56" style="stroke:#181818;stroke-width:0.5;"/><line style="stroke:#181818;stroke-width:0.5;" x1="6249" x2="6259" y1="56" y2="46"/><line style="stroke:#181818;stroke-width:0.5;" x1="6113" x2="6249" y1="56" y2="56"/><line style="stroke:#181818;stroke-width:0.5;" x1="6249" x2="6249" y1="56" y2="92.2969"/><text fill="#000000" font-family="sans-serif" font-size="14" lengthAdjust="spacing" textLength="106" x="6128" y="78.9951">Placeholder_35</text></g><!--entity Placeholder_40--><g id="elem_Placeholder_40"><polygon fill="#F1F1F1" points="6294,56,6304,46,6440,46,6440,82.2969,6430,92.2969,6294,92.2969,6294,56" style="stroke:#181818;stroke-width:0.5;"/><line style="stroke:#181818;stroke-width:0.5;" x1="6430" x2="6440" y1="56" y2="46"/><line style="stroke:#181818;stroke-width:0.5;" x1="6294" x2="6430" y1="56" y2="56"/><line style="stroke:#181818;stroke-width:0.5;" x1="6430" x2="6430" y1="56" y2="92.2969"/><text fill="#000000" font-family="sans-serif" font-size="14" lengthAdjust="spacing" textLength="106" x="6309" y="78.9951">Placeholder_40</text></g><!--entity Placeholder_20--><g id="elem_Placeholder_20"><polygon fill="#F1F1F1" points="6475,56,6485,46,6621,46,6621,82.2969,6611,92.2969,6475,92.2969,6475,56" style="stroke:#181818;stroke-width:0.5;"/><line style="stroke:#181818;stroke-width:0.5;" x1="6611" x2="6621" y1="56" y2="46"/><line style="stroke:#181818;stroke-width:0.5;" x1="6475" x2="6611" y1="56" y2="56"/><line style="stroke:#181818;stroke-width:0.5;" x1="6611" x2="6611" y1="56" y2="92.2969"/><text fill="#000000" font-family="sans-serif" font-size="14" lengthAdjust="spacing" textLength="106" x="6490" y="78.9951">Placeholder_20</text></g><!--entity Placeholder_15--><g id="elem_Placeholder_15"><polygon fill="#F1F1F1" points="6656,56,6666,46,6802,46,6802,82.2969,6792,92.2969,6656,92.2969,6656,56" style="stroke:#181818;stroke-width:0.5;"/><line style="stroke:#181818;stroke-width:0.5;" x1="6792" x2="6802" y1="56" y2="46"/><line style="stroke:#181818;stroke-width:0.5;" x1="6656" x2="6792" y1="56" y2="56"/><line style="stroke:#181818;stroke-width:0.5;" x1="6792" x2="6792" y1="56" y2="92.2969"/><text fill="#000000" font-family="sans-serif" font-size="14" lengthAdjust="spacing" textLength="106" x="6671" y="78.9951">Placeholder_15</text></g><!--entity Placeholder_27--><g id="elem_Placeholder_27"><polygon fill="#F1F1F1" points="6837,56,6847,46,6983,46,6983,82.2969,6973,92.2969,6837,92.2969,6837,56" style="stroke:#181818;stroke-width:0.5;"/><line style="stroke:#181818;stroke-width:0.5;" x1="6973" x2="6983" y1="56" y2="46"/><line style="stroke:#181818;stroke-width:0.5;" x1="6837" x2="6973" y1="56" y2="56"/><line style="stroke:#181818;stroke-width:0.5;" x1="6973" x2="6973" y1="56" y2="92.2969"/><text fill="#000000" font-family="sans-serif" font-size="14" lengthAdjust="spacing" textLength="106" x="6852" y="78.9951">Placeholder_27</text></g><!--entity Placeholder_19--><g id="elem_Placeholder_19"><polygon fill="#F1F1F1" points="7018,56,7028,46,7164,46,7164,82.2969,7154,92.2969,7018,92.2969,7018,56" style="stroke:#181818;stroke-width:0.5;"/><line style="stroke:#181818;stroke-width:0.5;" x1="7154" x2="7164" y1="56" y2="46"/><line style="stroke:#181818;stroke-width:0.5;" x1="7018" x2="7154" y1="56" y2="56"/><line style="stroke:#181818;stroke-width:0.5;" x1="7154" x2="7154" y1="56" y2="92.2969"/><text fill="#000000" font-family="sans-serif" font-size="14" lengthAdjust="spacing" textLength="106" x="7033" y="78.9951">Placeholder_19</text></g><!--entity Placeholder_45--><g id="elem_Placeholder_45"><polygon fill="#F1F1F1" points="7199,56,7209,46,7345,46,7345,82.2969,7335,92.2969,7199,92.2969,7199,56" style="stroke:#181818;stroke-width:0.5;"/><line style="stroke:#181818;stroke-width:0.5;" x1="7335" x2="7345" y1="56" y2="46"/><line style="stroke:#181818;stroke-width:0.5;" x1="7199" x2="7335" y1="56" y2="56"/><line style="stroke:#181818;stroke-width:0.5;" x1="7335" x2="7335" y1="56" y2="92.2969"/><text fill="#000000" font-family="sans-serif" font-size="14" lengthAdjust="spacing" textLength="106" x="7214" y="78.9951">Placeholder_45</text></g><!--entity Placeholder_47--><g id="elem_Placeholder_47"><polygon fill="#F1F1F1" points="7380,56,7390,46,7526,46,7526,82.2969,7516,92.2969,7380,92.2969,7380,56" style="stroke:#181818;stroke-width:0.5;"/><line style="stroke:#181818;stroke-width:0.5;" x1="7516" x2="7526" y1="56" y2="46"/><line style="stroke:#181818;stroke-width:0.5;" x1="7380" x2="7516" y1="56" y2="56"/><line style="stroke:#181818;stroke-width:0.5;" x1="7516" x2="7516" y1="56" y2="92.2969"/><text fill="#000000" font-family="sans-serif" font-size="14" lengthAdjust="spacing" textLength="106" x="7395" y="78.9951">Placeholder_47</text></g><!--link aName to aName--><g id="link_aName_aName"><path d="M7649.27,67.52 C7668.02,67.4 7684,67.9 7684,69 C7684,70.1 7668.02,70.6 7649.27,70.48 " fill="none" id="aName-aName" style="stroke:#181818;stroke-width:1.0;"/><text fill="#000000" font-family="sans-serif" font-size="13" lengthAdjust="spacing" textLength="200" x="7697" y="73.5669">demo_UserRepository_Provider</text><path d="M7642.1538,60.4943 A10,10 0 0 0 7642.2443 74.6362" fill="none" style="stroke:#181818;stroke-width:1.5;"/><ellipse cx="7649.27" cy="67.52" fill="#FFFFFF" rx="6" ry="6" style="stroke:#181818;stroke-width:1.5;"/></g><!--link aName to aName--><g id="link_aName_aName"><path d="M7649.14,67.13 C7736.27,65.15 7910,65.77 7910,69 C7910,72.23 7736.27,72.85 7649.14,70.87 " fill="none" id="aName-aName-1" style="stroke:#181818;stroke-width:1.0;"/><text fill="#000000" font-family="sans-serif" font-size="13" lengthAdjust="spacing" textLength="180" x="7923" y="73.5669">demo_UserService_Provider</text><path d="M7641.9101,60.2214 A10,10 0 0 0 7642.2314 74.3599" fill="none" style="stroke:#181818;stroke-width:1.5;"/><ellipse cx="7649.14" cy="67.13" fill="#FFFFFF" rx="6" ry="6" style="stroke:#181818;stroke-width:1.5;"/></g><!--link aName to aName--><g id="link_aName_aName"><path d="M7649.26,66.79 C7777.61,63.12 8116,63.86 8116,69 C8116,74.14 7777.61,74.88 7649.26,71.21 " fill="none" id="aName-aName-2" style="stroke:#181818;stroke-width:1.0;"/><text fill="#000000" font-family="sans-serif" font-size="13" lengthAdjust="spacing" textLength="280" x="8129" y="73.5669">demo_account_AccountRepository_Provider</text><path d="M7641.9897,59.9239 A10,10 0 0 0 7642.3939 74.0603" fill="none" style="stroke:#181818;stroke-width:1.5;"/><ellipse cx="7649.26" cy="66.79" fill="#FFFFFF" rx="6" ry="6" style="stroke:#181818;stroke-width:1.5;"/></g><!--link aName to aName--><g id="link_aName_aName"><path d="M7649.01,66.63 C7824.57,61.1 8422,61.89 8422,69 C8422,76.11 7824.57,76.9 7649.01,71.37 " fill="none" id="aName-aName-3" style="stroke:#181818;stroke-width:1.0;"/><text fill="#000000" font-family="sans-serif" font-size="13" lengthAdjust="spacing" textLength="267" x="8435" y="73.5669">demo_api_v1_AccountServiceV1_Provider</text><path d="M7641.7198,59.7851 A10,10 0 0 0 7642.1651 73.9202" fill="none" style="stroke:#181818;stroke-width:1.5;"/><ellipse cx="7649.01" cy="66.63" fill="#FFFFFF" rx="6" ry="6" style="stroke:#181818;stroke-width:1.5;"/></g><!--link aName to aName--><g id="link_aName_aName"><path d="M7649.3,66.45 C7863.32,59.09 8715,59.94 8715,69 C8715,78.06 7863.32,78.91 7649.3,71.55 " fill="none" id="aName-aName-4" style="stroke:#181818;stroke-width:1.0;"/><text fill="#000000" font-family="sans-serif" font-size="13" lengthAdjust="spacing" textLength="264" x="8728" y="73.5669">demo_api_v1_CatalogServiceV1_Provider</text><path d="M7641.9901,59.6261 A10,10 0 0 0 7642.4761 73.7599" fill="none" style="stroke:#181818;stroke-width:1.5;"/><ellipse cx="7649.3" cy="66.45" fill="#FFFFFF" rx="6" ry="6" style="stroke:#181818;stroke-width:1.5;"/></g><!--link aName to aName--><g id="link_aName_aName"><path d="M7649.27,66.29 C7896.61,57.08 9005,57.98 9005,69 C9005,80.02 7896.61,80.92 7649.27,71.71 " fill="none" id="aName-aName-5" style="stroke:#181818;stroke-width:1.0;"/><text fill="#000000" font-family="sans-serif" font-size="13" lengthAdjust="spacing" textLength="287" x="9018" y="73.5669">demo_api_v1_OAuth2RestTemplate_Provider</text><path d="M7641.9407,59.4869 A10,10 0 0 0 7642.4669 73.6193" fill="none" style="stroke:#181818;stroke-width:1.5;"/><ellipse cx="7649.27" cy="66.29" fill="#FFFFFF" rx="6" ry="6" style="stroke:#181818;stroke-width:1.5;"/></g><!--link aName to aName--><g id="link_aName_aName"><path d="M7649.4,66.15 C7929.48,55.08 9318,56.03 9318,69 C9318,81.97 7929.48,82.92 7649.4,71.85 " fill="none" id="aName-aName-6" style="stroke:#181818;stroke-width:1.0;"/><text fill="#000000" font-family="sans-serif" font-size="13" lengthAdjust="spacing" textLength="287" x="9331" y="73.5669">demo_api_v1_OAuth2RestTemplate_Provider</text><path d="M7642.0552,59.3637 A10,10 0 0 0 7642.6137 73.4948" fill="none" style="stroke:#181818;stroke-width:1.5;"/><ellipse cx="7649.4" cy="66.15" fill="#FFFFFF" rx="6" ry="6" style="stroke:#181818;stroke-width:1.5;"/></g><!--link aName to aName--><g id="link_aName_aName"><path d="M7649.37,66.02 C7959.28,53.07 9631,54.06 9631,69 C9631,83.94 7959.28,84.93 7649.37,71.98 " fill="none" id="aName-aName-7" style="stroke:#181818;stroke-width:1.0;"/><text fill="#000000" font-family="sans-serif" font-size="13" lengthAdjust="spacing" textLength="287" x="9644" y="73.5669">demo_api_v1_OAuth2RestTemplate_Provider</text><path d="M7642.0099,59.2503 A10,10 0 0 0 7642.6003 73.3801" fill="none" style="stroke:#181818;stroke-width:1.5;"/><ellipse cx="7649.37" cy="66.02" fill="#FFFFFF" rx="6" ry="6" style="stroke:#181818;stroke-width:1.5;"/></g><!--link aName to aName--><g id="link_aName_aName"><path d="M7649.13,65.92 C7986.3,51.07 9944,52.09 9944,69 C9944,85.91 7986.3,86.93 7649.13,72.08 " fill="none" id="aName-aName-8" style="stroke:#181818;stroke-width:1.0;"/><text fill="#000000" font-family="sans-serif" font-size="13" lengthAdjust="spacing" textLength="251" x="9957" y="73.5669">demo_api_v1_OrderServiceV1_Provider</text><path d="M7641.7547,59.1669 A10,10 0 0 0 7642.3769 73.2953" fill="none" style="stroke:#181818;stroke-width:1.5;"/><ellipse cx="7649.13" cy="65.92" fill="#FFFFFF" rx="6" ry="6" style="stroke:#181818;stroke-width:1.5;"/></g><!--link aName to aName--><g id="link_aName_aName"><path d="M7649.09,65.79 C8009.83,49.06 10221,50.13 10221,69 C10221,87.87 8009.83,88.94 7649.09,72.21 " fill="none" id="aName-aName-9" style="stroke:#181818;stroke-width:1.0;"/><text fill="#000000" font-family="sans-serif" font-size="13" lengthAdjust="spacing" textLength="239" x="10234" y="73.5669">demo_api_v1_RestTemplate_Provider</text><path d="M7641.6989,59.0541 A10,10 0 0 0 7642.3541 73.1811" fill="none" style="stroke:#181818;stroke-width:1.5;"/><ellipse cx="7649.09" cy="65.79" fill="#FFFFFF" rx="6" ry="6" style="stroke:#181818;stroke-width:1.5;"/></g><!--link aName to aName--><g id="link_aName_aName"><path d="M7649.08,65.67 C8031.69,47.06 10486,48.17 10486,69 C10486,89.83 8031.69,90.94 7649.08,72.33 " fill="none" id="aName-aName-10" style="stroke:#181818;stroke-width:1.0;"/><text fill="#000000" font-family="sans-serif" font-size="13" lengthAdjust="spacing" textLength="239" x="10499" y="73.5669">demo_api_v1_RestTemplate_Provider</text><path d="M7641.6738,58.9508 A10,10 0 0 0 7642.3608 73.0762" fill="none" style="stroke:#181818;stroke-width:1.5;"/><ellipse cx="7649.08" cy="65.67" fill="#FFFFFF" rx="6" ry="6" style="stroke:#181818;stroke-width:1.5;"/></g><!--link aName to aName--><g id="link_aName_aName"><path d="M7649.12,65.56 C8052.99,45.06 10751,46.21 10751,69 C10751,91.79 8052.99,92.94 7649.12,72.44 " fill="none" id="aName-aName-11" style="stroke:#181818;stroke-width:1.0;"/><text fill="#000000" font-family="sans-serif" font-size="13" lengthAdjust="spacing" textLength="302" x="10764" y="73.5669">demo_api_v1_ShoppingCartServiceV1_Provider</text><path d="M7641.6996,58.8565 A10,10 0 0 0 7642.4165 72.9804" fill="none" style="stroke:#181818;stroke-width:1.5;"/><ellipse cx="7649.12" cy="65.56" fill="#FFFFFF" rx="6" ry="6" style="stroke:#181818;stroke-width:1.5;"/></g><!--link aName to aName--><g id="link_aName_aName"><path d="M7649.09,65.48 C8077.24,43.06 11079,44.23 11079,69 C11079,93.77 8077.24,94.94 7649.09,72.52 " fill="none" id="aName-aName-12" style="stroke:#181818;stroke-width:1.0;"/><text fill="#000000" font-family="sans-serif" font-size="13" lengthAdjust="spacing" textLength="245" x="11092" y="73.5669">demo_api_v1_UserServiceV1_Provider</text><path d="M7641.6588,58.7884 A10,10 0 0 0 7642.3984 72.9112" fill="none" style="stroke:#181818;stroke-width:1.5;"/><ellipse cx="7649.09" cy="65.48" fill="#FFFFFF" rx="6" ry="6" style="stroke:#181818;stroke-width:1.5;"/></g><!--link aName to aName--><g id="link_aName_aName"><path d="M7649.22,65.38 C8097.94,41.06 11350,42.26 11350,69 C11350,95.74 8097.94,96.94 7649.22,72.62 " fill="none" id="aName-aName-13" style="stroke:#181818;stroke-width:1.0;"/><text fill="#000000" font-family="sans-serif" font-size="13" lengthAdjust="spacing" textLength="265" x="11363" y="73.5669">demo_cart_CartEventRepository_Provider</text><path d="M7641.7766,58.702 A10,10 0 0 0 7642.542 72.8234" fill="none" style="stroke:#181818;stroke-width:1.5;"/><ellipse cx="7649.22" cy="65.38" fill="#FFFFFF" rx="6" ry="6" style="stroke:#181818;stroke-width:1.5;"/></g><!--link aName to aName--><g id="link_aName_aName"><path d="M7649.11,65.3 C8118.11,39.06 11641,40.29 11641,69 C11641,97.71 8118.11,98.94 7649.11,72.7 " fill="none" id="aName-aName-14" style="stroke:#181818;stroke-width:1.0;"/><text fill="#000000" font-family="sans-serif" font-size="13" lengthAdjust="spacing" textLength="296" x="11654" y="73.5669">demo_catalog_CatalogInfoRepository_Provider</text><path d="M7641.655,58.635 A10,10 0 0 0 7642.445 72.755" fill="none" style="stroke:#181818;stroke-width:1.5;"/><ellipse cx="7649.11" cy="65.3" fill="#FFFFFF" rx="6" ry="6" style="stroke:#181818;stroke-width:1.5;"/></g><!--link aName to aName--><g id="link_aName_aName"><path d="M7649.18,65.22 C8140.32,37.05 11963,38.31 11963,69 C11963,99.69 8140.32,100.95 7649.18,72.78 " fill="none" id="aName-aName-15" style="stroke:#181818;stroke-width:1.0;"/><text fill="#000000" font-family="sans-serif" font-size="13" lengthAdjust="spacing" textLength="295" x="11976" y="73.5669">demo_inventory_InventoryRepository_Provider</text><path d="M7641.7156,58.5654 A10,10 0 0 0 7642.5254 72.6844" fill="none" style="stroke:#181818;stroke-width:1.5;"/><ellipse cx="7649.18" cy="65.22" fill="#FFFFFF" rx="6" ry="6" style="stroke:#181818;stroke-width:1.5;"/></g><!--link aName to aName--><g id="link_aName_aName"><path d="M7649.3,65.15 C8162.19,35.05 12284,36.34 12284,69 C12284,101.66 8162.19,102.95 7649.3,72.85 " fill="none" id="aName-aName-16" style="stroke:#181818;stroke-width:1.0;"/><text fill="#000000" font-family="sans-serif" font-size="13" lengthAdjust="spacing" textLength="265" x="12297" y="73.5669">demo_invoice_InvoiceRepository_Provider</text><path d="M7641.8268,58.5053 A10,10 0 0 0 7642.6553 72.6232" fill="none" style="stroke:#181818;stroke-width:1.5;"/><ellipse cx="7649.3" cy="65.15" fill="#FFFFFF" rx="6" ry="6" style="stroke:#181818;stroke-width:1.5;"/></g><!--link aName to aName--><g id="link_aName_aName"><path d="M7649.02,65.09 C8179.79,33.05 12575,34.35 12575,69 C12575,103.65 8179.79,104.95 7649.02,72.91 " fill="none" id="aName-aName-17" style="stroke:#181818;stroke-width:1.0;"/><text fill="#000000" font-family="sans-serif" font-size="13" lengthAdjust="spacing" textLength="289" x="12588" y="73.5669">demo_login_AuthenticationManager_Provider</text><path d="M7641.5357,58.4579 A10,10 0 0 0 7642.3879 72.5743" fill="none" style="stroke:#181818;stroke-width:1.5;"/><ellipse cx="7649.02" cy="65.09" fill="#FFFFFF" rx="6" ry="6" style="stroke:#181818;stroke-width:1.5;"/></g><!--link aName to aName--><g id="link_aName_aName"><path d="M7649,65.03 C8199.59,31.05 12890,32.37 12890,69 C12890,105.63 8199.59,106.95 7649,72.97 " fill="none" id="aName-aName-18" style="stroke:#181818;stroke-width:1.0;"/><text fill="#000000" font-family="sans-serif" font-size="13" lengthAdjust="spacing" textLength="267" x="12903" y="73.5669">demo_login_ClientDetailsService_Provider</text><path d="M7641.5068,58.4079 A10,10 0 0 0 7642.3779 72.5232" fill="none" style="stroke:#181818;stroke-width:1.5;"/><ellipse cx="7649" cy="65.03" fill="#FFFFFF" rx="6" ry="6" style="stroke:#181818;stroke-width:1.5;"/></g><!--link aName to aName--><g id="link_aName_aName"><path d="M7649.11,64.96 C8218.67,29.05 13183,30.4 13183,69 C13183,107.6 8218.67,108.95 7649.11,73.04 " fill="none" id="aName-aName-19" style="stroke:#181818;stroke-width:1.0;"/><text fill="#000000" font-family="sans-serif" font-size="13" lengthAdjust="spacing" textLength="387" x="13196" y="73.5669">demo_login_HttpSessionSecurityContextRepository_Provider</text><path d="M7641.608,58.3479 A10,10 0 0 0 7642.4979 72.462" fill="none" style="stroke:#181818;stroke-width:1.5;"/><ellipse cx="7649.11" cy="64.96" fill="#FFFFFF" rx="6" ry="6" style="stroke:#181818;stroke-width:1.5;"/></g><!--link aName to aName--><g id="link_aName_aName"><path d="M7649,64.93 C8241.65,27.05 13596,28.4 13596,69 C13596,109.6 8241.65,110.95 7649,73.07 " fill="none" id="aName-aName-20" style="stroke:#181818;stroke-width:1.0;"/><text fill="#000000" font-family="sans-serif" font-size="13" lengthAdjust="spacing" textLength="283" x="13609" y="73.5669">demo_order_OrderEventRepository_Provider</text><path d="M7641.4923,58.3244 A10,10 0 0 0 7642.3944 72.4377" fill="none" style="stroke:#181818;stroke-width:1.5;"/><ellipse cx="7649" cy="64.93" fill="#FFFFFF" rx="6" ry="6" style="stroke:#181818;stroke-width:1.5;"/></g><!--link aName to aName--><g id="link_aName_aName"><path d="M7649.24,64.85 C8261.49,25.05 13905,26.43 13905,69 C13905,111.57 8261.49,112.95 7649.24,73.15 " fill="none" id="aName-aName-21" style="stroke:#181818;stroke-width:1.0;"/><text fill="#000000" font-family="sans-serif" font-size="13" lengthAdjust="spacing" textLength="247" x="13918" y="73.5669">demo_order_OrderRepository_Provider</text><path d="M7641.7251,58.2525 A10,10 0 0 0 7642.6425 72.3649" fill="none" style="stroke:#181818;stroke-width:1.5;"/><ellipse cx="7649.24" cy="64.85" fill="#FFFFFF" rx="6" ry="6" style="stroke:#181818;stroke-width:1.5;"/></g><!--link aName to aName--><g id="link_aName_aName"><path d="M7649.23,64.79 C8277.96,23.05 14178,24.45 14178,69 C14178,113.55 8277.96,114.95 7649.23,73.21 " fill="none" id="aName-aName-22" style="stroke:#181818;stroke-width:1.0;"/><text fill="#000000" font-family="sans-serif" font-size="13" lengthAdjust="spacing" textLength="247" x="14191" y="73.5669">demo_order_OrderRepository_Provider</text><path d="M7641.7061,58.2029 A10,10 0 0 0 7642.6429 72.3139" fill="none" style="stroke:#181818;stroke-width:1.5;"/><ellipse cx="7649.23" cy="64.79" fill="#FFFFFF" rx="6" ry="6" style="stroke:#181818;stroke-width:1.5;"/></g><!--link aName to aName--><g id="link_aName_aName"><path d="M7649.09,64.74 C8293.43,21.04 14451,22.46 14451,69 C14451,115.54 8293.43,116.96 7649.09,73.26 " fill="none" id="aName-aName-23" style="stroke:#181818;stroke-width:1.0;"/><text fill="#000000" font-family="sans-serif" font-size="13" lengthAdjust="spacing" textLength="275" x="14464" y="73.5669">demo_product_ProductRepository_Provider</text><path d="M7641.5567,58.1636 A10,10 0 0 0 7642.5136 72.2733" fill="none" style="stroke:#181818;stroke-width:1.5;"/><ellipse cx="7649.09" cy="64.74" fill="#FFFFFF" rx="6" ry="6" style="stroke:#181818;stroke-width:1.5;"/></g><!--link aName to aName--><g id="link_aName_aName"><path d="M7649.41,64.67 C8312.77,19.04 14752,20.49 14752,69 C14752,117.51 8312.77,118.96 7649.41,73.33 " fill="none" id="aName-aName-24" style="stroke:#181818;stroke-width:1.0;"/><text fill="#000000" font-family="sans-serif" font-size="13" lengthAdjust="spacing" textLength="235" x="14765" y="73.5669">demo_user_UserRepository_Provider</text><path d="M7641.8704,58.1008 A10,10 0 0 0 7642.8408 72.2096" fill="none" style="stroke:#181818;stroke-width:1.5;"/><ellipse cx="7649.41" cy="64.67" fill="#FFFFFF" rx="6" ry="6" style="stroke:#181818;stroke-width:1.5;"/></g><!--link aName to aName--><g id="link_aName_aName"><path d="M7649.01,64.64 C8325.62,17.04 15013,18.5 15013,69 C15013,119.5 8325.62,120.96 7649.01,73.36 " fill="none" id="aName-aName-25" style="stroke:#181818;stroke-width:1.0;"/><text fill="#000000" font-family="sans-serif" font-size="13" lengthAdjust="spacing" textLength="248" x="15026" y="73.5669">demo_v1_InventoryServiceV1_Provider</text><path d="M7641.4601,58.0826 A10,10 0 0 0 7642.4526 72.1899" fill="none" style="stroke:#181818;stroke-width:1.5;"/><ellipse cx="7649.01" cy="64.64" fill="#FFFFFF" rx="6" ry="6" style="stroke:#181818;stroke-width:1.5;"/></g><!--link aName to aName--><g id="link_aName_aName"><path d="M7649.06,64.58 C8341.72,15.04 15287,16.52 15287,69 C15287,121.48 8341.72,122.96 7649.06,73.42 " fill="none" id="aName-aName-26" style="stroke:#181818;stroke-width:1.0;"/><text fill="#000000" font-family="sans-serif" font-size="13" lengthAdjust="spacing" textLength="175" x="15300" y="73.5669">demo_v1_Session_Provider</text><path d="M7641.5025,58.0314 A10,10 0 0 0 7642.5114 72.1375" fill="none" style="stroke:#181818;stroke-width:1.5;"/><ellipse cx="7649.06" cy="64.58" fill="#FFFFFF" rx="6" ry="6" style="stroke:#181818;stroke-width:1.5;"/></g><!--link aName to aName--><g id="link_aName_aName"><path d="M7649.11,64.51 C8354.92,13.04 15488,14.54 15488,69 C15488,123.46 8354.92,124.96 7649.11,73.49 " fill="none" id="aName-aName-27" style="stroke:#181818;stroke-width:1.0;"/><text fill="#000000" font-family="sans-serif" font-size="13" lengthAdjust="spacing" textLength="139" x="15501" y="73.5669">user_service_Provider</text><path d="M7641.5434,57.9719 A10,10 0 0 0 7642.5719 72.0766" fill="none" style="stroke:#181818;stroke-width:1.5;"/><ellipse cx="7649.11" cy="64.51" fill="#FFFFFF" rx="6" ry="6" style="stroke:#181818;stroke-width:1.5;"/></g><!--link aName to aName--><g id="link_aName_aName"><path d="M7649.03,64.45 C8365.76,11.04 15653,12.56 15653,69 C15653,125.44 8365.76,126.96 7649.03,73.55 " fill="none" id="aName-aName-28" style="stroke:#181818;stroke-width:1.0;"/><text fill="#000000" font-family="sans-serif" font-size="13" lengthAdjust="spacing" textLength="139" x="15666" y="73.5669">user_service_Provider</text><path d="M7641.453,57.924 A10,10 0 0 0 7642.504 72.027" fill="none" style="stroke:#181818;stroke-width:1.5;"/><ellipse cx="7649.03" cy="64.45" fill="#FFFFFF" rx="6" ry="6" style="stroke:#181818;stroke-width:1.5;"/></g><!--SRC=[rLXTQzim57tFhp3iPIyUiHCtwzwALzR0rfPcNom4eygtYQWj6Kas2QF_VL8zby86ZGmxi2VPGKT7zzvphkIOUo4RfbaTtObzBZIlw2ExfUgg8rsnfX5o6rdTqaIgagBhYd7QgQeaNMJHpycQNRAQDj5wVN_BZ6LInARH3XFpIhLbJ1r96nlLQkv_f3shcuhUc8EnLBygakyPd-gYFAUJ3zz-d7RPGbzUR3URoSEVTFCPbky475wAvKldu7GkmFbCmF61xP22zPA0_J13wmNiXmmSNm9kd-bRi5x0Va_1VfY2vGBc0xjlXbRdARXyu7mkqDq5d4zmU1cwVE1iek-wwBiPM2xWem_SEnCq7pYTC_I7DFXeJz5N5xJRqJTvyDatH-lpt-PpM3b-FOsZuULTL5AjYY-6z0qroWYhzA6urgeJRailObQaEy7fE03ZNBNI5cVz6Ch76b5qoO3-pVmr2GBdpB9ARSU1hyvQkqjloDZFv9BEBFrFS5q-bIimxj6Seu6hdNhy0pPdUcIXdudpM2HtP8LdFFSM2rKdxvKrA6mfxrJe4a9wOZzzEJoDM49vFoxxCHJkDYvauONcw8KBIIZvYKcsTTqfO86y4Wx_dYmJbGbg4Jt-mjfcHSOuzXNnLWjxo9Mqj0-kYlAgxxK_gghFy41eerNPSkid-p4KtZhjZ-hepZTFoWiqZpTjNx4NvpzkpnofYhzF_WK0]--></g></svg>