<?xml version="1.0" encoding="us-ascii" standalone="no"?><svg xmlns="http://www.w3.org/2000/svg" xmlns:xlink="http://www.w3.org/1999/xlink" contentStyleType="text/css" height="133px" preserveAspectRatio="none" style="width:16315px;height:133px;background:#FFFFFF;" version="1.1" viewBox="0 0 16315 133" width="16315px" zoomAndPan="magnify"><defs/><g><!--cluster Placeholder_19--><g id="cluster_Placeholder_19"><polygon fill="none" points="7522,16,7532,6,16298,6,16298,98,16288,108,7522,108,7522,16" style="stroke:#181818;stroke-width:1.0;"/><line style="stroke:#181818;stroke-width:1.0;" x1="16288" x2="16298" y1="16" y2="6"/><line style="stroke:#181818;stroke-width:1.0;" x1="7522" x2="16288" y1="16" y2="16"/><line style="stroke:#181818;stroke-width:1.0;" x1="16288" x2="16288" y1="16" y2="108"/><text fill="#000000" font-family="sans-serif" font-size="14" font-weight="bold" lengthAdjust="spacing" textLength="120" x="11846" y="31.9951">Placeholder_19</text></g><!--entity aName--><g id="elem_aName"><a href="kbastani-spring-cloud-event-sourcing-example.system#_lZw-g78UEe6-e-j3xpF_rg" target="_top" title="kbastani-spring-cloud-event-sourcing-example.system#_lZw-g78UEe6-e-j3xpF_rg" xlink:actuate="onRequest" xlink:href="kbastani-spring-cloud-event-sourcing-example.system#_lZw-g78UEe6-e-j3xpF_rg" xlink:show="new" xlink:title="kbastani-spring-cloud-event-sourcing-example.system#_lZw-g78UEe6-e-j3xpF_rg" xlink:type="simple"><rect fill="#F1F1F1" height="46.2969" rx="2.5" ry="2.5" style="stroke:#181818;stroke-width:0.5;" width="88" x="7538" y="46"/><rect fill="#F1F1F1" height="10" style="stroke:#181818;stroke-width:0.5;" width="15" x="7606" y="51"/><rect fill="#F1F1F1" height="2" style="stroke:#181818;stroke-width:0.5;" width="4" x="7604" y="53"/><rect fill="#F1F1F1" height="2" style="stroke:#181818;stroke-width:0.5;" width="4" x="7604" y="57"/><text fill="#000000" font-family="sans-serif" font-size="14" lengthAdjust="spacing" textLength="48" x="7553" y="78.9951">aName</text></a></g><!--entity Placeholder_32--><g id="elem_Placeholder_32"><polygon fill="#F1F1F1" points="16,56,26,46,162,46,162,82.2969,152,92.2969,16,92.2969,16,56" style="stroke:#181818;stroke-width:0.5;"/><line style="stroke:#181818;stroke-width:0.5;" x1="152" x2="162" y1="56" y2="46"/><line style="stroke:#181818;stroke-width:0.5;" x1="16" x2="152" y1="56" y2="56"/><line style="stroke:#181818;stroke-width:0.5;" x1="152" x2="152" y1="56" y2="92.2969"/><text fill="#000000" font-family="sans-serif" font-size="14" lengthAdjust="spacing" textLength="106" x="31" y="78.9951">Placeholder_32</text></g><!--entity Placeholder_26--><g id="elem_Placeholder_26"><polygon fill="#F1F1F1" points="197,56,207,46,343,46,343,82.2969,333,92.2969,197,92.2969,197,56" style="stroke:#181818;stroke-width:0.5;"/><line style="stroke:#181818;stroke-width:0.5;" x1="333" x2="343" y1="56" y2="46"/><line style="stroke:#181818;stroke-width:0.5;" x1="197" x2="333" y1="56" y2="56"/><line style="stroke:#181818;stroke-width:0.5;" x1="333" x2="333" y1="56" y2="92.2969"/><text fill="#000000" font-family="sans-serif" font-size="14" lengthAdjust="spacing" textLength="106" x="212" y="78.9951">Placeholder_26</text></g><!--entity Placeholder_18--><g id="elem_Placeholder_18"><polygon fill="#F1F1F1" points="378,56,388,46,524,46,524,82.2969,514,92.2969,378,92.2969,378,56" style="stroke:#181818;stroke-width:0.5;"/><line style="stroke:#181818;stroke-width:0.5;" x1="514" x2="524" y1="56" y2="46"/><line style="stroke:#181818;stroke-width:0.5;" x1="378" x2="514" y1="56" y2="56"/><line style="stroke:#181818;stroke-width:0.5;" x1="514" x2="514" y1="56" y2="92.2969"/><text fill="#000000" font-family="sans-serif" font-size="14" lengthAdjust="spacing" textLength="106" x="393" y="78.9951">Placeholder_18</text></g><!--entity Placeholder_17--><g id="elem_Placeholder_17"><polygon fill="#F1F1F1" points="559,56,569,46,705,46,705,82.2969,695,92.2969,559,92.2969,559,56" style="stroke:#181818;stroke-width:0.5;"/><line style="stroke:#181818;stroke-width:0.5;" x1="695" x2="705" y1="56" y2="46"/><line style="stroke:#181818;stroke-width:0.5;" x1="559" x2="695" y1="56" y2="56"/><line style="stroke:#181818;stroke-width:0.5;" x1="695" x2="695" y1="56" y2="92.2969"/><text fill="#000000" font-family="sans-serif" font-size="14" lengthAdjust="spacing" textLength="106" x="574" y="78.9951">Placeholder_17</text></g><!--entity Placeholder_2--><g id="elem_Placeholder_2"><polygon fill="#F1F1F1" points="740.5,56,750.5,46,877.5,46,877.5,82.2969,867.5,92.2969,740.5,92.2969,740.5,56" style="stroke:#181818;stroke-width:0.5;"/><line style="stroke:#181818;stroke-width:0.5;" x1="867.5" x2="877.5" y1="56" y2="46"/><line style="stroke:#181818;stroke-width:0.5;" x1="740.5" x2="867.5" y1="56" y2="56"/><line style="stroke:#181818;stroke-width:0.5;" x1="867.5" x2="867.5" y1="56" y2="92.2969"/><text fill="#000000" font-family="sans-serif" font-size="14" lengthAdjust="spacing" textLength="97" x="755.5" y="78.9951">Placeholder_2</text></g><!--entity Placeholder_11--><g id="elem_Placeholder_11"><polygon fill="#F1F1F1" points="913,56,923,46,1059,46,1059,82.2969,1049,92.2969,913,92.2969,913,56" style="stroke:#181818;stroke-width:0.5;"/><line style="stroke:#181818;stroke-width:0.5;" x1="1049" x2="1059" y1="56" y2="46"/><line style="stroke:#181818;stroke-width:0.5;" x1="913" x2="1049" y1="56" y2="56"/><line style="stroke:#181818;stroke-width:0.5;" x1="1049" x2="1049" y1="56" y2="92.2969"/><text fill="#000000" font-family="sans-serif" font-size="14" lengthAdjust="spacing" textLength="106" x="928" y="78.9951">Placeholder_11</text></g><!--entity Placeholder_5--><g id="elem_Placeholder_5"><polygon fill="#F1F1F1" points="1094.5,56,1104.5,46,1231.5,46,1231.5,82.2969,1221.5,92.2969,1094.5,92.2969,1094.5,56" style="stroke:#181818;stroke-width:0.5;"/><line style="stroke:#181818;stroke-width:0.5;" x1="1221.5" x2="1231.5" y1="56" y2="46"/><line style="stroke:#181818;stroke-width:0.5;" x1="1094.5" x2="1221.5" y1="56" y2="56"/><line style="stroke:#181818;stroke-width:0.5;" x1="1221.5" x2="1221.5" y1="56" y2="92.2969"/><text fill="#000000" font-family="sans-serif" font-size="14" lengthAdjust="spacing" textLength="97" x="1109.5" y="78.9951">Placeholder_5</text></g><!--entity Placeholder_24--><g id="elem_Placeholder_24"><polygon fill="#F1F1F1" points="1267,56,1277,46,1413,46,1413,82.2969,1403,92.2969,1267,92.2969,1267,56" style="stroke:#181818;stroke-width:0.5;"/><line style="stroke:#181818;stroke-width:0.5;" x1="1403" x2="1413" y1="56" y2="46"/><line style="stroke:#181818;stroke-width:0.5;" x1="1267" x2="1403" y1="56" y2="56"/><line style="stroke:#181818;stroke-width:0.5;" x1="1403" x2="1403" y1="56" y2="92.2969"/><text fill="#000000" font-family="sans-serif" font-size="14" lengthAdjust="spacing" textLength="106" x="1282" y="78.9951">Placeholder_24</text></g><!--entity Placeholder_51--><g id="elem_Placeholder_51"><polygon fill="#F1F1F1" points="1448,56,1458,46,1594,46,1594,82.2969,1584,92.2969,1448,92.2969,1448,56" style="stroke:#181818;stroke-width:0.5;"/><line style="stroke:#181818;stroke-width:0.5;" x1="1584" x2="1594" y1="56" y2="46"/><line style="stroke:#181818;stroke-width:0.5;" x1="1448" x2="1584" y1="56" y2="56"/><line style="stroke:#181818;stroke-width:0.5;" x1="1584" x2="1584" y1="56" y2="92.2969"/><text fill="#000000" font-family="sans-serif" font-size="14" lengthAdjust="spacing" textLength="106" x="1463" y="78.9951">Placeholder_51</text></g><!--entity Placeholder_30--><g id="elem_Placeholder_30"><polygon fill="#F1F1F1" points="1629,56,1639,46,1775,46,1775,82.2969,1765,92.2969,1629,92.2969,1629,56" style="stroke:#181818;stroke-width:0.5;"/><line style="stroke:#181818;stroke-width:0.5;" x1="1765" x2="1775" y1="56" y2="46"/><line style="stroke:#181818;stroke-width:0.5;" x1="1629" x2="1765" y1="56" y2="56"/><line style="stroke:#181818;stroke-width:0.5;" x1="1765" x2="1765" y1="56" y2="92.2969"/><text fill="#000000" font-family="sans-serif" font-size="14" lengthAdjust="spacing" textLength="106" x="1644" y="78.9951">Placeholder_30</text></g><!--entity Placeholder_31--><g id="elem_Placeholder_31"><polygon fill="#F1F1F1" points="1810,56,1820,46,1956,46,1956,82.2969,1946,92.2969,1810,92.2969,1810,56" style="stroke:#181818;stroke-width:0.5;"/><line style="stroke:#181818;stroke-width:0.5;" x1="1946" x2="1956" y1="56" y2="46"/><line style="stroke:#181818;stroke-width:0.5;" x1="1810" x2="1946" y1="56" y2="56"/><line style="stroke:#181818;stroke-width:0.5;" x1="1946" x2="1946" y1="56" y2="92.2969"/><text fill="#000000" font-family="sans-serif" font-size="14" lengthAdjust="spacing" textLength="106" x="1825" y="78.9951">Placeholder_31</text></g><!--entity Placeholder_4--><g id="elem_Placeholder_4"><polygon fill="#F1F1F1" points="1991.5,56,2001.5,46,2128.5,46,2128.5,82.2969,2118.5,92.2969,1991.5,92.2969,1991.5,56" style="stroke:#181818;stroke-width:0.5;"/><line style="stroke:#181818;stroke-width:0.5;" x1="2118.5" x2="2128.5" y1="56" y2="46"/><line style="stroke:#181818;stroke-width:0.5;" x1="1991.5" x2="2118.5" y1="56" y2="56"/><line style="stroke:#181818;stroke-width:0.5;" x1="2118.5" x2="2118.5" y1="56" y2="92.2969"/><text fill="#000000" font-family="sans-serif" font-size="14" lengthAdjust="spacing" textLength="97" x="2006.5" y="78.9951">Placeholder_4</text></g><!--entity Placeholder_14--><g id="elem_Placeholder_14"><polygon fill="#F1F1F1" points="2164,56,2174,46,2310,46,2310,82.2969,2300,92.2969,2164,92.2969,2164,56" style="stroke:#181818;stroke-width:0.5;"/><line style="stroke:#181818;stroke-width:0.5;" x1="2300" x2="2310" y1="56" y2="46"/><line style="stroke:#181818;stroke-width:0.5;" x1="2164" x2="2300" y1="56" y2="56"/><line style="stroke:#181818;stroke-width:0.5;" x1="2300" x2="2300" y1="56" y2="92.2969"/><text fill="#000000" font-family="sans-serif" font-size="14" lengthAdjust="spacing" textLength="106" x="2179" y="78.9951">Placeholder_14</text></g><!--entity Placeholder_1--><g id="elem_Placeholder_1"><polygon fill="#F1F1F1" points="2345.5,56,2355.5,46,2482.5,46,2482.5,82.2969,2472.5,92.2969,2345.5,92.2969,2345.5,56" style="stroke:#181818;stroke-width:0.5;"/><line style="stroke:#181818;stroke-width:0.5;" x1="2472.5" x2="2482.5" y1="56" y2="46"/><line style="stroke:#181818;stroke-width:0.5;" x1="2345.5" x2="2472.5" y1="56" y2="56"/><line style="stroke:#181818;stroke-width:0.5;" x1="2472.5" x2="2472.5" y1="56" y2="92.2969"/><text fill="#000000" font-family="sans-serif" font-size="14" lengthAdjust="spacing" textLength="97" x="2360.5" y="78.9951">Placeholder_1</text></g><!--entity Placeholder_34--><g id="elem_Placeholder_34"><polygon fill="#F1F1F1" points="2518,56,2528,46,2664,46,2664,82.2969,2654,92.2969,2518,92.2969,2518,56" style="stroke:#181818;stroke-width:0.5;"/><line style="stroke:#181818;stroke-width:0.5;" x1="2654" x2="2664" y1="56" y2="46"/><line style="stroke:#181818;stroke-width:0.5;" x1="2518" x2="2654" y1="56" y2="56"/><line style="stroke:#181818;stroke-width:0.5;" x1="2654" x2="2654" y1="56" y2="92.2969"/><text fill="#000000" font-family="sans-serif" font-size="14" lengthAdjust="spacing" textLength="106" x="2533" y="78.9951">Placeholder_34</text></g><!--entity Placeholder_38--><g id="elem_Placeholder_38"><polygon fill="#F1F1F1" points="2699,56,2709,46,2845,46,2845,82.2969,2835,92.2969,2699,92.2969,2699,56" style="stroke:#181818;stroke-width:0.5;"/><line style="stroke:#181818;stroke-width:0.5;" x1="2835" x2="2845" y1="56" y2="46"/><line style="stroke:#181818;stroke-width:0.5;" x1="2699" x2="2835" y1="56" y2="56"/><line style="stroke:#181818;stroke-width:0.5;" x1="2835" x2="2835" y1="56" y2="92.2969"/><text fill="#000000" font-family="sans-serif" font-size="14" lengthAdjust="spacing" textLength="106" x="2714" y="78.9951">Placeholder_38</text></g><!--entity Placeholder_28--><g id="elem_Placeholder_28"><polygon fill="#F1F1F1" points="2880,56,2890,46,3026,46,3026,82.2969,3016,92.2969,2880,92.2969,2880,56" style="stroke:#181818;stroke-width:0.5;"/><line style="stroke:#181818;stroke-width:0.5;" x1="3016" x2="3026" y1="56" y2="46"/><line style="stroke:#181818;stroke-width:0.5;" x1="2880" x2="3016" y1="56" y2="56"/><line style="stroke:#181818;stroke-width:0.5;" x1="3016" x2="3016" y1="56" y2="92.2969"/><text fill="#000000" font-family="sans-serif" font-size="14" lengthAdjust="spacing" textLength="106" x="2895" y="78.9951">Placeholder_28</text></g><!--entity Placeholder_7--><g id="elem_Placeholder_7"><polygon fill="#F1F1F1" points="3061.5,56,3071.5,46,3198.5,46,3198.5,82.2969,3188.5,92.2969,3061.5,92.2969,3061.5,56" style="stroke:#181818;stroke-width:0.5;"/><line style="stroke:#181818;stroke-width:0.5;" x1="3188.5" x2="3198.5" y1="56" y2="46"/><line style="stroke:#181818;stroke-width:0.5;" x1="3061.5" x2="3188.5" y1="56" y2="56"/><line style="stroke:#181818;stroke-width:0.5;" x1="3188.5" x2="3188.5" y1="56" y2="92.2969"/><text fill="#000000" font-family="sans-serif" font-size="14" lengthAdjust="spacing" textLength="97" x="3076.5" y="78.9951">Placeholder_7</text></g><!--entity Placeholder_23--><g id="elem_Placeholder_23"><polygon fill="#F1F1F1" points="3234,56,3244,46,3380,46,3380,82.2969,3370,92.2969,3234,92.2969,3234,56" style="stroke:#181818;stroke-width:0.5;"/><line style="stroke:#181818;stroke-width:0.5;" x1="3370" x2="3380" y1="56" y2="46"/><line style="stroke:#181818;stroke-width:0.5;" x1="3234" x2="3370" y1="56" y2="56"/><line style="stroke:#181818;stroke-width:0.5;" x1="3370" x2="3370" y1="56" y2="92.2969"/><text fill="#000000" font-family="sans-serif" font-size="14" lengthAdjust="spacing" textLength="106" x="3249" y="78.9951">Placeholder_23</text></g><!--entity Placeholder_10--><g id="elem_Placeholder_10"><polygon fill="#F1F1F1" points="3415,56,3425,46,3561,46,3561,82.2969,3551,92.2969,3415,92.2969,3415,56" style="stroke:#181818;stroke-width:0.5;"/><line style="stroke:#181818;stroke-width:0.5;" x1="3551" x2="3561" y1="56" y2="46"/><line style="stroke:#181818;stroke-width:0.5;" x1="3415" x2="3551" y1="56" y2="56"/><line style="stroke:#181818;stroke-width:0.5;" x1="3551" x2="3551" y1="56" y2="92.2969"/><text fill="#000000" font-family="sans-serif" font-size="14" lengthAdjust="spacing" textLength="106" x="3430" y="78.9951">Placeholder_10</text></g><!--entity Placeholder_3--><g id="elem_Placeholder_3"><polygon fill="#F1F1F1" points="3596.5,56,3606.5,46,3733.5,46,3733.5,82.2969,3723.5,92.2969,3596.5,92.2969,3596.5,56" style="stroke:#181818;stroke-width:0.5;"/><line style="stroke:#181818;stroke-width:0.5;" x1="3723.5" x2="3733.5" y1="56" y2="46"/><line style="stroke:#181818;stroke-width:0.5;" x1="3596.5" x2="3723.5" y1="56" y2="56"/><line style="stroke:#181818;stroke-width:0.5;" x1="3723.5" x2="3723.5" y1="56" y2="92.2969"/><text fill="#000000" font-family="sans-serif" font-size="14" lengthAdjust="spacing" textLength="97" x="3611.5" y="78.9951">Placeholder_3</text></g><!--entity Placeholder_22--><g id="elem_Placeholder_22"><polygon fill="#F1F1F1" points="3769,56,3779,46,3915,46,3915,82.2969,3905,92.2969,3769,92.2969,3769,56" style="stroke:#181818;stroke-width:0.5;"/><line style="stroke:#181818;stroke-width:0.5;" x1="3905" x2="3915" y1="56" y2="46"/><line style="stroke:#181818;stroke-width:0.5;" x1="3769" x2="3905" y1="56" y2="56"/><line style="stroke:#181818;stroke-width:0.5;" x1="3905" x2="3905" y1="56" y2="92.2969"/><text fill="#000000" font-family="sans-serif" font-size="14" lengthAdjust="spacing" textLength="106" x="3784" y="78.9951">Placeholder_22</text></g><!--entity Placeholder_70--><g id="elem_Placeholder_70"><polygon fill="#F1F1F1" points="3950,56,3960,46,4096,46,4096,82.2969,4086,92.2969,3950,92.2969,3950,56" style="stroke:#181818;stroke-width:0.5;"/><line style="stroke:#181818;stroke-width:0.5;" x1="4086" x2="4096" y1="56" y2="46"/><line style="stroke:#181818;stroke-width:0.5;" x1="3950" x2="4086" y1="56" y2="56"/><line style="stroke:#181818;stroke-width:0.5;" x1="4086" x2="4086" y1="56" y2="92.2969"/><text fill="#000000" font-family="sans-serif" font-size="14" lengthAdjust="spacing" textLength="106" x="3965" y="78.9951">Placeholder_70</text></g><!--entity Placeholder_21--><g id="elem_Placeholder_21"><polygon fill="#F1F1F1" points="4131,56,4141,46,4277,46,4277,82.2969,4267,92.2969,4131,92.2969,4131,56" style="stroke:#181818;stroke-width:0.5;"/><line style="stroke:#181818;stroke-width:0.5;" x1="4267" x2="4277" y1="56" y2="46"/><line style="stroke:#181818;stroke-width:0.5;" x1="4131" x2="4267" y1="56" y2="56"/><line style="stroke:#181818;stroke-width:0.5;" x1="4267" x2="4267" y1="56" y2="92.2969"/><text fill="#000000" font-family="sans-serif" font-size="14" lengthAdjust="spacing" textLength="106" x="4146" y="78.9951">Placeholder_21</text></g><!--entity Placeholder_6--><g id="elem_Placeholder_6"><polygon fill="#F1F1F1" points="4312.5,56,4322.5,46,4449.5,46,4449.5,82.2969,4439.5,92.2969,4312.5,92.2969,4312.5,56" style="stroke:#181818;stroke-width:0.5;"/><line style="stroke:#181818;stroke-width:0.5;" x1="4439.5" x2="4449.5" y1="56" y2="46"/><line style="stroke:#181818;stroke-width:0.5;" x1="4312.5" x2="4439.5" y1="56" y2="56"/><line style="stroke:#181818;stroke-width:0.5;" x1="4439.5" x2="4439.5" y1="56" y2="92.2969"/><text fill="#000000" font-family="sans-serif" font-size="14" lengthAdjust="spacing" textLength="97" x="4327.5" y="78.9951">Placeholder_6</text></g><!--entity Placeholder_77--><g id="elem_Placeholder_77"><polygon fill="#F1F1F1" points="4485,56,4495,46,4631,46,4631,82.2969,4621,92.2969,4485,92.2969,4485,56" style="stroke:#181818;stroke-width:0.5;"/><line style="stroke:#181818;stroke-width:0.5;" x1="4621" x2="4631" y1="56" y2="46"/><line style="stroke:#181818;stroke-width:0.5;" x1="4485" x2="4621" y1="56" y2="56"/><line style="stroke:#181818;stroke-width:0.5;" x1="4621" x2="4621" y1="56" y2="92.2969"/><text fill="#000000" font-family="sans-serif" font-size="14" lengthAdjust="spacing" textLength="106" x="4500" y="78.9951">Placeholder_77</text></g><!--entity Placeholder_0--><g id="elem_Placeholder_0"><polygon fill="#F1F1F1" points="4666.5,56,4676.5,46,4803.5,46,4803.5,82.2969,4793.5,92.2969,4666.5,92.2969,4666.5,56" style="stroke:#181818;stroke-width:0.5;"/><line style="stroke:#181818;stroke-width:0.5;" x1="4793.5" x2="4803.5" y1="56" y2="46"/><line style="stroke:#181818;stroke-width:0.5;" x1="4666.5" x2="4793.5" y1="56" y2="56"/><line style="stroke:#181818;stroke-width:0.5;" x1="4793.5" x2="4793.5" y1="56" y2="92.2969"/><text fill="#000000" font-family="sans-serif" font-size="14" lengthAdjust="spacing" textLength="97" x="4681.5" y="78.9951">Placeholder_0</text></g><!--entity Placeholder_45--><g id="elem_Placeholder_45"><polygon fill="#F1F1F1" points="4839,56,4849,46,4985,46,4985,82.2969,4975,92.2969,4839,92.2969,4839,56" style="stroke:#181818;stroke-width:0.5;"/><line style="stroke:#181818;stroke-width:0.5;" x1="4975" x2="4985" y1="56" y2="46"/><line style="stroke:#181818;stroke-width:0.5;" x1="4839" x2="4975" y1="56" y2="56"/><line style="stroke:#181818;stroke-width:0.5;" x1="4975" x2="4975" y1="56" y2="92.2969"/><text fill="#000000" font-family="sans-serif" font-size="14" lengthAdjust="spacing" textLength="106" x="4854" y="78.9951">Placeholder_45</text></g><!--entity Placeholder_39--><g id="elem_Placeholder_39"><polygon fill="#F1F1F1" points="5020,56,5030,46,5166,46,5166,82.2969,5156,92.2969,5020,92.2969,5020,56" style="stroke:#181818;stroke-width:0.5;"/><line style="stroke:#181818;stroke-width:0.5;" x1="5156" x2="5166" y1="56" y2="46"/><line style="stroke:#181818;stroke-width:0.5;" x1="5020" x2="5156" y1="56" y2="56"/><line style="stroke:#181818;stroke-width:0.5;" x1="5156" x2="5156" y1="56" y2="92.2969"/><text fill="#000000" font-family="sans-serif" font-size="14" lengthAdjust="spacing" textLength="106" x="5035" y="78.9951">Placeholder_39</text></g><!--entity Placeholder_42--><g id="elem_Placeholder_42"><polygon fill="#F1F1F1" points="5201,56,5211,46,5347,46,5347,82.2969,5337,92.2969,5201,92.2969,5201,56" style="stroke:#181818;stroke-width:0.5;"/><line style="stroke:#181818;stroke-width:0.5;" x1="5337" x2="5347" y1="56" y2="46"/><line style="stroke:#181818;stroke-width:0.5;" x1="5201" x2="5337" y1="56" y2="56"/><line style="stroke:#181818;stroke-width:0.5;" x1="5337" x2="5337" y1="56" y2="92.2969"/><text fill="#000000" font-family="sans-serif" font-size="14" lengthAdjust="spacing" textLength="106" x="5216" y="78.9951">Placeholder_42</text></g><!--entity Placeholder_62--><g id="elem_Placeholder_62"><polygon fill="#F1F1F1" points="5382,56,5392,46,5528,46,5528,82.2969,5518,92.2969,5382,92.2969,5382,56" style="stroke:#181818;stroke-width:0.5;"/><line style="stroke:#181818;stroke-width:0.5;" x1="5518" x2="5528" y1="56" y2="46"/><line style="stroke:#181818;stroke-width:0.5;" x1="5382" x2="5518" y1="56" y2="56"/><line style="stroke:#181818;stroke-width:0.5;" x1="5518" x2="5518" y1="56" y2="92.2969"/><text fill="#000000" font-family="sans-serif" font-size="14" lengthAdjust="spacing" textLength="106" x="5397" y="78.9951">Placeholder_62</text></g><!--entity Placeholder_72--><g id="elem_Placeholder_72"><polygon fill="#F1F1F1" points="5563,56,5573,46,5709,46,5709,82.2969,5699,92.2969,5563,92.2969,5563,56" style="stroke:#181818;stroke-width:0.5;"/><line style="stroke:#181818;stroke-width:0.5;" x1="5699" x2="5709" y1="56" y2="46"/><line style="stroke:#181818;stroke-width:0.5;" x1="5563" x2="5699" y1="56" y2="56"/><line style="stroke:#181818;stroke-width:0.5;" x1="5699" x2="5699" y1="56" y2="92.2969"/><text fill="#000000" font-family="sans-serif" font-size="14" lengthAdjust="spacing" textLength="106" x="5578" y="78.9951">Placeholder_72</text></g><!--entity Placeholder_37--><g id="elem_Placeholder_37"><polygon fill="#F1F1F1" points="5744,56,5754,46,5890,46,5890,82.2969,5880,92.2969,5744,92.2969,5744,56" style="stroke:#181818;stroke-width:0.5;"/><line style="stroke:#181818;stroke-width:0.5;" x1="5880" x2="5890" y1="56" y2="46"/><line style="stroke:#181818;stroke-width:0.5;" x1="5744" x2="5880" y1="56" y2="56"/><line style="stroke:#181818;stroke-width:0.5;" x1="5880" x2="5880" y1="56" y2="92.2969"/><text fill="#000000" font-family="sans-serif" font-size="14" lengthAdjust="spacing" textLength="106" x="5759" y="78.9951">Placeholder_37</text></g><!--entity Placeholder_43--><g id="elem_Placeholder_43"><polygon fill="#F1F1F1" points="5925,56,5935,46,6071,46,6071,82.2969,6061,92.2969,5925,92.2969,5925,56" style="stroke:#181818;stroke-width:0.5;"/><line style="stroke:#181818;stroke-width:0.5;" x1="6061" x2="6071" y1="56" y2="46"/><line style="stroke:#181818;stroke-width:0.5;" x1="5925" x2="6061" y1="56" y2="56"/><line style="stroke:#181818;stroke-width:0.5;" x1="6061" x2="6061" y1="56" y2="92.2969"/><text fill="#000000" font-family="sans-serif" font-size="14" lengthAdjust="spacing" textLength="106" x="5940" y="78.9951">Placeholder_43</text></g><!--entity Placeholder_16--><g id="elem_Placeholder_16"><polygon fill="#F1F1F1" points="6106,56,6116,46,6252,46,6252,82.2969,6242,92.2969,6106,92.2969,6106,56" style="stroke:#181818;stroke-width:0.5;"/><line style="stroke:#181818;stroke-width:0.5;" x1="6242" x2="6252" y1="56" y2="46"/><line style="stroke:#181818;stroke-width:0.5;" x1="6106" x2="6242" y1="56" y2="56"/><line style="stroke:#181818;stroke-width:0.5;" x1="6242" x2="6242" y1="56" y2="92.2969"/><text fill="#000000" font-family="sans-serif" font-size="14" lengthAdjust="spacing" textLength="106" x="6121" y="78.9951">Placeholder_16</text></g><!--entity Placeholder_41--><g id="elem_Placeholder_41"><polygon fill="#F1F1F1" points="6287,56,6297,46,6433,46,6433,82.2969,6423,92.2969,6287,92.2969,6287,56" style="stroke:#181818;stroke-width:0.5;"/><line style="stroke:#181818;stroke-width:0.5;" x1="6423" x2="6433" y1="56" y2="46"/><line style="stroke:#181818;stroke-width:0.5;" x1="6287" x2="6423" y1="56" y2="56"/><line style="stroke:#181818;stroke-width:0.5;" x1="6423" x2="6423" y1="56" y2="92.2969"/><text fill="#000000" font-family="sans-serif" font-size="14" lengthAdjust="spacing" textLength="106" x="6302" y="78.9951">Placeholder_41</text></g><!--entity Placeholder_8--><g id="elem_Placeholder_8"><polygon fill="#F1F1F1" points="6468.5,56,6478.5,46,6605.5,46,6605.5,82.2969,6595.5,92.2969,6468.5,92.2969,6468.5,56" style="stroke:#181818;stroke-width:0.5;"/><line style="stroke:#181818;stroke-width:0.5;" x1="6595.5" x2="6605.5" y1="56" y2="46"/><line style="stroke:#181818;stroke-width:0.5;" x1="6468.5" x2="6595.5" y1="56" y2="56"/><line style="stroke:#181818;stroke-width:0.5;" x1="6595.5" x2="6595.5" y1="56" y2="92.2969"/><text fill="#000000" font-family="sans-serif" font-size="14" lengthAdjust="spacing" textLength="97" x="6483.5" y="78.9951">Placeholder_8</text></g><!--entity Placeholder_33--><g id="elem_Placeholder_33"><polygon fill="#F1F1F1" points="6641,56,6651,46,6787,46,6787,82.2969,6777,92.2969,6641,92.2969,6641,56" style="stroke:#181818;stroke-width:0.5;"/><line style="stroke:#181818;stroke-width:0.5;" x1="6777" x2="6787" y1="56" y2="46"/><line style="stroke:#181818;stroke-width:0.5;" x1="6641" x2="6777" y1="56" y2="56"/><line style="stroke:#181818;stroke-width:0.5;" x1="6777" x2="6777" y1="56" y2="92.2969"/><text fill="#000000" font-family="sans-serif" font-size="14" lengthAdjust="spacing" textLength="106" x="6656" y="78.9951">Placeholder_33</text></g><!--entity Placeholder_40--><g id="elem_Placeholder_40"><polygon fill="#F1F1F1" points="6822,56,6832,46,6968,46,6968,82.2969,6958,92.2969,6822,92.2969,6822,56" style="stroke:#181818;stroke-width:0.5;"/><line style="stroke:#181818;stroke-width:0.5;" x1="6958" x2="6968" y1="56" y2="46"/><line style="stroke:#181818;stroke-width:0.5;" x1="6822" x2="6958" y1="56" y2="56"/><line style="stroke:#181818;stroke-width:0.5;" x1="6958" x2="6958" y1="56" y2="92.2969"/><text fill="#000000" font-family="sans-serif" font-size="14" lengthAdjust="spacing" textLength="106" x="6837" y="78.9951">Placeholder_40</text></g><!--entity Placeholder_9--><g id="elem_Placeholder_9"><polygon fill="#F1F1F1" points="7003.5,56,7013.5,46,7140.5,46,7140.5,82.2969,7130.5,92.2969,7003.5,92.2969,7003.5,56" style="stroke:#181818;stroke-width:0.5;"/><line style="stroke:#181818;stroke-width:0.5;" x1="7130.5" x2="7140.5" y1="56" y2="46"/><line style="stroke:#181818;stroke-width:0.5;" x1="7003.5" x2="7130.5" y1="56" y2="56"/><line style="stroke:#181818;stroke-width:0.5;" x1="7130.5" x2="7130.5" y1="56" y2="92.2969"/><text fill="#000000" font-family="sans-serif" font-size="14" lengthAdjust="spacing" textLength="97" x="7018.5" y="78.9951">Placeholder_9</text></g><!--entity Placeholder_49--><g id="elem_Placeholder_49"><polygon fill="#F1F1F1" points="7176,56,7186,46,7322,46,7322,82.2969,7312,92.2969,7176,92.2969,7176,56" style="stroke:#181818;stroke-width:0.5;"/><line style="stroke:#181818;stroke-width:0.5;" x1="7312" x2="7322" y1="56" y2="46"/><line style="stroke:#181818;stroke-width:0.5;" x1="7176" x2="7312" y1="56" y2="56"/><line style="stroke:#181818;stroke-width:0.5;" x1="7312" x2="7312" y1="56" y2="92.2969"/><text fill="#000000" font-family="sans-serif" font-size="14" lengthAdjust="spacing" textLength="106" x="7191" y="78.9951">Placeholder_49</text></g><!--entity Placeholder_12--><g id="elem_Placeholder_12"><polygon fill="#F1F1F1" points="7357,56,7367,46,7503,46,7503,82.2969,7493,92.2969,7357,92.2969,7357,56" style="stroke:#181818;stroke-width:0.5;"/><line style="stroke:#181818;stroke-width:0.5;" x1="7493" x2="7503" y1="56" y2="46"/><line style="stroke:#181818;stroke-width:0.5;" x1="7357" x2="7493" y1="56" y2="56"/><line style="stroke:#181818;stroke-width:0.5;" x1="7493" x2="7493" y1="56" y2="92.2969"/><text fill="#000000" font-family="sans-serif" font-size="14" lengthAdjust="spacing" textLength="106" x="7372" y="78.9951">Placeholder_12</text></g><!--link aName to aName--><g id="link_aName_aName"><path d="M7626.27,67.52 C7645.02,67.4 7661,67.9 7661,69 C7661,70.1 7645.02,70.6 7626.27,70.48 " fill="none" id="aName-aName" style="stroke:#181818;stroke-width:1.0;"/><text fill="#000000" font-family="sans-serif" font-size="13" lengthAdjust="spacing" textLength="200" x="7674" y="73.5669">demo_UserRepository_Provider</text><path d="M7619.1538,60.4943 A10,10 0 0 0 7619.2443 74.6362" fill="none" style="stroke:#181818;stroke-width:1.5;"/><ellipse cx="7626.27" cy="67.52" fill="#FFFFFF" rx="6" ry="6" style="stroke:#181818;stroke-width:1.5;"/></g><!--link aName to aName--><g id="link_aName_aName"><path d="M7626.14,67.13 C7713.27,65.15 7887,65.77 7887,69 C7887,72.23 7713.27,72.85 7626.14,70.87 " fill="none" id="aName-aName-1" style="stroke:#181818;stroke-width:1.0;"/><text fill="#000000" font-family="sans-serif" font-size="13" lengthAdjust="spacing" textLength="180" x="7900" y="73.5669">demo_UserService_Provider</text><path d="M7618.9101,60.2214 A10,10 0 0 0 7619.2314 74.3599" fill="none" style="stroke:#181818;stroke-width:1.5;"/><ellipse cx="7626.14" cy="67.13" fill="#FFFFFF" rx="6" ry="6" style="stroke:#181818;stroke-width:1.5;"/></g><!--link aName to aName--><g id="link_aName_aName"><path d="M7626.26,66.79 C7754.61,63.12 8093,63.86 8093,69 C8093,74.14 7754.61,74.88 7626.26,71.21 " fill="none" id="aName-aName-2" style="stroke:#181818;stroke-width:1.0;"/><text fill="#000000" font-family="sans-serif" font-size="13" lengthAdjust="spacing" textLength="280" x="8106" y="73.5669">demo_account_AccountRepository_Provider</text><path d="M7618.9897,59.9239 A10,10 0 0 0 7619.3939 74.0603" fill="none" style="stroke:#181818;stroke-width:1.5;"/><ellipse cx="7626.26" cy="66.79" fill="#FFFFFF" rx="6" ry="6" style="stroke:#181818;stroke-width:1.5;"/></g><!--link aName to aName--><g id="link_aName_aName"><path d="M7626.01,66.63 C7801.57,61.1 8399,61.89 8399,69 C8399,76.11 7801.57,76.9 7626.01,71.37 " fill="none" id="aName-aName-3" style="stroke:#181818;stroke-width:1.0;"/><text fill="#000000" font-family="sans-serif" font-size="13" lengthAdjust="spacing" textLength="267" x="8412" y="73.5669">demo_api_v1_AccountServiceV1_Provider</text><path d="M7618.7198,59.7851 A10,10 0 0 0 7619.1651 73.9202" fill="none" style="stroke:#181818;stroke-width:1.5;"/><ellipse cx="7626.01" cy="66.63" fill="#FFFFFF" rx="6" ry="6" style="stroke:#181818;stroke-width:1.5;"/></g><!--link aName to aName--><g id="link_aName_aName"><path d="M7626.3,66.45 C7840.32,59.09 8692,59.94 8692,69 C8692,78.06 7840.32,78.91 7626.3,71.55 " fill="none" id="aName-aName-4" style="stroke:#181818;stroke-width:1.0;"/><text fill="#000000" font-family="sans-serif" font-size="13" lengthAdjust="spacing" textLength="264" x="8705" y="73.5669">demo_api_v1_CatalogServiceV1_Provider</text><path d="M7618.9901,59.6261 A10,10 0 0 0 7619.4761 73.7599" fill="none" style="stroke:#181818;stroke-width:1.5;"/><ellipse cx="7626.3" cy="66.45" fill="#FFFFFF" rx="6" ry="6" style="stroke:#181818;stroke-width:1.5;"/></g><!--link aName to aName--><g id="link_aName_aName"><path d="M7626.27,66.29 C7873.61,57.08 8982,57.98 8982,69 C8982,80.02 7873.61,80.92 7626.27,71.71 " fill="none" id="aName-aName-5" style="stroke:#181818;stroke-width:1.0;"/><text fill="#000000" font-family="sans-serif" font-size="13" lengthAdjust="spacing" textLength="287" x="8995" y="73.5669">demo_api_v1_OAuth2RestTemplate_Provider</text><path d="M7618.9407,59.4869 A10,10 0 0 0 7619.4669 73.6193" fill="none" style="stroke:#181818;stroke-width:1.5;"/><ellipse cx="7626.27" cy="66.29" fill="#FFFFFF" rx="6" ry="6" style="stroke:#181818;stroke-width:1.5;"/></g><!--link aName to aName--><g id="link_aName_aName"><path d="M7626.4,66.15 C7906.48,55.08 9295,56.03 9295,69 C9295,81.97 7906.48,82.92 7626.4,71.85 " fill="none" id="aName-aName-6" style="stroke:#181818;stroke-width:1.0;"/><text fill="#000000" font-family="sans-serif" font-size="13" lengthAdjust="spacing" textLength="287" x="9308" y="73.5669">demo_api_v1_OAuth2RestTemplate_Provider</text><path d="M7619.0552,59.3637 A10,10 0 0 0 7619.6137 73.4948" fill="none" style="stroke:#181818;stroke-width:1.5;"/><ellipse cx="7626.4" cy="66.15" fill="#FFFFFF" rx="6" ry="6" style="stroke:#181818;stroke-width:1.5;"/></g><!--link aName to aName--><g id="link_aName_aName"><path d="M7626.37,66.02 C7936.28,53.07 9608,54.06 9608,69 C9608,83.94 7936.28,84.93 7626.37,71.98 " fill="none" id="aName-aName-7" style="stroke:#181818;stroke-width:1.0;"/><text fill="#000000" font-family="sans-serif" font-size="13" lengthAdjust="spacing" textLength="287" x="9621" y="73.5669">demo_api_v1_OAuth2RestTemplate_Provider</text><path d="M7619.0099,59.2503 A10,10 0 0 0 7619.6003 73.3801" fill="none" style="stroke:#181818;stroke-width:1.5;"/><ellipse cx="7626.37" cy="66.02" fill="#FFFFFF" rx="6" ry="6" style="stroke:#181818;stroke-width:1.5;"/></g><!--link aName to aName--><g id="link_aName_aName"><path d="M7626.13,65.92 C7963.3,51.07 9921,52.09 9921,69 C9921,85.91 7963.3,86.93 7626.13,72.08 " fill="none" id="aName-aName-8" style="stroke:#181818;stroke-width:1.0;"/><text fill="#000000" font-family="sans-serif" font-size="13" lengthAdjust="spacing" textLength="251" x="9934" y="73.5669">demo_api_v1_OrderServiceV1_Provider</text><path d="M7618.7547,59.1669 A10,10 0 0 0 7619.3769 73.2953" fill="none" style="stroke:#181818;stroke-width:1.5;"/><ellipse cx="7626.13" cy="65.92" fill="#FFFFFF" rx="6" ry="6" style="stroke:#181818;stroke-width:1.5;"/></g><!--link aName to aName--><g id="link_aName_aName"><path d="M7626.09,65.79 C7986.83,49.06 10198,50.13 10198,69 C10198,87.87 7986.83,88.94 7626.09,72.21 " fill="none" id="aName-aName-9" style="stroke:#181818;stroke-width:1.0;"/><text fill="#000000" font-family="sans-serif" font-size="13" lengthAdjust="spacing" textLength="239" x="10211" y="73.5669">demo_api_v1_RestTemplate_Provider</text><path d="M7618.6989,59.0541 A10,10 0 0 0 7619.3541 73.1811" fill="none" style="stroke:#181818;stroke-width:1.5;"/><ellipse cx="7626.09" cy="65.79" fill="#FFFFFF" rx="6" ry="6" style="stroke:#181818;stroke-width:1.5;"/></g><!--link aName to aName--><g id="link_aName_aName"><path d="M7626.08,65.67 C8008.69,47.06 10463,48.17 10463,69 C10463,89.83 8008.69,90.94 7626.08,72.33 " fill="none" id="aName-aName-10" style="stroke:#181818;stroke-width:1.0;"/><text fill="#000000" font-family="sans-serif" font-size="13" lengthAdjust="spacing" textLength="239" x="10476" y="73.5669">demo_api_v1_RestTemplate_Provider</text><path d="M7618.6738,58.9508 A10,10 0 0 0 7619.3608 73.0762" fill="none" style="stroke:#181818;stroke-width:1.5;"/><ellipse cx="7626.08" cy="65.67" fill="#FFFFFF" rx="6" ry="6" style="stroke:#181818;stroke-width:1.5;"/></g><!--link aName to aName--><g id="link_aName_aName"><path d="M7626.12,65.56 C8029.99,45.06 10728,46.21 10728,69 C10728,91.79 8029.99,92.94 7626.12,72.44 " fill="none" id="aName-aName-11" style="stroke:#181818;stroke-width:1.0;"/><text fill="#000000" font-family="sans-serif" font-size="13" lengthAdjust="spacing" textLength="302" x="10741" y="73.5669">demo_api_v1_ShoppingCartServiceV1_Provider</text><path d="M7618.6996,58.8565 A10,10 0 0 0 7619.4165 72.9804" fill="none" style="stroke:#181818;stroke-width:1.5;"/><ellipse cx="7626.12" cy="65.56" fill="#FFFFFF" rx="6" ry="6" style="stroke:#181818;stroke-width:1.5;"/></g><!--link aName to aName--><g id="link_aName_aName"><path d="M7626.09,65.48 C8054.24,43.06 11056,44.23 11056,69 C11056,93.77 8054.24,94.94 7626.09,72.52 " fill="none" id="aName-aName-12" style="stroke:#181818;stroke-width:1.0;"/><text fill="#000000" font-family="sans-serif" font-size="13" lengthAdjust="spacing" textLength="245" x="11069" y="73.5669">demo_api_v1_UserServiceV1_Provider</text><path d="M7618.6588,58.7884 A10,10 0 0 0 7619.3984 72.9112" fill="none" style="stroke:#181818;stroke-width:1.5;"/><ellipse cx="7626.09" cy="65.48" fill="#FFFFFF" rx="6" ry="6" style="stroke:#181818;stroke-width:1.5;"/></g><!--link aName to aName--><g id="link_aName_aName"><path d="M7626.22,65.38 C8074.94,41.06 11327,42.26 11327,69 C11327,95.74 8074.94,96.94 7626.22,72.62 " fill="none" id="aName-aName-13" style="stroke:#181818;stroke-width:1.0;"/><text fill="#000000" font-family="sans-serif" font-size="13" lengthAdjust="spacing" textLength="265" x="11340" y="73.5669">demo_cart_CartEventRepository_Provider</text><path d="M7618.7766,58.702 A10,10 0 0 0 7619.542 72.8234" fill="none" style="stroke:#181818;stroke-width:1.5;"/><ellipse cx="7626.22" cy="65.38" fill="#FFFFFF" rx="6" ry="6" style="stroke:#181818;stroke-width:1.5;"/></g><!--link aName to aName--><g id="link_aName_aName"><path d="M7626.11,65.3 C8095.11,39.06 11618,40.29 11618,69 C11618,97.71 8095.11,98.94 7626.11,72.7 " fill="none" id="aName-aName-14" style="stroke:#181818;stroke-width:1.0;"/><text fill="#000000" font-family="sans-serif" font-size="13" lengthAdjust="spacing" textLength="296" x="11631" y="73.5669">demo_catalog_CatalogInfoRepository_Provider</text><path d="M7618.655,58.635 A10,10 0 0 0 7619.445 72.755" fill="none" style="stroke:#181818;stroke-width:1.5;"/><ellipse cx="7626.11" cy="65.3" fill="#FFFFFF" rx="6" ry="6" style="stroke:#181818;stroke-width:1.5;"/></g><!--link aName to aName--><g id="link_aName_aName"><path d="M7626.18,65.22 C8117.32,37.05 11940,38.31 11940,69 C11940,99.69 8117.32,100.95 7626.18,72.78 " fill="none" id="aName-aName-15" style="stroke:#181818;stroke-width:1.0;"/><text fill="#000000" font-family="sans-serif" font-size="13" lengthAdjust="spacing" textLength="295" x="11953" y="73.5669">demo_inventory_InventoryRepository_Provider</text><path d="M7618.7156,58.5654 A10,10 0 0 0 7619.5254 72.6844" fill="none" style="stroke:#181818;stroke-width:1.5;"/><ellipse cx="7626.18" cy="65.22" fill="#FFFFFF" rx="6" ry="6" style="stroke:#181818;stroke-width:1.5;"/></g><!--link aName to aName--><g id="link_aName_aName"><path d="M7626.3,65.15 C8139.19,35.05 12261,36.34 12261,69 C12261,101.66 8139.19,102.95 7626.3,72.85 " fill="none" id="aName-aName-16" style="stroke:#181818;stroke-width:1.0;"/><text fill="#000000" font-family="sans-serif" font-size="13" lengthAdjust="spacing" textLength="265" x="12274" y="73.5669">demo_invoice_InvoiceRepository_Provider</text><path d="M7618.8268,58.5053 A10,10 0 0 0 7619.6553 72.6232" fill="none" style="stroke:#181818;stroke-width:1.5;"/><ellipse cx="7626.3" cy="65.15" fill="#FFFFFF" rx="6" ry="6" style="stroke:#181818;stroke-width:1.5;"/></g><!--link aName to aName--><g id="link_aName_aName"><path d="M7626.02,65.09 C8156.79,33.05 12552,34.35 12552,69 C12552,103.65 8156.79,104.95 7626.02,72.91 " fill="none" id="aName-aName-17" style="stroke:#181818;stroke-width:1.0;"/><text fill="#000000" font-family="sans-serif" font-size="13" lengthAdjust="spacing" textLength="289" x="12565" y="73.5669">demo_login_AuthenticationManager_Provider</text><path d="M7618.5357,58.4579 A10,10 0 0 0 7619.3879 72.5743" fill="none" style="stroke:#181818;stroke-width:1.5;"/><ellipse cx="7626.02" cy="65.09" fill="#FFFFFF" rx="6" ry="6" style="stroke:#181818;stroke-width:1.5;"/></g><!--link aName to aName--><g id="link_aName_aName"><path d="M7626,65.03 C8176.59,31.05 12867,32.37 12867,69 C12867,105.63 8176.59,106.95 7626,72.97 " fill="none" id="aName-aName-18" style="stroke:#181818;stroke-width:1.0;"/><text fill="#000000" font-family="sans-serif" font-size="13" lengthAdjust="spacing" textLength="267" x="12880" y="73.5669">demo_login_ClientDetailsService_Provider</text><path d="M7618.5068,58.4079 A10,10 0 0 0 7619.3779 72.5232" fill="none" style="stroke:#181818;stroke-width:1.5;"/><ellipse cx="7626" cy="65.03" fill="#FFFFFF" rx="6" ry="6" style="stroke:#181818;stroke-width:1.5;"/></g><!--link aName to aName--><g id="link_aName_aName"><path d="M7626.11,64.96 C8195.67,29.05 13160,30.4 13160,69 C13160,107.6 8195.67,108.95 7626.11,73.04 " fill="none" id="aName-aName-19" style="stroke:#181818;stroke-width:1.0;"/><text fill="#000000" font-family="sans-serif" font-size="13" lengthAdjust="spacing" textLength="387" x="13173" y="73.5669">demo_login_HttpSessionSecurityContextRepository_Provider</text><path d="M7618.608,58.3479 A10,10 0 0 0 7619.4979 72.462" fill="none" style="stroke:#181818;stroke-width:1.5;"/><ellipse cx="7626.11" cy="64.96" fill="#FFFFFF" rx="6" ry="6" style="stroke:#181818;stroke-width:1.5;"/></g><!--link aName to aName--><g id="link_aName_aName"><path d="M7626,64.93 C8218.65,27.05 13573,28.4 13573,69 C13573,109.6 8218.65,110.95 7626,73.07 " fill="none" id="aName-aName-20" style="stroke:#181818;stroke-width:1.0;"/><text fill="#000000" font-family="sans-serif" font-size="13" lengthAdjust="spacing" textLength="283" x="13586" y="73.5669">demo_order_OrderEventRepository_Provider</text><path d="M7618.4923,58.3244 A10,10 0 0 0 7619.3944 72.4377" fill="none" style="stroke:#181818;stroke-width:1.5;"/><ellipse cx="7626" cy="64.93" fill="#FFFFFF" rx="6" ry="6" style="stroke:#181818;stroke-width:1.5;"/></g><!--link aName to aName--><g id="link_aName_aName"><path d="M7626.24,64.85 C8238.49,25.05 13882,26.43 13882,69 C13882,111.57 8238.49,112.95 7626.24,73.15 " fill="none" id="aName-aName-21" style="stroke:#181818;stroke-width:1.0;"/><text fill="#000000" font-family="sans-serif" font-size="13" lengthAdjust="spacing" textLength="247" x="13895" y="73.5669">demo_order_OrderRepository_Provider</text><path d="M7618.7251,58.2525 A10,10 0 0 0 7619.6425 72.3649" fill="none" style="stroke:#181818;stroke-width:1.5;"/><ellipse cx="7626.24" cy="64.85" fill="#FFFFFF" rx="6" ry="6" style="stroke:#181818;stroke-width:1.5;"/></g><!--link aName to aName--><g id="link_aName_aName"><path d="M7626.23,64.79 C8254.96,23.05 14155,24.45 14155,69 C14155,113.55 8254.96,114.95 7626.23,73.21 " fill="none" id="aName-aName-22" style="stroke:#181818;stroke-width:1.0;"/><text fill="#000000" font-family="sans-serif" font-size="13" lengthAdjust="spacing" textLength="247" x="14168" y="73.5669">demo_order_OrderRepository_Provider</text><path d="M7618.7061,58.2029 A10,10 0 0 0 7619.6429 72.3139" fill="none" style="stroke:#181818;stroke-width:1.5;"/><ellipse cx="7626.23" cy="64.79" fill="#FFFFFF" rx="6" ry="6" style="stroke:#181818;stroke-width:1.5;"/></g><!--link aName to aName--><g id="link_aName_aName"><path d="M7626.09,64.74 C8270.43,21.04 14428,22.46 14428,69 C14428,115.54 8270.43,116.96 7626.09,73.26 " fill="none" id="aName-aName-23" style="stroke:#181818;stroke-width:1.0;"/><text fill="#000000" font-family="sans-serif" font-size="13" lengthAdjust="spacing" textLength="275" x="14441" y="73.5669">demo_product_ProductRepository_Provider</text><path d="M7618.5567,58.1636 A10,10 0 0 0 7619.5136 72.2733" fill="none" style="stroke:#181818;stroke-width:1.5;"/><ellipse cx="7626.09" cy="64.74" fill="#FFFFFF" rx="6" ry="6" style="stroke:#181818;stroke-width:1.5;"/></g><!--link aName to aName--><g id="link_aName_aName"><path d="M7626.41,64.67 C8289.77,19.04 14729,20.49 14729,69 C14729,117.51 8289.77,118.96 7626.41,73.33 " fill="none" id="aName-aName-24" style="stroke:#181818;stroke-width:1.0;"/><text fill="#000000" font-family="sans-serif" font-size="13" lengthAdjust="spacing" textLength="235" x="14742" y="73.5669">demo_user_UserRepository_Provider</text><path d="M7618.8704,58.1008 A10,10 0 0 0 7619.8408 72.2096" fill="none" style="stroke:#181818;stroke-width:1.5;"/><ellipse cx="7626.41" cy="64.67" fill="#FFFFFF" rx="6" ry="6" style="stroke:#181818;stroke-width:1.5;"/></g><!--link aName to aName--><g id="link_aName_aName"><path d="M7626.01,64.64 C8302.62,17.04 14990,18.5 14990,69 C14990,119.5 8302.62,120.96 7626.01,73.36 " fill="none" id="aName-aName-25" style="stroke:#181818;stroke-width:1.0;"/><text fill="#000000" font-family="sans-serif" font-size="13" lengthAdjust="spacing" textLength="248" x="15003" y="73.5669">demo_v1_InventoryServiceV1_Provider</text><path d="M7618.4601,58.0826 A10,10 0 0 0 7619.4526 72.1899" fill="none" style="stroke:#181818;stroke-width:1.5;"/><ellipse cx="7626.01" cy="64.64" fill="#FFFFFF" rx="6" ry="6" style="stroke:#181818;stroke-width:1.5;"/></g><!--link aName to aName--><g id="link_aName_aName"><path d="M7626.06,64.58 C8318.72,15.04 15264,16.52 15264,69 C15264,121.48 8318.72,122.96 7626.06,73.42 " fill="none" id="aName-aName-26" style="stroke:#181818;stroke-width:1.0;"/><text fill="#000000" font-family="sans-serif" font-size="13" lengthAdjust="spacing" textLength="175" x="15277" y="73.5669">demo_v1_Session_Provider</text><path d="M7618.5025,58.0314 A10,10 0 0 0 7619.5114 72.1375" fill="none" style="stroke:#181818;stroke-width:1.5;"/><ellipse cx="7626.06" cy="64.58" fill="#FFFFFF" rx="6" ry="6" style="stroke:#181818;stroke-width:1.5;"/></g><!--link aName to aName--><g id="link_aName_aName"><path d="M7626.11,64.51 C8331.92,13.04 15465,14.54 15465,69 C15465,123.46 8331.92,124.96 7626.11,73.49 " fill="none" id="aName-aName-27" style="stroke:#181818;stroke-width:1.0;"/><text fill="#000000" font-family="sans-serif" font-size="13" lengthAdjust="spacing" textLength="139" x="15478" y="73.5669">user_service_Provider</text><path d="M7618.5434,57.9719 A10,10 0 0 0 7619.5719 72.0766" fill="none" style="stroke:#181818;stroke-width:1.5;"/><ellipse cx="7626.11" cy="64.51" fill="#FFFFFF" rx="6" ry="6" style="stroke:#181818;stroke-width:1.5;"/></g><!--link aName to aName--><g id="link_aName_aName"><path d="M7626.03,64.45 C8342.76,11.04 15630,12.56 15630,69 C15630,125.44 8342.76,126.96 7626.03,73.55 " fill="none" id="aName-aName-28" style="stroke:#181818;stroke-width:1.0;"/><text fill="#000000" font-family="sans-serif" font-size="13" lengthAdjust="spacing" textLength="139" x="15643" y="73.5669">user_service_Provider</text><path d="M7618.453,57.924 A10,10 0 0 0 7619.504 72.027" fill="none" style="stroke:#181818;stroke-width:1.5;"/><ellipse cx="7626.03" cy="64.45" fill="#FFFFFF" rx="6" ry="6" style="stroke:#181818;stroke-width:1.5;"/></g><!--SRC=[rLZHQjim57tFLnZsiXUFElQIRcybwrXWMqkpxc4X65M-TRJAaf5aBs7qtoVLIobiqCYm0tkI7NHqTEyzzqYElHEgPOOroQtOBOJXaZwo6v8NFHd9sbQeEd6ceudI5IMNad7QQbcHARCtoS_9cdrc3MsIzVhkXbd7b4XjQpmevL9tLKezAPTQtHaUVgGTQrf9h-pUEcfUbFBRZxIUdrwVqoobz7k-Qz-Nfjvi9lT_ykLJBDzqXkNBJi5ySt0-mU5bMBxNu6mMuF30wSnFm7pW-C3boz1yuEg1myl1NZq5yw6FXXoiJhIvWDC9Fchdu7HEmUu2lWZEmTq7hbu1lYdbuE-K0jnzCtItW_boS3iKwCC8R2y5s3t1LvSSNBu2R9zeDmFpPV_MNGuhfozFqkJmyZQfgD7bjILpHQssmccpBo-DxeNVqhEO5PbUS3eEm3ZNdNBbsJ36yh5Mb7rsGFzc_ff5WHVCCQdhSU2BiyvjfrTatHVoIMUE_YUugHxB5HdtQCxHmDLMF_pzkc1cPA6VYFDO9FTaPM0y3oqMgqu-AEkWiAMwrR5B21M8m_JbuMd44Zhqut8OO-5-uqALGMYUNlYGX5QVc6ArTwU81HPIUFmxSan86sKH0_w3S-sAhFNiA-AT4Mw_qChHBhegEgX-qFwegZx10w6jqLN7NPWSnbXuvxK_oj5ztpmgBx9vGjCE5Njs_iFsx96g-FlaNm00]--></g></svg>