<?xml version="1.0" encoding="us-ascii" standalone="no"?><svg xmlns="http://www.w3.org/2000/svg" xmlns:xlink="http://www.w3.org/1999/xlink" contentStyleType="text/css" height="125px" preserveAspectRatio="none" style="width:2151px;height:125px;background:#FFFFFF;" version="1.1" viewBox="0 0 2151 125" width="2151px" zoomAndPan="magnify"><defs/><g><!--cluster Placeholder_13--><g id="cluster_Placeholder_13"><polygon fill="none" points="1938,16,1948,6,2134,6,2134,98,2124,108,1938,108,1938,16" style="stroke:#181818;stroke-width:1.0;"/><line style="stroke:#181818;stroke-width:1.0;" x1="2124" x2="2134" y1="16" y2="6"/><line style="stroke:#181818;stroke-width:1.0;" x1="1938" x2="2124" y1="16" y2="16"/><line style="stroke:#181818;stroke-width:1.0;" x1="2124" x2="2124" y1="16" y2="108"/><text fill="#000000" font-family="sans-serif" font-size="14" font-weight="bold" lengthAdjust="spacing" textLength="120" x="1972" y="31.9951">Placeholder_13</text></g><!--entity aName--><g id="elem_aName"><a href="corona-warn-app-cwa-verification-server.system#_kBOeSb8UEe6FM9RG0jyLOA" target="_top" title="corona-warn-app-cwa-verification-server.system#_kBOeSb8UEe6FM9RG0jyLOA" xlink:actuate="onRequest" xlink:href="corona-warn-app-cwa-verification-server.system#_kBOeSb8UEe6FM9RG0jyLOA" xlink:show="new" xlink:title="corona-warn-app-cwa-verification-server.system#_kBOeSb8UEe6FM9RG0jyLOA" xlink:type="simple"><rect fill="#F1F1F1" height="46.2969" rx="2.5" ry="2.5" style="stroke:#181818;stroke-width:0.5;" width="88" x="1955" y="46"/><rect fill="#F1F1F1" height="10" style="stroke:#181818;stroke-width:0.5;" width="15" x="2023" y="51"/><rect fill="#F1F1F1" height="2" style="stroke:#181818;stroke-width:0.5;" width="4" x="2021" y="53"/><rect fill="#F1F1F1" height="2" style="stroke:#181818;stroke-width:0.5;" width="4" x="2021" y="57"/><text fill="#000000" font-family="sans-serif" font-size="14" lengthAdjust="spacing" textLength="48" x="1970" y="78.9951">aName</text></a></g><!--entity Placeholder_12--><g id="elem_Placeholder_12"><polygon fill="#F1F1F1" points="16,56,26,46,162,46,162,82.2969,152,92.2969,16,92.2969,16,56" style="stroke:#181818;stroke-width:0.5;"/><line style="stroke:#181818;stroke-width:0.5;" x1="152" x2="162" y1="56" y2="46"/><line style="stroke:#181818;stroke-width:0.5;" x1="16" x2="152" y1="56" y2="56"/><line style="stroke:#181818;stroke-width:0.5;" x1="152" x2="152" y1="56" y2="92.2969"/><text fill="#000000" font-family="sans-serif" font-size="14" lengthAdjust="spacing" textLength="106" x="31" y="78.9951">Placeholder_12</text></g><!--entity Placeholder_15--><g id="elem_Placeholder_15"><polygon fill="#F1F1F1" points="197,56,207,46,343,46,343,82.2969,333,92.2969,197,92.2969,197,56" style="stroke:#181818;stroke-width:0.5;"/><line style="stroke:#181818;stroke-width:0.5;" x1="333" x2="343" y1="56" y2="46"/><line style="stroke:#181818;stroke-width:0.5;" x1="197" x2="333" y1="56" y2="56"/><line style="stroke:#181818;stroke-width:0.5;" x1="333" x2="333" y1="56" y2="92.2969"/><text fill="#000000" font-family="sans-serif" font-size="14" lengthAdjust="spacing" textLength="106" x="212" y="78.9951">Placeholder_15</text></g><!--entity Placeholder_6--><g id="elem_Placeholder_6"><polygon fill="#F1F1F1" points="378.5,56,388.5,46,515.5,46,515.5,82.2969,505.5,92.2969,378.5,92.2969,378.5,56" style="stroke:#181818;stroke-width:0.5;"/><line style="stroke:#181818;stroke-width:0.5;" x1="505.5" x2="515.5" y1="56" y2="46"/><line style="stroke:#181818;stroke-width:0.5;" x1="378.5" x2="505.5" y1="56" y2="56"/><line style="stroke:#181818;stroke-width:0.5;" x1="505.5" x2="505.5" y1="56" y2="92.2969"/><text fill="#000000" font-family="sans-serif" font-size="14" lengthAdjust="spacing" textLength="97" x="393.5" y="78.9951">Placeholder_6</text></g><!--entity Placeholder_7--><g id="elem_Placeholder_7"><polygon fill="#F1F1F1" points="550.5,56,560.5,46,687.5,46,687.5,82.2969,677.5,92.2969,550.5,92.2969,550.5,56" style="stroke:#181818;stroke-width:0.5;"/><line style="stroke:#181818;stroke-width:0.5;" x1="677.5" x2="687.5" y1="56" y2="46"/><line style="stroke:#181818;stroke-width:0.5;" x1="550.5" x2="677.5" y1="56" y2="56"/><line style="stroke:#181818;stroke-width:0.5;" x1="677.5" x2="677.5" y1="56" y2="92.2969"/><text fill="#000000" font-family="sans-serif" font-size="14" lengthAdjust="spacing" textLength="97" x="565.5" y="78.9951">Placeholder_7</text></g><!--entity Placeholder_3--><g id="elem_Placeholder_3"><polygon fill="#F1F1F1" points="722.5,56,732.5,46,859.5,46,859.5,82.2969,849.5,92.2969,722.5,92.2969,722.5,56" style="stroke:#181818;stroke-width:0.5;"/><line style="stroke:#181818;stroke-width:0.5;" x1="849.5" x2="859.5" y1="56" y2="46"/><line style="stroke:#181818;stroke-width:0.5;" x1="722.5" x2="849.5" y1="56" y2="56"/><line style="stroke:#181818;stroke-width:0.5;" x1="849.5" x2="849.5" y1="56" y2="92.2969"/><text fill="#000000" font-family="sans-serif" font-size="14" lengthAdjust="spacing" textLength="97" x="737.5" y="78.9951">Placeholder_3</text></g><!--entity Placeholder_9--><g id="elem_Placeholder_9"><polygon fill="#F1F1F1" points="894.5,56,904.5,46,1031.5,46,1031.5,82.2969,1021.5,92.2969,894.5,92.2969,894.5,56" style="stroke:#181818;stroke-width:0.5;"/><line style="stroke:#181818;stroke-width:0.5;" x1="1021.5" x2="1031.5" y1="56" y2="46"/><line style="stroke:#181818;stroke-width:0.5;" x1="894.5" x2="1021.5" y1="56" y2="56"/><line style="stroke:#181818;stroke-width:0.5;" x1="1021.5" x2="1021.5" y1="56" y2="92.2969"/><text fill="#000000" font-family="sans-serif" font-size="14" lengthAdjust="spacing" textLength="97" x="909.5" y="78.9951">Placeholder_9</text></g><!--entity Placeholder_8--><g id="elem_Placeholder_8"><polygon fill="#F1F1F1" points="1066.5,56,1076.5,46,1203.5,46,1203.5,82.2969,1193.5,92.2969,1066.5,92.2969,1066.5,56" style="stroke:#181818;stroke-width:0.5;"/><line style="stroke:#181818;stroke-width:0.5;" x1="1193.5" x2="1203.5" y1="56" y2="46"/><line style="stroke:#181818;stroke-width:0.5;" x1="1066.5" x2="1193.5" y1="56" y2="56"/><line style="stroke:#181818;stroke-width:0.5;" x1="1193.5" x2="1193.5" y1="56" y2="92.2969"/><text fill="#000000" font-family="sans-serif" font-size="14" lengthAdjust="spacing" textLength="97" x="1081.5" y="78.9951">Placeholder_8</text></g><!--entity Placeholder_11--><g id="elem_Placeholder_11"><polygon fill="#F1F1F1" points="1239,56,1249,46,1385,46,1385,82.2969,1375,92.2969,1239,92.2969,1239,56" style="stroke:#181818;stroke-width:0.5;"/><line style="stroke:#181818;stroke-width:0.5;" x1="1375" x2="1385" y1="56" y2="46"/><line style="stroke:#181818;stroke-width:0.5;" x1="1239" x2="1375" y1="56" y2="56"/><line style="stroke:#181818;stroke-width:0.5;" x1="1375" x2="1375" y1="56" y2="92.2969"/><text fill="#000000" font-family="sans-serif" font-size="14" lengthAdjust="spacing" textLength="106" x="1254" y="78.9951">Placeholder_11</text></g><!--entity Placeholder_17--><g id="elem_Placeholder_17"><polygon fill="#F1F1F1" points="1420,56,1430,46,1566,46,1566,82.2969,1556,92.2969,1420,92.2969,1420,56" style="stroke:#181818;stroke-width:0.5;"/><line style="stroke:#181818;stroke-width:0.5;" x1="1556" x2="1566" y1="56" y2="46"/><line style="stroke:#181818;stroke-width:0.5;" x1="1420" x2="1556" y1="56" y2="56"/><line style="stroke:#181818;stroke-width:0.5;" x1="1556" x2="1556" y1="56" y2="92.2969"/><text fill="#000000" font-family="sans-serif" font-size="14" lengthAdjust="spacing" textLength="106" x="1435" y="78.9951">Placeholder_17</text></g><!--entity Placeholder_10--><g id="elem_Placeholder_10"><polygon fill="#F1F1F1" points="1601,56,1611,46,1747,46,1747,82.2969,1737,92.2969,1601,92.2969,1601,56" style="stroke:#181818;stroke-width:0.5;"/><line style="stroke:#181818;stroke-width:0.5;" x1="1737" x2="1747" y1="56" y2="46"/><line style="stroke:#181818;stroke-width:0.5;" x1="1601" x2="1737" y1="56" y2="56"/><line style="stroke:#181818;stroke-width:0.5;" x1="1737" x2="1737" y1="56" y2="92.2969"/><text fill="#000000" font-family="sans-serif" font-size="14" lengthAdjust="spacing" textLength="106" x="1616" y="78.9951">Placeholder_10</text></g><!--entity Placeholder_0--><g id="elem_Placeholder_0"><polygon fill="#F1F1F1" points="1782.5,56,1792.5,46,1919.5,46,1919.5,82.2969,1909.5,92.2969,1782.5,92.2969,1782.5,56" style="stroke:#181818;stroke-width:0.5;"/><line style="stroke:#181818;stroke-width:0.5;" x1="1909.5" x2="1919.5" y1="56" y2="46"/><line style="stroke:#181818;stroke-width:0.5;" x1="1782.5" x2="1909.5" y1="56" y2="56"/><line style="stroke:#181818;stroke-width:0.5;" x1="1909.5" x2="1909.5" y1="56" y2="92.2969"/><text fill="#000000" font-family="sans-serif" font-size="14" lengthAdjust="spacing" textLength="97" x="1797.5" y="78.9951">Placeholder_0</text></g><!--SRC=[lTAn3e8m4CRndQTeubm36X56DUg2OZHEX9YZ75efBIae4kExomEuUkCDt_sMVrDANOE5YXNojP9MA8mWGnK_qIgeQwclhBKFTBJ9aHqK2BmPbQEzU5FsTXBOGuKfIn9XhD70Ex2Q3pikEk333rb80QqqcZTeXtlSz4sBrUXIBcCyPS5vZVvc5nwtxhsFuaMQEfyVr8IEcf5HFfaq9vFecWZ9f80kFe-Eecl2SycelqbV]--></g></svg>