<?xml version="1.0" encoding="us-ascii" standalone="no"?><svg xmlns="http://www.w3.org/2000/svg" xmlns:xlink="http://www.w3.org/1999/xlink" contentStyleType="text/css" height="125px" preserveAspectRatio="none" style="width:2704px;height:125px;background:#FFFFFF;" version="1.1" viewBox="0 0 2704 125" width="2704px" zoomAndPan="magnify"><defs/><g><!--cluster Placeholder_8--><g id="cluster_Placeholder_8"><polygon fill="none" points="1396.5,16,1406.5,6,2687.5,6,2687.5,98,2677.5,108,1396.5,108,1396.5,16" style="stroke:#181818;stroke-width:1.0;"/><line style="stroke:#181818;stroke-width:1.0;" x1="2677.5" x2="2687.5" y1="16" y2="6"/><line style="stroke:#181818;stroke-width:1.0;" x1="1396.5" x2="2677.5" y1="16" y2="16"/><line style="stroke:#181818;stroke-width:1.0;" x1="2677.5" x2="2677.5" y1="16" y2="108"/><text fill="#000000" font-family="sans-serif" font-size="14" font-weight="bold" lengthAdjust="spacing" textLength="110" x="1983" y="31.9951">Placeholder_8</text></g><!--entity aName--><g id="elem_aName"><a href="koushikkothagal-spring-boot-microservices-workshop.system#_kgz9Q78UEe6rzKOewLe8gQ" target="_top" title="koushikkothagal-spring-boot-microservices-workshop.system#_kgz9Q78UEe6rzKOewLe8gQ" xlink:actuate="onRequest" xlink:href="koushikkothagal-spring-boot-microservices-workshop.system#_kgz9Q78UEe6rzKOewLe8gQ" xlink:show="new" xlink:title="koushikkothagal-spring-boot-microservices-workshop.system#_kgz9Q78UEe6rzKOewLe8gQ" xlink:type="simple"><rect fill="#F1F1F1" height="46.2969" rx="2.5" ry="2.5" style="stroke:#181818;stroke-width:0.5;" width="88" x="1412.5" y="46"/><rect fill="#F1F1F1" height="10" style="stroke:#181818;stroke-width:0.5;" width="15" x="1480.5" y="51"/><rect fill="#F1F1F1" height="2" style="stroke:#181818;stroke-width:0.5;" width="4" x="1478.5" y="53"/><rect fill="#F1F1F1" height="2" style="stroke:#181818;stroke-width:0.5;" width="4" x="1478.5" y="57"/><text fill="#000000" font-family="sans-serif" font-size="14" lengthAdjust="spacing" textLength="48" x="1427.5" y="78.9951">aName</text></a></g><!--entity Placeholder_3--><g id="elem_Placeholder_3"><polygon fill="#F1F1F1" points="16,56,26,46,153,46,153,82.2969,143,92.2969,16,92.2969,16,56" style="stroke:#181818;stroke-width:0.5;"/><line style="stroke:#181818;stroke-width:0.5;" x1="143" x2="153" y1="56" y2="46"/><line style="stroke:#181818;stroke-width:0.5;" x1="16" x2="143" y1="56" y2="56"/><line style="stroke:#181818;stroke-width:0.5;" x1="143" x2="143" y1="56" y2="92.2969"/><text fill="#000000" font-family="sans-serif" font-size="14" lengthAdjust="spacing" textLength="97" x="31" y="78.9951">Placeholder_3</text></g><!--entity Placeholder_9--><g id="elem_Placeholder_9"><polygon fill="#F1F1F1" points="188,56,198,46,325,46,325,82.2969,315,92.2969,188,92.2969,188,56" style="stroke:#181818;stroke-width:0.5;"/><line style="stroke:#181818;stroke-width:0.5;" x1="315" x2="325" y1="56" y2="46"/><line style="stroke:#181818;stroke-width:0.5;" x1="188" x2="315" y1="56" y2="56"/><line style="stroke:#181818;stroke-width:0.5;" x1="315" x2="315" y1="56" y2="92.2969"/><text fill="#000000" font-family="sans-serif" font-size="14" lengthAdjust="spacing" textLength="97" x="203" y="78.9951">Placeholder_9</text></g><!--entity Placeholder_13--><g id="elem_Placeholder_13"><polygon fill="#F1F1F1" points="360.5,56,370.5,46,506.5,46,506.5,82.2969,496.5,92.2969,360.5,92.2969,360.5,56" style="stroke:#181818;stroke-width:0.5;"/><line style="stroke:#181818;stroke-width:0.5;" x1="496.5" x2="506.5" y1="56" y2="46"/><line style="stroke:#181818;stroke-width:0.5;" x1="360.5" x2="496.5" y1="56" y2="56"/><line style="stroke:#181818;stroke-width:0.5;" x1="496.5" x2="496.5" y1="56" y2="92.2969"/><text fill="#000000" font-family="sans-serif" font-size="14" lengthAdjust="spacing" textLength="106" x="375.5" y="78.9951">Placeholder_13</text></g><!--entity Placeholder_2--><g id="elem_Placeholder_2"><polygon fill="#F1F1F1" points="542,56,552,46,679,46,679,82.2969,669,92.2969,542,92.2969,542,56" style="stroke:#181818;stroke-width:0.5;"/><line style="stroke:#181818;stroke-width:0.5;" x1="669" x2="679" y1="56" y2="46"/><line style="stroke:#181818;stroke-width:0.5;" x1="542" x2="669" y1="56" y2="56"/><line style="stroke:#181818;stroke-width:0.5;" x1="669" x2="669" y1="56" y2="92.2969"/><text fill="#000000" font-family="sans-serif" font-size="14" lengthAdjust="spacing" textLength="97" x="557" y="78.9951">Placeholder_2</text></g><!--entity Placeholder_6--><g id="elem_Placeholder_6"><polygon fill="#F1F1F1" points="714,56,724,46,851,46,851,82.2969,841,92.2969,714,92.2969,714,56" style="stroke:#181818;stroke-width:0.5;"/><line style="stroke:#181818;stroke-width:0.5;" x1="841" x2="851" y1="56" y2="46"/><line style="stroke:#181818;stroke-width:0.5;" x1="714" x2="841" y1="56" y2="56"/><line style="stroke:#181818;stroke-width:0.5;" x1="841" x2="841" y1="56" y2="92.2969"/><text fill="#000000" font-family="sans-serif" font-size="14" lengthAdjust="spacing" textLength="97" x="729" y="78.9951">Placeholder_6</text></g><!--entity Placeholder_11--><g id="elem_Placeholder_11"><polygon fill="#F1F1F1" points="886.5,56,896.5,46,1032.5,46,1032.5,82.2969,1022.5,92.2969,886.5,92.2969,886.5,56" style="stroke:#181818;stroke-width:0.5;"/><line style="stroke:#181818;stroke-width:0.5;" x1="1022.5" x2="1032.5" y1="56" y2="46"/><line style="stroke:#181818;stroke-width:0.5;" x1="886.5" x2="1022.5" y1="56" y2="56"/><line style="stroke:#181818;stroke-width:0.5;" x1="1022.5" x2="1022.5" y1="56" y2="92.2969"/><text fill="#000000" font-family="sans-serif" font-size="14" lengthAdjust="spacing" textLength="106" x="901.5" y="78.9951">Placeholder_11</text></g><!--entity Placeholder_4--><g id="elem_Placeholder_4"><polygon fill="#F1F1F1" points="1068,56,1078,46,1205,46,1205,82.2969,1195,92.2969,1068,92.2969,1068,56" style="stroke:#181818;stroke-width:0.5;"/><line style="stroke:#181818;stroke-width:0.5;" x1="1195" x2="1205" y1="56" y2="46"/><line style="stroke:#181818;stroke-width:0.5;" x1="1068" x2="1195" y1="56" y2="56"/><line style="stroke:#181818;stroke-width:0.5;" x1="1195" x2="1195" y1="56" y2="92.2969"/><text fill="#000000" font-family="sans-serif" font-size="14" lengthAdjust="spacing" textLength="97" x="1083" y="78.9951">Placeholder_4</text></g><!--entity Placeholder_7--><g id="elem_Placeholder_7"><polygon fill="#F1F1F1" points="1240,56,1250,46,1377,46,1377,82.2969,1367,92.2969,1240,92.2969,1240,56" style="stroke:#181818;stroke-width:0.5;"/><line style="stroke:#181818;stroke-width:0.5;" x1="1367" x2="1377" y1="56" y2="46"/><line style="stroke:#181818;stroke-width:0.5;" x1="1240" x2="1367" y1="56" y2="56"/><line style="stroke:#181818;stroke-width:0.5;" x1="1367" x2="1367" y1="56" y2="92.2969"/><text fill="#000000" font-family="sans-serif" font-size="14" lengthAdjust="spacing" textLength="97" x="1255" y="78.9951">Placeholder_7</text></g><!--link aName to aName--><g id="link_aName_aName"><path d="M1500.77,66.15 C1519.52,65.94 1535.5,66.89 1535.5,69 C1535.5,71.11 1519.52,72.06 1500.77,71.85 " fill="none" id="aName-aName" style="stroke:#181818;stroke-width:1.0;"/><text fill="#000000" font-family="sans-serif" font-size="13" lengthAdjust="spacing" textLength="173" x="1548.5" y="73.5669">WebClient_Builder_Provider</text><path d="M1493.6202,59.1586 A10,10 0 0 0 1493.7786 73.2998" fill="none" style="stroke:#181818;stroke-width:1.5;"/><ellipse cx="1500.77" cy="66.15" fill="#FFFFFF" rx="6" ry="6" style="stroke:#181818;stroke-width:1.5;"/></g><!--link aName to aName--><g id="link_aName_aName"><path d="M1500.66,65.29 C1581.72,61.65 1734.5,62.88 1734.5,69 C1734.5,75.12 1581.72,76.35 1500.66,72.71 " fill="none" id="aName-aName-1" style="stroke:#181818;stroke-width:1.0;"/><text fill="#000000" font-family="sans-serif" font-size="13" lengthAdjust="spacing" textLength="445" x="1747.5" y="73.5669">io_javabrains_moviecatalogservice_resources_RestTemplate_Provider</text><path d="M1493.2788,58.5433 A10,10 0 0 0 1493.9133 72.6712" fill="none" style="stroke:#181818;stroke-width:1.5;"/><ellipse cx="1500.66" cy="65.29" fill="#FFFFFF" rx="6" ry="6" style="stroke:#181818;stroke-width:1.5;"/></g><!--link aName to aName--><g id="link_aName_aName"><path d="M1500.73,65.33 C1665.28,57.67 2205.5,58.89 2205.5,69 C2205.5,79.11 1665.28,80.33 1500.73,72.67 " fill="none" id="aName-aName-2" style="stroke:#181818;stroke-width:1.0;"/><text fill="#000000" font-family="sans-serif" font-size="13" lengthAdjust="spacing" textLength="421" x="2218.5" y="73.5669">io_javabrains_movieinfoservice_resources_RestTemplate_Provider</text><path d="M1493.3378,58.5954 A10,10 0 0 0 1493.9954 72.7222" fill="none" style="stroke:#181818;stroke-width:1.5;"/><ellipse cx="1500.73" cy="65.33" fill="#FFFFFF" rx="6" ry="6" style="stroke:#181818;stroke-width:1.5;"/></g><!--SRC=[nP11IyD048Nl-HKBNhoiM9KszMZnPB6jA1vAM2RfD1cpsGcpcrGh_dU3s5CHn8Dxcu5vxtjlV4sk1O56RUbrHb9Od4EETj6ZM6XRSgKAqc7YU8DgQQ70Ykq6nQJgFLd3FJIOgVMwvivNLDSSAYZ1Qj_A8DKvSz0D5S8UfQS2lTwnrBxYzio_-O3DYQdB_NGrIPzkSIpxkmNkvfYMgonBFewXbp6WqnZGKPIg5p6WuoZ_7SMWNiM0Jlu1Ul3Nf-TQ7PPhzOpvp1AwO6uw-Wgp5Evf67vI49iNw24N8ETDCnnZ0G4ibz-vZA3dJeQ0vW5zUCIcjH3mByRajlnRrqy0]--></g></svg>