<?xml version="1.0" encoding="us-ascii" standalone="no"?><svg xmlns="http://www.w3.org/2000/svg" xmlns:xlink="http://www.w3.org/1999/xlink" contentStyleType="text/css" height="125px" preserveAspectRatio="none" style="width:8037px;height:125px;background:#FFFFFF;" version="1.1" viewBox="0 0 8037 125" width="8037px" zoomAndPan="magnify"><defs/><g><!--cluster Placeholder_20--><g id="cluster_Placeholder_20"><polygon fill="none" points="3001.5,16,3011.5,6,8020.5,6,8020.5,98,8010.5,108,3001.5,108,3001.5,16" style="stroke:#181818;stroke-width:1.0;"/><line style="stroke:#181818;stroke-width:1.0;" x1="8010.5" x2="8020.5" y1="16" y2="6"/><line style="stroke:#181818;stroke-width:1.0;" x1="3001.5" x2="8010.5" y1="16" y2="16"/><line style="stroke:#181818;stroke-width:1.0;" x1="8010.5" x2="8010.5" y1="16" y2="108"/><text fill="#000000" font-family="sans-serif" font-size="14" font-weight="bold" lengthAdjust="spacing" textLength="120" x="5447" y="31.9951">Placeholder_20</text></g><!--entity aName--><g id="elem_aName"><a href="ewolff-microservice.system#_VFRBdrxEEe6FQOXhyRFgGg" target="_top" title="ewolff-microservice.system#_VFRBdrxEEe6FQOXhyRFgGg" xlink:actuate="onRequest" xlink:href="ewolff-microservice.system#_VFRBdrxEEe6FQOXhyRFgGg" xlink:show="new" xlink:title="ewolff-microservice.system#_VFRBdrxEEe6FQOXhyRFgGg" xlink:type="simple"><rect fill="#F1F1F1" height="46.2969" rx="2.5" ry="2.5" style="stroke:#181818;stroke-width:0.5;" width="88" x="3017.5" y="46"/><rect fill="#F1F1F1" height="10" style="stroke:#181818;stroke-width:0.5;" width="15" x="3085.5" y="51"/><rect fill="#F1F1F1" height="2" style="stroke:#181818;stroke-width:0.5;" width="4" x="3083.5" y="53"/><rect fill="#F1F1F1" height="2" style="stroke:#181818;stroke-width:0.5;" width="4" x="3083.5" y="57"/><text fill="#000000" font-family="sans-serif" font-size="14" lengthAdjust="spacing" textLength="48" x="3032.5" y="78.9951">aName</text></a></g><!--entity Placeholder_0--><g id="elem_Placeholder_0"><polygon fill="#F1F1F1" points="16,56,26,46,153,46,153,82.2969,143,92.2969,16,92.2969,16,56" style="stroke:#181818;stroke-width:0.5;"/><line style="stroke:#181818;stroke-width:0.5;" x1="143" x2="153" y1="56" y2="46"/><line style="stroke:#181818;stroke-width:0.5;" x1="16" x2="143" y1="56" y2="56"/><line style="stroke:#181818;stroke-width:0.5;" x1="143" x2="143" y1="56" y2="92.2969"/><text fill="#000000" font-family="sans-serif" font-size="14" lengthAdjust="spacing" textLength="97" x="31" y="78.9951">Placeholder_0</text></g><!--entity Placeholder_22--><g id="elem_Placeholder_22"><polygon fill="#F1F1F1" points="188.5,56,198.5,46,334.5,46,334.5,82.2969,324.5,92.2969,188.5,92.2969,188.5,56" style="stroke:#181818;stroke-width:0.5;"/><line style="stroke:#181818;stroke-width:0.5;" x1="324.5" x2="334.5" y1="56" y2="46"/><line style="stroke:#181818;stroke-width:0.5;" x1="188.5" x2="324.5" y1="56" y2="56"/><line style="stroke:#181818;stroke-width:0.5;" x1="324.5" x2="324.5" y1="56" y2="92.2969"/><text fill="#000000" font-family="sans-serif" font-size="14" lengthAdjust="spacing" textLength="106" x="203.5" y="78.9951">Placeholder_22</text></g><!--entity Placeholder_2--><g id="elem_Placeholder_2"><polygon fill="#F1F1F1" points="370,56,380,46,507,46,507,82.2969,497,92.2969,370,92.2969,370,56" style="stroke:#181818;stroke-width:0.5;"/><line style="stroke:#181818;stroke-width:0.5;" x1="497" x2="507" y1="56" y2="46"/><line style="stroke:#181818;stroke-width:0.5;" x1="370" x2="497" y1="56" y2="56"/><line style="stroke:#181818;stroke-width:0.5;" x1="497" x2="497" y1="56" y2="92.2969"/><text fill="#000000" font-family="sans-serif" font-size="14" lengthAdjust="spacing" textLength="97" x="385" y="78.9951">Placeholder_2</text></g><!--entity Placeholder_14--><g id="elem_Placeholder_14"><polygon fill="#F1F1F1" points="542.5,56,552.5,46,688.5,46,688.5,82.2969,678.5,92.2969,542.5,92.2969,542.5,56" style="stroke:#181818;stroke-width:0.5;"/><line style="stroke:#181818;stroke-width:0.5;" x1="678.5" x2="688.5" y1="56" y2="46"/><line style="stroke:#181818;stroke-width:0.5;" x1="542.5" x2="678.5" y1="56" y2="56"/><line style="stroke:#181818;stroke-width:0.5;" x1="678.5" x2="678.5" y1="56" y2="92.2969"/><text fill="#000000" font-family="sans-serif" font-size="14" lengthAdjust="spacing" textLength="106" x="557.5" y="78.9951">Placeholder_14</text></g><!--entity Placeholder_7--><g id="elem_Placeholder_7"><polygon fill="#F1F1F1" points="724,56,734,46,861,46,861,82.2969,851,92.2969,724,92.2969,724,56" style="stroke:#181818;stroke-width:0.5;"/><line style="stroke:#181818;stroke-width:0.5;" x1="851" x2="861" y1="56" y2="46"/><line style="stroke:#181818;stroke-width:0.5;" x1="724" x2="851" y1="56" y2="56"/><line style="stroke:#181818;stroke-width:0.5;" x1="851" x2="851" y1="56" y2="92.2969"/><text fill="#000000" font-family="sans-serif" font-size="14" lengthAdjust="spacing" textLength="97" x="739" y="78.9951">Placeholder_7</text></g><!--entity Placeholder_15--><g id="elem_Placeholder_15"><polygon fill="#F1F1F1" points="896.5,56,906.5,46,1042.5,46,1042.5,82.2969,1032.5,92.2969,896.5,92.2969,896.5,56" style="stroke:#181818;stroke-width:0.5;"/><line style="stroke:#181818;stroke-width:0.5;" x1="1032.5" x2="1042.5" y1="56" y2="46"/><line style="stroke:#181818;stroke-width:0.5;" x1="896.5" x2="1032.5" y1="56" y2="56"/><line style="stroke:#181818;stroke-width:0.5;" x1="1032.5" x2="1032.5" y1="56" y2="92.2969"/><text fill="#000000" font-family="sans-serif" font-size="14" lengthAdjust="spacing" textLength="106" x="911.5" y="78.9951">Placeholder_15</text></g><!--entity Placeholder_3--><g id="elem_Placeholder_3"><polygon fill="#F1F1F1" points="1078,56,1088,46,1215,46,1215,82.2969,1205,92.2969,1078,92.2969,1078,56" style="stroke:#181818;stroke-width:0.5;"/><line style="stroke:#181818;stroke-width:0.5;" x1="1205" x2="1215" y1="56" y2="46"/><line style="stroke:#181818;stroke-width:0.5;" x1="1078" x2="1205" y1="56" y2="56"/><line style="stroke:#181818;stroke-width:0.5;" x1="1205" x2="1205" y1="56" y2="92.2969"/><text fill="#000000" font-family="sans-serif" font-size="14" lengthAdjust="spacing" textLength="97" x="1093" y="78.9951">Placeholder_3</text></g><!--entity Placeholder_4--><g id="elem_Placeholder_4"><polygon fill="#F1F1F1" points="1250,56,1260,46,1387,46,1387,82.2969,1377,92.2969,1250,92.2969,1250,56" style="stroke:#181818;stroke-width:0.5;"/><line style="stroke:#181818;stroke-width:0.5;" x1="1377" x2="1387" y1="56" y2="46"/><line style="stroke:#181818;stroke-width:0.5;" x1="1250" x2="1377" y1="56" y2="56"/><line style="stroke:#181818;stroke-width:0.5;" x1="1377" x2="1377" y1="56" y2="92.2969"/><text fill="#000000" font-family="sans-serif" font-size="14" lengthAdjust="spacing" textLength="97" x="1265" y="78.9951">Placeholder_4</text></g><!--entity Placeholder_10--><g id="elem_Placeholder_10"><polygon fill="#F1F1F1" points="1422.5,56,1432.5,46,1568.5,46,1568.5,82.2969,1558.5,92.2969,1422.5,92.2969,1422.5,56" style="stroke:#181818;stroke-width:0.5;"/><line style="stroke:#181818;stroke-width:0.5;" x1="1558.5" x2="1568.5" y1="56" y2="46"/><line style="stroke:#181818;stroke-width:0.5;" x1="1422.5" x2="1558.5" y1="56" y2="56"/><line style="stroke:#181818;stroke-width:0.5;" x1="1558.5" x2="1558.5" y1="56" y2="92.2969"/><text fill="#000000" font-family="sans-serif" font-size="14" lengthAdjust="spacing" textLength="106" x="1437.5" y="78.9951">Placeholder_10</text></g><!--entity Placeholder_1--><g id="elem_Placeholder_1"><polygon fill="#F1F1F1" points="1604,56,1614,46,1741,46,1741,82.2969,1731,92.2969,1604,92.2969,1604,56" style="stroke:#181818;stroke-width:0.5;"/><line style="stroke:#181818;stroke-width:0.5;" x1="1731" x2="1741" y1="56" y2="46"/><line style="stroke:#181818;stroke-width:0.5;" x1="1604" x2="1731" y1="56" y2="56"/><line style="stroke:#181818;stroke-width:0.5;" x1="1731" x2="1731" y1="56" y2="92.2969"/><text fill="#000000" font-family="sans-serif" font-size="14" lengthAdjust="spacing" textLength="97" x="1619" y="78.9951">Placeholder_1</text></g><!--entity Placeholder_9--><g id="elem_Placeholder_9"><polygon fill="#F1F1F1" points="1776,56,1786,46,1913,46,1913,82.2969,1903,92.2969,1776,92.2969,1776,56" style="stroke:#181818;stroke-width:0.5;"/><line style="stroke:#181818;stroke-width:0.5;" x1="1903" x2="1913" y1="56" y2="46"/><line style="stroke:#181818;stroke-width:0.5;" x1="1776" x2="1903" y1="56" y2="56"/><line style="stroke:#181818;stroke-width:0.5;" x1="1903" x2="1903" y1="56" y2="92.2969"/><text fill="#000000" font-family="sans-serif" font-size="14" lengthAdjust="spacing" textLength="97" x="1791" y="78.9951">Placeholder_9</text></g><!--entity Placeholder_5--><g id="elem_Placeholder_5"><polygon fill="#F1F1F1" points="1948,56,1958,46,2085,46,2085,82.2969,2075,92.2969,1948,92.2969,1948,56" style="stroke:#181818;stroke-width:0.5;"/><line style="stroke:#181818;stroke-width:0.5;" x1="2075" x2="2085" y1="56" y2="46"/><line style="stroke:#181818;stroke-width:0.5;" x1="1948" x2="2075" y1="56" y2="56"/><line style="stroke:#181818;stroke-width:0.5;" x1="2075" x2="2075" y1="56" y2="92.2969"/><text fill="#000000" font-family="sans-serif" font-size="14" lengthAdjust="spacing" textLength="97" x="1963" y="78.9951">Placeholder_5</text></g><!--entity Placeholder_18--><g id="elem_Placeholder_18"><polygon fill="#F1F1F1" points="2120.5,56,2130.5,46,2266.5,46,2266.5,82.2969,2256.5,92.2969,2120.5,92.2969,2120.5,56" style="stroke:#181818;stroke-width:0.5;"/><line style="stroke:#181818;stroke-width:0.5;" x1="2256.5" x2="2266.5" y1="56" y2="46"/><line style="stroke:#181818;stroke-width:0.5;" x1="2120.5" x2="2256.5" y1="56" y2="56"/><line style="stroke:#181818;stroke-width:0.5;" x1="2256.5" x2="2256.5" y1="56" y2="92.2969"/><text fill="#000000" font-family="sans-serif" font-size="14" lengthAdjust="spacing" textLength="106" x="2135.5" y="78.9951">Placeholder_18</text></g><!--entity Placeholder_16--><g id="elem_Placeholder_16"><polygon fill="#F1F1F1" points="2301.5,56,2311.5,46,2447.5,46,2447.5,82.2969,2437.5,92.2969,2301.5,92.2969,2301.5,56" style="stroke:#181818;stroke-width:0.5;"/><line style="stroke:#181818;stroke-width:0.5;" x1="2437.5" x2="2447.5" y1="56" y2="46"/><line style="stroke:#181818;stroke-width:0.5;" x1="2301.5" x2="2437.5" y1="56" y2="56"/><line style="stroke:#181818;stroke-width:0.5;" x1="2437.5" x2="2437.5" y1="56" y2="92.2969"/><text fill="#000000" font-family="sans-serif" font-size="14" lengthAdjust="spacing" textLength="106" x="2316.5" y="78.9951">Placeholder_16</text></g><!--entity Placeholder_19--><g id="elem_Placeholder_19"><polygon fill="#F1F1F1" points="2482.5,56,2492.5,46,2628.5,46,2628.5,82.2969,2618.5,92.2969,2482.5,92.2969,2482.5,56" style="stroke:#181818;stroke-width:0.5;"/><line style="stroke:#181818;stroke-width:0.5;" x1="2618.5" x2="2628.5" y1="56" y2="46"/><line style="stroke:#181818;stroke-width:0.5;" x1="2482.5" x2="2618.5" y1="56" y2="56"/><line style="stroke:#181818;stroke-width:0.5;" x1="2618.5" x2="2618.5" y1="56" y2="92.2969"/><text fill="#000000" font-family="sans-serif" font-size="14" lengthAdjust="spacing" textLength="106" x="2497.5" y="78.9951">Placeholder_19</text></g><!--entity Placeholder_8--><g id="elem_Placeholder_8"><polygon fill="#F1F1F1" points="2664,56,2674,46,2801,46,2801,82.2969,2791,92.2969,2664,92.2969,2664,56" style="stroke:#181818;stroke-width:0.5;"/><line style="stroke:#181818;stroke-width:0.5;" x1="2791" x2="2801" y1="56" y2="46"/><line style="stroke:#181818;stroke-width:0.5;" x1="2664" x2="2791" y1="56" y2="56"/><line style="stroke:#181818;stroke-width:0.5;" x1="2791" x2="2791" y1="56" y2="92.2969"/><text fill="#000000" font-family="sans-serif" font-size="14" lengthAdjust="spacing" textLength="97" x="2679" y="78.9951">Placeholder_8</text></g><!--entity Placeholder_21--><g id="elem_Placeholder_21"><polygon fill="#F1F1F1" points="2836.5,56,2846.5,46,2982.5,46,2982.5,82.2969,2972.5,92.2969,2836.5,92.2969,2836.5,56" style="stroke:#181818;stroke-width:0.5;"/><line style="stroke:#181818;stroke-width:0.5;" x1="2972.5" x2="2982.5" y1="56" y2="46"/><line style="stroke:#181818;stroke-width:0.5;" x1="2836.5" x2="2972.5" y1="56" y2="56"/><line style="stroke:#181818;stroke-width:0.5;" x1="2972.5" x2="2972.5" y1="56" y2="92.2969"/><text fill="#000000" font-family="sans-serif" font-size="14" lengthAdjust="spacing" textLength="106" x="2851.5" y="78.9951">Placeholder_21</text></g><!--link aName to aName--><g id="link_aName_aName"><path d="M3105.77,67.52 C3124.52,67.4 3140.5,67.9 3140.5,69 C3140.5,70.1 3124.52,70.6 3105.77,70.48 " fill="none" id="aName-aName" style="stroke:#181818;stroke-width:1.0;"/><text fill="#000000" font-family="sans-serif" font-size="13" lengthAdjust="spacing" textLength="375" x="3153.5" y="73.5669">com_ewolff_microservice_catalog_ItemRepository_Provider</text><path d="M3098.6538,60.4943 A10,10 0 0 0 3098.7443 74.6362" fill="none" style="stroke:#181818;stroke-width:1.5;"/><ellipse cx="3105.77" cy="67.52" fill="#FFFFFF" rx="6" ry="6" style="stroke:#181818;stroke-width:1.5;"/></g><!--link aName to aName--><g id="link_aName_aName"><path d="M3105.68,67.42 C3226.83,65.1 3541.5,65.62 3541.5,69 C3541.5,72.38 3226.83,72.9 3105.68,70.58 " fill="none" id="aName-aName-1" style="stroke:#181818;stroke-width:1.0;"/><text fill="#000000" font-family="sans-serif" font-size="13" lengthAdjust="spacing" textLength="375" x="3554.5" y="73.5669">com_ewolff_microservice_catalog_ItemRepository_Provider</text><path d="M3098.4748,60.4856 A10,10 0 0 0 3098.7456 74.6252" fill="none" style="stroke:#181818;stroke-width:1.5;"/><ellipse cx="3105.68" cy="67.42" fill="#FFFFFF" rx="6" ry="6" style="stroke:#181818;stroke-width:1.5;"/></g><!--link aName to aName--><g id="link_aName_aName"><path d="M3105.52,67.21 C3287.41,63.08 3942.5,63.67 3942.5,69 C3942.5,74.33 3287.41,74.92 3105.52,70.79 " fill="none" id="aName-aName-2" style="stroke:#181818;stroke-width:1.0;"/><text fill="#000000" font-family="sans-serif" font-size="13" lengthAdjust="spacing" textLength="423" x="3955.5" y="73.5669">com_ewolff_microservice_customer_CustomerRepository_Provider</text><path d="M3098.2902,60.3013 A10,10 0 0 0 3098.6113 74.4398" fill="none" style="stroke:#181818;stroke-width:1.5;"/><ellipse cx="3105.52" cy="67.21" fill="#FFFFFF" rx="6" ry="6" style="stroke:#181818;stroke-width:1.5;"/></g><!--link aName to aName--><g id="link_aName_aName"><path d="M3105.85,67.03 C3341.68,61.07 4391.5,61.72 4391.5,69 C4391.5,76.28 3341.68,76.93 3105.85,70.97 " fill="none" id="aName-aName-3" style="stroke:#181818;stroke-width:1.0;"/><text fill="#000000" font-family="sans-serif" font-size="13" lengthAdjust="spacing" textLength="423" x="4404.5" y="73.5669">com_ewolff_microservice_customer_CustomerRepository_Provider</text><path d="M3098.6025,60.1398 A10,10 0 0 0 3098.9598 74.2775" fill="none" style="stroke:#181818;stroke-width:1.5;"/><ellipse cx="3105.85" cy="67.03" fill="#FFFFFF" rx="6" ry="6" style="stroke:#181818;stroke-width:1.5;"/></g><!--link aName to aName--><g id="link_aName_aName"><path d="M3105.57,66.88 C3386.04,59.06 4840.5,59.77 4840.5,69 C4840.5,78.23 3386.04,78.94 3105.57,71.12 " fill="none" id="aName-aName-4" style="stroke:#181818;stroke-width:1.0;"/><text fill="#000000" font-family="sans-serif" font-size="13" lengthAdjust="spacing" textLength="399" x="4853.5" y="73.5669">com_ewolff_microservice_order_clients_CatalogClient_Provider</text><path d="M3098.3046,60.0088 A10,10 0 0 0 3098.6988 74.1454" fill="none" style="stroke:#181818;stroke-width:1.5;"/><ellipse cx="3105.57" cy="66.88" fill="#FFFFFF" rx="6" ry="6" style="stroke:#181818;stroke-width:1.5;"/></g><!--link aName to aName--><g id="link_aName_aName"><path d="M3105.56,66.72 C3424.09,57.06 5265.5,57.81 5265.5,69 C5265.5,80.19 3424.09,80.94 3105.56,71.28 " fill="none" id="aName-aName-5" style="stroke:#181818;stroke-width:1.0;"/><text fill="#000000" font-family="sans-serif" font-size="13" lengthAdjust="spacing" textLength="399" x="5278.5" y="73.5669">com_ewolff_microservice_order_clients_CatalogClient_Provider</text><path d="M3098.2778,59.8665 A10,10 0 0 0 3098.7065 74.0022" fill="none" style="stroke:#181818;stroke-width:1.5;"/><ellipse cx="3105.56" cy="66.72" fill="#FFFFFF" rx="6" ry="6" style="stroke:#181818;stroke-width:1.5;"/></g><!--link aName to aName--><g id="link_aName_aName"><path d="M3105.51,66.58 C3458.72,55.05 5690.5,55.86 5690.5,69 C5690.5,82.14 3458.72,82.95 3105.51,71.42 " fill="none" id="aName-aName-6" style="stroke:#181818;stroke-width:1.0;"/><text fill="#000000" font-family="sans-serif" font-size="13" lengthAdjust="spacing" textLength="413" x="5703.5" y="73.5669">com_ewolff_microservice_order_clients_CustomerClient_Provider</text><path d="M3098.212,59.7434 A10,10 0 0 0 3098.6734 73.878" fill="none" style="stroke:#181818;stroke-width:1.5;"/><ellipse cx="3105.51" cy="66.58" fill="#FFFFFF" rx="6" ry="6" style="stroke:#181818;stroke-width:1.5;"/></g><!--link aName to aName--><g id="link_aName_aName"><path d="M3105.64,66.46 C3492.59,53.05 6129.5,53.9 6129.5,69 C6129.5,84.1 3492.59,84.95 3105.64,71.54 " fill="none" id="aName-aName-7" style="stroke:#181818;stroke-width:1.0;"/><text fill="#000000" font-family="sans-serif" font-size="13" lengthAdjust="spacing" textLength="413" x="6142.5" y="73.5669">com_ewolff_microservice_order_clients_CustomerClient_Provider</text><path d="M3098.3283,59.6381 A10,10 0 0 0 3098.8181 73.7717" fill="none" style="stroke:#181818;stroke-width:1.5;"/><ellipse cx="3105.64" cy="66.46" fill="#FFFFFF" rx="6" ry="6" style="stroke:#181818;stroke-width:1.5;"/></g><!--link aName to aName--><g id="link_aName_aName"><path d="M3105.74,66.34 C3524.3,51.05 6568.5,51.94 6568.5,69 C6568.5,86.06 3524.3,86.95 3105.74,71.66 " fill="none" id="aName-aName-8" style="stroke:#181818;stroke-width:1.0;"/><text fill="#000000" font-family="sans-serif" font-size="13" lengthAdjust="spacing" textLength="405" x="6581.5" y="73.5669">com_ewolff_microservice_order_logic_OrderRepository_Provider</text><path d="M3098.4155,59.5318 A10,10 0 0 0 3098.9318 73.6645" fill="none" style="stroke:#181818;stroke-width:1.5;"/><ellipse cx="3105.74" cy="66.34" fill="#FFFFFF" rx="6" ry="6" style="stroke:#181818;stroke-width:1.5;"/></g><!--link aName to aName--><g id="link_aName_aName"><path d="M3105.81,66.23 C3553.73,49.05 6999.5,49.97 6999.5,69 C6999.5,88.03 3553.73,88.95 3105.81,71.77 " fill="none" id="aName-aName-9" style="stroke:#181818;stroke-width:1.0;"/><text fill="#000000" font-family="sans-serif" font-size="13" lengthAdjust="spacing" textLength="405" x="7012.5" y="73.5669">com_ewolff_microservice_order_logic_OrderRepository_Provider</text><path d="M3098.4731,59.4351 A10,10 0 0 0 3099.0151 73.5669" fill="none" style="stroke:#181818;stroke-width:1.5;"/><ellipse cx="3105.81" cy="66.23" fill="#FFFFFF" rx="6" ry="6" style="stroke:#181818;stroke-width:1.5;"/></g><!--link aName to aName--><g id="link_aName_aName"><path d="M3105.83,66.12 C3581.56,47.05 7430.5,48 7430.5,69 C7430.5,90 3581.56,90.95 3105.83,71.88 " fill="none" id="aName-aName-10" style="stroke:#181818;stroke-width:1.0;"/><text fill="#000000" font-family="sans-serif" font-size="13" lengthAdjust="spacing" textLength="385" x="7443.5" y="73.5669">com_ewolff_microservice_order_logic_OrderService_Provider</text><path d="M3098.4814,59.3378 A10,10 0 0 0 3099.0478 73.4686" fill="none" style="stroke:#181818;stroke-width:1.5;"/><ellipse cx="3105.83" cy="66.12" fill="#FFFFFF" rx="6" ry="6" style="stroke:#181818;stroke-width:1.5;"/></g><!--SRC=[pT9DIyGm40RWUtz5m8kNohRg-d6qR4KGkrOGePGGqsatc7HAqgrRnFzkr-sAu7K7UviXy31vPzoRgXjXXM6bsaJAIWttuXLqqe7LecbKNR7Mhi6hiG2sr4B22dK1beSpzk5bua4Oo5cMmJlgilIDaXOTs4v9E76zQy4SyUSulIdiPh60UVoOlApwDAvkgpptFl-oD6eOqh0aQd16mbxG37jEmfwIg3J11ZGt6v2eLoGgpH44bpJid8QbYPOcW_0WrxK7_EEPp_RDDPDe-4xalqKkHIiqLlnkS5DeqAaMRS-N5Zir3FNVtDgrQ8Pieh6Og8bskq2f5TIjuz4kXEYxdR8v1Z1TTFYnaZpPrWVR4h7vD3xyW5y0]--></g></svg>