<?xml version="1.0" encoding="us-ascii" standalone="no"?><svg xmlns="http://www.w3.org/2000/svg" xmlns:xlink="http://www.w3.org/1999/xlink" contentStyleType="text/css" height="125px" preserveAspectRatio="none" style="width:8055px;height:125px;background:#FFFFFF;" version="1.1" viewBox="0 0 8055 125" width="8055px" zoomAndPan="magnify"><defs/><g><!--cluster Placeholder_22--><g id="cluster_Placeholder_22"><polygon fill="none" points="3019,16,3029,6,8038,6,8038,98,8028,108,3019,108,3019,16" style="stroke:#181818;stroke-width:1.0;"/><line style="stroke:#181818;stroke-width:1.0;" x1="8028" x2="8038" y1="16" y2="6"/><line style="stroke:#181818;stroke-width:1.0;" x1="3019" x2="8028" y1="16" y2="16"/><line style="stroke:#181818;stroke-width:1.0;" x1="8028" x2="8028" y1="16" y2="108"/><text fill="#000000" font-family="sans-serif" font-size="14" font-weight="bold" lengthAdjust="spacing" textLength="120" x="5464.5" y="31.9951">Placeholder_22</text></g><!--entity aName--><g id="elem_aName"><a href="ewolff-microservice.system#_y4EkZ7_dEe6plrDOjTZBLw" target="_top" title="ewolff-microservice.system#_y4EkZ7_dEe6plrDOjTZBLw" xlink:actuate="onRequest" xlink:href="ewolff-microservice.system#_y4EkZ7_dEe6plrDOjTZBLw" xlink:show="new" xlink:title="ewolff-microservice.system#_y4EkZ7_dEe6plrDOjTZBLw" xlink:type="simple"><rect fill="#F1F1F1" height="46.2969" rx="2.5" ry="2.5" style="stroke:#181818;stroke-width:0.5;" width="88" x="3035" y="46"/><rect fill="#F1F1F1" height="10" style="stroke:#181818;stroke-width:0.5;" width="15" x="3103" y="51"/><rect fill="#F1F1F1" height="2" style="stroke:#181818;stroke-width:0.5;" width="4" x="3101" y="53"/><rect fill="#F1F1F1" height="2" style="stroke:#181818;stroke-width:0.5;" width="4" x="3101" y="57"/><text fill="#000000" font-family="sans-serif" font-size="14" lengthAdjust="spacing" textLength="48" x="3050" y="78.9951">aName</text></a></g><!--entity Placeholder_21--><g id="elem_Placeholder_21"><polygon fill="#F1F1F1" points="16,56,26,46,162,46,162,82.2969,152,92.2969,16,92.2969,16,56" style="stroke:#181818;stroke-width:0.5;"/><line style="stroke:#181818;stroke-width:0.5;" x1="152" x2="162" y1="56" y2="46"/><line style="stroke:#181818;stroke-width:0.5;" x1="16" x2="152" y1="56" y2="56"/><line style="stroke:#181818;stroke-width:0.5;" x1="152" x2="152" y1="56" y2="92.2969"/><text fill="#000000" font-family="sans-serif" font-size="14" lengthAdjust="spacing" textLength="106" x="31" y="78.9951">Placeholder_21</text></g><!--entity Placeholder_19--><g id="elem_Placeholder_19"><polygon fill="#F1F1F1" points="197,56,207,46,343,46,343,82.2969,333,92.2969,197,92.2969,197,56" style="stroke:#181818;stroke-width:0.5;"/><line style="stroke:#181818;stroke-width:0.5;" x1="333" x2="343" y1="56" y2="46"/><line style="stroke:#181818;stroke-width:0.5;" x1="197" x2="333" y1="56" y2="56"/><line style="stroke:#181818;stroke-width:0.5;" x1="333" x2="333" y1="56" y2="92.2969"/><text fill="#000000" font-family="sans-serif" font-size="14" lengthAdjust="spacing" textLength="106" x="212" y="78.9951">Placeholder_19</text></g><!--entity Placeholder_9--><g id="elem_Placeholder_9"><polygon fill="#F1F1F1" points="378.5,56,388.5,46,515.5,46,515.5,82.2969,505.5,92.2969,378.5,92.2969,378.5,56" style="stroke:#181818;stroke-width:0.5;"/><line style="stroke:#181818;stroke-width:0.5;" x1="505.5" x2="515.5" y1="56" y2="46"/><line style="stroke:#181818;stroke-width:0.5;" x1="378.5" x2="505.5" y1="56" y2="56"/><line style="stroke:#181818;stroke-width:0.5;" x1="505.5" x2="505.5" y1="56" y2="92.2969"/><text fill="#000000" font-family="sans-serif" font-size="14" lengthAdjust="spacing" textLength="97" x="393.5" y="78.9951">Placeholder_9</text></g><!--entity Placeholder_4--><g id="elem_Placeholder_4"><polygon fill="#F1F1F1" points="550.5,56,560.5,46,687.5,46,687.5,82.2969,677.5,92.2969,550.5,92.2969,550.5,56" style="stroke:#181818;stroke-width:0.5;"/><line style="stroke:#181818;stroke-width:0.5;" x1="677.5" x2="687.5" y1="56" y2="46"/><line style="stroke:#181818;stroke-width:0.5;" x1="550.5" x2="677.5" y1="56" y2="56"/><line style="stroke:#181818;stroke-width:0.5;" x1="677.5" x2="677.5" y1="56" y2="92.2969"/><text fill="#000000" font-family="sans-serif" font-size="14" lengthAdjust="spacing" textLength="97" x="565.5" y="78.9951">Placeholder_4</text></g><!--entity Placeholder_18--><g id="elem_Placeholder_18"><polygon fill="#F1F1F1" points="723,56,733,46,869,46,869,82.2969,859,92.2969,723,92.2969,723,56" style="stroke:#181818;stroke-width:0.5;"/><line style="stroke:#181818;stroke-width:0.5;" x1="859" x2="869" y1="56" y2="46"/><line style="stroke:#181818;stroke-width:0.5;" x1="723" x2="859" y1="56" y2="56"/><line style="stroke:#181818;stroke-width:0.5;" x1="859" x2="859" y1="56" y2="92.2969"/><text fill="#000000" font-family="sans-serif" font-size="14" lengthAdjust="spacing" textLength="106" x="738" y="78.9951">Placeholder_18</text></g><!--entity Placeholder_8--><g id="elem_Placeholder_8"><polygon fill="#F1F1F1" points="904.5,56,914.5,46,1041.5,46,1041.5,82.2969,1031.5,92.2969,904.5,92.2969,904.5,56" style="stroke:#181818;stroke-width:0.5;"/><line style="stroke:#181818;stroke-width:0.5;" x1="1031.5" x2="1041.5" y1="56" y2="46"/><line style="stroke:#181818;stroke-width:0.5;" x1="904.5" x2="1031.5" y1="56" y2="56"/><line style="stroke:#181818;stroke-width:0.5;" x1="1031.5" x2="1031.5" y1="56" y2="92.2969"/><text fill="#000000" font-family="sans-serif" font-size="14" lengthAdjust="spacing" textLength="97" x="919.5" y="78.9951">Placeholder_8</text></g><!--entity Placeholder_10--><g id="elem_Placeholder_10"><polygon fill="#F1F1F1" points="1077,56,1087,46,1223,46,1223,82.2969,1213,92.2969,1077,92.2969,1077,56" style="stroke:#181818;stroke-width:0.5;"/><line style="stroke:#181818;stroke-width:0.5;" x1="1213" x2="1223" y1="56" y2="46"/><line style="stroke:#181818;stroke-width:0.5;" x1="1077" x2="1213" y1="56" y2="56"/><line style="stroke:#181818;stroke-width:0.5;" x1="1213" x2="1213" y1="56" y2="92.2969"/><text fill="#000000" font-family="sans-serif" font-size="14" lengthAdjust="spacing" textLength="106" x="1092" y="78.9951">Placeholder_10</text></g><!--entity Placeholder_20--><g id="elem_Placeholder_20"><polygon fill="#F1F1F1" points="1258,56,1268,46,1404,46,1404,82.2969,1394,92.2969,1258,92.2969,1258,56" style="stroke:#181818;stroke-width:0.5;"/><line style="stroke:#181818;stroke-width:0.5;" x1="1394" x2="1404" y1="56" y2="46"/><line style="stroke:#181818;stroke-width:0.5;" x1="1258" x2="1394" y1="56" y2="56"/><line style="stroke:#181818;stroke-width:0.5;" x1="1394" x2="1394" y1="56" y2="92.2969"/><text fill="#000000" font-family="sans-serif" font-size="14" lengthAdjust="spacing" textLength="106" x="1273" y="78.9951">Placeholder_20</text></g><!--entity Placeholder_3--><g id="elem_Placeholder_3"><polygon fill="#F1F1F1" points="1439.5,56,1449.5,46,1576.5,46,1576.5,82.2969,1566.5,92.2969,1439.5,92.2969,1439.5,56" style="stroke:#181818;stroke-width:0.5;"/><line style="stroke:#181818;stroke-width:0.5;" x1="1566.5" x2="1576.5" y1="56" y2="46"/><line style="stroke:#181818;stroke-width:0.5;" x1="1439.5" x2="1566.5" y1="56" y2="56"/><line style="stroke:#181818;stroke-width:0.5;" x1="1566.5" x2="1566.5" y1="56" y2="92.2969"/><text fill="#000000" font-family="sans-serif" font-size="14" lengthAdjust="spacing" textLength="97" x="1454.5" y="78.9951">Placeholder_3</text></g><!--entity Placeholder_15--><g id="elem_Placeholder_15"><polygon fill="#F1F1F1" points="1612,56,1622,46,1758,46,1758,82.2969,1748,92.2969,1612,92.2969,1612,56" style="stroke:#181818;stroke-width:0.5;"/><line style="stroke:#181818;stroke-width:0.5;" x1="1748" x2="1758" y1="56" y2="46"/><line style="stroke:#181818;stroke-width:0.5;" x1="1612" x2="1748" y1="56" y2="56"/><line style="stroke:#181818;stroke-width:0.5;" x1="1748" x2="1748" y1="56" y2="92.2969"/><text fill="#000000" font-family="sans-serif" font-size="14" lengthAdjust="spacing" textLength="106" x="1627" y="78.9951">Placeholder_15</text></g><!--entity Placeholder_12--><g id="elem_Placeholder_12"><polygon fill="#F1F1F1" points="1793,56,1803,46,1939,46,1939,82.2969,1929,92.2969,1793,92.2969,1793,56" style="stroke:#181818;stroke-width:0.5;"/><line style="stroke:#181818;stroke-width:0.5;" x1="1929" x2="1939" y1="56" y2="46"/><line style="stroke:#181818;stroke-width:0.5;" x1="1793" x2="1929" y1="56" y2="56"/><line style="stroke:#181818;stroke-width:0.5;" x1="1929" x2="1929" y1="56" y2="92.2969"/><text fill="#000000" font-family="sans-serif" font-size="14" lengthAdjust="spacing" textLength="106" x="1808" y="78.9951">Placeholder_12</text></g><!--entity Placeholder_6--><g id="elem_Placeholder_6"><polygon fill="#F1F1F1" points="1974.5,56,1984.5,46,2111.5,46,2111.5,82.2969,2101.5,92.2969,1974.5,92.2969,1974.5,56" style="stroke:#181818;stroke-width:0.5;"/><line style="stroke:#181818;stroke-width:0.5;" x1="2101.5" x2="2111.5" y1="56" y2="46"/><line style="stroke:#181818;stroke-width:0.5;" x1="1974.5" x2="2101.5" y1="56" y2="56"/><line style="stroke:#181818;stroke-width:0.5;" x1="2101.5" x2="2101.5" y1="56" y2="92.2969"/><text fill="#000000" font-family="sans-serif" font-size="14" lengthAdjust="spacing" textLength="97" x="1989.5" y="78.9951">Placeholder_6</text></g><!--entity Placeholder_1--><g id="elem_Placeholder_1"><polygon fill="#F1F1F1" points="2146.5,56,2156.5,46,2283.5,46,2283.5,82.2969,2273.5,92.2969,2146.5,92.2969,2146.5,56" style="stroke:#181818;stroke-width:0.5;"/><line style="stroke:#181818;stroke-width:0.5;" x1="2273.5" x2="2283.5" y1="56" y2="46"/><line style="stroke:#181818;stroke-width:0.5;" x1="2146.5" x2="2273.5" y1="56" y2="56"/><line style="stroke:#181818;stroke-width:0.5;" x1="2273.5" x2="2273.5" y1="56" y2="92.2969"/><text fill="#000000" font-family="sans-serif" font-size="14" lengthAdjust="spacing" textLength="97" x="2161.5" y="78.9951">Placeholder_1</text></g><!--entity Placeholder_16--><g id="elem_Placeholder_16"><polygon fill="#F1F1F1" points="2319,56,2329,46,2465,46,2465,82.2969,2455,92.2969,2319,92.2969,2319,56" style="stroke:#181818;stroke-width:0.5;"/><line style="stroke:#181818;stroke-width:0.5;" x1="2455" x2="2465" y1="56" y2="46"/><line style="stroke:#181818;stroke-width:0.5;" x1="2319" x2="2455" y1="56" y2="56"/><line style="stroke:#181818;stroke-width:0.5;" x1="2455" x2="2455" y1="56" y2="92.2969"/><text fill="#000000" font-family="sans-serif" font-size="14" lengthAdjust="spacing" textLength="106" x="2334" y="78.9951">Placeholder_16</text></g><!--entity Placeholder_13--><g id="elem_Placeholder_13"><polygon fill="#F1F1F1" points="2500,56,2510,46,2646,46,2646,82.2969,2636,92.2969,2500,92.2969,2500,56" style="stroke:#181818;stroke-width:0.5;"/><line style="stroke:#181818;stroke-width:0.5;" x1="2636" x2="2646" y1="56" y2="46"/><line style="stroke:#181818;stroke-width:0.5;" x1="2500" x2="2636" y1="56" y2="56"/><line style="stroke:#181818;stroke-width:0.5;" x1="2636" x2="2636" y1="56" y2="92.2969"/><text fill="#000000" font-family="sans-serif" font-size="14" lengthAdjust="spacing" textLength="106" x="2515" y="78.9951">Placeholder_13</text></g><!--entity Placeholder_14--><g id="elem_Placeholder_14"><polygon fill="#F1F1F1" points="2681,56,2691,46,2827,46,2827,82.2969,2817,92.2969,2681,92.2969,2681,56" style="stroke:#181818;stroke-width:0.5;"/><line style="stroke:#181818;stroke-width:0.5;" x1="2817" x2="2827" y1="56" y2="46"/><line style="stroke:#181818;stroke-width:0.5;" x1="2681" x2="2817" y1="56" y2="56"/><line style="stroke:#181818;stroke-width:0.5;" x1="2817" x2="2817" y1="56" y2="92.2969"/><text fill="#000000" font-family="sans-serif" font-size="14" lengthAdjust="spacing" textLength="106" x="2696" y="78.9951">Placeholder_14</text></g><!--entity Placeholder_7--><g id="elem_Placeholder_7"><polygon fill="#F1F1F1" points="2862.5,56,2872.5,46,2999.5,46,2999.5,82.2969,2989.5,92.2969,2862.5,92.2969,2862.5,56" style="stroke:#181818;stroke-width:0.5;"/><line style="stroke:#181818;stroke-width:0.5;" x1="2989.5" x2="2999.5" y1="56" y2="46"/><line style="stroke:#181818;stroke-width:0.5;" x1="2862.5" x2="2989.5" y1="56" y2="56"/><line style="stroke:#181818;stroke-width:0.5;" x1="2989.5" x2="2989.5" y1="56" y2="92.2969"/><text fill="#000000" font-family="sans-serif" font-size="14" lengthAdjust="spacing" textLength="97" x="2877.5" y="78.9951">Placeholder_7</text></g><!--link aName to aName--><g id="link_aName_aName"><path d="M3123.27,67.52 C3142.02,67.4 3158,67.9 3158,69 C3158,70.1 3142.02,70.6 3123.27,70.48 " fill="none" id="aName-aName" style="stroke:#181818;stroke-width:1.0;"/><text fill="#000000" font-family="sans-serif" font-size="13" lengthAdjust="spacing" textLength="375" x="3171" y="73.5669">com_ewolff_microservice_catalog_ItemRepository_Provider</text><path d="M3116.1538,60.4943 A10,10 0 0 0 3116.2443 74.6362" fill="none" style="stroke:#181818;stroke-width:1.5;"/><ellipse cx="3123.27" cy="67.52" fill="#FFFFFF" rx="6" ry="6" style="stroke:#181818;stroke-width:1.5;"/></g><!--link aName to aName--><g id="link_aName_aName"><path d="M3123.18,67.42 C3244.33,65.1 3559,65.62 3559,69 C3559,72.38 3244.33,72.9 3123.18,70.58 " fill="none" id="aName-aName-1" style="stroke:#181818;stroke-width:1.0;"/><text fill="#000000" font-family="sans-serif" font-size="13" lengthAdjust="spacing" textLength="375" x="3572" y="73.5669">com_ewolff_microservice_catalog_ItemRepository_Provider</text><path d="M3115.9748,60.4856 A10,10 0 0 0 3116.2456 74.6252" fill="none" style="stroke:#181818;stroke-width:1.5;"/><ellipse cx="3123.18" cy="67.42" fill="#FFFFFF" rx="6" ry="6" style="stroke:#181818;stroke-width:1.5;"/></g><!--link aName to aName--><g id="link_aName_aName"><path d="M3123.02,67.21 C3304.91,63.08 3960,63.67 3960,69 C3960,74.33 3304.91,74.92 3123.02,70.79 " fill="none" id="aName-aName-2" style="stroke:#181818;stroke-width:1.0;"/><text fill="#000000" font-family="sans-serif" font-size="13" lengthAdjust="spacing" textLength="423" x="3973" y="73.5669">com_ewolff_microservice_customer_CustomerRepository_Provider</text><path d="M3115.7902,60.3013 A10,10 0 0 0 3116.1113 74.4398" fill="none" style="stroke:#181818;stroke-width:1.5;"/><ellipse cx="3123.02" cy="67.21" fill="#FFFFFF" rx="6" ry="6" style="stroke:#181818;stroke-width:1.5;"/></g><!--link aName to aName--><g id="link_aName_aName"><path d="M3123.35,67.03 C3359.18,61.07 4409,61.72 4409,69 C4409,76.28 3359.18,76.93 3123.35,70.97 " fill="none" id="aName-aName-3" style="stroke:#181818;stroke-width:1.0;"/><text fill="#000000" font-family="sans-serif" font-size="13" lengthAdjust="spacing" textLength="423" x="4422" y="73.5669">com_ewolff_microservice_customer_CustomerRepository_Provider</text><path d="M3116.1025,60.1398 A10,10 0 0 0 3116.4598 74.2775" fill="none" style="stroke:#181818;stroke-width:1.5;"/><ellipse cx="3123.35" cy="67.03" fill="#FFFFFF" rx="6" ry="6" style="stroke:#181818;stroke-width:1.5;"/></g><!--link aName to aName--><g id="link_aName_aName"><path d="M3123.07,66.88 C3403.54,59.06 4858,59.77 4858,69 C4858,78.23 3403.54,78.94 3123.07,71.12 " fill="none" id="aName-aName-4" style="stroke:#181818;stroke-width:1.0;"/><text fill="#000000" font-family="sans-serif" font-size="13" lengthAdjust="spacing" textLength="399" x="4871" y="73.5669">com_ewolff_microservice_order_clients_CatalogClient_Provider</text><path d="M3115.8046,60.0088 A10,10 0 0 0 3116.1988 74.1454" fill="none" style="stroke:#181818;stroke-width:1.5;"/><ellipse cx="3123.07" cy="66.88" fill="#FFFFFF" rx="6" ry="6" style="stroke:#181818;stroke-width:1.5;"/></g><!--link aName to aName--><g id="link_aName_aName"><path d="M3123.06,66.72 C3441.59,57.06 5283,57.81 5283,69 C5283,80.19 3441.59,80.94 3123.06,71.28 " fill="none" id="aName-aName-5" style="stroke:#181818;stroke-width:1.0;"/><text fill="#000000" font-family="sans-serif" font-size="13" lengthAdjust="spacing" textLength="399" x="5296" y="73.5669">com_ewolff_microservice_order_clients_CatalogClient_Provider</text><path d="M3115.7778,59.8665 A10,10 0 0 0 3116.2065 74.0022" fill="none" style="stroke:#181818;stroke-width:1.5;"/><ellipse cx="3123.06" cy="66.72" fill="#FFFFFF" rx="6" ry="6" style="stroke:#181818;stroke-width:1.5;"/></g><!--link aName to aName--><g id="link_aName_aName"><path d="M3123.01,66.58 C3476.22,55.05 5708,55.86 5708,69 C5708,82.14 3476.22,82.95 3123.01,71.42 " fill="none" id="aName-aName-6" style="stroke:#181818;stroke-width:1.0;"/><text fill="#000000" font-family="sans-serif" font-size="13" lengthAdjust="spacing" textLength="413" x="5721" y="73.5669">com_ewolff_microservice_order_clients_CustomerClient_Provider</text><path d="M3115.712,59.7434 A10,10 0 0 0 3116.1734 73.878" fill="none" style="stroke:#181818;stroke-width:1.5;"/><ellipse cx="3123.01" cy="66.58" fill="#FFFFFF" rx="6" ry="6" style="stroke:#181818;stroke-width:1.5;"/></g><!--link aName to aName--><g id="link_aName_aName"><path d="M3123.14,66.46 C3510.09,53.05 6147,53.9 6147,69 C6147,84.1 3510.09,84.95 3123.14,71.54 " fill="none" id="aName-aName-7" style="stroke:#181818;stroke-width:1.0;"/><text fill="#000000" font-family="sans-serif" font-size="13" lengthAdjust="spacing" textLength="413" x="6160" y="73.5669">com_ewolff_microservice_order_clients_CustomerClient_Provider</text><path d="M3115.8283,59.6381 A10,10 0 0 0 3116.3181 73.7717" fill="none" style="stroke:#181818;stroke-width:1.5;"/><ellipse cx="3123.14" cy="66.46" fill="#FFFFFF" rx="6" ry="6" style="stroke:#181818;stroke-width:1.5;"/></g><!--link aName to aName--><g id="link_aName_aName"><path d="M3123.24,66.34 C3541.8,51.05 6586,51.94 6586,69 C6586,86.06 3541.8,86.95 3123.24,71.66 " fill="none" id="aName-aName-8" style="stroke:#181818;stroke-width:1.0;"/><text fill="#000000" font-family="sans-serif" font-size="13" lengthAdjust="spacing" textLength="405" x="6599" y="73.5669">com_ewolff_microservice_order_logic_OrderRepository_Provider</text><path d="M3115.9155,59.5318 A10,10 0 0 0 3116.4318 73.6645" fill="none" style="stroke:#181818;stroke-width:1.5;"/><ellipse cx="3123.24" cy="66.34" fill="#FFFFFF" rx="6" ry="6" style="stroke:#181818;stroke-width:1.5;"/></g><!--link aName to aName--><g id="link_aName_aName"><path d="M3123.31,66.23 C3571.23,49.05 7017,49.97 7017,69 C7017,88.03 3571.23,88.95 3123.31,71.77 " fill="none" id="aName-aName-9" style="stroke:#181818;stroke-width:1.0;"/><text fill="#000000" font-family="sans-serif" font-size="13" lengthAdjust="spacing" textLength="405" x="7030" y="73.5669">com_ewolff_microservice_order_logic_OrderRepository_Provider</text><path d="M3115.9731,59.4351 A10,10 0 0 0 3116.5151 73.5669" fill="none" style="stroke:#181818;stroke-width:1.5;"/><ellipse cx="3123.31" cy="66.23" fill="#FFFFFF" rx="6" ry="6" style="stroke:#181818;stroke-width:1.5;"/></g><!--link aName to aName--><g id="link_aName_aName"><path d="M3123.33,66.12 C3599.06,47.05 7448,48 7448,69 C7448,90 3599.06,90.95 3123.33,71.88 " fill="none" id="aName-aName-10" style="stroke:#181818;stroke-width:1.0;"/><text fill="#000000" font-family="sans-serif" font-size="13" lengthAdjust="spacing" textLength="385" x="7461" y="73.5669">com_ewolff_microservice_order_logic_OrderService_Provider</text><path d="M3115.9814,59.3378 A10,10 0 0 0 3116.5478 73.4686" fill="none" style="stroke:#181818;stroke-width:1.5;"/><ellipse cx="3123.33" cy="66.12" fill="#FFFFFF" rx="6" ry="6" style="stroke:#181818;stroke-width:1.5;"/></g><!--SRC=[pTGzJyCm40RWFR_24WjBK5DA2umD7P0gKW5JeyWopgMOsd5qTbCYn7ydfMd5mDXJizt9qgFpwm-tLcKbK1XMgCzOeTGm5s-WanfGYwfIvOfvt41GsXpOGWi9xrRdW7muP5z1Afw4WOobAMojBehGA8dM0TPAmfLhd0TpmPlHRBsSy7m6uqhZG_BnkfpEjraMVF_3HYHiT4V2qgWZcWXkILWQDHhGt2uQzfecWniQbkRXZcc6fL69XYMw1pJ_mUGKwW48BmSXEpJtJ5h3zoB_At8flD1snHzRznagwvItsF05sbgrCvsRspXlJHjDt1KzDItkpazg1QLtFDw74F-sVJQx0FgBjZjMaYUx-cIdH6o-T0j7y0S0]--></g></svg>