<?xml version="1.0" encoding="us-ascii" standalone="no"?><svg xmlns="http://www.w3.org/2000/svg" xmlns:xlink="http://www.w3.org/1999/xlink" contentStyleType="text/css" height="125px" preserveAspectRatio="none" style="width:2739px;height:125px;background:#FFFFFF;" version="1.1" viewBox="0 0 2739 125" width="2739px" zoomAndPan="magnify"><defs/><g><!--cluster Placeholder_6--><g id="cluster_Placeholder_6"><polygon fill="none" points="1586.5,16,1596.5,6,2722.5,6,2722.5,98,2712.5,108,1586.5,108,1586.5,16" style="stroke:#181818;stroke-width:1.0;"/><line style="stroke:#181818;stroke-width:1.0;" x1="2712.5" x2="2722.5" y1="16" y2="6"/><line style="stroke:#181818;stroke-width:1.0;" x1="1586.5" x2="2712.5" y1="16" y2="16"/><line style="stroke:#181818;stroke-width:1.0;" x1="2712.5" x2="2712.5" y1="16" y2="108"/><text fill="#000000" font-family="sans-serif" font-size="14" font-weight="bold" lengthAdjust="spacing" textLength="110" x="2095.5" y="31.9951">Placeholder_6</text></g><!--entity aName--><g id="elem_aName"><a href="rohitghatol-spring-boot-microservices.system#_sy2E4L8UEe6OkYnr7LzawA" target="_top" title="rohitghatol-spring-boot-microservices.system#_sy2E4L8UEe6OkYnr7LzawA" xlink:actuate="onRequest" xlink:href="rohitghatol-spring-boot-microservices.system#_sy2E4L8UEe6OkYnr7LzawA" xlink:show="new" xlink:title="rohitghatol-spring-boot-microservices.system#_sy2E4L8UEe6OkYnr7LzawA" xlink:type="simple"><rect fill="#F1F1F1" height="46.2969" rx="2.5" ry="2.5" style="stroke:#181818;stroke-width:0.5;" width="88" x="1602.5" y="46"/><rect fill="#F1F1F1" height="10" style="stroke:#181818;stroke-width:0.5;" width="15" x="1670.5" y="51"/><rect fill="#F1F1F1" height="2" style="stroke:#181818;stroke-width:0.5;" width="4" x="1668.5" y="53"/><rect fill="#F1F1F1" height="2" style="stroke:#181818;stroke-width:0.5;" width="4" x="1668.5" y="57"/><text fill="#000000" font-family="sans-serif" font-size="14" lengthAdjust="spacing" textLength="48" x="1617.5" y="78.9951">aName</text></a></g><!--entity Placeholder_8--><g id="elem_Placeholder_8"><polygon fill="#F1F1F1" points="16,56,26,46,153,46,153,82.2969,143,92.2969,16,92.2969,16,56" style="stroke:#181818;stroke-width:0.5;"/><line style="stroke:#181818;stroke-width:0.5;" x1="143" x2="153" y1="56" y2="46"/><line style="stroke:#181818;stroke-width:0.5;" x1="16" x2="143" y1="56" y2="56"/><line style="stroke:#181818;stroke-width:0.5;" x1="143" x2="143" y1="56" y2="92.2969"/><text fill="#000000" font-family="sans-serif" font-size="14" lengthAdjust="spacing" textLength="97" x="31" y="78.9951">Placeholder_8</text></g><!--entity Placeholder_0--><g id="elem_Placeholder_0"><polygon fill="#F1F1F1" points="188,56,198,46,325,46,325,82.2969,315,92.2969,188,92.2969,188,56" style="stroke:#181818;stroke-width:0.5;"/><line style="stroke:#181818;stroke-width:0.5;" x1="315" x2="325" y1="56" y2="46"/><line style="stroke:#181818;stroke-width:0.5;" x1="188" x2="315" y1="56" y2="56"/><line style="stroke:#181818;stroke-width:0.5;" x1="315" x2="315" y1="56" y2="92.2969"/><text fill="#000000" font-family="sans-serif" font-size="14" lengthAdjust="spacing" textLength="97" x="203" y="78.9951">Placeholder_0</text></g><!--entity Placeholder_10--><g id="elem_Placeholder_10"><polygon fill="#F1F1F1" points="360.5,56,370.5,46,506.5,46,506.5,82.2969,496.5,92.2969,360.5,92.2969,360.5,56" style="stroke:#181818;stroke-width:0.5;"/><line style="stroke:#181818;stroke-width:0.5;" x1="496.5" x2="506.5" y1="56" y2="46"/><line style="stroke:#181818;stroke-width:0.5;" x1="360.5" x2="496.5" y1="56" y2="56"/><line style="stroke:#181818;stroke-width:0.5;" x1="496.5" x2="496.5" y1="56" y2="92.2969"/><text fill="#000000" font-family="sans-serif" font-size="14" lengthAdjust="spacing" textLength="106" x="375.5" y="78.9951">Placeholder_10</text></g><!--entity Placeholder_4--><g id="elem_Placeholder_4"><polygon fill="#F1F1F1" points="542,56,552,46,679,46,679,82.2969,669,92.2969,542,92.2969,542,56" style="stroke:#181818;stroke-width:0.5;"/><line style="stroke:#181818;stroke-width:0.5;" x1="669" x2="679" y1="56" y2="46"/><line style="stroke:#181818;stroke-width:0.5;" x1="542" x2="669" y1="56" y2="56"/><line style="stroke:#181818;stroke-width:0.5;" x1="669" x2="669" y1="56" y2="92.2969"/><text fill="#000000" font-family="sans-serif" font-size="14" lengthAdjust="spacing" textLength="97" x="557" y="78.9951">Placeholder_4</text></g><!--entity Placeholder_15--><g id="elem_Placeholder_15"><polygon fill="#F1F1F1" points="714.5,56,724.5,46,860.5,46,860.5,82.2969,850.5,92.2969,714.5,92.2969,714.5,56" style="stroke:#181818;stroke-width:0.5;"/><line style="stroke:#181818;stroke-width:0.5;" x1="850.5" x2="860.5" y1="56" y2="46"/><line style="stroke:#181818;stroke-width:0.5;" x1="714.5" x2="850.5" y1="56" y2="56"/><line style="stroke:#181818;stroke-width:0.5;" x1="850.5" x2="850.5" y1="56" y2="92.2969"/><text fill="#000000" font-family="sans-serif" font-size="14" lengthAdjust="spacing" textLength="106" x="729.5" y="78.9951">Placeholder_15</text></g><!--entity Placeholder_12--><g id="elem_Placeholder_12"><polygon fill="#F1F1F1" points="895.5,56,905.5,46,1041.5,46,1041.5,82.2969,1031.5,92.2969,895.5,92.2969,895.5,56" style="stroke:#181818;stroke-width:0.5;"/><line style="stroke:#181818;stroke-width:0.5;" x1="1031.5" x2="1041.5" y1="56" y2="46"/><line style="stroke:#181818;stroke-width:0.5;" x1="895.5" x2="1031.5" y1="56" y2="56"/><line style="stroke:#181818;stroke-width:0.5;" x1="1031.5" x2="1031.5" y1="56" y2="92.2969"/><text fill="#000000" font-family="sans-serif" font-size="14" lengthAdjust="spacing" textLength="106" x="910.5" y="78.9951">Placeholder_12</text></g><!--entity Placeholder_5--><g id="elem_Placeholder_5"><polygon fill="#F1F1F1" points="1077,56,1087,46,1214,46,1214,82.2969,1204,92.2969,1077,92.2969,1077,56" style="stroke:#181818;stroke-width:0.5;"/><line style="stroke:#181818;stroke-width:0.5;" x1="1204" x2="1214" y1="56" y2="46"/><line style="stroke:#181818;stroke-width:0.5;" x1="1077" x2="1204" y1="56" y2="56"/><line style="stroke:#181818;stroke-width:0.5;" x1="1204" x2="1204" y1="56" y2="92.2969"/><text fill="#000000" font-family="sans-serif" font-size="14" lengthAdjust="spacing" textLength="97" x="1092" y="78.9951">Placeholder_5</text></g><!--entity Placeholder_3--><g id="elem_Placeholder_3"><polygon fill="#F1F1F1" points="1249,56,1259,46,1386,46,1386,82.2969,1376,92.2969,1249,92.2969,1249,56" style="stroke:#181818;stroke-width:0.5;"/><line style="stroke:#181818;stroke-width:0.5;" x1="1376" x2="1386" y1="56" y2="46"/><line style="stroke:#181818;stroke-width:0.5;" x1="1249" x2="1376" y1="56" y2="56"/><line style="stroke:#181818;stroke-width:0.5;" x1="1376" x2="1376" y1="56" y2="92.2969"/><text fill="#000000" font-family="sans-serif" font-size="14" lengthAdjust="spacing" textLength="97" x="1264" y="78.9951">Placeholder_3</text></g><!--entity Placeholder_11--><g id="elem_Placeholder_11"><polygon fill="#F1F1F1" points="1421.5,56,1431.5,46,1567.5,46,1567.5,82.2969,1557.5,92.2969,1421.5,92.2969,1421.5,56" style="stroke:#181818;stroke-width:0.5;"/><line style="stroke:#181818;stroke-width:0.5;" x1="1557.5" x2="1567.5" y1="56" y2="46"/><line style="stroke:#181818;stroke-width:0.5;" x1="1421.5" x2="1557.5" y1="56" y2="56"/><line style="stroke:#181818;stroke-width:0.5;" x1="1557.5" x2="1557.5" y1="56" y2="92.2969"/><text fill="#000000" font-family="sans-serif" font-size="14" lengthAdjust="spacing" textLength="106" x="1436.5" y="78.9951">Placeholder_11</text></g><!--link aName to aName--><g id="link_aName_aName"><path d="M1690.77,64.73 C1709.52,64.41 1725.5,65.83 1725.5,69 C1725.5,72.17 1709.52,73.59 1690.77,73.27 " fill="none" id="aName-aName" style="stroke:#181818;stroke-width:1.0;"/><text fill="#000000" font-family="sans-serif" font-size="13" lengthAdjust="spacing" textLength="450" x="1738.5" y="73.5669">com_rohitghatol_microservices_task_apis_CommentsService_Provider</text><path d="M1683.5793,57.7806 A10,10 0 0 0 1683.8206 71.9207" fill="none" style="stroke:#181818;stroke-width:1.5;"/><ellipse cx="1690.77" cy="64.73" fill="#FFFFFF" rx="6" ry="6" style="stroke:#181818;stroke-width:1.5;"/></g><!--link aName to aName--><g id="link_aName_aName"><path d="M1690.9,64.69 C1824.87,57.75 2201.5,59.18 2201.5,69 C2201.5,78.82 1824.87,80.25 1690.9,73.31 " fill="none" id="aName-aName-1" style="stroke:#181818;stroke-width:1.0;"/><text fill="#000000" font-family="sans-serif" font-size="13" lengthAdjust="spacing" textLength="478" x="2214.5" y="73.5669">com_rohitghatol_microservices_task_apis_OAuth2RestOperations_Provider</text><path d="M1683.4726,57.9942 A10,10 0 0 0 1684.2042 72.1174" fill="none" style="stroke:#181818;stroke-width:1.5;"/><ellipse cx="1690.9" cy="64.69" fill="#FFFFFF" rx="6" ry="6" style="stroke:#181818;stroke-width:1.5;"/></g><!--SRC=[lT31IWD130RW-px5W9TULjgrrkAjbDwMRb4yoB8CwJPsXvsP3CbqjOhlRa6AYaTnZY7a_v98Rtm01gUUpClIS6knX2tQQa2s48BnUnNvW9cd7QgDXHOxiZjaFLDlMGrhSDYekcRgJDnt4Cdc4lWqbc-9OkvCooJ8WsbHBkKe4Ts5bcEncfRpXnNEglxHyqtv2i-BfidUVplpHCuuaJD91KrJ7NIT2YeIGQaEkahrkCd_GEV8V3JErRcuLIqv_StGFt9r1Ear12DwISwXZtB_sT8Rfi6SzlrhRhKunAwuGubLG8PeoCjN-0S0]--></g></svg>