<?xml version="1.0" encoding="us-ascii" standalone="no"?><svg xmlns="http://www.w3.org/2000/svg" xmlns:xlink="http://www.w3.org/1999/xlink" contentStyleType="text/css" height="125px" preserveAspectRatio="none" style="width:2740px;height:125px;background:#FFFFFF;" version="1.1" viewBox="0 0 2740 125" width="2740px" zoomAndPan="magnify"><defs/><g><!--cluster Placeholder_3--><g id="cluster_Placeholder_3"><polygon fill="none" points="1587.5,16,1597.5,6,2723.5,6,2723.5,98,2713.5,108,1587.5,108,1587.5,16" style="stroke:#181818;stroke-width:1.0;"/><line style="stroke:#181818;stroke-width:1.0;" x1="2713.5" x2="2723.5" y1="16" y2="6"/><line style="stroke:#181818;stroke-width:1.0;" x1="1587.5" x2="2713.5" y1="16" y2="16"/><line style="stroke:#181818;stroke-width:1.0;" x1="2713.5" x2="2713.5" y1="16" y2="108"/><text fill="#000000" font-family="sans-serif" font-size="14" font-weight="bold" lengthAdjust="spacing" textLength="110" x="2096.5" y="31.9951">Placeholder_3</text></g><!--entity aName--><g id="elem_aName"><a href="rohitghatol-spring-boot-microservices.system#_6f54cL_dEe6EP7i2SFc1cQ" target="_top" title="rohitghatol-spring-boot-microservices.system#_6f54cL_dEe6EP7i2SFc1cQ" xlink:actuate="onRequest" xlink:href="rohitghatol-spring-boot-microservices.system#_6f54cL_dEe6EP7i2SFc1cQ" xlink:show="new" xlink:title="rohitghatol-spring-boot-microservices.system#_6f54cL_dEe6EP7i2SFc1cQ" xlink:type="simple"><rect fill="#F1F1F1" height="46.2969" rx="2.5" ry="2.5" style="stroke:#181818;stroke-width:0.5;" width="88" x="1603.5" y="46"/><rect fill="#F1F1F1" height="10" style="stroke:#181818;stroke-width:0.5;" width="15" x="1671.5" y="51"/><rect fill="#F1F1F1" height="2" style="stroke:#181818;stroke-width:0.5;" width="4" x="1669.5" y="53"/><rect fill="#F1F1F1" height="2" style="stroke:#181818;stroke-width:0.5;" width="4" x="1669.5" y="57"/><text fill="#000000" font-family="sans-serif" font-size="14" lengthAdjust="spacing" textLength="48" x="1618.5" y="78.9951">aName</text></a></g><!--entity Placeholder_9--><g id="elem_Placeholder_9"><polygon fill="#F1F1F1" points="16,56,26,46,153,46,153,82.2969,143,92.2969,16,92.2969,16,56" style="stroke:#181818;stroke-width:0.5;"/><line style="stroke:#181818;stroke-width:0.5;" x1="143" x2="153" y1="56" y2="46"/><line style="stroke:#181818;stroke-width:0.5;" x1="16" x2="143" y1="56" y2="56"/><line style="stroke:#181818;stroke-width:0.5;" x1="143" x2="143" y1="56" y2="92.2969"/><text fill="#000000" font-family="sans-serif" font-size="14" lengthAdjust="spacing" textLength="97" x="31" y="78.9951">Placeholder_9</text></g><!--entity Placeholder_12--><g id="elem_Placeholder_12"><polygon fill="#F1F1F1" points="188.5,56,198.5,46,334.5,46,334.5,82.2969,324.5,92.2969,188.5,92.2969,188.5,56" style="stroke:#181818;stroke-width:0.5;"/><line style="stroke:#181818;stroke-width:0.5;" x1="324.5" x2="334.5" y1="56" y2="46"/><line style="stroke:#181818;stroke-width:0.5;" x1="188.5" x2="324.5" y1="56" y2="56"/><line style="stroke:#181818;stroke-width:0.5;" x1="324.5" x2="324.5" y1="56" y2="92.2969"/><text fill="#000000" font-family="sans-serif" font-size="14" lengthAdjust="spacing" textLength="106" x="203.5" y="78.9951">Placeholder_12</text></g><!--entity Placeholder_0--><g id="elem_Placeholder_0"><polygon fill="#F1F1F1" points="370,56,380,46,507,46,507,82.2969,497,92.2969,370,92.2969,370,56" style="stroke:#181818;stroke-width:0.5;"/><line style="stroke:#181818;stroke-width:0.5;" x1="497" x2="507" y1="56" y2="46"/><line style="stroke:#181818;stroke-width:0.5;" x1="370" x2="497" y1="56" y2="56"/><line style="stroke:#181818;stroke-width:0.5;" x1="497" x2="497" y1="56" y2="92.2969"/><text fill="#000000" font-family="sans-serif" font-size="14" lengthAdjust="spacing" textLength="97" x="385" y="78.9951">Placeholder_0</text></g><!--entity Placeholder_15--><g id="elem_Placeholder_15"><polygon fill="#F1F1F1" points="542.5,56,552.5,46,688.5,46,688.5,82.2969,678.5,92.2969,542.5,92.2969,542.5,56" style="stroke:#181818;stroke-width:0.5;"/><line style="stroke:#181818;stroke-width:0.5;" x1="678.5" x2="688.5" y1="56" y2="46"/><line style="stroke:#181818;stroke-width:0.5;" x1="542.5" x2="678.5" y1="56" y2="56"/><line style="stroke:#181818;stroke-width:0.5;" x1="678.5" x2="678.5" y1="56" y2="92.2969"/><text fill="#000000" font-family="sans-serif" font-size="14" lengthAdjust="spacing" textLength="106" x="557.5" y="78.9951">Placeholder_15</text></g><!--entity Placeholder_10--><g id="elem_Placeholder_10"><polygon fill="#F1F1F1" points="723.5,56,733.5,46,869.5,46,869.5,82.2969,859.5,92.2969,723.5,92.2969,723.5,56" style="stroke:#181818;stroke-width:0.5;"/><line style="stroke:#181818;stroke-width:0.5;" x1="859.5" x2="869.5" y1="56" y2="46"/><line style="stroke:#181818;stroke-width:0.5;" x1="723.5" x2="859.5" y1="56" y2="56"/><line style="stroke:#181818;stroke-width:0.5;" x1="859.5" x2="859.5" y1="56" y2="92.2969"/><text fill="#000000" font-family="sans-serif" font-size="14" lengthAdjust="spacing" textLength="106" x="738.5" y="78.9951">Placeholder_10</text></g><!--entity Placeholder_6--><g id="elem_Placeholder_6"><polygon fill="#F1F1F1" points="905,56,915,46,1042,46,1042,82.2969,1032,92.2969,905,92.2969,905,56" style="stroke:#181818;stroke-width:0.5;"/><line style="stroke:#181818;stroke-width:0.5;" x1="1032" x2="1042" y1="56" y2="46"/><line style="stroke:#181818;stroke-width:0.5;" x1="905" x2="1032" y1="56" y2="56"/><line style="stroke:#181818;stroke-width:0.5;" x1="1032" x2="1032" y1="56" y2="92.2969"/><text fill="#000000" font-family="sans-serif" font-size="14" lengthAdjust="spacing" textLength="97" x="920" y="78.9951">Placeholder_6</text></g><!--entity Placeholder_11--><g id="elem_Placeholder_11"><polygon fill="#F1F1F1" points="1077.5,56,1087.5,46,1223.5,46,1223.5,82.2969,1213.5,92.2969,1077.5,92.2969,1077.5,56" style="stroke:#181818;stroke-width:0.5;"/><line style="stroke:#181818;stroke-width:0.5;" x1="1213.5" x2="1223.5" y1="56" y2="46"/><line style="stroke:#181818;stroke-width:0.5;" x1="1077.5" x2="1213.5" y1="56" y2="56"/><line style="stroke:#181818;stroke-width:0.5;" x1="1213.5" x2="1213.5" y1="56" y2="92.2969"/><text fill="#000000" font-family="sans-serif" font-size="14" lengthAdjust="spacing" textLength="106" x="1092.5" y="78.9951">Placeholder_11</text></g><!--entity Placeholder_7--><g id="elem_Placeholder_7"><polygon fill="#F1F1F1" points="1259,56,1269,46,1396,46,1396,82.2969,1386,92.2969,1259,92.2969,1259,56" style="stroke:#181818;stroke-width:0.5;"/><line style="stroke:#181818;stroke-width:0.5;" x1="1386" x2="1396" y1="56" y2="46"/><line style="stroke:#181818;stroke-width:0.5;" x1="1259" x2="1386" y1="56" y2="56"/><line style="stroke:#181818;stroke-width:0.5;" x1="1386" x2="1386" y1="56" y2="92.2969"/><text fill="#000000" font-family="sans-serif" font-size="14" lengthAdjust="spacing" textLength="97" x="1274" y="78.9951">Placeholder_7</text></g><!--entity Placeholder_8--><g id="elem_Placeholder_8"><polygon fill="#F1F1F1" points="1431,56,1441,46,1568,46,1568,82.2969,1558,92.2969,1431,92.2969,1431,56" style="stroke:#181818;stroke-width:0.5;"/><line style="stroke:#181818;stroke-width:0.5;" x1="1558" x2="1568" y1="56" y2="46"/><line style="stroke:#181818;stroke-width:0.5;" x1="1431" x2="1558" y1="56" y2="56"/><line style="stroke:#181818;stroke-width:0.5;" x1="1558" x2="1558" y1="56" y2="92.2969"/><text fill="#000000" font-family="sans-serif" font-size="14" lengthAdjust="spacing" textLength="97" x="1446" y="78.9951">Placeholder_8</text></g><!--link aName to aName--><g id="link_aName_aName"><path d="M1691.77,64.73 C1710.52,64.41 1726.5,65.83 1726.5,69 C1726.5,72.17 1710.52,73.59 1691.77,73.27 " fill="none" id="aName-aName" style="stroke:#181818;stroke-width:1.0;"/><text fill="#000000" font-family="sans-serif" font-size="13" lengthAdjust="spacing" textLength="450" x="1739.5" y="73.5669">com_rohitghatol_microservices_task_apis_CommentsService_Provider</text><path d="M1684.5793,57.7806 A10,10 0 0 0 1684.8206 71.9207" fill="none" style="stroke:#181818;stroke-width:1.5;"/><ellipse cx="1691.77" cy="64.73" fill="#FFFFFF" rx="6" ry="6" style="stroke:#181818;stroke-width:1.5;"/></g><!--link aName to aName--><g id="link_aName_aName"><path d="M1691.9,64.69 C1825.87,57.75 2202.5,59.18 2202.5,69 C2202.5,78.82 1825.87,80.25 1691.9,73.31 " fill="none" id="aName-aName-1" style="stroke:#181818;stroke-width:1.0;"/><text fill="#000000" font-family="sans-serif" font-size="13" lengthAdjust="spacing" textLength="478" x="2215.5" y="73.5669">com_rohitghatol_microservices_task_apis_OAuth2RestOperations_Provider</text><path d="M1684.4726,57.9942 A10,10 0 0 0 1685.2042 72.1174" fill="none" style="stroke:#181818;stroke-width:1.5;"/><ellipse cx="1691.9" cy="64.69" fill="#FFFFFF" rx="6" ry="6" style="stroke:#181818;stroke-width:1.5;"/></g><!--SRC=[lS_1IiD040RWUvzYmOkNI1Djgjwar5CnqHv3MBQRQJDqDxFCR8CYlhi5AIeUfNiSXlc_-MMFGp1ilDhYwmBPEbYP3RXg17Oc11nsAl819WDre6fdBFJaEc1zhTudZNao7bhLD4mznbrl8hbC0X_FiWrHp3nQ9W4UqO9SoPj4y1UwtCvkx4ftIoYNzHoBzQFDxNFRJZx-EdU9dBn814rJ5PgbWb8rAbCLoXD1yqJExNcSKsHsEStKQRXNbhp-OUXVkJeQsMiJKFI2l8SXolfhfMkc4O_l_ZUtUZZ4ldW1YLK0DX5faE_mJm00]--></g></svg>