<?xml version="1.0" encoding="us-ascii" standalone="no"?><svg xmlns="http://www.w3.org/2000/svg" xmlns:xlink="http://www.w3.org/1999/xlink" contentStyleType="text/css" height="399px" preserveAspectRatio="none" style="width:3650px;height:399px;background:#FFFFFF;" version="1.1" viewBox="0 0 3650 399" width="3650px" zoomAndPan="magnify"><defs/><g><!--cluster nodecom_example--><g id="cluster_nodecom_example"><polygon fill="none" points="2552,109.29,2562,99.29,3241,99.29,3241,364.29,3231,374.29,2552,374.29,2552,109.29" style="stroke:#181818;stroke-width:1.0;"/><line style="stroke:#181818;stroke-width:1.0;" x1="3231" x2="3241" y1="109.29" y2="99.29"/><line style="stroke:#181818;stroke-width:1.0;" x1="2552" x2="3231" y1="109.29" y2="109.29"/><line style="stroke:#181818;stroke-width:1.0;" x1="3231" x2="3231" y1="109.29" y2="374.29"/><text fill="#000000" font-family="sans-serif" font-size="14" font-weight="bold" lengthAdjust="spacing" textLength="146" x="2819.5" y="125.2851">nodecom_example</text></g><!--cluster com_example--><g id="cluster_com_example"><rect fill="none" height="203" rx="2.5" ry="2.5" style="stroke:#181818;stroke-width:1.0;" width="641" x="2576" y="147.29"/><rect fill="none" height="10" style="stroke:#181818;stroke-width:1.0;" width="15" x="3197" y="152.29"/><rect fill="none" height="2" style="stroke:#181818;stroke-width:1.0;" width="4" x="3195" y="154.29"/><rect fill="none" height="2" style="stroke:#181818;stroke-width:1.0;" width="4" x="3195" y="158.29"/><text fill="#000000" font-family="sans-serif" font-size="14" font-weight="bold" lengthAdjust="spacing" textLength="106" x="2843.5" y="173.2851">com_example</text></g><!--cluster nodecom_example_2--><g id="cluster_nodecom_example_2"><polygon fill="none" points="1355,101.29,1365,91.29,2146,91.29,2146,372.29,2136,382.29,1355,382.29,1355,101.29" style="stroke:#181818;stroke-width:1.0;"/><line style="stroke:#181818;stroke-width:1.0;" x1="2136" x2="2146" y1="101.29" y2="91.29"/><line style="stroke:#181818;stroke-width:1.0;" x1="1355" x2="2136" y1="101.29" y2="101.29"/><line style="stroke:#181818;stroke-width:1.0;" x1="2136" x2="2136" y1="101.29" y2="382.29"/><text fill="#000000" font-family="sans-serif" font-size="14" font-weight="bold" lengthAdjust="spacing" textLength="163" x="1665" y="117.2851">nodecom_example_2</text></g><!--cluster com_example_2--><g id="cluster_com_example_2"><rect fill="none" height="203" rx="2.5" ry="2.5" style="stroke:#181818;stroke-width:1.0;" width="719" x="1395" y="147.29"/><rect fill="none" height="10" style="stroke:#181818;stroke-width:1.0;" width="15" x="2094" y="152.29"/><rect fill="none" height="2" style="stroke:#181818;stroke-width:1.0;" width="4" x="2092" y="154.29"/><rect fill="none" height="2" style="stroke:#181818;stroke-width:1.0;" width="4" x="2092" y="158.29"/><text fill="#000000" font-family="sans-serif" font-size="14" font-weight="bold" lengthAdjust="spacing" textLength="123" x="1693" y="173.2851">com_example_2</text></g><!--cluster nodecom_example_MovieController--><g id="cluster_nodecom_example_MovieController"><polygon fill="none" points="445,144.29,455,134.29,799,134.29,799,242.29,789,252.29,445,252.29,445,144.29" style="stroke:#181818;stroke-width:1.0;"/><line style="stroke:#181818;stroke-width:1.0;" x1="789" x2="799" y1="144.29" y2="134.29"/><line style="stroke:#181818;stroke-width:1.0;" x1="445" x2="789" y1="144.29" y2="144.29"/><line style="stroke:#181818;stroke-width:1.0;" x1="789" x2="789" y1="144.29" y2="252.29"/><text fill="#000000" font-family="sans-serif" font-size="14" font-weight="bold" lengthAdjust="spacing" textLength="278" x="479" y="160.2851">nodecom_example_MovieController</text></g><!--cluster nodecom_example_MovieRepo_Provider--><g id="cluster_nodecom_example_MovieRepo_Provider"><polygon fill="none" points="16,144.29,26,134.29,405,134.29,405,242.29,395,252.29,16,252.29,16,144.29" style="stroke:#181818;stroke-width:1.0;"/><line style="stroke:#181818;stroke-width:1.0;" x1="395" x2="405" y1="144.29" y2="134.29"/><line style="stroke:#181818;stroke-width:1.0;" x1="16" x2="395" y1="144.29" y2="144.29"/><line style="stroke:#181818;stroke-width:1.0;" x1="395" x2="395" y1="144.29" y2="252.29"/><text fill="#000000" font-family="sans-serif" font-size="14" font-weight="bold" lengthAdjust="spacing" textLength="313" x="50" y="160.2851">nodecom_example_MovieRepo_Provider</text></g><!--cluster nodecom_example_service_RestTemplate_Provider--><g id="cluster_nodecom_example_service_RestTemplate_Provider"><polygon fill="none" points="839,144.29,849,134.29,1315,134.29,1315,242.29,1305,252.29,839,252.29,839,144.29" style="stroke:#181818;stroke-width:1.0;"/><line style="stroke:#181818;stroke-width:1.0;" x1="1305" x2="1315" y1="144.29" y2="134.29"/><line style="stroke:#181818;stroke-width:1.0;" x1="839" x2="1305" y1="144.29" y2="144.29"/><line style="stroke:#181818;stroke-width:1.0;" x1="1305" x2="1305" y1="144.29" y2="252.29"/><text fill="#000000" font-family="sans-serif" font-size="14" font-weight="bold" lengthAdjust="spacing" textLength="400" x="873" y="160.2851">nodecom_example_service_RestTemplate_Provider</text></g><!--cluster nodeuser_service_newuser_Provider--><g id="cluster_nodeuser_service_newuser_Provider"><polygon fill="none" points="3265,152.29,3275,142.29,3633,142.29,3633,234.29,3623,244.29,3265,244.29,3265,152.29" style="stroke:#181818;stroke-width:1.0;"/><line style="stroke:#181818;stroke-width:1.0;" x1="3623" x2="3633" y1="152.29" y2="142.29"/><line style="stroke:#181818;stroke-width:1.0;" x1="3265" x2="3623" y1="152.29" y2="152.29"/><line style="stroke:#181818;stroke-width:1.0;" x1="3623" x2="3623" y1="152.29" y2="244.29"/><text fill="#000000" font-family="sans-serif" font-size="14" font-weight="bold" lengthAdjust="spacing" textLength="292" x="3299" y="168.2851">nodeuser_service_newuser_Provider</text></g><!--cluster nodeuser_service_user_Provider--><g id="cluster_nodeuser_service_user_Provider"><polygon fill="none" points="2186,144.29,2196,134.29,2520,134.29,2520,242.29,2510,252.29,2186,252.29,2186,144.29" style="stroke:#181818;stroke-width:1.0;"/><line style="stroke:#181818;stroke-width:1.0;" x1="2510" x2="2520" y1="144.29" y2="134.29"/><line style="stroke:#181818;stroke-width:1.0;" x1="2186" x2="2510" y1="144.29" y2="144.29"/><line style="stroke:#181818;stroke-width:1.0;" x1="2510" x2="2510" y1="144.29" y2="252.29"/><text fill="#000000" font-family="sans-serif" font-size="14" font-weight="bold" lengthAdjust="spacing" textLength="258" x="2220" y="160.2851">nodeuser_service_user_Provider</text></g><!--entity com_example_RecommendationController--><g id="elem_com_example_RecommendationController"><a href="mdeket-spring-cloud-movie-recommendation.system#_hGN2c-AVEe6U3NLq7dieCQ" target="_top" title="mdeket-spring-cloud-movie-recommendation.system#_hGN2c-AVEe6U3NLq7dieCQ" xlink:actuate="onRequest" xlink:href="mdeket-spring-cloud-movie-recommendation.system#_hGN2c-AVEe6U3NLq7dieCQ" xlink:show="new" xlink:title="mdeket-spring-cloud-movie-recommendation.system#_hGN2c-AVEe6U3NLq7dieCQ" xlink:type="simple"><rect fill="#F1F1F1" height="46.2969" rx="2.5" ry="2.5" style="stroke:#181818;stroke-width:0.5;" width="332" x="2592" y="182.29"/><rect fill="#F1F1F1" height="10" style="stroke:#181818;stroke-width:0.5;" width="15" x="2904" y="187.29"/><rect fill="#F1F1F1" height="2" style="stroke:#181818;stroke-width:0.5;" width="4" x="2902" y="189.29"/><rect fill="#F1F1F1" height="2" style="stroke:#181818;stroke-width:0.5;" width="4" x="2902" y="193.29"/><text fill="#000000" font-family="sans-serif" font-size="14" lengthAdjust="spacing" textLength="292" x="2607" y="215.2851">com_example_RecommendationController</text></a></g><!--entity com_example_UserController--><g id="elem_com_example_UserController"><a href="mdeket-spring-cloud-movie-recommendation.system#_hGN2c-AVEe6U3NLq7dieCQ" target="_top" title="mdeket-spring-cloud-movie-recommendation.system#_hGN2c-AVEe6U3NLq7dieCQ" xlink:actuate="onRequest" xlink:href="mdeket-spring-cloud-movie-recommendation.system#_hGN2c-AVEe6U3NLq7dieCQ" xlink:show="new" xlink:title="mdeket-spring-cloud-movie-recommendation.system#_hGN2c-AVEe6U3NLq7dieCQ" xlink:type="simple"><rect fill="#F1F1F1" height="46.2969" rx="2.5" ry="2.5" style="stroke:#181818;stroke-width:0.5;" width="241" x="2959.5" y="182.29"/><rect fill="#F1F1F1" height="10" style="stroke:#181818;stroke-width:0.5;" width="15" x="3180.5" y="187.29"/><rect fill="#F1F1F1" height="2" style="stroke:#181818;stroke-width:0.5;" width="4" x="3178.5" y="189.29"/><rect fill="#F1F1F1" height="2" style="stroke:#181818;stroke-width:0.5;" width="4" x="3178.5" y="193.29"/><text fill="#000000" font-family="sans-serif" font-size="14" lengthAdjust="spacing" textLength="201" x="2974.5" y="215.2851">com_example_UserController</text></a></g><!--entity com_example_UserRepo--><g id="elem_com_example_UserRepo"><a href="mdeket-spring-cloud-movie-recommendation.system#_hGN2c-AVEe6U3NLq7dieCQ" target="_top" title="mdeket-spring-cloud-movie-recommendation.system#_hGN2c-AVEe6U3NLq7dieCQ" xlink:actuate="onRequest" xlink:href="mdeket-spring-cloud-movie-recommendation.system#_hGN2c-AVEe6U3NLq7dieCQ" xlink:show="new" xlink:title="mdeket-spring-cloud-movie-recommendation.system#_hGN2c-AVEe6U3NLq7dieCQ" xlink:type="simple"><rect fill="#F1F1F1" height="46.2969" rx="2.5" ry="2.5" style="stroke:#181818;stroke-width:0.5;" width="211" x="2652.5" y="288.29"/><rect fill="#F1F1F1" height="10" style="stroke:#181818;stroke-width:0.5;" width="15" x="2843.5" y="293.29"/><rect fill="#F1F1F1" height="2" style="stroke:#181818;stroke-width:0.5;" width="4" x="2841.5" y="295.29"/><rect fill="#F1F1F1" height="2" style="stroke:#181818;stroke-width:0.5;" width="4" x="2841.5" y="299.29"/><text fill="#000000" font-family="sans-serif" font-size="14" lengthAdjust="spacing" textLength="171" x="2667.5" y="321.2851">com_example_UserRepo</text></a></g><!--entity com_example_MainController--><g id="elem_com_example_MainController"><a href="mdeket-spring-cloud-movie-recommendation.system#_hGN2c-AVEe6U3NLq7dieCQ" target="_top" title="mdeket-spring-cloud-movie-recommendation.system#_hGN2c-AVEe6U3NLq7dieCQ" xlink:actuate="onRequest" xlink:href="mdeket-spring-cloud-movie-recommendation.system#_hGN2c-AVEe6U3NLq7dieCQ" xlink:show="new" xlink:title="mdeket-spring-cloud-movie-recommendation.system#_hGN2c-AVEe6U3NLq7dieCQ" xlink:type="simple"><rect fill="#F1F1F1" height="46.2969" rx="2.5" ry="2.5" style="stroke:#181818;stroke-width:0.5;" width="241" x="1411.5" y="182.29"/><rect fill="#F1F1F1" height="10" style="stroke:#181818;stroke-width:0.5;" width="15" x="1632.5" y="187.29"/><rect fill="#F1F1F1" height="2" style="stroke:#181818;stroke-width:0.5;" width="4" x="1630.5" y="189.29"/><rect fill="#F1F1F1" height="2" style="stroke:#181818;stroke-width:0.5;" width="4" x="1630.5" y="193.29"/><text fill="#000000" font-family="sans-serif" font-size="14" lengthAdjust="spacing" textLength="201" x="1426.5" y="215.2851">com_example_MainController</text></a></g><!--entity com_example_service_RecommendationClientService--><g id="elem_com_example_service_RecommendationClientService"><a href="mdeket-spring-cloud-movie-recommendation.system#_hGN2c-AVEe6U3NLq7dieCQ" target="_top" title="mdeket-spring-cloud-movie-recommendation.system#_hGN2c-AVEe6U3NLq7dieCQ" xlink:actuate="onRequest" xlink:href="mdeket-spring-cloud-movie-recommendation.system#_hGN2c-AVEe6U3NLq7dieCQ" xlink:show="new" xlink:title="mdeket-spring-cloud-movie-recommendation.system#_hGN2c-AVEe6U3NLq7dieCQ" xlink:type="simple"><rect fill="#F1F1F1" height="46.2969" rx="2.5" ry="2.5" style="stroke:#181818;stroke-width:0.5;" width="410" x="1688" y="182.29"/><rect fill="#F1F1F1" height="10" style="stroke:#181818;stroke-width:0.5;" width="15" x="2078" y="187.29"/><rect fill="#F1F1F1" height="2" style="stroke:#181818;stroke-width:0.5;" width="4" x="2076" y="189.29"/><rect fill="#F1F1F1" height="2" style="stroke:#181818;stroke-width:0.5;" width="4" x="2076" y="193.29"/><text fill="#000000" font-family="sans-serif" font-size="14" lengthAdjust="spacing" textLength="370" x="1703" y="215.2851">com_example_service_RecommendationClientService</text></a></g><!--entity com_example_service_UserService--><g id="elem_com_example_service_UserService"><a href="mdeket-spring-cloud-movie-recommendation.system#_hGN2c-AVEe6U3NLq7dieCQ" target="_top" title="mdeket-spring-cloud-movie-recommendation.system#_hGN2c-AVEe6U3NLq7dieCQ" xlink:actuate="onRequest" xlink:href="mdeket-spring-cloud-movie-recommendation.system#_hGN2c-AVEe6U3NLq7dieCQ" xlink:show="new" xlink:title="mdeket-spring-cloud-movie-recommendation.system#_hGN2c-AVEe6U3NLq7dieCQ" xlink:type="simple"><rect fill="#F1F1F1" height="46.2969" rx="2.5" ry="2.5" style="stroke:#181818;stroke-width:0.5;" width="280" x="1411" y="288.29"/><rect fill="#F1F1F1" height="10" style="stroke:#181818;stroke-width:0.5;" width="15" x="1671" y="293.29"/><rect fill="#F1F1F1" height="2" style="stroke:#181818;stroke-width:0.5;" width="4" x="1669" y="295.29"/><rect fill="#F1F1F1" height="2" style="stroke:#181818;stroke-width:0.5;" width="4" x="1669" y="299.29"/><text fill="#000000" font-family="sans-serif" font-size="14" lengthAdjust="spacing" textLength="240" x="1426" y="321.2851">com_example_service_UserService</text></a></g><!--entity com_example_MovieController--><g id="elem_com_example_MovieController"><a href="mdeket-spring-cloud-movie-recommendation.system#_hGN2c-AVEe6U3NLq7dieCQ" target="_top" title="mdeket-spring-cloud-movie-recommendation.system#_hGN2c-AVEe6U3NLq7dieCQ" xlink:actuate="onRequest" xlink:href="mdeket-spring-cloud-movie-recommendation.system#_hGN2c-AVEe6U3NLq7dieCQ" xlink:show="new" xlink:title="mdeket-spring-cloud-movie-recommendation.system#_hGN2c-AVEe6U3NLq7dieCQ" xlink:type="simple"><rect fill="#F1F1F1" height="46.2969" rx="2.5" ry="2.5" style="stroke:#181818;stroke-width:0.5;" width="249" x="506.5" y="182.29"/><rect fill="#F1F1F1" height="10" style="stroke:#181818;stroke-width:0.5;" width="15" x="735.5" y="187.29"/><rect fill="#F1F1F1" height="2" style="stroke:#181818;stroke-width:0.5;" width="4" x="733.5" y="189.29"/><rect fill="#F1F1F1" height="2" style="stroke:#181818;stroke-width:0.5;" width="4" x="733.5" y="193.29"/><text fill="#000000" font-family="sans-serif" font-size="14" lengthAdjust="spacing" textLength="209" x="521.5" y="215.2851">com_example_MovieController</text></a></g><!--entity com_example_MovieRepo_Provider--><g id="elem_com_example_MovieRepo_Provider"><a href="mdeket-spring-cloud-movie-recommendation.system#_hGN2c-AVEe6U3NLq7dieCQ" target="_top" title="mdeket-spring-cloud-movie-recommendation.system#_hGN2c-AVEe6U3NLq7dieCQ" xlink:actuate="onRequest" xlink:href="mdeket-spring-cloud-movie-recommendation.system#_hGN2c-AVEe6U3NLq7dieCQ" xlink:show="new" xlink:title="mdeket-spring-cloud-movie-recommendation.system#_hGN2c-AVEe6U3NLq7dieCQ" xlink:type="simple"><rect fill="#F1F1F1" height="46.2969" rx="2.5" ry="2.5" style="stroke:#181818;stroke-width:0.5;" width="282" x="99" y="182.29"/><rect fill="#F1F1F1" height="10" style="stroke:#181818;stroke-width:0.5;" width="15" x="361" y="187.29"/><rect fill="#F1F1F1" height="2" style="stroke:#181818;stroke-width:0.5;" width="4" x="359" y="189.29"/><rect fill="#F1F1F1" height="2" style="stroke:#181818;stroke-width:0.5;" width="4" x="359" y="193.29"/><text fill="#000000" font-family="sans-serif" font-size="14" lengthAdjust="spacing" textLength="242" x="114" y="215.2851">com_example_MovieRepo_Provider</text></a></g><!--entity com_example_service_RestTemplate_Provider--><g id="elem_com_example_service_RestTemplate_Provider"><a href="mdeket-spring-cloud-movie-recommendation.system#_hGN2c-AVEe6U3NLq7dieCQ" target="_top" title="mdeket-spring-cloud-movie-recommendation.system#_hGN2c-AVEe6U3NLq7dieCQ" xlink:actuate="onRequest" xlink:href="mdeket-spring-cloud-movie-recommendation.system#_hGN2c-AVEe6U3NLq7dieCQ" xlink:show="new" xlink:title="mdeket-spring-cloud-movie-recommendation.system#_hGN2c-AVEe6U3NLq7dieCQ" xlink:type="simple"><rect fill="#F1F1F1" height="46.2969" rx="2.5" ry="2.5" style="stroke:#181818;stroke-width:0.5;" width="358" x="933" y="182.29"/><rect fill="#F1F1F1" height="10" style="stroke:#181818;stroke-width:0.5;" width="15" x="1271" y="187.29"/><rect fill="#F1F1F1" height="2" style="stroke:#181818;stroke-width:0.5;" width="4" x="1269" y="189.29"/><rect fill="#F1F1F1" height="2" style="stroke:#181818;stroke-width:0.5;" width="4" x="1269" y="193.29"/><text fill="#000000" font-family="sans-serif" font-size="14" lengthAdjust="spacing" textLength="318" x="948" y="215.2851">com_example_service_RestTemplate_Provider</text></a></g><!--entity user_service_newuser_Provider--><g id="elem_user_service_newuser_Provider"><a href="mdeket-spring-cloud-movie-recommendation.system#_hGN2c-AVEe6U3NLq7dieCQ" target="_top" title="mdeket-spring-cloud-movie-recommendation.system#_hGN2c-AVEe6U3NLq7dieCQ" xlink:actuate="onRequest" xlink:href="mdeket-spring-cloud-movie-recommendation.system#_hGN2c-AVEe6U3NLq7dieCQ" xlink:show="new" xlink:title="mdeket-spring-cloud-movie-recommendation.system#_hGN2c-AVEe6U3NLq7dieCQ" xlink:type="simple"><rect fill="#F1F1F1" height="46.2969" rx="2.5" ry="2.5" style="stroke:#181818;stroke-width:0.5;" width="257" x="3320.5" y="182.29"/><rect fill="#F1F1F1" height="10" style="stroke:#181818;stroke-width:0.5;" width="15" x="3557.5" y="187.29"/><rect fill="#F1F1F1" height="2" style="stroke:#181818;stroke-width:0.5;" width="4" x="3555.5" y="189.29"/><rect fill="#F1F1F1" height="2" style="stroke:#181818;stroke-width:0.5;" width="4" x="3555.5" y="193.29"/><text fill="#000000" font-family="sans-serif" font-size="14" lengthAdjust="spacing" textLength="217" x="3335.5" y="215.2851">user_service_newuser_Provider</text></a></g><!--entity user_service_user_Provider--><g id="elem_user_service_user_Provider"><a href="mdeket-spring-cloud-movie-recommendation.system#_hGN2c-AVEe6U3NLq7dieCQ" target="_top" title="mdeket-spring-cloud-movie-recommendation.system#_hGN2c-AVEe6U3NLq7dieCQ" xlink:actuate="onRequest" xlink:href="mdeket-spring-cloud-movie-recommendation.system#_hGN2c-AVEe6U3NLq7dieCQ" xlink:show="new" xlink:title="mdeket-spring-cloud-movie-recommendation.system#_hGN2c-AVEe6U3NLq7dieCQ" xlink:type="simple"><rect fill="#F1F1F1" height="46.2969" rx="2.5" ry="2.5" style="stroke:#181818;stroke-width:0.5;" width="228" x="2248" y="182.29"/><rect fill="#F1F1F1" height="10" style="stroke:#181818;stroke-width:0.5;" width="15" x="2456" y="187.29"/><rect fill="#F1F1F1" height="2" style="stroke:#181818;stroke-width:0.5;" width="4" x="2454" y="189.29"/><rect fill="#F1F1F1" height="2" style="stroke:#181818;stroke-width:0.5;" width="4" x="2454" y="193.29"/><text fill="#000000" font-family="sans-serif" font-size="14" lengthAdjust="spacing" textLength="188" x="2263" y="215.2851">user_service_user_Provider</text></a></g><!--link nodecom_example_MovieRepo_Provider to nodecom_example_MovieController--><g id="link_nodecom_example_MovieRepo_Provider_nodecom_example_MovieController"><path d="M58.7567,133.9519 C58.7867,133.4096 58.8187,132.8666 58.8527,132.3229 C58.9207,131.2355 58.9968,130.1455 59.0813,129.0535 C59.2504,126.8695 59.4533,124.6778 59.6935,122.4841 C60.1737,118.0968 60.8024,113.7017 61.6056,109.3459 C63.212,100.6343 65.5161,92.0793 68.7253,84.0558 C75.1438,68.0088 85.1825,54.0875 100.5,45.29 C154.26,14.41 325.74,14.41 379.5,45.29 C411.84,63.865 430.0475,101.0725 440.2488,134.935 C441.5239,139.1678 442.674,143.3484 443.7109,147.4337 C443.9701,148.4551 444.2223,149.4704 444.4676,150.4792 C444.5902,150.9836 444.7111,151.4863 444.8303,151.9873 " fill="none" id="nodecom_example_MovieRepo_Provider-nodecom_example_MovieController" style="stroke:#181818;stroke-width:1.0;"/></g><!--link nodecom_example_service_RestTemplate_Provider to nodecom_example_2--><g id="link_nodecom_example_service_RestTemplate_Provider_nodecom_example_2"><path d="M892.7567,133.9519 C892.7867,133.4096 892.8187,132.8666 892.8527,132.3229 C892.9207,131.2355 892.9968,130.1455 893.0813,129.0535 C893.2504,126.8695 893.4533,124.6778 893.6935,122.4841 C894.1737,118.0968 894.8024,113.7017 895.6056,109.3459 C897.212,100.6343 899.5161,92.0793 902.7253,84.0558 C909.1438,68.0088 919.1825,54.0875 934.5,45.29 C1002.91,6 1221.09,6 1289.5,45.29 C1321.84,63.865 1340.0475,101.0725 1350.2488,134.935 C1351.5239,139.1678 1352.674,143.3484 1353.7109,147.4337 C1353.9701,148.4551 1354.2223,149.4704 1354.4676,150.4792 C1354.5902,150.9836 1354.7111,151.4863 1354.8303,151.9873 " fill="none" id="nodecom_example_service_RestTemplate_Provider-nodecom_example_2" style="stroke:#181818;stroke-width:1.0;"/></g><!--link nodeuser_service_user_Provider to nodecom_example_2--><g id="link_nodeuser_service_user_Provider_nodecom_example_2"><path d="M2185.8773,175.9895 C2185.3429,174.3369 2184.78,172.6337 2184.188,170.8852 C2183.0041,167.3881 2181.704,163.7098 2180.2827,159.892 C2177.4402,152.2563 2174.1134,144.0625 2170.2638,135.645 C2154.865,101.975 2131.1,64.725 2096.5,45.29 C2030.24,8.07 1478.4,7.44 1412.5,45.29 C1397.12,54.125 1386.2588,67.8338 1378.6361,83.592 C1377.6833,85.5618 1376.781,87.5636 1375.9269,89.5919 C1375.7134,90.099 1375.5028,90.6078 1375.2953,91.1181 " fill="none" id="nodeuser_service_user_Provider-nodecom_example_2" style="stroke:#181818;stroke-width:1.0;"/></g><!--SRC=[lPFBJiCm44Nt-GfBhCCYIB164MBJ5YYKJHH59fw2LR-mdT0AyU_O1QMryjgqKQGezepddjmPcmqL2clCqPfkKwfB1ZFy1koX1ismKbIy8wihY4oJM4gkf01Xd-sE0QeuIo8X2I3_Si42jfWh5_cEcbGKxcT7osBf3t4G15igHIg5rP8nq3dACavW0pOsIZkGk6Io8Z6NDOLO1wSkpSvOu1V5n_qYAUFRrpkuNbqjPfytX4BwbEUXvCg0dane2KgULkB7FLsE5qcVv_j8G3R7T1gldGCrBLjjPjHFq5zi0dNVYBEezVPYxiiT76xv7uPF3TMFvCUnUDJka_HG1HcJW1rcnDWNS5lOGY_ZOFBPS2idsqWB-DglZn474wR16cOwAr0sFcivYb4sSaloTg6HTdVKJFwh3Frzzx5V]--></g></svg>