<?xml version="1.0" encoding="us-ascii" standalone="no"?><svg xmlns="http://www.w3.org/2000/svg" xmlns:xlink="http://www.w3.org/1999/xlink" contentStyleType="text/css" height="125px" preserveAspectRatio="none" style="width:6727px;height:125px;background:#FFFFFF;" version="1.1" viewBox="0 0 6727 125" width="6727px" zoomAndPan="magnify"><defs/><g><!--cluster Placeholder_4--><g id="cluster_Placeholder_4"><polygon fill="none" points="6106,16,6116,6,6710,6,6710,98,6700,108,6106,108,6106,16" style="stroke:#181818;stroke-width:1.0;"/><line style="stroke:#181818;stroke-width:1.0;" x1="6700" x2="6710" y1="16" y2="6"/><line style="stroke:#181818;stroke-width:1.0;" x1="6106" x2="6700" y1="16" y2="16"/><line style="stroke:#181818;stroke-width:1.0;" x1="6700" x2="6700" y1="16" y2="108"/><text fill="#000000" font-family="sans-serif" font-size="14" font-weight="bold" lengthAdjust="spacing" textLength="110" x="6349" y="31.9951">Placeholder_4</text></g><!--entity aName--><g id="elem_aName"><a href="cloudscale-project-cloudstore.system#_kIBp1r8UEe6aLexuiLna1A" target="_top" title="cloudscale-project-cloudstore.system#_kIBp1r8UEe6aLexuiLna1A" xlink:actuate="onRequest" xlink:href="cloudscale-project-cloudstore.system#_kIBp1r8UEe6aLexuiLna1A" xlink:show="new" xlink:title="cloudscale-project-cloudstore.system#_kIBp1r8UEe6aLexuiLna1A" xlink:type="simple"><rect fill="#F1F1F1" height="46.2969" rx="2.5" ry="2.5" style="stroke:#181818;stroke-width:0.5;" width="88" x="6122" y="46"/><rect fill="#F1F1F1" height="10" style="stroke:#181818;stroke-width:0.5;" width="15" x="6190" y="51"/><rect fill="#F1F1F1" height="2" style="stroke:#181818;stroke-width:0.5;" width="4" x="6188" y="53"/><rect fill="#F1F1F1" height="2" style="stroke:#181818;stroke-width:0.5;" width="4" x="6188" y="57"/><text fill="#000000" font-family="sans-serif" font-size="14" lengthAdjust="spacing" textLength="48" x="6137" y="78.9951">aName</text></a></g><!--entity Placeholder_48--><g id="elem_Placeholder_48"><polygon fill="#F1F1F1" points="16,56,26,46,162,46,162,82.2969,152,92.2969,16,92.2969,16,56" style="stroke:#181818;stroke-width:0.5;"/><line style="stroke:#181818;stroke-width:0.5;" x1="152" x2="162" y1="56" y2="46"/><line style="stroke:#181818;stroke-width:0.5;" x1="16" x2="152" y1="56" y2="56"/><line style="stroke:#181818;stroke-width:0.5;" x1="152" x2="152" y1="56" y2="92.2969"/><text fill="#000000" font-family="sans-serif" font-size="14" lengthAdjust="spacing" textLength="106" x="31" y="78.9951">Placeholder_48</text></g><!--entity Placeholder_46--><g id="elem_Placeholder_46"><polygon fill="#F1F1F1" points="197,56,207,46,343,46,343,82.2969,333,92.2969,197,92.2969,197,56" style="stroke:#181818;stroke-width:0.5;"/><line style="stroke:#181818;stroke-width:0.5;" x1="333" x2="343" y1="56" y2="46"/><line style="stroke:#181818;stroke-width:0.5;" x1="197" x2="333" y1="56" y2="56"/><line style="stroke:#181818;stroke-width:0.5;" x1="333" x2="333" y1="56" y2="92.2969"/><text fill="#000000" font-family="sans-serif" font-size="14" lengthAdjust="spacing" textLength="106" x="212" y="78.9951">Placeholder_46</text></g><!--entity Placeholder_40--><g id="elem_Placeholder_40"><polygon fill="#F1F1F1" points="378,56,388,46,524,46,524,82.2969,514,92.2969,378,92.2969,378,56" style="stroke:#181818;stroke-width:0.5;"/><line style="stroke:#181818;stroke-width:0.5;" x1="514" x2="524" y1="56" y2="46"/><line style="stroke:#181818;stroke-width:0.5;" x1="378" x2="514" y1="56" y2="56"/><line style="stroke:#181818;stroke-width:0.5;" x1="514" x2="514" y1="56" y2="92.2969"/><text fill="#000000" font-family="sans-serif" font-size="14" lengthAdjust="spacing" textLength="106" x="393" y="78.9951">Placeholder_40</text></g><!--entity Placeholder_37--><g id="elem_Placeholder_37"><polygon fill="#F1F1F1" points="559,56,569,46,705,46,705,82.2969,695,92.2969,559,92.2969,559,56" style="stroke:#181818;stroke-width:0.5;"/><line style="stroke:#181818;stroke-width:0.5;" x1="695" x2="705" y1="56" y2="46"/><line style="stroke:#181818;stroke-width:0.5;" x1="559" x2="695" y1="56" y2="56"/><line style="stroke:#181818;stroke-width:0.5;" x1="695" x2="695" y1="56" y2="92.2969"/><text fill="#000000" font-family="sans-serif" font-size="14" lengthAdjust="spacing" textLength="106" x="574" y="78.9951">Placeholder_37</text></g><!--entity Placeholder_49--><g id="elem_Placeholder_49"><polygon fill="#F1F1F1" points="740,56,750,46,886,46,886,82.2969,876,92.2969,740,92.2969,740,56" style="stroke:#181818;stroke-width:0.5;"/><line style="stroke:#181818;stroke-width:0.5;" x1="876" x2="886" y1="56" y2="46"/><line style="stroke:#181818;stroke-width:0.5;" x1="740" x2="876" y1="56" y2="56"/><line style="stroke:#181818;stroke-width:0.5;" x1="876" x2="876" y1="56" y2="92.2969"/><text fill="#000000" font-family="sans-serif" font-size="14" lengthAdjust="spacing" textLength="106" x="755" y="78.9951">Placeholder_49</text></g><!--entity Placeholder_35--><g id="elem_Placeholder_35"><polygon fill="#F1F1F1" points="921,56,931,46,1067,46,1067,82.2969,1057,92.2969,921,92.2969,921,56" style="stroke:#181818;stroke-width:0.5;"/><line style="stroke:#181818;stroke-width:0.5;" x1="1057" x2="1067" y1="56" y2="46"/><line style="stroke:#181818;stroke-width:0.5;" x1="921" x2="1057" y1="56" y2="56"/><line style="stroke:#181818;stroke-width:0.5;" x1="1057" x2="1057" y1="56" y2="92.2969"/><text fill="#000000" font-family="sans-serif" font-size="14" lengthAdjust="spacing" textLength="106" x="936" y="78.9951">Placeholder_35</text></g><!--entity Placeholder_6--><g id="elem_Placeholder_6"><polygon fill="#F1F1F1" points="1102.5,56,1112.5,46,1239.5,46,1239.5,82.2969,1229.5,92.2969,1102.5,92.2969,1102.5,56" style="stroke:#181818;stroke-width:0.5;"/><line style="stroke:#181818;stroke-width:0.5;" x1="1229.5" x2="1239.5" y1="56" y2="46"/><line style="stroke:#181818;stroke-width:0.5;" x1="1102.5" x2="1229.5" y1="56" y2="56"/><line style="stroke:#181818;stroke-width:0.5;" x1="1229.5" x2="1229.5" y1="56" y2="92.2969"/><text fill="#000000" font-family="sans-serif" font-size="14" lengthAdjust="spacing" textLength="97" x="1117.5" y="78.9951">Placeholder_6</text></g><!--entity Placeholder_36--><g id="elem_Placeholder_36"><polygon fill="#F1F1F1" points="1275,56,1285,46,1421,46,1421,82.2969,1411,92.2969,1275,92.2969,1275,56" style="stroke:#181818;stroke-width:0.5;"/><line style="stroke:#181818;stroke-width:0.5;" x1="1411" x2="1421" y1="56" y2="46"/><line style="stroke:#181818;stroke-width:0.5;" x1="1275" x2="1411" y1="56" y2="56"/><line style="stroke:#181818;stroke-width:0.5;" x1="1411" x2="1411" y1="56" y2="92.2969"/><text fill="#000000" font-family="sans-serif" font-size="14" lengthAdjust="spacing" textLength="106" x="1290" y="78.9951">Placeholder_36</text></g><!--entity Placeholder_11--><g id="elem_Placeholder_11"><polygon fill="#F1F1F1" points="1456,56,1466,46,1602,46,1602,82.2969,1592,92.2969,1456,92.2969,1456,56" style="stroke:#181818;stroke-width:0.5;"/><line style="stroke:#181818;stroke-width:0.5;" x1="1592" x2="1602" y1="56" y2="46"/><line style="stroke:#181818;stroke-width:0.5;" x1="1456" x2="1592" y1="56" y2="56"/><line style="stroke:#181818;stroke-width:0.5;" x1="1592" x2="1592" y1="56" y2="92.2969"/><text fill="#000000" font-family="sans-serif" font-size="14" lengthAdjust="spacing" textLength="106" x="1471" y="78.9951">Placeholder_11</text></g><!--entity Placeholder_16--><g id="elem_Placeholder_16"><polygon fill="#F1F1F1" points="1637,56,1647,46,1783,46,1783,82.2969,1773,92.2969,1637,92.2969,1637,56" style="stroke:#181818;stroke-width:0.5;"/><line style="stroke:#181818;stroke-width:0.5;" x1="1773" x2="1783" y1="56" y2="46"/><line style="stroke:#181818;stroke-width:0.5;" x1="1637" x2="1773" y1="56" y2="56"/><line style="stroke:#181818;stroke-width:0.5;" x1="1773" x2="1773" y1="56" y2="92.2969"/><text fill="#000000" font-family="sans-serif" font-size="14" lengthAdjust="spacing" textLength="106" x="1652" y="78.9951">Placeholder_16</text></g><!--entity Placeholder_41--><g id="elem_Placeholder_41"><polygon fill="#F1F1F1" points="1818,56,1828,46,1964,46,1964,82.2969,1954,92.2969,1818,92.2969,1818,56" style="stroke:#181818;stroke-width:0.5;"/><line style="stroke:#181818;stroke-width:0.5;" x1="1954" x2="1964" y1="56" y2="46"/><line style="stroke:#181818;stroke-width:0.5;" x1="1818" x2="1954" y1="56" y2="56"/><line style="stroke:#181818;stroke-width:0.5;" x1="1954" x2="1954" y1="56" y2="92.2969"/><text fill="#000000" font-family="sans-serif" font-size="14" lengthAdjust="spacing" textLength="106" x="1833" y="78.9951">Placeholder_41</text></g><!--entity Placeholder_39--><g id="elem_Placeholder_39"><polygon fill="#F1F1F1" points="1999,56,2009,46,2145,46,2145,82.2969,2135,92.2969,1999,92.2969,1999,56" style="stroke:#181818;stroke-width:0.5;"/><line style="stroke:#181818;stroke-width:0.5;" x1="2135" x2="2145" y1="56" y2="46"/><line style="stroke:#181818;stroke-width:0.5;" x1="1999" x2="2135" y1="56" y2="56"/><line style="stroke:#181818;stroke-width:0.5;" x1="2135" x2="2135" y1="56" y2="92.2969"/><text fill="#000000" font-family="sans-serif" font-size="14" lengthAdjust="spacing" textLength="106" x="2014" y="78.9951">Placeholder_39</text></g><!--entity Placeholder_38--><g id="elem_Placeholder_38"><polygon fill="#F1F1F1" points="2180,56,2190,46,2326,46,2326,82.2969,2316,92.2969,2180,92.2969,2180,56" style="stroke:#181818;stroke-width:0.5;"/><line style="stroke:#181818;stroke-width:0.5;" x1="2316" x2="2326" y1="56" y2="46"/><line style="stroke:#181818;stroke-width:0.5;" x1="2180" x2="2316" y1="56" y2="56"/><line style="stroke:#181818;stroke-width:0.5;" x1="2316" x2="2316" y1="56" y2="92.2969"/><text fill="#000000" font-family="sans-serif" font-size="14" lengthAdjust="spacing" textLength="106" x="2195" y="78.9951">Placeholder_38</text></g><!--entity Placeholder_34--><g id="elem_Placeholder_34"><polygon fill="#F1F1F1" points="2361,56,2371,46,2507,46,2507,82.2969,2497,92.2969,2361,92.2969,2361,56" style="stroke:#181818;stroke-width:0.5;"/><line style="stroke:#181818;stroke-width:0.5;" x1="2497" x2="2507" y1="56" y2="46"/><line style="stroke:#181818;stroke-width:0.5;" x1="2361" x2="2497" y1="56" y2="56"/><line style="stroke:#181818;stroke-width:0.5;" x1="2497" x2="2497" y1="56" y2="92.2969"/><text fill="#000000" font-family="sans-serif" font-size="14" lengthAdjust="spacing" textLength="106" x="2376" y="78.9951">Placeholder_34</text></g><!--entity Placeholder_12--><g id="elem_Placeholder_12"><polygon fill="#F1F1F1" points="2542,56,2552,46,2688,46,2688,82.2969,2678,92.2969,2542,92.2969,2542,56" style="stroke:#181818;stroke-width:0.5;"/><line style="stroke:#181818;stroke-width:0.5;" x1="2678" x2="2688" y1="56" y2="46"/><line style="stroke:#181818;stroke-width:0.5;" x1="2542" x2="2678" y1="56" y2="56"/><line style="stroke:#181818;stroke-width:0.5;" x1="2678" x2="2678" y1="56" y2="92.2969"/><text fill="#000000" font-family="sans-serif" font-size="14" lengthAdjust="spacing" textLength="106" x="2557" y="78.9951">Placeholder_12</text></g><!--entity Placeholder_44--><g id="elem_Placeholder_44"><polygon fill="#F1F1F1" points="2723,56,2733,46,2869,46,2869,82.2969,2859,92.2969,2723,92.2969,2723,56" style="stroke:#181818;stroke-width:0.5;"/><line style="stroke:#181818;stroke-width:0.5;" x1="2859" x2="2869" y1="56" y2="46"/><line style="stroke:#181818;stroke-width:0.5;" x1="2723" x2="2859" y1="56" y2="56"/><line style="stroke:#181818;stroke-width:0.5;" x1="2859" x2="2859" y1="56" y2="92.2969"/><text fill="#000000" font-family="sans-serif" font-size="14" lengthAdjust="spacing" textLength="106" x="2738" y="78.9951">Placeholder_44</text></g><!--entity Placeholder_2--><g id="elem_Placeholder_2"><polygon fill="#F1F1F1" points="2904.5,56,2914.5,46,3041.5,46,3041.5,82.2969,3031.5,92.2969,2904.5,92.2969,2904.5,56" style="stroke:#181818;stroke-width:0.5;"/><line style="stroke:#181818;stroke-width:0.5;" x1="3031.5" x2="3041.5" y1="56" y2="46"/><line style="stroke:#181818;stroke-width:0.5;" x1="2904.5" x2="3031.5" y1="56" y2="56"/><line style="stroke:#181818;stroke-width:0.5;" x1="3031.5" x2="3031.5" y1="56" y2="92.2969"/><text fill="#000000" font-family="sans-serif" font-size="14" lengthAdjust="spacing" textLength="97" x="2919.5" y="78.9951">Placeholder_2</text></g><!--entity Placeholder_10--><g id="elem_Placeholder_10"><polygon fill="#F1F1F1" points="3077,56,3087,46,3223,46,3223,82.2969,3213,92.2969,3077,92.2969,3077,56" style="stroke:#181818;stroke-width:0.5;"/><line style="stroke:#181818;stroke-width:0.5;" x1="3213" x2="3223" y1="56" y2="46"/><line style="stroke:#181818;stroke-width:0.5;" x1="3077" x2="3213" y1="56" y2="56"/><line style="stroke:#181818;stroke-width:0.5;" x1="3213" x2="3213" y1="56" y2="92.2969"/><text fill="#000000" font-family="sans-serif" font-size="14" lengthAdjust="spacing" textLength="106" x="3092" y="78.9951">Placeholder_10</text></g><!--entity Placeholder_33--><g id="elem_Placeholder_33"><polygon fill="#F1F1F1" points="3258,56,3268,46,3404,46,3404,82.2969,3394,92.2969,3258,92.2969,3258,56" style="stroke:#181818;stroke-width:0.5;"/><line style="stroke:#181818;stroke-width:0.5;" x1="3394" x2="3404" y1="56" y2="46"/><line style="stroke:#181818;stroke-width:0.5;" x1="3258" x2="3394" y1="56" y2="56"/><line style="stroke:#181818;stroke-width:0.5;" x1="3394" x2="3394" y1="56" y2="92.2969"/><text fill="#000000" font-family="sans-serif" font-size="14" lengthAdjust="spacing" textLength="106" x="3273" y="78.9951">Placeholder_33</text></g><!--entity Placeholder_47--><g id="elem_Placeholder_47"><polygon fill="#F1F1F1" points="3439,56,3449,46,3585,46,3585,82.2969,3575,92.2969,3439,92.2969,3439,56" style="stroke:#181818;stroke-width:0.5;"/><line style="stroke:#181818;stroke-width:0.5;" x1="3575" x2="3585" y1="56" y2="46"/><line style="stroke:#181818;stroke-width:0.5;" x1="3439" x2="3575" y1="56" y2="56"/><line style="stroke:#181818;stroke-width:0.5;" x1="3575" x2="3575" y1="56" y2="92.2969"/><text fill="#000000" font-family="sans-serif" font-size="14" lengthAdjust="spacing" textLength="106" x="3454" y="78.9951">Placeholder_47</text></g><!--entity Placeholder_19--><g id="elem_Placeholder_19"><polygon fill="#F1F1F1" points="3620,56,3630,46,3766,46,3766,82.2969,3756,92.2969,3620,92.2969,3620,56" style="stroke:#181818;stroke-width:0.5;"/><line style="stroke:#181818;stroke-width:0.5;" x1="3756" x2="3766" y1="56" y2="46"/><line style="stroke:#181818;stroke-width:0.5;" x1="3620" x2="3756" y1="56" y2="56"/><line style="stroke:#181818;stroke-width:0.5;" x1="3756" x2="3756" y1="56" y2="92.2969"/><text fill="#000000" font-family="sans-serif" font-size="14" lengthAdjust="spacing" textLength="106" x="3635" y="78.9951">Placeholder_19</text></g><!--entity Placeholder_17--><g id="elem_Placeholder_17"><polygon fill="#F1F1F1" points="3801,56,3811,46,3947,46,3947,82.2969,3937,92.2969,3801,92.2969,3801,56" style="stroke:#181818;stroke-width:0.5;"/><line style="stroke:#181818;stroke-width:0.5;" x1="3937" x2="3947" y1="56" y2="46"/><line style="stroke:#181818;stroke-width:0.5;" x1="3801" x2="3937" y1="56" y2="56"/><line style="stroke:#181818;stroke-width:0.5;" x1="3937" x2="3937" y1="56" y2="92.2969"/><text fill="#000000" font-family="sans-serif" font-size="14" lengthAdjust="spacing" textLength="106" x="3816" y="78.9951">Placeholder_17</text></g><!--entity Placeholder_42--><g id="elem_Placeholder_42"><polygon fill="#F1F1F1" points="3982,56,3992,46,4128,46,4128,82.2969,4118,92.2969,3982,92.2969,3982,56" style="stroke:#181818;stroke-width:0.5;"/><line style="stroke:#181818;stroke-width:0.5;" x1="4118" x2="4128" y1="56" y2="46"/><line style="stroke:#181818;stroke-width:0.5;" x1="3982" x2="4118" y1="56" y2="56"/><line style="stroke:#181818;stroke-width:0.5;" x1="4118" x2="4118" y1="56" y2="92.2969"/><text fill="#000000" font-family="sans-serif" font-size="14" lengthAdjust="spacing" textLength="106" x="3997" y="78.9951">Placeholder_42</text></g><!--entity Placeholder_3--><g id="elem_Placeholder_3"><polygon fill="#F1F1F1" points="4163.5,56,4173.5,46,4300.5,46,4300.5,82.2969,4290.5,92.2969,4163.5,92.2969,4163.5,56" style="stroke:#181818;stroke-width:0.5;"/><line style="stroke:#181818;stroke-width:0.5;" x1="4290.5" x2="4300.5" y1="56" y2="46"/><line style="stroke:#181818;stroke-width:0.5;" x1="4163.5" x2="4290.5" y1="56" y2="56"/><line style="stroke:#181818;stroke-width:0.5;" x1="4290.5" x2="4290.5" y1="56" y2="92.2969"/><text fill="#000000" font-family="sans-serif" font-size="14" lengthAdjust="spacing" textLength="97" x="4178.5" y="78.9951">Placeholder_3</text></g><!--entity Placeholder_28--><g id="elem_Placeholder_28"><polygon fill="#F1F1F1" points="4336,56,4346,46,4482,46,4482,82.2969,4472,92.2969,4336,92.2969,4336,56" style="stroke:#181818;stroke-width:0.5;"/><line style="stroke:#181818;stroke-width:0.5;" x1="4472" x2="4482" y1="56" y2="46"/><line style="stroke:#181818;stroke-width:0.5;" x1="4336" x2="4472" y1="56" y2="56"/><line style="stroke:#181818;stroke-width:0.5;" x1="4472" x2="4472" y1="56" y2="92.2969"/><text fill="#000000" font-family="sans-serif" font-size="14" lengthAdjust="spacing" textLength="106" x="4351" y="78.9951">Placeholder_28</text></g><!--entity Placeholder_43--><g id="elem_Placeholder_43"><polygon fill="#F1F1F1" points="4517,56,4527,46,4663,46,4663,82.2969,4653,92.2969,4517,92.2969,4517,56" style="stroke:#181818;stroke-width:0.5;"/><line style="stroke:#181818;stroke-width:0.5;" x1="4653" x2="4663" y1="56" y2="46"/><line style="stroke:#181818;stroke-width:0.5;" x1="4517" x2="4653" y1="56" y2="56"/><line style="stroke:#181818;stroke-width:0.5;" x1="4653" x2="4653" y1="56" y2="92.2969"/><text fill="#000000" font-family="sans-serif" font-size="14" lengthAdjust="spacing" textLength="106" x="4532" y="78.9951">Placeholder_43</text></g><!--entity Placeholder_9--><g id="elem_Placeholder_9"><polygon fill="#F1F1F1" points="4698.5,56,4708.5,46,4835.5,46,4835.5,82.2969,4825.5,92.2969,4698.5,92.2969,4698.5,56" style="stroke:#181818;stroke-width:0.5;"/><line style="stroke:#181818;stroke-width:0.5;" x1="4825.5" x2="4835.5" y1="56" y2="46"/><line style="stroke:#181818;stroke-width:0.5;" x1="4698.5" x2="4825.5" y1="56" y2="56"/><line style="stroke:#181818;stroke-width:0.5;" x1="4825.5" x2="4825.5" y1="56" y2="92.2969"/><text fill="#000000" font-family="sans-serif" font-size="14" lengthAdjust="spacing" textLength="97" x="4713.5" y="78.9951">Placeholder_9</text></g><!--entity Placeholder_18--><g id="elem_Placeholder_18"><polygon fill="#F1F1F1" points="4871,56,4881,46,5017,46,5017,82.2969,5007,92.2969,4871,92.2969,4871,56" style="stroke:#181818;stroke-width:0.5;"/><line style="stroke:#181818;stroke-width:0.5;" x1="5007" x2="5017" y1="56" y2="46"/><line style="stroke:#181818;stroke-width:0.5;" x1="4871" x2="5007" y1="56" y2="56"/><line style="stroke:#181818;stroke-width:0.5;" x1="5007" x2="5007" y1="56" y2="92.2969"/><text fill="#000000" font-family="sans-serif" font-size="14" lengthAdjust="spacing" textLength="106" x="4886" y="78.9951">Placeholder_18</text></g><!--entity Placeholder_30--><g id="elem_Placeholder_30"><polygon fill="#F1F1F1" points="5052,56,5062,46,5198,46,5198,82.2969,5188,92.2969,5052,92.2969,5052,56" style="stroke:#181818;stroke-width:0.5;"/><line style="stroke:#181818;stroke-width:0.5;" x1="5188" x2="5198" y1="56" y2="46"/><line style="stroke:#181818;stroke-width:0.5;" x1="5052" x2="5188" y1="56" y2="56"/><line style="stroke:#181818;stroke-width:0.5;" x1="5188" x2="5188" y1="56" y2="92.2969"/><text fill="#000000" font-family="sans-serif" font-size="14" lengthAdjust="spacing" textLength="106" x="5067" y="78.9951">Placeholder_30</text></g><!--entity Placeholder_8--><g id="elem_Placeholder_8"><polygon fill="#F1F1F1" points="5233.5,56,5243.5,46,5370.5,46,5370.5,82.2969,5360.5,92.2969,5233.5,92.2969,5233.5,56" style="stroke:#181818;stroke-width:0.5;"/><line style="stroke:#181818;stroke-width:0.5;" x1="5360.5" x2="5370.5" y1="56" y2="46"/><line style="stroke:#181818;stroke-width:0.5;" x1="5233.5" x2="5360.5" y1="56" y2="56"/><line style="stroke:#181818;stroke-width:0.5;" x1="5360.5" x2="5360.5" y1="56" y2="92.2969"/><text fill="#000000" font-family="sans-serif" font-size="14" lengthAdjust="spacing" textLength="97" x="5248.5" y="78.9951">Placeholder_8</text></g><!--entity Placeholder_32--><g id="elem_Placeholder_32"><polygon fill="#F1F1F1" points="5406,56,5416,46,5552,46,5552,82.2969,5542,92.2969,5406,92.2969,5406,56" style="stroke:#181818;stroke-width:0.5;"/><line style="stroke:#181818;stroke-width:0.5;" x1="5542" x2="5552" y1="56" y2="46"/><line style="stroke:#181818;stroke-width:0.5;" x1="5406" x2="5542" y1="56" y2="56"/><line style="stroke:#181818;stroke-width:0.5;" x1="5542" x2="5542" y1="56" y2="92.2969"/><text fill="#000000" font-family="sans-serif" font-size="14" lengthAdjust="spacing" textLength="106" x="5421" y="78.9951">Placeholder_32</text></g><!--entity Placeholder_1--><g id="elem_Placeholder_1"><polygon fill="#F1F1F1" points="5587.5,56,5597.5,46,5724.5,46,5724.5,82.2969,5714.5,92.2969,5587.5,92.2969,5587.5,56" style="stroke:#181818;stroke-width:0.5;"/><line style="stroke:#181818;stroke-width:0.5;" x1="5714.5" x2="5724.5" y1="56" y2="46"/><line style="stroke:#181818;stroke-width:0.5;" x1="5587.5" x2="5714.5" y1="56" y2="56"/><line style="stroke:#181818;stroke-width:0.5;" x1="5714.5" x2="5714.5" y1="56" y2="92.2969"/><text fill="#000000" font-family="sans-serif" font-size="14" lengthAdjust="spacing" textLength="97" x="5602.5" y="78.9951">Placeholder_1</text></g><!--entity Placeholder_14--><g id="elem_Placeholder_14"><polygon fill="#F1F1F1" points="5760,56,5770,46,5906,46,5906,82.2969,5896,92.2969,5760,92.2969,5760,56" style="stroke:#181818;stroke-width:0.5;"/><line style="stroke:#181818;stroke-width:0.5;" x1="5896" x2="5906" y1="56" y2="46"/><line style="stroke:#181818;stroke-width:0.5;" x1="5760" x2="5896" y1="56" y2="56"/><line style="stroke:#181818;stroke-width:0.5;" x1="5896" x2="5896" y1="56" y2="92.2969"/><text fill="#000000" font-family="sans-serif" font-size="14" lengthAdjust="spacing" textLength="106" x="5775" y="78.9951">Placeholder_14</text></g><!--entity Placeholder_45--><g id="elem_Placeholder_45"><polygon fill="#F1F1F1" points="5941,56,5951,46,6087,46,6087,82.2969,6077,92.2969,5941,92.2969,5941,56" style="stroke:#181818;stroke-width:0.5;"/><line style="stroke:#181818;stroke-width:0.5;" x1="6077" x2="6087" y1="56" y2="46"/><line style="stroke:#181818;stroke-width:0.5;" x1="5941" x2="6077" y1="56" y2="56"/><line style="stroke:#181818;stroke-width:0.5;" x1="6077" x2="6077" y1="56" y2="92.2969"/><text fill="#000000" font-family="sans-serif" font-size="14" lengthAdjust="spacing" textLength="106" x="5956" y="78.9951">Placeholder_45</text></g><!--link aName to aName--><g id="link_aName_aName"><path d="M6210.27,60.46 C6229.02,59.82 6245,62.67 6245,69 C6245,75.33 6229.02,78.18 6210.27,77.54 " fill="none" id="aName-aName" style="stroke:#181818;stroke-width:1.0;"/><text fill="#000000" font-family="sans-serif" font-size="13" lengthAdjust="spacing" textLength="440" x="6258" y="73.5669">eu_cloudscale_showcase_servlets_helpers_PaymentService_Provider</text><path d="M6202.9618,53.6343 A10,10 0 0 0 6203.4443 67.7682" fill="none" style="stroke:#181818;stroke-width:1.5;"/><ellipse cx="6210.27" cy="60.46" fill="#FFFFFF" rx="6" ry="6" style="stroke:#181818;stroke-width:1.5;"/></g><!--SRC=[jLUnJiCm4Dtp5PPOM8Bg1afXAuW1AO98Y2cAhCCv6bCdjcmdj4ByEv5GnSBOjzattFFJktjtZZipU0hKYtUplpT1MoxfZUtpnC6IzsROYXH6pWRNigWiQUwSRJceI_6LrVH4FJUYhhLrOnirMSvzS1-iK_uRIYxmHJp4nFsPsZtUUHdMhm-yefBteoa7afkcoRx_oRz60wpG00imG76DPd23Pd051a1hNA01f4G3mDi0pQ20LodQYWgqcSebMcGq0pG12JVh0Yq1UXf8T9z9-3n3Ln5QuoLyAK8pWDSGtAlHHW4d0BTIT7xur-F4M-anLNw-oCNnSYjuL7-fLUpSfwOu7pXCbbDK7LlF8QgA3ZqFwMME6ysg2cuoypEp7m00]--></g></svg>