<?xml version="1.0" encoding="us-ascii" standalone="no"?><svg xmlns="http://www.w3.org/2000/svg" xmlns:xlink="http://www.w3.org/1999/xlink" contentStyleType="text/css" height="125px" preserveAspectRatio="none" style="width:3325px;height:125px;background:#FFFFFF;" version="1.1" viewBox="0 0 3325 125" width="3325px" zoomAndPan="magnify"><defs/><g><!--cluster Placeholder_2--><g id="cluster_Placeholder_2"><polygon fill="none" points="1214,16,1224,6,3308,6,3308,98,3298,108,1214,108,1214,16" style="stroke:#181818;stroke-width:1.0;"/><line style="stroke:#181818;stroke-width:1.0;" x1="3298" x2="3308" y1="16" y2="6"/><line style="stroke:#181818;stroke-width:1.0;" x1="1214" x2="3298" y1="16" y2="16"/><line style="stroke:#181818;stroke-width:1.0;" x1="3298" x2="3298" y1="16" y2="108"/><text fill="#000000" font-family="sans-serif" font-size="14" font-weight="bold" lengthAdjust="spacing" textLength="110" x="2202" y="31.9951">Placeholder_2</text></g><!--entity aName--><g id="elem_aName"><a href="jferrater-tap-and-eat-microservices.system#_oDZTML8UEe6irMR8S4pbVA" target="_top" title="jferrater-tap-and-eat-microservices.system#_oDZTML8UEe6irMR8S4pbVA" xlink:actuate="onRequest" xlink:href="jferrater-tap-and-eat-microservices.system#_oDZTML8UEe6irMR8S4pbVA" xlink:show="new" xlink:title="jferrater-tap-and-eat-microservices.system#_oDZTML8UEe6irMR8S4pbVA" xlink:type="simple"><rect fill="#F1F1F1" height="46.2969" rx="2.5" ry="2.5" style="stroke:#181818;stroke-width:0.5;" width="88" x="1230" y="46"/><rect fill="#F1F1F1" height="10" style="stroke:#181818;stroke-width:0.5;" width="15" x="1298" y="51"/><rect fill="#F1F1F1" height="2" style="stroke:#181818;stroke-width:0.5;" width="4" x="1296" y="53"/><rect fill="#F1F1F1" height="2" style="stroke:#181818;stroke-width:0.5;" width="4" x="1296" y="57"/><text fill="#000000" font-family="sans-serif" font-size="14" lengthAdjust="spacing" textLength="48" x="1245" y="78.9951">aName</text></a></g><!--entity Placeholder_11--><g id="elem_Placeholder_11"><polygon fill="#F1F1F1" points="16,56,26,46,162,46,162,82.2969,152,92.2969,16,92.2969,16,56" style="stroke:#181818;stroke-width:0.5;"/><line style="stroke:#181818;stroke-width:0.5;" x1="152" x2="162" y1="56" y2="46"/><line style="stroke:#181818;stroke-width:0.5;" x1="16" x2="152" y1="56" y2="56"/><line style="stroke:#181818;stroke-width:0.5;" x1="152" x2="152" y1="56" y2="92.2969"/><text fill="#000000" font-family="sans-serif" font-size="14" lengthAdjust="spacing" textLength="106" x="31" y="78.9951">Placeholder_11</text></g><!--entity Placeholder_6--><g id="elem_Placeholder_6"><polygon fill="#F1F1F1" points="197.5,56,207.5,46,334.5,46,334.5,82.2969,324.5,92.2969,197.5,92.2969,197.5,56" style="stroke:#181818;stroke-width:0.5;"/><line style="stroke:#181818;stroke-width:0.5;" x1="324.5" x2="334.5" y1="56" y2="46"/><line style="stroke:#181818;stroke-width:0.5;" x1="197.5" x2="324.5" y1="56" y2="56"/><line style="stroke:#181818;stroke-width:0.5;" x1="324.5" x2="324.5" y1="56" y2="92.2969"/><text fill="#000000" font-family="sans-serif" font-size="14" lengthAdjust="spacing" textLength="97" x="212.5" y="78.9951">Placeholder_6</text></g><!--entity Placeholder_0--><g id="elem_Placeholder_0"><polygon fill="#F1F1F1" points="369.5,56,379.5,46,506.5,46,506.5,82.2969,496.5,92.2969,369.5,92.2969,369.5,56" style="stroke:#181818;stroke-width:0.5;"/><line style="stroke:#181818;stroke-width:0.5;" x1="496.5" x2="506.5" y1="56" y2="46"/><line style="stroke:#181818;stroke-width:0.5;" x1="369.5" x2="496.5" y1="56" y2="56"/><line style="stroke:#181818;stroke-width:0.5;" x1="496.5" x2="496.5" y1="56" y2="92.2969"/><text fill="#000000" font-family="sans-serif" font-size="14" lengthAdjust="spacing" textLength="97" x="384.5" y="78.9951">Placeholder_0</text></g><!--entity Placeholder_4--><g id="elem_Placeholder_4"><polygon fill="#F1F1F1" points="541.5,56,551.5,46,678.5,46,678.5,82.2969,668.5,92.2969,541.5,92.2969,541.5,56" style="stroke:#181818;stroke-width:0.5;"/><line style="stroke:#181818;stroke-width:0.5;" x1="668.5" x2="678.5" y1="56" y2="46"/><line style="stroke:#181818;stroke-width:0.5;" x1="541.5" x2="668.5" y1="56" y2="56"/><line style="stroke:#181818;stroke-width:0.5;" x1="668.5" x2="668.5" y1="56" y2="92.2969"/><text fill="#000000" font-family="sans-serif" font-size="14" lengthAdjust="spacing" textLength="97" x="556.5" y="78.9951">Placeholder_4</text></g><!--entity Placeholder_5--><g id="elem_Placeholder_5"><polygon fill="#F1F1F1" points="713.5,56,723.5,46,850.5,46,850.5,82.2969,840.5,92.2969,713.5,92.2969,713.5,56" style="stroke:#181818;stroke-width:0.5;"/><line style="stroke:#181818;stroke-width:0.5;" x1="840.5" x2="850.5" y1="56" y2="46"/><line style="stroke:#181818;stroke-width:0.5;" x1="713.5" x2="840.5" y1="56" y2="56"/><line style="stroke:#181818;stroke-width:0.5;" x1="840.5" x2="840.5" y1="56" y2="92.2969"/><text fill="#000000" font-family="sans-serif" font-size="14" lengthAdjust="spacing" textLength="97" x="728.5" y="78.9951">Placeholder_5</text></g><!--entity Placeholder_1--><g id="elem_Placeholder_1"><polygon fill="#F1F1F1" points="885.5,56,895.5,46,1022.5,46,1022.5,82.2969,1012.5,92.2969,885.5,92.2969,885.5,56" style="stroke:#181818;stroke-width:0.5;"/><line style="stroke:#181818;stroke-width:0.5;" x1="1012.5" x2="1022.5" y1="56" y2="46"/><line style="stroke:#181818;stroke-width:0.5;" x1="885.5" x2="1012.5" y1="56" y2="56"/><line style="stroke:#181818;stroke-width:0.5;" x1="1012.5" x2="1012.5" y1="56" y2="92.2969"/><text fill="#000000" font-family="sans-serif" font-size="14" lengthAdjust="spacing" textLength="97" x="900.5" y="78.9951">Placeholder_1</text></g><!--entity Placeholder_9--><g id="elem_Placeholder_9"><polygon fill="#F1F1F1" points="1057.5,56,1067.5,46,1194.5,46,1194.5,82.2969,1184.5,92.2969,1057.5,92.2969,1057.5,56" style="stroke:#181818;stroke-width:0.5;"/><line style="stroke:#181818;stroke-width:0.5;" x1="1184.5" x2="1194.5" y1="56" y2="46"/><line style="stroke:#181818;stroke-width:0.5;" x1="1057.5" x2="1184.5" y1="56" y2="56"/><line style="stroke:#181818;stroke-width:0.5;" x1="1184.5" x2="1184.5" y1="56" y2="92.2969"/><text fill="#000000" font-family="sans-serif" font-size="14" lengthAdjust="spacing" textLength="97" x="1072.5" y="78.9951">Placeholder_9</text></g><!--link aName to aName--><g id="link_aName_aName"><path d="M1318.27,66.87 C1337.02,66.71 1353,67.42 1353,69 C1353,70.58 1337.02,71.29 1318.27,71.13 " fill="none" id="aName-aName" style="stroke:#181818;stroke-width:1.0;"/><text fill="#000000" font-family="sans-serif" font-size="13" lengthAdjust="spacing" textLength="546" x="1366" y="73.5669">com_github_joffryferrater_foodtrayservice_repository_ItemServiceRepository_Provider</text><path d="M1311.1389,59.8595 A10,10 0 0 0 1311.2595 74.0011" fill="none" style="stroke:#181818;stroke-width:1.5;"/><ellipse cx="1318.27" cy="66.87" fill="#FFFFFF" rx="6" ry="6" style="stroke:#181818;stroke-width:1.5;"/></g><!--link aName to aName--><g id="link_aName_aName"><path d="M1318.04,66.98 C1466.61,63.36 1925,64.03 1925,69 C1925,73.97 1466.61,74.64 1318.04,71.02 " fill="none" id="aName-aName-1" style="stroke:#181818;stroke-width:1.0;"/><text fill="#000000" font-family="sans-serif" font-size="13" lengthAdjust="spacing" textLength="548" x="1938" y="73.5669">com_github_joffryferrater_foodtrayservice_repository_PriceServiceRepository_Provider</text><path d="M1310.7988,60.0833 A10,10 0 0 0 1311.1433 74.2212" fill="none" style="stroke:#181818;stroke-width:1.5;"/><ellipse cx="1318.04" cy="66.98" fill="#FFFFFF" rx="6" ry="6" style="stroke:#181818;stroke-width:1.5;"/></g><!--link aName to aName--><g id="link_aName_aName"><path d="M1318.25,66.73 C1540.98,60.46 2499,61.21 2499,69 C2499,76.79 1540.98,77.54 1318.25,71.27 " fill="none" id="aName-aName-2" style="stroke:#181818;stroke-width:1.0;"/><text fill="#000000" font-family="sans-serif" font-size="13" lengthAdjust="spacing" textLength="351" x="2512" y="73.5669">null_items_search_findByItemCode_itemCode_Provider</text><path d="M1310.9828,59.8607 A10,10 0 0 0 1311.3807 73.9972" fill="none" style="stroke:#181818;stroke-width:1.5;"/><ellipse cx="1318.25" cy="66.73" fill="#FFFFFF" rx="6" ry="6" style="stroke:#181818;stroke-width:1.5;"/></g><!--link aName to aName--><g id="link_aName_aName"><path d="M1318.13,66.37 C1580.49,57.58 2876,58.45 2876,69 C2876,79.55 1580.49,80.42 1318.13,71.63 " fill="none" id="aName-aName-3" style="stroke:#181818;stroke-width:1.0;"/><text fill="#000000" font-family="sans-serif" font-size="13" lengthAdjust="spacing" textLength="353" x="2889" y="73.5669">null_prices_search_findByItemCode_itemCode_Provider</text><path d="M1310.8261,59.5397 A10,10 0 0 0 1311.2997 73.6739" fill="none" style="stroke:#181818;stroke-width:1.5;"/><ellipse cx="1318.13" cy="66.37" fill="#FFFFFF" rx="6" ry="6" style="stroke:#181818;stroke-width:1.5;"/></g><!--SRC=[lT51IyCm50VmUpz5m8kNoYPpJ6ywFGYRbaqzM4fuJL_MpBG9BscnYD_TRbeyU9cWkIKlyF_zUN4lghP0K36fNkUAXCO5vAZlMoGDrgfwmpmr6DMcG9Pe45WQNI3nK_OMfN075MOiJRSIYS0ZnHvi37KH8_YuKeACGsgLG7VYEkUnEkBc-lbXkPWztk1KqN8rMqzi_dIPPT7xJsKy3i9CWoYZ8CeaY78Mvlk3AEV_eGo1yV4ePiFbWWbJyOtoPPFphP6Ika7ZqfZ24tHV22UqnYblgEEtFRR-7A- -fmcPLlNz_vHAg1_ytgeRhRdgQphk44YKNAgwkEfspUVzllTl-yD1INRNul2e3m00]--></g></svg>