<?xml version="1.0" encoding="us-ascii" standalone="no"?><svg xmlns="http://www.w3.org/2000/svg" xmlns:xlink="http://www.w3.org/1999/xlink" contentStyleType="text/css" height="125px" preserveAspectRatio="none" style="width:3324px;height:125px;background:#FFFFFF;" version="1.1" viewBox="0 0 3324 125" width="3324px" zoomAndPan="magnify"><defs/><g><!--cluster Placeholder_7--><g id="cluster_Placeholder_7"><polygon fill="none" points="1213.5,16,1223.5,6,3307.5,6,3307.5,98,3297.5,108,1213.5,108,1213.5,16" style="stroke:#181818;stroke-width:1.0;"/><line style="stroke:#181818;stroke-width:1.0;" x1="3297.5" x2="3307.5" y1="16" y2="6"/><line style="stroke:#181818;stroke-width:1.0;" x1="1213.5" x2="3297.5" y1="16" y2="16"/><line style="stroke:#181818;stroke-width:1.0;" x1="3297.5" x2="3297.5" y1="16" y2="108"/><text fill="#000000" font-family="sans-serif" font-size="14" font-weight="bold" lengthAdjust="spacing" textLength="110" x="2201.5" y="31.9951">Placeholder_7</text></g><!--entity aName--><g id="elem_aName"><a href="jferrater-tap-and-eat-microservices.system#_x6XmAr_dEe6pS7we3DbwlA" target="_top" title="jferrater-tap-and-eat-microservices.system#_x6XmAr_dEe6pS7we3DbwlA" xlink:actuate="onRequest" xlink:href="jferrater-tap-and-eat-microservices.system#_x6XmAr_dEe6pS7we3DbwlA" xlink:show="new" xlink:title="jferrater-tap-and-eat-microservices.system#_x6XmAr_dEe6pS7we3DbwlA" xlink:type="simple"><rect fill="#F1F1F1" height="46.2969" rx="2.5" ry="2.5" style="stroke:#181818;stroke-width:0.5;" width="88" x="1229.5" y="46"/><rect fill="#F1F1F1" height="10" style="stroke:#181818;stroke-width:0.5;" width="15" x="1297.5" y="51"/><rect fill="#F1F1F1" height="2" style="stroke:#181818;stroke-width:0.5;" width="4" x="1295.5" y="53"/><rect fill="#F1F1F1" height="2" style="stroke:#181818;stroke-width:0.5;" width="4" x="1295.5" y="57"/><text fill="#000000" font-family="sans-serif" font-size="14" lengthAdjust="spacing" textLength="48" x="1244.5" y="78.9951">aName</text></a></g><!--entity Placeholder_2--><g id="elem_Placeholder_2"><polygon fill="#F1F1F1" points="16,56,26,46,153,46,153,82.2969,143,92.2969,16,92.2969,16,56" style="stroke:#181818;stroke-width:0.5;"/><line style="stroke:#181818;stroke-width:0.5;" x1="143" x2="153" y1="56" y2="46"/><line style="stroke:#181818;stroke-width:0.5;" x1="16" x2="143" y1="56" y2="56"/><line style="stroke:#181818;stroke-width:0.5;" x1="143" x2="143" y1="56" y2="92.2969"/><text fill="#000000" font-family="sans-serif" font-size="14" lengthAdjust="spacing" textLength="97" x="31" y="78.9951">Placeholder_2</text></g><!--entity Placeholder_0--><g id="elem_Placeholder_0"><polygon fill="#F1F1F1" points="188,56,198,46,325,46,325,82.2969,315,92.2969,188,92.2969,188,56" style="stroke:#181818;stroke-width:0.5;"/><line style="stroke:#181818;stroke-width:0.5;" x1="315" x2="325" y1="56" y2="46"/><line style="stroke:#181818;stroke-width:0.5;" x1="188" x2="315" y1="56" y2="56"/><line style="stroke:#181818;stroke-width:0.5;" x1="315" x2="315" y1="56" y2="92.2969"/><text fill="#000000" font-family="sans-serif" font-size="14" lengthAdjust="spacing" textLength="97" x="203" y="78.9951">Placeholder_0</text></g><!--entity Placeholder_4--><g id="elem_Placeholder_4"><polygon fill="#F1F1F1" points="360,56,370,46,497,46,497,82.2969,487,92.2969,360,92.2969,360,56" style="stroke:#181818;stroke-width:0.5;"/><line style="stroke:#181818;stroke-width:0.5;" x1="487" x2="497" y1="56" y2="46"/><line style="stroke:#181818;stroke-width:0.5;" x1="360" x2="487" y1="56" y2="56"/><line style="stroke:#181818;stroke-width:0.5;" x1="487" x2="487" y1="56" y2="92.2969"/><text fill="#000000" font-family="sans-serif" font-size="14" lengthAdjust="spacing" textLength="97" x="375" y="78.9951">Placeholder_4</text></g><!--entity Placeholder_1--><g id="elem_Placeholder_1"><polygon fill="#F1F1F1" points="532,56,542,46,669,46,669,82.2969,659,92.2969,532,92.2969,532,56" style="stroke:#181818;stroke-width:0.5;"/><line style="stroke:#181818;stroke-width:0.5;" x1="659" x2="669" y1="56" y2="46"/><line style="stroke:#181818;stroke-width:0.5;" x1="532" x2="659" y1="56" y2="56"/><line style="stroke:#181818;stroke-width:0.5;" x1="659" x2="659" y1="56" y2="92.2969"/><text fill="#000000" font-family="sans-serif" font-size="14" lengthAdjust="spacing" textLength="97" x="547" y="78.9951">Placeholder_1</text></g><!--entity Placeholder_5--><g id="elem_Placeholder_5"><polygon fill="#F1F1F1" points="704,56,714,46,841,46,841,82.2969,831,92.2969,704,92.2969,704,56" style="stroke:#181818;stroke-width:0.5;"/><line style="stroke:#181818;stroke-width:0.5;" x1="831" x2="841" y1="56" y2="46"/><line style="stroke:#181818;stroke-width:0.5;" x1="704" x2="831" y1="56" y2="56"/><line style="stroke:#181818;stroke-width:0.5;" x1="831" x2="831" y1="56" y2="92.2969"/><text fill="#000000" font-family="sans-serif" font-size="14" lengthAdjust="spacing" textLength="97" x="719" y="78.9951">Placeholder_5</text></g><!--entity Placeholder_6--><g id="elem_Placeholder_6"><polygon fill="#F1F1F1" points="876,56,886,46,1013,46,1013,82.2969,1003,92.2969,876,92.2969,876,56" style="stroke:#181818;stroke-width:0.5;"/><line style="stroke:#181818;stroke-width:0.5;" x1="1003" x2="1013" y1="56" y2="46"/><line style="stroke:#181818;stroke-width:0.5;" x1="876" x2="1003" y1="56" y2="56"/><line style="stroke:#181818;stroke-width:0.5;" x1="1003" x2="1003" y1="56" y2="92.2969"/><text fill="#000000" font-family="sans-serif" font-size="14" lengthAdjust="spacing" textLength="97" x="891" y="78.9951">Placeholder_6</text></g><!--entity Placeholder_10--><g id="elem_Placeholder_10"><polygon fill="#F1F1F1" points="1048.5,56,1058.5,46,1194.5,46,1194.5,82.2969,1184.5,92.2969,1048.5,92.2969,1048.5,56" style="stroke:#181818;stroke-width:0.5;"/><line style="stroke:#181818;stroke-width:0.5;" x1="1184.5" x2="1194.5" y1="56" y2="46"/><line style="stroke:#181818;stroke-width:0.5;" x1="1048.5" x2="1184.5" y1="56" y2="56"/><line style="stroke:#181818;stroke-width:0.5;" x1="1184.5" x2="1184.5" y1="56" y2="92.2969"/><text fill="#000000" font-family="sans-serif" font-size="14" lengthAdjust="spacing" textLength="106" x="1063.5" y="78.9951">Placeholder_10</text></g><!--link aName to aName--><g id="link_aName_aName"><path d="M1317.77,66.87 C1336.52,66.71 1352.5,67.42 1352.5,69 C1352.5,70.58 1336.52,71.29 1317.77,71.13 " fill="none" id="aName-aName" style="stroke:#181818;stroke-width:1.0;"/><text fill="#000000" font-family="sans-serif" font-size="13" lengthAdjust="spacing" textLength="546" x="1365.5" y="73.5669">com_github_joffryferrater_foodtrayservice_repository_ItemServiceRepository_Provider</text><path d="M1310.6389,59.8595 A10,10 0 0 0 1310.7595 74.0011" fill="none" style="stroke:#181818;stroke-width:1.5;"/><ellipse cx="1317.77" cy="66.87" fill="#FFFFFF" rx="6" ry="6" style="stroke:#181818;stroke-width:1.5;"/></g><!--link aName to aName--><g id="link_aName_aName"><path d="M1317.54,66.98 C1466.11,63.36 1924.5,64.03 1924.5,69 C1924.5,73.97 1466.11,74.64 1317.54,71.02 " fill="none" id="aName-aName-1" style="stroke:#181818;stroke-width:1.0;"/><text fill="#000000" font-family="sans-serif" font-size="13" lengthAdjust="spacing" textLength="548" x="1937.5" y="73.5669">com_github_joffryferrater_foodtrayservice_repository_PriceServiceRepository_Provider</text><path d="M1310.2988,60.0833 A10,10 0 0 0 1310.6433 74.2212" fill="none" style="stroke:#181818;stroke-width:1.5;"/><ellipse cx="1317.54" cy="66.98" fill="#FFFFFF" rx="6" ry="6" style="stroke:#181818;stroke-width:1.5;"/></g><!--link aName to aName--><g id="link_aName_aName"><path d="M1317.75,66.73 C1540.48,60.46 2498.5,61.21 2498.5,69 C2498.5,76.79 1540.48,77.54 1317.75,71.27 " fill="none" id="aName-aName-2" style="stroke:#181818;stroke-width:1.0;"/><text fill="#000000" font-family="sans-serif" font-size="13" lengthAdjust="spacing" textLength="351" x="2511.5" y="73.5669">null_items_search_findByItemCode_itemCode_Provider</text><path d="M1310.4828,59.8607 A10,10 0 0 0 1310.8807 73.9972" fill="none" style="stroke:#181818;stroke-width:1.5;"/><ellipse cx="1317.75" cy="66.73" fill="#FFFFFF" rx="6" ry="6" style="stroke:#181818;stroke-width:1.5;"/></g><!--link aName to aName--><g id="link_aName_aName"><path d="M1317.63,66.37 C1579.99,57.58 2875.5,58.45 2875.5,69 C2875.5,79.55 1579.99,80.42 1317.63,71.63 " fill="none" id="aName-aName-3" style="stroke:#181818;stroke-width:1.0;"/><text fill="#000000" font-family="sans-serif" font-size="13" lengthAdjust="spacing" textLength="353" x="2888.5" y="73.5669">null_prices_search_findByItemCode_itemCode_Provider</text><path d="M1310.3261,59.5397 A10,10 0 0 0 1310.7997 73.6739" fill="none" style="stroke:#181818;stroke-width:1.5;"/><ellipse cx="1317.63" cy="66.37" fill="#FFFFFF" rx="6" ry="6" style="stroke:#181818;stroke-width:1.5;"/></g><!--SRC=[lT5DIyD040RWUt_5WXSlA_Kh1M-rUX14Wxq88IoJPD9itIzcDsc3-DzDgw47BnLqRxkpy3upi_vD6WS4cjLokv1KAdo40jLpXwJ0EMbMB52B4sChPAc24XkhAYGnO- -J39v0OywoR5qZ4GGa7i1nC1L725pBagn7wcI9_iptFg0-4TlaLSz9LFUOkELiWvTtnKRDytpoyLEvYA9CeoXNKPJpACfr52M9ix5_-Vuna9zEEHilDwoqMgnaQDf2h6rTKpzgehQs2WJzDo88dVKoMEh5mu0jlyelXsfAjfF307zAfJGKVc-PLYaXXpQzy0XKDgAMfhhjTvqlXeNlt_Q7evBShelZepu1]--></g></svg>