<?xml version="1.0" encoding="us-ascii" standalone="no"?><svg xmlns="http://www.w3.org/2000/svg" xmlns:xlink="http://www.w3.org/1999/xlink" contentStyleType="text/css" height="125px" preserveAspectRatio="none" style="width:19564px;height:125px;background:#FFFFFF;" version="1.1" viewBox="0 0 19564 125" width="19564px" zoomAndPan="magnify"><defs/><g><!--cluster Placeholder_35--><g id="cluster_Placeholder_35"><polygon fill="none" points="8458,16,8468,6,19547,6,19547,98,19537,108,8458,108,8458,16" style="stroke:#181818;stroke-width:1.0;"/><line style="stroke:#181818;stroke-width:1.0;" x1="19537" x2="19547" y1="16" y2="6"/><line style="stroke:#181818;stroke-width:1.0;" x1="8458" x2="19537" y1="16" y2="16"/><line style="stroke:#181818;stroke-width:1.0;" x1="19537" x2="19537" y1="16" y2="108"/><text fill="#000000" font-family="sans-serif" font-size="14" font-weight="bold" lengthAdjust="spacing" textLength="120" x="13938.5" y="31.9951">Placeholder_35</text></g><!--entity aName--><g id="elem_aName"><a href="openmrs-openmrs-module-webservices-rest.system#_s2E_FL8UEe64M4nTT-vu3w" target="_top" title="openmrs-openmrs-module-webservices-rest.system#_s2E_FL8UEe64M4nTT-vu3w" xlink:actuate="onRequest" xlink:href="openmrs-openmrs-module-webservices-rest.system#_s2E_FL8UEe64M4nTT-vu3w" xlink:show="new" xlink:title="openmrs-openmrs-module-webservices-rest.system#_s2E_FL8UEe64M4nTT-vu3w" xlink:type="simple"><rect fill="#F1F1F1" height="46.2969" rx="2.5" ry="2.5" style="stroke:#181818;stroke-width:0.5;" width="88" x="8474" y="46"/><rect fill="#F1F1F1" height="10" style="stroke:#181818;stroke-width:0.5;" width="15" x="8542" y="51"/><rect fill="#F1F1F1" height="2" style="stroke:#181818;stroke-width:0.5;" width="4" x="8540" y="53"/><rect fill="#F1F1F1" height="2" style="stroke:#181818;stroke-width:0.5;" width="4" x="8540" y="57"/><text fill="#000000" font-family="sans-serif" font-size="14" lengthAdjust="spacing" textLength="48" x="8489" y="78.9951">aName</text></a></g><!--entity Placeholder_46--><g id="elem_Placeholder_46"><polygon fill="#F1F1F1" points="16,56,26,46,162,46,162,82.2969,152,92.2969,16,92.2969,16,56" style="stroke:#181818;stroke-width:0.5;"/><line style="stroke:#181818;stroke-width:0.5;" x1="152" x2="162" y1="56" y2="46"/><line style="stroke:#181818;stroke-width:0.5;" x1="16" x2="152" y1="56" y2="56"/><line style="stroke:#181818;stroke-width:0.5;" x1="152" x2="152" y1="56" y2="92.2969"/><text fill="#000000" font-family="sans-serif" font-size="14" lengthAdjust="spacing" textLength="106" x="31" y="78.9951">Placeholder_46</text></g><!--entity Placeholder_36--><g id="elem_Placeholder_36"><polygon fill="#F1F1F1" points="197,56,207,46,343,46,343,82.2969,333,92.2969,197,92.2969,197,56" style="stroke:#181818;stroke-width:0.5;"/><line style="stroke:#181818;stroke-width:0.5;" x1="333" x2="343" y1="56" y2="46"/><line style="stroke:#181818;stroke-width:0.5;" x1="197" x2="333" y1="56" y2="56"/><line style="stroke:#181818;stroke-width:0.5;" x1="333" x2="333" y1="56" y2="92.2969"/><text fill="#000000" font-family="sans-serif" font-size="14" lengthAdjust="spacing" textLength="106" x="212" y="78.9951">Placeholder_36</text></g><!--entity Placeholder_27--><g id="elem_Placeholder_27"><polygon fill="#F1F1F1" points="378,56,388,46,524,46,524,82.2969,514,92.2969,378,92.2969,378,56" style="stroke:#181818;stroke-width:0.5;"/><line style="stroke:#181818;stroke-width:0.5;" x1="514" x2="524" y1="56" y2="46"/><line style="stroke:#181818;stroke-width:0.5;" x1="378" x2="514" y1="56" y2="56"/><line style="stroke:#181818;stroke-width:0.5;" x1="514" x2="514" y1="56" y2="92.2969"/><text fill="#000000" font-family="sans-serif" font-size="14" lengthAdjust="spacing" textLength="106" x="393" y="78.9951">Placeholder_27</text></g><!--entity Placeholder_15--><g id="elem_Placeholder_15"><polygon fill="#F1F1F1" points="559,56,569,46,705,46,705,82.2969,695,92.2969,559,92.2969,559,56" style="stroke:#181818;stroke-width:0.5;"/><line style="stroke:#181818;stroke-width:0.5;" x1="695" x2="705" y1="56" y2="46"/><line style="stroke:#181818;stroke-width:0.5;" x1="559" x2="695" y1="56" y2="56"/><line style="stroke:#181818;stroke-width:0.5;" x1="695" x2="695" y1="56" y2="92.2969"/><text fill="#000000" font-family="sans-serif" font-size="14" lengthAdjust="spacing" textLength="106" x="574" y="78.9951">Placeholder_15</text></g><!--entity Placeholder_18--><g id="elem_Placeholder_18"><polygon fill="#F1F1F1" points="740,56,750,46,886,46,886,82.2969,876,92.2969,740,92.2969,740,56" style="stroke:#181818;stroke-width:0.5;"/><line style="stroke:#181818;stroke-width:0.5;" x1="876" x2="886" y1="56" y2="46"/><line style="stroke:#181818;stroke-width:0.5;" x1="740" x2="876" y1="56" y2="56"/><line style="stroke:#181818;stroke-width:0.5;" x1="876" x2="876" y1="56" y2="92.2969"/><text fill="#000000" font-family="sans-serif" font-size="14" lengthAdjust="spacing" textLength="106" x="755" y="78.9951">Placeholder_18</text></g><!--entity Placeholder_49--><g id="elem_Placeholder_49"><polygon fill="#F1F1F1" points="921,56,931,46,1067,46,1067,82.2969,1057,92.2969,921,92.2969,921,56" style="stroke:#181818;stroke-width:0.5;"/><line style="stroke:#181818;stroke-width:0.5;" x1="1057" x2="1067" y1="56" y2="46"/><line style="stroke:#181818;stroke-width:0.5;" x1="921" x2="1057" y1="56" y2="56"/><line style="stroke:#181818;stroke-width:0.5;" x1="1057" x2="1057" y1="56" y2="92.2969"/><text fill="#000000" font-family="sans-serif" font-size="14" lengthAdjust="spacing" textLength="106" x="936" y="78.9951">Placeholder_49</text></g><!--entity Placeholder_83--><g id="elem_Placeholder_83"><polygon fill="#F1F1F1" points="1102,56,1112,46,1248,46,1248,82.2969,1238,92.2969,1102,92.2969,1102,56" style="stroke:#181818;stroke-width:0.5;"/><line style="stroke:#181818;stroke-width:0.5;" x1="1238" x2="1248" y1="56" y2="46"/><line style="stroke:#181818;stroke-width:0.5;" x1="1102" x2="1238" y1="56" y2="56"/><line style="stroke:#181818;stroke-width:0.5;" x1="1238" x2="1238" y1="56" y2="92.2969"/><text fill="#000000" font-family="sans-serif" font-size="14" lengthAdjust="spacing" textLength="106" x="1117" y="78.9951">Placeholder_83</text></g><!--entity Placeholder_5--><g id="elem_Placeholder_5"><polygon fill="#F1F1F1" points="1283.5,56,1293.5,46,1420.5,46,1420.5,82.2969,1410.5,92.2969,1283.5,92.2969,1283.5,56" style="stroke:#181818;stroke-width:0.5;"/><line style="stroke:#181818;stroke-width:0.5;" x1="1410.5" x2="1420.5" y1="56" y2="46"/><line style="stroke:#181818;stroke-width:0.5;" x1="1283.5" x2="1410.5" y1="56" y2="56"/><line style="stroke:#181818;stroke-width:0.5;" x1="1410.5" x2="1410.5" y1="56" y2="92.2969"/><text fill="#000000" font-family="sans-serif" font-size="14" lengthAdjust="spacing" textLength="97" x="1298.5" y="78.9951">Placeholder_5</text></g><!--entity Placeholder_82--><g id="elem_Placeholder_82"><polygon fill="#F1F1F1" points="1456,56,1466,46,1602,46,1602,82.2969,1592,92.2969,1456,92.2969,1456,56" style="stroke:#181818;stroke-width:0.5;"/><line style="stroke:#181818;stroke-width:0.5;" x1="1592" x2="1602" y1="56" y2="46"/><line style="stroke:#181818;stroke-width:0.5;" x1="1456" x2="1592" y1="56" y2="56"/><line style="stroke:#181818;stroke-width:0.5;" x1="1592" x2="1592" y1="56" y2="92.2969"/><text fill="#000000" font-family="sans-serif" font-size="14" lengthAdjust="spacing" textLength="106" x="1471" y="78.9951">Placeholder_82</text></g><!--entity Placeholder_22--><g id="elem_Placeholder_22"><polygon fill="#F1F1F1" points="1637,56,1647,46,1783,46,1783,82.2969,1773,92.2969,1637,92.2969,1637,56" style="stroke:#181818;stroke-width:0.5;"/><line style="stroke:#181818;stroke-width:0.5;" x1="1773" x2="1783" y1="56" y2="46"/><line style="stroke:#181818;stroke-width:0.5;" x1="1637" x2="1773" y1="56" y2="56"/><line style="stroke:#181818;stroke-width:0.5;" x1="1773" x2="1773" y1="56" y2="92.2969"/><text fill="#000000" font-family="sans-serif" font-size="14" lengthAdjust="spacing" textLength="106" x="1652" y="78.9951">Placeholder_22</text></g><!--entity Placeholder_78--><g id="elem_Placeholder_78"><polygon fill="#F1F1F1" points="1818,56,1828,46,1964,46,1964,82.2969,1954,92.2969,1818,92.2969,1818,56" style="stroke:#181818;stroke-width:0.5;"/><line style="stroke:#181818;stroke-width:0.5;" x1="1954" x2="1964" y1="56" y2="46"/><line style="stroke:#181818;stroke-width:0.5;" x1="1818" x2="1954" y1="56" y2="56"/><line style="stroke:#181818;stroke-width:0.5;" x1="1954" x2="1954" y1="56" y2="92.2969"/><text fill="#000000" font-family="sans-serif" font-size="14" lengthAdjust="spacing" textLength="106" x="1833" y="78.9951">Placeholder_78</text></g><!--entity Placeholder_6--><g id="elem_Placeholder_6"><polygon fill="#F1F1F1" points="1999.5,56,2009.5,46,2136.5,46,2136.5,82.2969,2126.5,92.2969,1999.5,92.2969,1999.5,56" style="stroke:#181818;stroke-width:0.5;"/><line style="stroke:#181818;stroke-width:0.5;" x1="2126.5" x2="2136.5" y1="56" y2="46"/><line style="stroke:#181818;stroke-width:0.5;" x1="1999.5" x2="2126.5" y1="56" y2="56"/><line style="stroke:#181818;stroke-width:0.5;" x1="2126.5" x2="2126.5" y1="56" y2="92.2969"/><text fill="#000000" font-family="sans-serif" font-size="14" lengthAdjust="spacing" textLength="97" x="2014.5" y="78.9951">Placeholder_6</text></g><!--entity Placeholder_50--><g id="elem_Placeholder_50"><polygon fill="#F1F1F1" points="2172,56,2182,46,2318,46,2318,82.2969,2308,92.2969,2172,92.2969,2172,56" style="stroke:#181818;stroke-width:0.5;"/><line style="stroke:#181818;stroke-width:0.5;" x1="2308" x2="2318" y1="56" y2="46"/><line style="stroke:#181818;stroke-width:0.5;" x1="2172" x2="2308" y1="56" y2="56"/><line style="stroke:#181818;stroke-width:0.5;" x1="2308" x2="2308" y1="56" y2="92.2969"/><text fill="#000000" font-family="sans-serif" font-size="14" lengthAdjust="spacing" textLength="106" x="2187" y="78.9951">Placeholder_50</text></g><!--entity Placeholder_52--><g id="elem_Placeholder_52"><polygon fill="#F1F1F1" points="2353,56,2363,46,2499,46,2499,82.2969,2489,92.2969,2353,92.2969,2353,56" style="stroke:#181818;stroke-width:0.5;"/><line style="stroke:#181818;stroke-width:0.5;" x1="2489" x2="2499" y1="56" y2="46"/><line style="stroke:#181818;stroke-width:0.5;" x1="2353" x2="2489" y1="56" y2="56"/><line style="stroke:#181818;stroke-width:0.5;" x1="2489" x2="2489" y1="56" y2="92.2969"/><text fill="#000000" font-family="sans-serif" font-size="14" lengthAdjust="spacing" textLength="106" x="2368" y="78.9951">Placeholder_52</text></g><!--entity Placeholder_51--><g id="elem_Placeholder_51"><polygon fill="#F1F1F1" points="2534,56,2544,46,2680,46,2680,82.2969,2670,92.2969,2534,92.2969,2534,56" style="stroke:#181818;stroke-width:0.5;"/><line style="stroke:#181818;stroke-width:0.5;" x1="2670" x2="2680" y1="56" y2="46"/><line style="stroke:#181818;stroke-width:0.5;" x1="2534" x2="2670" y1="56" y2="56"/><line style="stroke:#181818;stroke-width:0.5;" x1="2670" x2="2670" y1="56" y2="92.2969"/><text fill="#000000" font-family="sans-serif" font-size="14" lengthAdjust="spacing" textLength="106" x="2549" y="78.9951">Placeholder_51</text></g><!--entity Placeholder_47--><g id="elem_Placeholder_47"><polygon fill="#F1F1F1" points="2715,56,2725,46,2861,46,2861,82.2969,2851,92.2969,2715,92.2969,2715,56" style="stroke:#181818;stroke-width:0.5;"/><line style="stroke:#181818;stroke-width:0.5;" x1="2851" x2="2861" y1="56" y2="46"/><line style="stroke:#181818;stroke-width:0.5;" x1="2715" x2="2851" y1="56" y2="56"/><line style="stroke:#181818;stroke-width:0.5;" x1="2851" x2="2851" y1="56" y2="92.2969"/><text fill="#000000" font-family="sans-serif" font-size="14" lengthAdjust="spacing" textLength="106" x="2730" y="78.9951">Placeholder_47</text></g><!--entity Placeholder_32--><g id="elem_Placeholder_32"><polygon fill="#F1F1F1" points="2896,56,2906,46,3042,46,3042,82.2969,3032,92.2969,2896,92.2969,2896,56" style="stroke:#181818;stroke-width:0.5;"/><line style="stroke:#181818;stroke-width:0.5;" x1="3032" x2="3042" y1="56" y2="46"/><line style="stroke:#181818;stroke-width:0.5;" x1="2896" x2="3032" y1="56" y2="56"/><line style="stroke:#181818;stroke-width:0.5;" x1="3032" x2="3032" y1="56" y2="92.2969"/><text fill="#000000" font-family="sans-serif" font-size="14" lengthAdjust="spacing" textLength="106" x="2911" y="78.9951">Placeholder_32</text></g><!--entity Placeholder_54--><g id="elem_Placeholder_54"><polygon fill="#F1F1F1" points="3077,56,3087,46,3223,46,3223,82.2969,3213,92.2969,3077,92.2969,3077,56" style="stroke:#181818;stroke-width:0.5;"/><line style="stroke:#181818;stroke-width:0.5;" x1="3213" x2="3223" y1="56" y2="46"/><line style="stroke:#181818;stroke-width:0.5;" x1="3077" x2="3213" y1="56" y2="56"/><line style="stroke:#181818;stroke-width:0.5;" x1="3213" x2="3213" y1="56" y2="92.2969"/><text fill="#000000" font-family="sans-serif" font-size="14" lengthAdjust="spacing" textLength="106" x="3092" y="78.9951">Placeholder_54</text></g><!--entity Placeholder_48--><g id="elem_Placeholder_48"><polygon fill="#F1F1F1" points="3258,56,3268,46,3404,46,3404,82.2969,3394,92.2969,3258,92.2969,3258,56" style="stroke:#181818;stroke-width:0.5;"/><line style="stroke:#181818;stroke-width:0.5;" x1="3394" x2="3404" y1="56" y2="46"/><line style="stroke:#181818;stroke-width:0.5;" x1="3258" x2="3394" y1="56" y2="56"/><line style="stroke:#181818;stroke-width:0.5;" x1="3394" x2="3394" y1="56" y2="92.2969"/><text fill="#000000" font-family="sans-serif" font-size="14" lengthAdjust="spacing" textLength="106" x="3273" y="78.9951">Placeholder_48</text></g><!--entity Placeholder_39--><g id="elem_Placeholder_39"><polygon fill="#F1F1F1" points="3439,56,3449,46,3585,46,3585,82.2969,3575,92.2969,3439,92.2969,3439,56" style="stroke:#181818;stroke-width:0.5;"/><line style="stroke:#181818;stroke-width:0.5;" x1="3575" x2="3585" y1="56" y2="46"/><line style="stroke:#181818;stroke-width:0.5;" x1="3439" x2="3575" y1="56" y2="56"/><line style="stroke:#181818;stroke-width:0.5;" x1="3575" x2="3575" y1="56" y2="92.2969"/><text fill="#000000" font-family="sans-serif" font-size="14" lengthAdjust="spacing" textLength="106" x="3454" y="78.9951">Placeholder_39</text></g><!--entity Placeholder_24--><g id="elem_Placeholder_24"><polygon fill="#F1F1F1" points="3620,56,3630,46,3766,46,3766,82.2969,3756,92.2969,3620,92.2969,3620,56" style="stroke:#181818;stroke-width:0.5;"/><line style="stroke:#181818;stroke-width:0.5;" x1="3756" x2="3766" y1="56" y2="46"/><line style="stroke:#181818;stroke-width:0.5;" x1="3620" x2="3756" y1="56" y2="56"/><line style="stroke:#181818;stroke-width:0.5;" x1="3756" x2="3756" y1="56" y2="92.2969"/><text fill="#000000" font-family="sans-serif" font-size="14" lengthAdjust="spacing" textLength="106" x="3635" y="78.9951">Placeholder_24</text></g><!--entity Placeholder_44--><g id="elem_Placeholder_44"><polygon fill="#F1F1F1" points="3801,56,3811,46,3947,46,3947,82.2969,3937,92.2969,3801,92.2969,3801,56" style="stroke:#181818;stroke-width:0.5;"/><line style="stroke:#181818;stroke-width:0.5;" x1="3937" x2="3947" y1="56" y2="46"/><line style="stroke:#181818;stroke-width:0.5;" x1="3801" x2="3937" y1="56" y2="56"/><line style="stroke:#181818;stroke-width:0.5;" x1="3937" x2="3937" y1="56" y2="92.2969"/><text fill="#000000" font-family="sans-serif" font-size="14" lengthAdjust="spacing" textLength="106" x="3816" y="78.9951">Placeholder_44</text></g><!--entity Placeholder_60--><g id="elem_Placeholder_60"><polygon fill="#F1F1F1" points="3982,56,3992,46,4128,46,4128,82.2969,4118,92.2969,3982,92.2969,3982,56" style="stroke:#181818;stroke-width:0.5;"/><line style="stroke:#181818;stroke-width:0.5;" x1="4118" x2="4128" y1="56" y2="46"/><line style="stroke:#181818;stroke-width:0.5;" x1="3982" x2="4118" y1="56" y2="56"/><line style="stroke:#181818;stroke-width:0.5;" x1="4118" x2="4118" y1="56" y2="92.2969"/><text fill="#000000" font-family="sans-serif" font-size="14" lengthAdjust="spacing" textLength="106" x="3997" y="78.9951">Placeholder_60</text></g><!--entity Placeholder_2--><g id="elem_Placeholder_2"><polygon fill="#F1F1F1" points="4163.5,56,4173.5,46,4300.5,46,4300.5,82.2969,4290.5,92.2969,4163.5,92.2969,4163.5,56" style="stroke:#181818;stroke-width:0.5;"/><line style="stroke:#181818;stroke-width:0.5;" x1="4290.5" x2="4300.5" y1="56" y2="46"/><line style="stroke:#181818;stroke-width:0.5;" x1="4163.5" x2="4290.5" y1="56" y2="56"/><line style="stroke:#181818;stroke-width:0.5;" x1="4290.5" x2="4290.5" y1="56" y2="92.2969"/><text fill="#000000" font-family="sans-serif" font-size="14" lengthAdjust="spacing" textLength="97" x="4178.5" y="78.9951">Placeholder_2</text></g><!--entity Placeholder_43--><g id="elem_Placeholder_43"><polygon fill="#F1F1F1" points="4336,56,4346,46,4482,46,4482,82.2969,4472,92.2969,4336,92.2969,4336,56" style="stroke:#181818;stroke-width:0.5;"/><line style="stroke:#181818;stroke-width:0.5;" x1="4472" x2="4482" y1="56" y2="46"/><line style="stroke:#181818;stroke-width:0.5;" x1="4336" x2="4472" y1="56" y2="56"/><line style="stroke:#181818;stroke-width:0.5;" x1="4472" x2="4472" y1="56" y2="92.2969"/><text fill="#000000" font-family="sans-serif" font-size="14" lengthAdjust="spacing" textLength="106" x="4351" y="78.9951">Placeholder_43</text></g><!--entity Placeholder_21--><g id="elem_Placeholder_21"><polygon fill="#F1F1F1" points="4517,56,4527,46,4663,46,4663,82.2969,4653,92.2969,4517,92.2969,4517,56" style="stroke:#181818;stroke-width:0.5;"/><line style="stroke:#181818;stroke-width:0.5;" x1="4653" x2="4663" y1="56" y2="46"/><line style="stroke:#181818;stroke-width:0.5;" x1="4517" x2="4653" y1="56" y2="56"/><line style="stroke:#181818;stroke-width:0.5;" x1="4653" x2="4653" y1="56" y2="92.2969"/><text fill="#000000" font-family="sans-serif" font-size="14" lengthAdjust="spacing" textLength="106" x="4532" y="78.9951">Placeholder_21</text></g><!--entity Placeholder_12--><g id="elem_Placeholder_12"><polygon fill="#F1F1F1" points="4698,56,4708,46,4844,46,4844,82.2969,4834,92.2969,4698,92.2969,4698,56" style="stroke:#181818;stroke-width:0.5;"/><line style="stroke:#181818;stroke-width:0.5;" x1="4834" x2="4844" y1="56" y2="46"/><line style="stroke:#181818;stroke-width:0.5;" x1="4698" x2="4834" y1="56" y2="56"/><line style="stroke:#181818;stroke-width:0.5;" x1="4834" x2="4834" y1="56" y2="92.2969"/><text fill="#000000" font-family="sans-serif" font-size="14" lengthAdjust="spacing" textLength="106" x="4713" y="78.9951">Placeholder_12</text></g><!--entity Placeholder_26--><g id="elem_Placeholder_26"><polygon fill="#F1F1F1" points="4879,56,4889,46,5025,46,5025,82.2969,5015,92.2969,4879,92.2969,4879,56" style="stroke:#181818;stroke-width:0.5;"/><line style="stroke:#181818;stroke-width:0.5;" x1="5015" x2="5025" y1="56" y2="46"/><line style="stroke:#181818;stroke-width:0.5;" x1="4879" x2="5015" y1="56" y2="56"/><line style="stroke:#181818;stroke-width:0.5;" x1="5015" x2="5015" y1="56" y2="92.2969"/><text fill="#000000" font-family="sans-serif" font-size="14" lengthAdjust="spacing" textLength="106" x="4894" y="78.9951">Placeholder_26</text></g><!--entity Placeholder_58--><g id="elem_Placeholder_58"><polygon fill="#F1F1F1" points="5060,56,5070,46,5206,46,5206,82.2969,5196,92.2969,5060,92.2969,5060,56" style="stroke:#181818;stroke-width:0.5;"/><line style="stroke:#181818;stroke-width:0.5;" x1="5196" x2="5206" y1="56" y2="46"/><line style="stroke:#181818;stroke-width:0.5;" x1="5060" x2="5196" y1="56" y2="56"/><line style="stroke:#181818;stroke-width:0.5;" x1="5196" x2="5196" y1="56" y2="92.2969"/><text fill="#000000" font-family="sans-serif" font-size="14" lengthAdjust="spacing" textLength="106" x="5075" y="78.9951">Placeholder_58</text></g><!--entity Placeholder_45--><g id="elem_Placeholder_45"><polygon fill="#F1F1F1" points="5241,56,5251,46,5387,46,5387,82.2969,5377,92.2969,5241,92.2969,5241,56" style="stroke:#181818;stroke-width:0.5;"/><line style="stroke:#181818;stroke-width:0.5;" x1="5377" x2="5387" y1="56" y2="46"/><line style="stroke:#181818;stroke-width:0.5;" x1="5241" x2="5377" y1="56" y2="56"/><line style="stroke:#181818;stroke-width:0.5;" x1="5377" x2="5377" y1="56" y2="92.2969"/><text fill="#000000" font-family="sans-serif" font-size="14" lengthAdjust="spacing" textLength="106" x="5256" y="78.9951">Placeholder_45</text></g><!--entity Placeholder_29--><g id="elem_Placeholder_29"><polygon fill="#F1F1F1" points="5422,56,5432,46,5568,46,5568,82.2969,5558,92.2969,5422,92.2969,5422,56" style="stroke:#181818;stroke-width:0.5;"/><line style="stroke:#181818;stroke-width:0.5;" x1="5558" x2="5568" y1="56" y2="46"/><line style="stroke:#181818;stroke-width:0.5;" x1="5422" x2="5558" y1="56" y2="56"/><line style="stroke:#181818;stroke-width:0.5;" x1="5558" x2="5558" y1="56" y2="92.2969"/><text fill="#000000" font-family="sans-serif" font-size="14" lengthAdjust="spacing" textLength="106" x="5437" y="78.9951">Placeholder_29</text></g><!--entity Placeholder_84--><g id="elem_Placeholder_84"><polygon fill="#F1F1F1" points="5603,56,5613,46,5749,46,5749,82.2969,5739,92.2969,5603,92.2969,5603,56" style="stroke:#181818;stroke-width:0.5;"/><line style="stroke:#181818;stroke-width:0.5;" x1="5739" x2="5749" y1="56" y2="46"/><line style="stroke:#181818;stroke-width:0.5;" x1="5603" x2="5739" y1="56" y2="56"/><line style="stroke:#181818;stroke-width:0.5;" x1="5739" x2="5739" y1="56" y2="92.2969"/><text fill="#000000" font-family="sans-serif" font-size="14" lengthAdjust="spacing" textLength="106" x="5618" y="78.9951">Placeholder_84</text></g><!--entity Placeholder_40--><g id="elem_Placeholder_40"><polygon fill="#F1F1F1" points="5784,56,5794,46,5930,46,5930,82.2969,5920,92.2969,5784,92.2969,5784,56" style="stroke:#181818;stroke-width:0.5;"/><line style="stroke:#181818;stroke-width:0.5;" x1="5920" x2="5930" y1="56" y2="46"/><line style="stroke:#181818;stroke-width:0.5;" x1="5784" x2="5920" y1="56" y2="56"/><line style="stroke:#181818;stroke-width:0.5;" x1="5920" x2="5920" y1="56" y2="92.2969"/><text fill="#000000" font-family="sans-serif" font-size="14" lengthAdjust="spacing" textLength="106" x="5799" y="78.9951">Placeholder_40</text></g><!--entity Placeholder_87--><g id="elem_Placeholder_87"><polygon fill="#F1F1F1" points="5965,56,5975,46,6111,46,6111,82.2969,6101,92.2969,5965,92.2969,5965,56" style="stroke:#181818;stroke-width:0.5;"/><line style="stroke:#181818;stroke-width:0.5;" x1="6101" x2="6111" y1="56" y2="46"/><line style="stroke:#181818;stroke-width:0.5;" x1="5965" x2="6101" y1="56" y2="56"/><line style="stroke:#181818;stroke-width:0.5;" x1="6101" x2="6101" y1="56" y2="92.2969"/><text fill="#000000" font-family="sans-serif" font-size="14" lengthAdjust="spacing" textLength="106" x="5980" y="78.9951">Placeholder_87</text></g><!--entity Placeholder_63--><g id="elem_Placeholder_63"><polygon fill="#F1F1F1" points="6146,56,6156,46,6292,46,6292,82.2969,6282,92.2969,6146,92.2969,6146,56" style="stroke:#181818;stroke-width:0.5;"/><line style="stroke:#181818;stroke-width:0.5;" x1="6282" x2="6292" y1="56" y2="46"/><line style="stroke:#181818;stroke-width:0.5;" x1="6146" x2="6282" y1="56" y2="56"/><line style="stroke:#181818;stroke-width:0.5;" x1="6282" x2="6282" y1="56" y2="92.2969"/><text fill="#000000" font-family="sans-serif" font-size="14" lengthAdjust="spacing" textLength="106" x="6161" y="78.9951">Placeholder_63</text></g><!--entity Placeholder_23--><g id="elem_Placeholder_23"><polygon fill="#F1F1F1" points="6327,56,6337,46,6473,46,6473,82.2969,6463,92.2969,6327,92.2969,6327,56" style="stroke:#181818;stroke-width:0.5;"/><line style="stroke:#181818;stroke-width:0.5;" x1="6463" x2="6473" y1="56" y2="46"/><line style="stroke:#181818;stroke-width:0.5;" x1="6327" x2="6463" y1="56" y2="56"/><line style="stroke:#181818;stroke-width:0.5;" x1="6463" x2="6463" y1="56" y2="92.2969"/><text fill="#000000" font-family="sans-serif" font-size="14" lengthAdjust="spacing" textLength="106" x="6342" y="78.9951">Placeholder_23</text></g><!--entity Placeholder_38--><g id="elem_Placeholder_38"><polygon fill="#F1F1F1" points="6508,56,6518,46,6654,46,6654,82.2969,6644,92.2969,6508,92.2969,6508,56" style="stroke:#181818;stroke-width:0.5;"/><line style="stroke:#181818;stroke-width:0.5;" x1="6644" x2="6654" y1="56" y2="46"/><line style="stroke:#181818;stroke-width:0.5;" x1="6508" x2="6644" y1="56" y2="56"/><line style="stroke:#181818;stroke-width:0.5;" x1="6644" x2="6644" y1="56" y2="92.2969"/><text fill="#000000" font-family="sans-serif" font-size="14" lengthAdjust="spacing" textLength="106" x="6523" y="78.9951">Placeholder_38</text></g><!--entity Placeholder_10--><g id="elem_Placeholder_10"><polygon fill="#F1F1F1" points="6689,56,6699,46,6835,46,6835,82.2969,6825,92.2969,6689,92.2969,6689,56" style="stroke:#181818;stroke-width:0.5;"/><line style="stroke:#181818;stroke-width:0.5;" x1="6825" x2="6835" y1="56" y2="46"/><line style="stroke:#181818;stroke-width:0.5;" x1="6689" x2="6825" y1="56" y2="56"/><line style="stroke:#181818;stroke-width:0.5;" x1="6825" x2="6825" y1="56" y2="92.2969"/><text fill="#000000" font-family="sans-serif" font-size="14" lengthAdjust="spacing" textLength="106" x="6704" y="78.9951">Placeholder_10</text></g><!--entity Placeholder_1--><g id="elem_Placeholder_1"><polygon fill="#F1F1F1" points="6870.5,56,6880.5,46,7007.5,46,7007.5,82.2969,6997.5,92.2969,6870.5,92.2969,6870.5,56" style="stroke:#181818;stroke-width:0.5;"/><line style="stroke:#181818;stroke-width:0.5;" x1="6997.5" x2="7007.5" y1="56" y2="46"/><line style="stroke:#181818;stroke-width:0.5;" x1="6870.5" x2="6997.5" y1="56" y2="56"/><line style="stroke:#181818;stroke-width:0.5;" x1="6997.5" x2="6997.5" y1="56" y2="92.2969"/><text fill="#000000" font-family="sans-serif" font-size="14" lengthAdjust="spacing" textLength="97" x="6885.5" y="78.9951">Placeholder_1</text></g><!--entity Placeholder_3--><g id="elem_Placeholder_3"><polygon fill="#F1F1F1" points="7042.5,56,7052.5,46,7179.5,46,7179.5,82.2969,7169.5,92.2969,7042.5,92.2969,7042.5,56" style="stroke:#181818;stroke-width:0.5;"/><line style="stroke:#181818;stroke-width:0.5;" x1="7169.5" x2="7179.5" y1="56" y2="46"/><line style="stroke:#181818;stroke-width:0.5;" x1="7042.5" x2="7169.5" y1="56" y2="56"/><line style="stroke:#181818;stroke-width:0.5;" x1="7169.5" x2="7169.5" y1="56" y2="92.2969"/><text fill="#000000" font-family="sans-serif" font-size="14" lengthAdjust="spacing" textLength="97" x="7057.5" y="78.9951">Placeholder_3</text></g><!--entity Placeholder_86--><g id="elem_Placeholder_86"><polygon fill="#F1F1F1" points="7215,56,7225,46,7361,46,7361,82.2969,7351,92.2969,7215,92.2969,7215,56" style="stroke:#181818;stroke-width:0.5;"/><line style="stroke:#181818;stroke-width:0.5;" x1="7351" x2="7361" y1="56" y2="46"/><line style="stroke:#181818;stroke-width:0.5;" x1="7215" x2="7351" y1="56" y2="56"/><line style="stroke:#181818;stroke-width:0.5;" x1="7351" x2="7351" y1="56" y2="92.2969"/><text fill="#000000" font-family="sans-serif" font-size="14" lengthAdjust="spacing" textLength="106" x="7230" y="78.9951">Placeholder_86</text></g><!--entity Placeholder_9--><g id="elem_Placeholder_9"><polygon fill="#F1F1F1" points="7396.5,56,7406.5,46,7533.5,46,7533.5,82.2969,7523.5,92.2969,7396.5,92.2969,7396.5,56" style="stroke:#181818;stroke-width:0.5;"/><line style="stroke:#181818;stroke-width:0.5;" x1="7523.5" x2="7533.5" y1="56" y2="46"/><line style="stroke:#181818;stroke-width:0.5;" x1="7396.5" x2="7523.5" y1="56" y2="56"/><line style="stroke:#181818;stroke-width:0.5;" x1="7523.5" x2="7523.5" y1="56" y2="92.2969"/><text fill="#000000" font-family="sans-serif" font-size="14" lengthAdjust="spacing" textLength="97" x="7411.5" y="78.9951">Placeholder_9</text></g><!--entity Placeholder_28--><g id="elem_Placeholder_28"><polygon fill="#F1F1F1" points="7569,56,7579,46,7715,46,7715,82.2969,7705,92.2969,7569,92.2969,7569,56" style="stroke:#181818;stroke-width:0.5;"/><line style="stroke:#181818;stroke-width:0.5;" x1="7705" x2="7715" y1="56" y2="46"/><line style="stroke:#181818;stroke-width:0.5;" x1="7569" x2="7705" y1="56" y2="56"/><line style="stroke:#181818;stroke-width:0.5;" x1="7705" x2="7705" y1="56" y2="92.2969"/><text fill="#000000" font-family="sans-serif" font-size="14" lengthAdjust="spacing" textLength="106" x="7584" y="78.9951">Placeholder_28</text></g><!--entity Placeholder_76--><g id="elem_Placeholder_76"><polygon fill="#F1F1F1" points="7750,56,7760,46,7896,46,7896,82.2969,7886,92.2969,7750,92.2969,7750,56" style="stroke:#181818;stroke-width:0.5;"/><line style="stroke:#181818;stroke-width:0.5;" x1="7886" x2="7896" y1="56" y2="46"/><line style="stroke:#181818;stroke-width:0.5;" x1="7750" x2="7886" y1="56" y2="56"/><line style="stroke:#181818;stroke-width:0.5;" x1="7886" x2="7886" y1="56" y2="92.2969"/><text fill="#000000" font-family="sans-serif" font-size="14" lengthAdjust="spacing" textLength="106" x="7765" y="78.9951">Placeholder_76</text></g><!--entity Placeholder_41--><g id="elem_Placeholder_41"><polygon fill="#F1F1F1" points="7931,56,7941,46,8077,46,8077,82.2969,8067,92.2969,7931,92.2969,7931,56" style="stroke:#181818;stroke-width:0.5;"/><line style="stroke:#181818;stroke-width:0.5;" x1="8067" x2="8077" y1="56" y2="46"/><line style="stroke:#181818;stroke-width:0.5;" x1="7931" x2="8067" y1="56" y2="56"/><line style="stroke:#181818;stroke-width:0.5;" x1="8067" x2="8067" y1="56" y2="92.2969"/><text fill="#000000" font-family="sans-serif" font-size="14" lengthAdjust="spacing" textLength="106" x="7946" y="78.9951">Placeholder_41</text></g><!--entity Placeholder_88--><g id="elem_Placeholder_88"><polygon fill="#F1F1F1" points="8112,56,8122,46,8258,46,8258,82.2969,8248,92.2969,8112,92.2969,8112,56" style="stroke:#181818;stroke-width:0.5;"/><line style="stroke:#181818;stroke-width:0.5;" x1="8248" x2="8258" y1="56" y2="46"/><line style="stroke:#181818;stroke-width:0.5;" x1="8112" x2="8248" y1="56" y2="56"/><line style="stroke:#181818;stroke-width:0.5;" x1="8248" x2="8248" y1="56" y2="92.2969"/><text fill="#000000" font-family="sans-serif" font-size="14" lengthAdjust="spacing" textLength="106" x="8127" y="78.9951">Placeholder_88</text></g><!--entity Placeholder_34--><g id="elem_Placeholder_34"><polygon fill="#F1F1F1" points="8293,56,8303,46,8439,46,8439,82.2969,8429,92.2969,8293,92.2969,8293,56" style="stroke:#181818;stroke-width:0.5;"/><line style="stroke:#181818;stroke-width:0.5;" x1="8429" x2="8439" y1="56" y2="46"/><line style="stroke:#181818;stroke-width:0.5;" x1="8293" x2="8429" y1="56" y2="56"/><line style="stroke:#181818;stroke-width:0.5;" x1="8429" x2="8429" y1="56" y2="92.2969"/><text fill="#000000" font-family="sans-serif" font-size="14" lengthAdjust="spacing" textLength="106" x="8308" y="78.9951">Placeholder_34</text></g><!--link aName to aName--><g id="link_aName_aName"><path d="M8562.27,67.52 C8581.02,67.4 8597,67.9 8597,69 C8597,70.1 8581.02,70.6 8562.27,70.48 " fill="none" id="aName-aName" style="stroke:#181818;stroke-width:1.0;"/><text fill="#000000" font-family="sans-serif" font-size="13" lengthAdjust="spacing" textLength="455" x="8610" y="73.5669">org_openmrs_module_webservices_rest_web_api_RestService_Provider</text><path d="M8555.1538,60.4943 A10,10 0 0 0 8555.2443 74.6362" fill="none" style="stroke:#181818;stroke-width:1.5;"/><ellipse cx="8562.27" cy="67.52" fill="#FFFFFF" rx="6" ry="6" style="stroke:#181818;stroke-width:1.5;"/></g><!--link aName to aName--><g id="link_aName_aName"><path d="M8562.23,67.51 C8696.86,65.08 9078,65.58 9078,69 C9078,72.42 8696.86,72.92 8562.23,70.49 " fill="none" id="aName-aName-1" style="stroke:#181818;stroke-width:1.0;"/><text fill="#000000" font-family="sans-serif" font-size="13" lengthAdjust="spacing" textLength="455" x="9091" y="73.5669">org_openmrs_module_webservices_rest_web_api_RestService_Provider</text><path d="M8555.0325,60.5677 A10,10 0 0 0 8555.2877 74.7075" fill="none" style="stroke:#181818;stroke-width:1.5;"/><ellipse cx="8562.23" cy="67.51" fill="#FFFFFF" rx="6" ry="6" style="stroke:#181818;stroke-width:1.5;"/></g><!--link aName to aName--><g id="link_aName_aName"><path d="M8562.21,67.32 C8764.02,63.07 9559,63.63 9559,69 C9559,74.37 8764.02,74.93 8562.21,70.68 " fill="none" id="aName-aName-2" style="stroke:#181818;stroke-width:1.0;"/><text fill="#000000" font-family="sans-serif" font-size="13" lengthAdjust="spacing" textLength="455" x="9572" y="73.5669">org_openmrs_module_webservices_rest_web_api_RestService_Provider</text><path d="M8554.9916,60.3994 A10,10 0 0 0 8555.2894 74.5384" fill="none" style="stroke:#181818;stroke-width:1.5;"/><ellipse cx="8562.21" cy="67.32" fill="#FFFFFF" rx="6" ry="6" style="stroke:#181818;stroke-width:1.5;"/></g><!--link aName to aName--><g id="link_aName_aName"><path d="M8562.18,67.13 C8816.99,61.06 10040,61.68 10040,69 C10040,76.32 8816.99,76.94 8562.18,70.87 " fill="none" id="aName-aName-3" style="stroke:#181818;stroke-width:1.0;"/><text fill="#000000" font-family="sans-serif" font-size="13" lengthAdjust="spacing" textLength="455" x="10053" y="73.5669">org_openmrs_module_webservices_rest_web_api_RestService_Provider</text><path d="M8554.9425,60.2293 A10,10 0 0 0 8555.2793 74.3675" fill="none" style="stroke:#181818;stroke-width:1.5;"/><ellipse cx="8562.18" cy="67.13" fill="#FFFFFF" rx="6" ry="6" style="stroke:#181818;stroke-width:1.5;"/></g><!--link aName to aName--><g id="link_aName_aName"><path d="M8562.44,66.96 C8863.36,59.05 10521,59.73 10521,69 C10521,78.27 8863.36,78.95 8562.44,71.04 " fill="none" id="aName-aName-4" style="stroke:#181818;stroke-width:1.0;"/><text fill="#000000" font-family="sans-serif" font-size="13" lengthAdjust="spacing" textLength="455" x="10534" y="73.5669">org_openmrs_module_webservices_rest_web_api_RestService_Provider</text><path d="M8555.1856,60.0772 A10,10 0 0 0 8555.5572 74.2144" fill="none" style="stroke:#181818;stroke-width:1.5;"/><ellipse cx="8562.44" cy="66.96" fill="#FFFFFF" rx="6" ry="6" style="stroke:#181818;stroke-width:1.5;"/></g><!--link aName to aName--><g id="link_aName_aName"><path d="M8562.22,66.82 C8903.08,57.05 11002,57.78 11002,69 C11002,80.22 8903.08,80.95 8562.22,71.18 " fill="none" id="aName-aName-5" style="stroke:#181818;stroke-width:1.0;"/><text fill="#000000" font-family="sans-serif" font-size="13" lengthAdjust="spacing" textLength="455" x="11015" y="73.5669">org_openmrs_module_webservices_rest_web_api_RestService_Provider</text><path d="M8554.9492,59.9544 A10,10 0 0 0 8555.3544 74.0908" fill="none" style="stroke:#181818;stroke-width:1.5;"/><ellipse cx="8562.22" cy="66.82" fill="#FFFFFF" rx="6" ry="6" style="stroke:#181818;stroke-width:1.5;"/></g><!--link aName to aName--><g id="link_aName_aName"><path d="M8562.06,66.69 C8939.34,55.05 11483,55.82 11483,69 C11483,82.18 8939.34,82.95 8562.06,71.31 " fill="none" id="aName-aName-6" style="stroke:#181818;stroke-width:1.0;"/><text fill="#000000" font-family="sans-serif" font-size="13" lengthAdjust="spacing" textLength="455" x="11496" y="73.5669">org_openmrs_module_webservices_rest_web_api_RestService_Provider</text><path d="M8554.7742,59.8404 A10,10 0 0 0 8555.2104 73.9758" fill="none" style="stroke:#181818;stroke-width:1.5;"/><ellipse cx="8562.06" cy="66.69" fill="#FFFFFF" rx="6" ry="6" style="stroke:#181818;stroke-width:1.5;"/></g><!--link aName to aName--><g id="link_aName_aName"><path d="M8562.02,66.57 C8973.4,53.05 11964,53.86 11964,69 C11964,84.14 8973.4,84.95 8562.02,71.43 " fill="none" id="aName-aName-7" style="stroke:#181818;stroke-width:1.0;"/><text fill="#000000" font-family="sans-serif" font-size="13" lengthAdjust="spacing" textLength="455" x="11977" y="73.5669">org_openmrs_module_webservices_rest_web_api_RestService_Provider</text><path d="M8554.7205,59.735 A10,10 0 0 0 8555.185 73.8695" fill="none" style="stroke:#181818;stroke-width:1.5;"/><ellipse cx="8562.02" cy="66.57" fill="#FFFFFF" rx="6" ry="6" style="stroke:#181818;stroke-width:1.5;"/></g><!--link aName to aName--><g id="link_aName_aName"><path d="M8562.05,66.46 C9005.7,51.04 12445,51.89 12445,69 C12445,86.11 9005.7,86.96 8562.05,71.54 " fill="none" id="aName-aName-8" style="stroke:#181818;stroke-width:1.0;"/><text fill="#000000" font-family="sans-serif" font-size="13" lengthAdjust="spacing" textLength="455" x="12458" y="73.5669">org_openmrs_module_webservices_rest_web_api_RestService_Provider</text><path d="M8554.7376,59.6388 A10,10 0 0 0 8555.2288 73.7724" fill="none" style="stroke:#181818;stroke-width:1.5;"/><ellipse cx="8562.05" cy="66.46" fill="#FFFFFF" rx="6" ry="6" style="stroke:#181818;stroke-width:1.5;"/></g><!--link aName to aName--><g id="link_aName_aName"><path d="M8562.19,66.35 C9036.89,49.04 12926,49.93 12926,69 C12926,88.07 9036.89,88.96 8562.19,71.65 " fill="none" id="aName-aName-9" style="stroke:#181818;stroke-width:1.0;"/><text fill="#000000" font-family="sans-serif" font-size="13" lengthAdjust="spacing" textLength="455" x="12939" y="73.5669">org_openmrs_module_webservices_rest_web_api_RestService_Provider</text><path d="M8554.866,59.5413 A10,10 0 0 0 8555.3813 73.674" fill="none" style="stroke:#181818;stroke-width:1.5;"/><ellipse cx="8562.19" cy="66.35" fill="#FFFFFF" rx="6" ry="6" style="stroke:#181818;stroke-width:1.5;"/></g><!--link aName to aName--><g id="link_aName_aName"><path d="M8562.34,66.24 C9066.75,47.04 13407,47.96 13407,69 C13407,90.04 9066.75,90.96 8562.34,71.76 " fill="none" id="aName-aName-10" style="stroke:#181818;stroke-width:1.0;"/><text fill="#000000" font-family="sans-serif" font-size="13" lengthAdjust="spacing" textLength="546" x="13420" y="73.5669">org_openmrs_module_webservices_rest_web_v1_0_controller_BaseUriSetup_Provider</text><path d="M8555.0051,59.443 A10,10 0 0 0 8555.543 73.5749" fill="none" style="stroke:#181818;stroke-width:1.5;"/><ellipse cx="8562.34" cy="66.24" fill="#FFFFFF" rx="6" ry="6" style="stroke:#181818;stroke-width:1.5;"/></g><!--link aName to aName--><g id="link_aName_aName"><path d="M8562.31,66.17 C9099.03,45.04 13979,45.98 13979,69 C13979,92.02 9099.03,92.96 8562.31,71.83 " fill="none" id="aName-aName-11" style="stroke:#181818;stroke-width:1.0;"/><text fill="#000000" font-family="sans-serif" font-size="13" lengthAdjust="spacing" textLength="546" x="13992" y="73.5669">org_openmrs_module_webservices_rest_web_v1_0_controller_BaseUriSetup_Provider</text><path d="M8554.9662,59.3826 A10,10 0 0 0 8555.5226 73.5138" fill="none" style="stroke:#181818;stroke-width:1.5;"/><ellipse cx="8562.31" cy="66.17" fill="#FFFFFF" rx="6" ry="6" style="stroke:#181818;stroke-width:1.5;"/></g><!--link aName to aName--><g id="link_aName_aName"><path d="M8562.03,66.11 C9128.21,43.04 14551,44 14551,69 C14551,94 9128.21,94.96 8562.03,71.89 " fill="none" id="aName-aName-12" style="stroke:#181818;stroke-width:1.0;"/><text fill="#000000" font-family="sans-serif" font-size="13" lengthAdjust="spacing" textLength="609" x="14564" y="73.5669">org_openmrs_module_webservices_rest_web_v1_0_controller_MainResourceController_Provider</text><path d="M8554.6769,59.3327 A10,10 0 0 0 8555.2527 73.4631" fill="none" style="stroke:#181818;stroke-width:1.5;"/><ellipse cx="8562.03" cy="66.11" fill="#FFFFFF" rx="6" ry="6" style="stroke:#181818;stroke-width:1.5;"/></g><!--link aName to aName--><g id="link_aName_aName"><path d="M8562.32,66.04 C9162.64,41.04 15186,42.03 15186,69 C15186,95.97 9162.64,96.96 8562.32,71.96 " fill="none" id="aName-aName-13" style="stroke:#181818;stroke-width:1.0;"/><text fill="#000000" font-family="sans-serif" font-size="13" lengthAdjust="spacing" textLength="617" x="15199" y="73.5669">org_openmrs_module_webservices_rest_web_v1_0_controller_openmrs1_8_ObsService_Provider</text><path d="M8554.9608,59.2693 A10,10 0 0 0 8555.5493 73.3992" fill="none" style="stroke:#181818;stroke-width:1.5;"/><ellipse cx="8562.32" cy="66.04" fill="#FFFFFF" rx="6" ry="6" style="stroke:#181818;stroke-width:1.5;"/></g><!--link aName to aName--><g id="link_aName_aName"><path d="M8562.13,65.99 C9192.87,39.04 15829,40.04 15829,69 C15829,97.96 9192.87,98.96 8562.13,72.01 " fill="none" id="aName-aName-14" style="stroke:#181818;stroke-width:1.0;"/><text fill="#000000" font-family="sans-serif" font-size="13" lengthAdjust="spacing" textLength="622" x="15842" y="73.5669">org_openmrs_module_webservices_rest_web_v1_0_controller_openmrs1_8_UserService_Provider</text><path d="M8554.7635,59.2272 A10,10 0 0 0 8555.3672 73.3565" fill="none" style="stroke:#181818;stroke-width:1.5;"/><ellipse cx="8562.13" cy="65.99" fill="#FFFFFF" rx="6" ry="6" style="stroke:#181818;stroke-width:1.5;"/></g><!--link aName to aName--><g id="link_aName_aName"><path d="M8562.49,65.92 C9225.94,37.04 16477,38.06 16477,69 C16477,99.94 9225.94,100.96 8562.49,72.08 " fill="none" id="aName-aName-15" style="stroke:#181818;stroke-width:1.0;"/><text fill="#000000" font-family="sans-serif" font-size="13" lengthAdjust="spacing" textLength="745" x="16490" y="73.5669">org_openmrs_module_webservices_rest_web_v1_0_controller_openmrs1_9_ClobDatatypeStorageController_Provider</text><path d="M8555.1181,59.1631 A10,10 0 0 0 8555.7331 73.2919" fill="none" style="stroke:#181818;stroke-width:1.5;"/><ellipse cx="8562.49" cy="65.92" fill="#FFFFFF" rx="6" ry="6" style="stroke:#181818;stroke-width:1.5;"/></g><!--link aName to aName--><g id="link_aName_aName"><path d="M8562.05,65.9 C9257.01,35.03 17248,36.07 17248,69 C17248,101.93 9257.01,102.97 8562.05,72.1 " fill="none" id="aName-aName-16" style="stroke:#181818;stroke-width:1.0;"/><text fill="#000000" font-family="sans-serif" font-size="13" lengthAdjust="spacing" textLength="651" x="17261" y="73.5669">org_openmrs_module_webservices_rest_web_v1_0_controller_openmrs1_9_DatatypeService_Provider</text><path d="M8554.6721,59.1497 A10,10 0 0 0 8555.2997 73.2779" fill="none" style="stroke:#181818;stroke-width:1.5;"/><ellipse cx="8562.05" cy="65.9" fill="#FFFFFF" rx="6" ry="6" style="stroke:#181818;stroke-width:1.5;"/></g><!--link aName to aName--><g id="link_aName_aName"><path d="M8562.26,65.84 C9288.04,33.03 17925,34.09 17925,69 C17925,103.91 9288.04,104.97 8562.26,72.16 " fill="none" id="aName-aName-17" style="stroke:#181818;stroke-width:1.0;"/><text fill="#000000" font-family="sans-serif" font-size="13" lengthAdjust="spacing" textLength="625" x="17938" y="73.5669">org_openmrs_module_webservices_rest_web_v1_0_controller_openmrs1_9_FormService_Provider</text><path d="M8554.8768,59.0955 A10,10 0 0 0 8555.5155 73.2232" fill="none" style="stroke:#181818;stroke-width:1.5;"/><ellipse cx="8562.26" cy="65.84" fill="#FFFFFF" rx="6" ry="6" style="stroke:#181818;stroke-width:1.5;"/></g><!--link aName to aName--><g id="link_aName_aName"><path d="M8562.11,65.8 C9314.41,31.03 18576,32.1 18576,69 C18576,105.9 9314.41,106.97 8562.11,72.2 " fill="none" id="aName-aName-18" style="stroke:#181818;stroke-width:1.0;"/><text fill="#000000" font-family="sans-serif" font-size="13" lengthAdjust="spacing" textLength="622" x="18589" y="73.5669">org_openmrs_module_webservices_rest_web_v1_0_controller_openmrs2_2_UserService_Provider</text><path d="M8554.72,59.0629 A10,10 0 0 0 8555.3729 73.19" fill="none" style="stroke:#181818;stroke-width:1.5;"/><ellipse cx="8562.11" cy="65.8" fill="#FFFFFF" rx="6" ry="6" style="stroke:#181818;stroke-width:1.5;"/></g><!--SRC=[xPPFJy904CNlV8ecNhpKq3-Kub644mWHE14osPOHDswxpMvR9CRlRecW97gKbvXmQdRRlbyxC_jcx8lC2s54vZp9rxuqgUAHI5XDQZPA58NCDqvfAcxbUitEL8cKdxLQiw6Wuxorbk91PBnobajTS9uPwnwlcLvNYjqj9vPDBLEshc5RtjYTBJcx8kiFQ3YA5mEEmd6Op-TkNGNRrQhr_XCLHZ1KW4FvNHZAm-NAYt5bqOEXuW26mgKgzd6rZaDrSGM8yufE6uV2fQhZuRm2PxO1C80XBe2uOnNWVDq71X27Yd1kWQlr4DU2VPmlUS0U36nNm24GDo_vm7aJw4iuiuXnJJW2kWKE5U3EbOSh2vpRuZ8LuymME2tXog-BYr-8gxyOE4IVhOCSHTthjkiS5xUEDXiwgDEdEfseqrvzlq6YaFJOB6QVTsXgT2sRBxxeNdGlkd-lMtlKfbJdfT5ADSPm9omlZ9nnMHN_6p8MCcyYfYkJSlzx-roumpiUnJH9xBdJT49RD4_3S3tgAvtSYrAKku9dfJPY0urkZxxWk7yUQfE1S3xvlsVq0m00]--></g></svg>